<?xml version="1.0" encoding="utf-8"?>
<!-- Generator: Adobe Illustrator 17.0.0, SVG Export Plug-In . SVG Version: 6.00 Build 0)  -->
<!DOCTYPE svg PUBLIC "-//W3C//DTD SVG 1.1//EN" "http://www.w3.org/Graphics/SVG/1.1/DTD/svg11.dtd">
<svg version="1.1" id="Capa_1" xmlns="http://www.w3.org/2000/svg" xmlns:xlink="http://www.w3.org/1999/xlink" x="0px" y="0px"
	 width="363px" height="164px" viewBox="0 0 363 164" enable-background="new 0 0 363 164" xml:space="preserve">
<path fill="#FFFFFF" d="M129.345,54.472c11.98,0,17.999,9.284,17.999,18.556c0,9.277-6.02,18.48-17.999,18.48h-12.21v18.473h-8.088
	v-55.51H129.345z M129.345,83.573c6.74,0,10.068-5.233,10.068-10.461c0-5.316-3.328-10.549-10.068-10.549h-12.21v21.01H129.345z"/>
<path fill="#FFFFFF" d="M345.826,68.512c-1.109-5.006-6.501-7.145-11.333-7.059c-3.733,0.078-7.853,1.346-10.078,4.2
	c-1.106,1.421-1.504,3.253-1.343,5.15c0.396,5.714,6.659,6.427,12.608,6.977c7.612,0.948,17.047,2.938,19.189,11.821
	c0.237,1.194,0.396,2.537,0.396,3.641c0,10.708-10.625,16.893-20.62,16.893c-8.564,0-18.952-5.074-19.985-14.986l-0.076-1.509
	l8.092-0.161l0.078,1.194v-0.315c0.554,5.15,6.815,7.848,11.968,7.848c5.948,0,12.451-3.333,12.451-9.042
	c0-0.554-0.073-1.184-0.235-1.905c-0.952-4.198-6.664-4.911-12.217-5.47c-8.642-0.865-18.793-2.772-19.663-14.349v0.081
	c-0.324-3.726,0.633-7.455,3.018-10.547c3.717-4.84,10.386-7.379,16.808-7.379c8.564,0,17.447,4.447,18.871,14.598L345.826,68.512z"
	/>
<polygon fill="#FFFFFF" points="158.763,102.011 184.532,102.011 184.532,110.02 150.675,110.02 150.675,54.589 184.454,54.589 
	184.454,62.603 158.763,62.603 158.763,78.224 183.9,78.224 183.9,86.312 158.763,86.312 "/>
<path fill="#FFFFFF" d="M199.04,81.912h9.362c6.742,0,10.07-4.84,10.07-9.68c0-4.757-3.328-9.592-10.07-9.592h-12.293v47.417h-7.929
	V54.55h20.222c12.056,0,18.085,8.886,18.085,17.682c0,7.853-4.845,15.306-14.358,16.971l17.528,20.854h-10.395L199.04,85.712V81.912
	z"/>
<polygon fill="#FFFFFF" points="243.736,109.9 243.736,62.563 227.039,62.563 227.039,54.525 268.309,54.525 268.309,62.563 
	251.695,62.563 251.695,109.9 "/>
<polygon fill="#FFFFFF" points="279.478,54.669 294.623,79.015 309.763,54.669 319.282,54.669 298.672,87.5 298.672,110.098 
	290.582,110.098 290.582,87.5 270.043,54.669 "/>
<polygon fill="#FFFFFF" points="42.188,12.033 6.829,12.052 81.781,104.972 99.072,82.467 "/>
<polygon fill="#FFFFFF" points="42.133,59.175 23.356,83.166 43.945,109.355 85.833,162.536 124.703,162.56 "/>
<polygon fill="#FFFFFF" points="125.29,2.744 86.555,2.733 62.237,33.567 82.655,58.647 "/>
<polygon fill="#FFFFFF" points="9.286,151.084 44.589,151.103 59.485,132.18 41.708,110.385 "/>
</svg>
