<?xml version="1.0" encoding="utf-8"?>
<!-- Generator: Adobe Illustrator 17.0.0, SVG Export Plug-In . SVG Version: 6.00 Build 0)  -->
<!DOCTYPE svg PUBLIC "-//W3C//DTD SVG 1.1//EN" "http://www.w3.org/Graphics/SVG/1.1/DTD/svg11.dtd">
<svg version="1.1" id="Capa_1" xmlns="http://www.w3.org/2000/svg" xmlns:xlink="http://www.w3.org/1999/xlink" x="0px" y="0px"
	 width="543px" height="179px" viewBox="0 0 543 179" enable-background="new 0 0 543 179" xml:space="preserve">
<rect y="0.115" fill="#F48034" width="543" height="2.385"/>
<g id="Capa_x0020_1">
	<g id="_877966368832">
		<g>
			<path fill="#0098DA" d="M270.453,119.324h3.47c-1.274-0.008-2.315-1.054-2.315-2.332v-11.54c0-1.282,1.049-2.328,2.332-2.328
				h13.859c1.282,0,2.332,1.05,2.332,2.328v11.54c0,1.278-1.041,2.323-2.315,2.332h3.466c0.639,0,1.164,0.521,1.164,1.16l0,0
				c0,0.639-0.525,1.16-1.164,1.16h-20.829c-0.639,0-1.16-0.521-1.16-1.16l0,0C269.293,119.845,269.814,119.324,270.453,119.324z
				 M273.923,105.439h13.893v11.574h-13.893C273.923,113.154,273.927,109.295,273.923,105.439z"/>
			<path fill="#0098DA" d="M226.365,74.843h3.466c-1.274-0.008-2.315-1.054-2.315-2.328v-11.54c0-1.282,1.049-2.332,2.332-2.332
				h13.859c1.282,0,2.332,1.05,2.332,2.332v11.54c0,1.274-1.041,2.319-2.315,2.328h3.47c0.639,0,1.16,0.525,1.16,1.164l0,0
				c0,0.639-0.521,1.16-1.16,1.16h-20.829c-0.639,0-1.164-0.521-1.164-1.16l0,0C225.201,75.368,225.726,74.843,226.365,74.843z
				 M229.831,60.958h13.893v11.574h-13.893C229.831,68.673,229.835,64.813,229.831,60.958z"/>
			<g>
				<path fill="#0098DA" d="M270.436,31.2h3.466c-1.274-0.008-2.315-1.054-2.315-2.332v-11.54c0-1.282,1.049-2.328,2.332-2.328
					h13.859c1.282,0,2.332,1.05,2.332,2.328v11.54c0,1.278-1.041,2.323-2.315,2.332h3.47c0.639,0,1.16,0.525,1.16,1.16l0,0
					c0,0.639-0.521,1.164-1.16,1.164h-20.829c-0.639,0-1.164-0.525-1.164-1.164l0,0C269.272,31.724,269.797,31.2,270.436,31.2z
					 M273.902,17.315h13.893v11.574h-13.893C273.902,25.03,273.906,21.17,273.902,17.315z"/>
				<path fill="#0098DA" d="M284.591,53.438h11.189v29.767c-9.97,0-19.852,0-29.822,0V53.442h11.189v3.699h7.444V53.438z
					 M290.232,60.857c1.016,0,1.837,0.838,1.837,1.875s-0.821,1.879-1.837,1.879c-1.011,0-1.837-0.842-1.837-1.879
					C288.396,61.695,289.221,60.857,290.232,60.857z M290.232,75.799c1.016,0,1.837,0.838,1.837,1.875s-0.821,1.879-1.837,1.879
					c-1.011,0-1.837-0.842-1.837-1.879C288.396,76.637,289.221,75.799,290.232,75.799z M290.232,68.309
					c1.016,0,1.837,0.842,1.837,1.879s-0.821,1.875-1.837,1.875c-1.011,0-1.837-0.838-1.837-1.875S289.221,68.309,290.232,68.309z
					 M277.147,60.861v3.749h7.444v-3.749H277.147z M277.147,68.33v3.686h7.444V68.33H277.147z M277.147,75.74v3.779h7.444V75.74
					H277.147z"/>
				<rect x="279.712" y="35.838" fill="#0098DA" width="2.315" height="15.29"/>
				<rect x="279.839" y="85.52" fill="#0098DA" width="2.315" height="15.29"/>
				<rect x="248.355" y="65.572" fill="#0098DA" width="15.288" height="2.315"/>
				<path fill="#0098DA" d="M335.374,75.287h-3.466c1.274-0.008,2.315-1.058,2.315-2.332v-11.54c0-1.282-1.054-2.328-2.336-2.328
					h-13.855c-1.282,0-2.332,1.045-2.332,2.328v11.54c0,1.274,1.037,2.323,2.315,2.332h-3.47c-0.639,0-1.16,0.521-1.16,1.16l0,0
					c0,0.639,0.521,1.16,1.16,1.16h20.829c0.639,0,1.164-0.521,1.164-1.16l0,0C336.538,75.808,336.013,75.287,335.374,75.287z
					 M331.908,61.403h-13.893v11.57h13.893C331.904,69.117,331.899,65.258,331.908,61.403z"/>
				<rect x="298.096" y="66.014" fill="#0098DA" width="15.288" height="2.315"/>
			</g>
		</g>
		<path fill="#00A859" d="M433.456,29.951h61.523c2.057,0,3.737,1.68,3.737,3.733V46.82h30.245c1.083,0,1.968,0.884,1.968,1.968
			v15.277h7.393c2.509,0,4.558,2.052,4.558,4.562v27.372c0,2.51-2.048,4.562-4.558,4.562h-18.248c-2.51,0-4.566-2.052-4.566-4.562
			V91.75h-47.037c-1.079,0-1.968-0.884-1.968-1.964v-3.737h-40.728c-2.052,0-3.737-1.68-3.737-3.737h8.129h3.288
			c-2.052,0-3.737-1.68-3.737-3.737V33.684C429.719,31.631,431.404,29.951,433.456,29.951z M530.929,68.626h-7.406h-3.449v25.091
			h18.244V68.626H530.929z M523.523,64.064V52.156h-24.807h-4.922h-19.886v26.42v7.474v2.565h41.599V68.626
			c0-2.51,2.057-4.562,4.566-4.562H523.523z M524.632,95.985h9.124v2.281h-9.124V95.985z M491.437,46.819v-8.531
			c0-1.76-1.443-3.199-3.204-3.199h-47.985c-1.756,0-3.204,1.443-3.204,3.199V73.37c0,1.76,1.443,3.204,3.204,3.204h26.255V48.787
			c0-1.083,0.889-1.968,1.968-1.968H491.437z"/>
		<path fill="#FCB852" d="M101.203,20.506V32H78.076V20.51h-34.74v92.424c30.969,0,61.642,0,92.61,0V20.506H101.203z
			 M101.203,101.487H78.076V89.752h23.127C101.203,89.752,101.203,101.487,101.203,101.487z M101.203,78.195H78.076V66.747h23.127
			C101.203,66.747,101.203,78.195,101.203,78.195z M101.203,55.19H78.076V43.552h23.127C101.203,43.552,101.203,55.19,101.203,55.19
			z M118.719,101.593c-3.153,0-5.705-2.611-5.705-5.832s2.552-5.827,5.705-5.827c3.148,0,5.7,2.607,5.7,5.827
			S121.867,101.593,118.719,101.593z M118.719,78.339c-3.153,0-5.705-2.611-5.705-5.831c0-3.216,2.552-5.827,5.705-5.827
			c3.148,0,5.7,2.611,5.7,5.827C124.419,75.727,121.867,78.339,118.719,78.339z M118.719,55.19c-3.153,0-5.705-2.607-5.705-5.827
			s2.552-5.832,5.705-5.832c3.148,0,5.7,2.611,5.7,5.832S121.867,55.19,118.719,55.19z"/>
	</g>
	<path fill="#373435" d="M68.063,159.732v-10.393h1.375v9.175h5.112v1.219L68.063,159.732L68.063,159.732z M81.173,157.295
		l1.32,0.174c-0.207,0.766-0.592,1.367-1.151,1.786c-0.563,0.427-1.278,0.639-2.154,0.639c-1.096,0-1.968-0.339-2.611-1.016
		s-0.965-1.625-0.965-2.848c0-1.261,0.326-2.247,0.973-2.941c0.652-0.702,1.494-1.05,2.535-1.05c1.003,0,1.824,0.343,2.459,1.028
		c0.639,0.681,0.956,1.646,0.956,2.886c0,0.076-0.004,0.19-0.008,0.339H76.92c0.047,0.825,0.279,1.46,0.698,1.9
		c0.419,0.436,0.944,0.656,1.57,0.656c0.47,0,0.868-0.123,1.198-0.372C80.716,158.23,80.979,157.836,81.173,157.295z
		 M76.992,155.246h4.194c-0.055-0.631-0.216-1.109-0.482-1.426c-0.402-0.491-0.931-0.736-1.574-0.736
		c-0.588,0-1.079,0.195-1.477,0.588C77.255,154.066,77.035,154.591,76.992,155.246z M83.873,160.359l1.231,0.173
		c0.051,0.381,0.199,0.66,0.436,0.838c0.313,0.233,0.749,0.351,1.299,0.351c0.588,0,1.045-0.118,1.367-0.351
		c0.322-0.237,0.542-0.567,0.652-0.99c0.068-0.258,0.097-0.804,0.093-1.633c-0.559,0.656-1.253,0.986-2.082,0.986
		c-1.037,0-1.841-0.372-2.408-1.121c-0.567-0.745-0.851-1.638-0.851-2.683c0-0.715,0.131-1.38,0.389-1.985
		c0.258-0.609,0.635-1.075,1.13-1.409c0.491-0.33,1.075-0.495,1.744-0.495c0.884,0,1.621,0.364,2.196,1.088V152.2h1.176v6.504
		c0,1.172-0.123,2.006-0.36,2.493c-0.237,0.491-0.618,0.876-1.134,1.16s-1.151,0.423-1.909,0.423c-0.897,0-1.621-0.199-2.171-0.601
		C84.119,161.776,83.852,161.167,83.873,160.359z M84.919,155.839c0,0.986,0.195,1.701,0.588,2.154
		c0.394,0.453,0.884,0.681,1.473,0.681c0.588,0,1.079-0.224,1.481-0.677c0.394-0.449,0.592-1.155,0.592-2.12
		c0-0.918-0.203-1.612-0.614-2.078c-0.406-0.47-0.901-0.698-1.477-0.698c-0.571,0-1.049,0.229-1.452,0.69
		C85.117,154.248,84.919,154.929,84.919,155.839z M97.102,158.789c-0.474,0.406-0.931,0.69-1.371,0.855
		c-0.436,0.169-0.906,0.25-1.409,0.25c-0.829,0-1.464-0.203-1.909-0.605c-0.444-0.402-0.669-0.918-0.669-1.545
		c0-0.368,0.085-0.702,0.254-1.007c0.169-0.305,0.389-0.546,0.66-0.732c0.271-0.182,0.576-0.326,0.918-0.419
		c0.25-0.063,0.631-0.127,1.138-0.19c1.028-0.118,1.79-0.267,2.277-0.436c0.004-0.178,0.008-0.288,0.008-0.334
		c0-0.516-0.123-0.88-0.364-1.096c-0.326-0.288-0.813-0.427-1.456-0.427c-0.605,0-1.049,0.106-1.333,0.313
		c-0.288,0.212-0.499,0.584-0.635,1.121l-1.248-0.174c0.11-0.533,0.296-0.969,0.559-1.295c0.262-0.33,0.639-0.584,1.134-0.762
		c0.491-0.178,1.062-0.267,1.714-0.267c0.643,0,1.168,0.076,1.57,0.229c0.402,0.152,0.698,0.343,0.889,0.571
		c0.19,0.229,0.322,0.521,0.398,0.872c0.042,0.216,0.063,0.609,0.063,1.172v1.693c0,1.185,0.025,1.93,0.08,2.247
		c0.051,0.317,0.157,0.622,0.313,0.91h-1.337C97.221,159.466,97.14,159.148,97.102,158.789z M97.001,155.957
		c-0.466,0.19-1.164,0.351-2.091,0.482c-0.529,0.072-0.901,0.157-1.117,0.254c-0.22,0.093-0.385,0.233-0.504,0.41
		c-0.118,0.182-0.182,0.381-0.182,0.605c0,0.334,0.131,0.618,0.389,0.842s0.635,0.339,1.13,0.339c0.491,0,0.931-0.106,1.316-0.322
		c0.381-0.212,0.664-0.504,0.842-0.876c0.14-0.288,0.207-0.711,0.207-1.27L97.001,155.957z M105.177,156.977l1.248,0.173
		c-0.14,0.859-0.487,1.528-1.049,2.014c-0.567,0.487-1.261,0.728-2.078,0.728c-1.028,0-1.858-0.339-2.484-1.007
		c-0.626-0.673-0.935-1.638-0.935-2.89c0-0.813,0.135-1.523,0.402-2.133c0.271-0.605,0.677-1.062,1.231-1.367
		c0.546-0.305,1.147-0.457,1.794-0.457c0.813,0,1.485,0.207,2.002,0.622c0.521,0.41,0.855,0.999,0.999,1.76l-1.231,0.186
		c-0.118-0.504-0.33-0.884-0.631-1.143c-0.3-0.254-0.664-0.381-1.088-0.381c-0.643,0-1.168,0.229-1.57,0.69
		s-0.605,1.189-0.605,2.184c0,1.011,0.195,1.748,0.58,2.205c0.394,0.457,0.897,0.686,1.519,0.686c0.504,0,0.923-0.152,1.257-0.461
		C104.872,158.082,105.083,157.612,105.177,156.977z M107.453,162.627l-0.144-1.181c0.279,0.076,0.521,0.114,0.728,0.114
		c0.288,0,0.516-0.047,0.686-0.14c0.169-0.097,0.313-0.229,0.419-0.398c0.08-0.127,0.212-0.444,0.389-0.952
		c0.025-0.072,0.063-0.178,0.114-0.313l-2.861-7.558h1.367l1.574,4.35c0.203,0.55,0.385,1.13,0.546,1.739
		c0.148-0.576,0.322-1.138,0.525-1.697l1.608-4.393h1.274l-2.848,7.664c-0.305,0.825-0.546,1.392-0.715,1.701
		c-0.229,0.419-0.491,0.728-0.783,0.923c-0.296,0.199-0.647,0.292-1.054,0.292C108.033,162.779,107.758,162.728,107.453,162.627z
		 M2.63,179c-0.698-0.889-1.295-1.926-1.782-3.119c-0.487-1.189-0.728-2.425-0.728-3.699c0-1.126,0.182-2.201,0.546-3.229
		c0.423-1.193,1.079-2.387,1.964-3.572h0.918c-0.571,0.982-0.952,1.684-1.138,2.103c-0.288,0.652-0.512,1.333-0.677,2.04
		c-0.203,0.884-0.305,1.773-0.305,2.666c0,2.273,0.707,4.541,2.12,6.809H2.63V179z M5.156,175.949v-10.393h2.061l2.459,7.359
		c0.229,0.686,0.394,1.198,0.495,1.536c0.123-0.377,0.309-0.931,0.559-1.667l2.501-7.228h1.841v10.393h-1.32v-8.692l-3.034,8.692
		h-1.24l-3-8.853v8.853L5.156,175.949L5.156,175.949z M22.041,175.005c-0.474,0.406-0.931,0.69-1.371,0.855
		c-0.436,0.169-0.906,0.25-1.409,0.25c-0.829,0-1.464-0.199-1.909-0.605c-0.444-0.402-0.669-0.918-0.669-1.545
		c0-0.368,0.085-0.702,0.254-1.007c0.165-0.305,0.389-0.546,0.656-0.732c0.275-0.182,0.58-0.322,0.923-0.419
		c0.25-0.063,0.631-0.127,1.134-0.19c1.033-0.118,1.794-0.267,2.281-0.436c0.004-0.174,0.008-0.288,0.008-0.334
		c0-0.516-0.123-0.88-0.364-1.092c-0.326-0.288-0.813-0.432-1.456-0.432c-0.605,0-1.05,0.106-1.333,0.317
		c-0.288,0.207-0.499,0.58-0.635,1.117l-1.253-0.174c0.114-0.533,0.3-0.965,0.563-1.295c0.262-0.33,0.639-0.584,1.134-0.762
		c0.491-0.178,1.062-0.267,1.714-0.267c0.643,0,1.164,0.076,1.57,0.229c0.402,0.152,0.698,0.343,0.889,0.571
		c0.19,0.229,0.322,0.521,0.398,0.872c0.042,0.216,0.063,0.609,0.063,1.172v1.693c0,1.185,0.025,1.93,0.08,2.247
		c0.051,0.317,0.157,0.622,0.313,0.91h-1.337C22.16,175.682,22.075,175.365,22.041,175.005z M21.94,172.174
		c-0.466,0.19-1.164,0.351-2.091,0.482c-0.529,0.072-0.901,0.157-1.117,0.254c-0.22,0.093-0.385,0.233-0.504,0.41
		c-0.118,0.182-0.182,0.381-0.182,0.605c0,0.334,0.131,0.618,0.389,0.842c0.258,0.229,0.635,0.339,1.13,0.339
		c0.491,0,0.931-0.106,1.316-0.322c0.381-0.212,0.664-0.504,0.842-0.876c0.14-0.288,0.207-0.711,0.207-1.27L21.94,172.174z
		 M25.194,167.007v-1.452h1.278v1.452H25.194z M25.194,175.949v-7.533h1.278v7.533H25.194z M28.419,175.949v-7.533h1.147v1.071
		c0.55-0.821,1.35-1.231,2.391-1.231c0.457,0,0.872,0.085,1.253,0.245c0.381,0.161,0.664,0.377,0.855,0.639
		c0.186,0.267,0.322,0.58,0.394,0.944c0.047,0.237,0.072,0.652,0.072,1.24v4.625h-1.278v-4.575c0-0.521-0.047-0.91-0.148-1.168
		c-0.097-0.254-0.275-0.461-0.525-0.618c-0.254-0.152-0.55-0.229-0.889-0.229c-0.542,0-1.007,0.173-1.405,0.516
		c-0.394,0.343-0.588,1.003-0.588,1.964v4.109L28.419,175.949L28.419,175.949z M36.798,175.949v-6.547h-1.134v-0.986h1.134v-0.8
		c0-0.504,0.042-0.88,0.131-1.121c0.123-0.33,0.339-0.601,0.647-0.804c0.305-0.207,0.741-0.309,1.295-0.309
		c0.36,0,0.758,0.042,1.193,0.127l-0.19,1.121c-0.267-0.047-0.516-0.072-0.753-0.072c-0.385,0-0.66,0.08-0.821,0.245
		s-0.241,0.474-0.241,0.923v0.69h1.468v0.986h-1.452v6.547L36.798,175.949L36.798,175.949z M40.509,175.949v-7.533h1.147v1.155
		c0.296-0.537,0.563-0.889,0.813-1.058c0.25-0.174,0.525-0.258,0.821-0.258c0.432,0,0.868,0.135,1.316,0.406l-0.457,1.176
		c-0.309-0.174-0.618-0.262-0.931-0.262c-0.275,0-0.525,0.089-0.745,0.254c-0.22,0.165-0.377,0.398-0.47,0.694
		c-0.144,0.457-0.216,0.952-0.216,1.49v3.936L40.509,175.949L40.509,175.949z M50.281,175.005c-0.474,0.406-0.931,0.69-1.371,0.855
		c-0.436,0.169-0.906,0.25-1.409,0.25c-0.829,0-1.464-0.199-1.909-0.605c-0.444-0.402-0.669-0.918-0.669-1.545
		c0-0.368,0.085-0.702,0.254-1.007c0.169-0.305,0.389-0.546,0.66-0.732c0.271-0.182,0.576-0.322,0.918-0.419
		c0.25-0.063,0.631-0.127,1.138-0.19c1.028-0.118,1.79-0.267,2.277-0.436c0.004-0.174,0.008-0.288,0.008-0.334
		c0-0.516-0.123-0.88-0.364-1.092c-0.326-0.288-0.813-0.432-1.456-0.432c-0.605,0-1.05,0.106-1.333,0.317
		c-0.288,0.207-0.499,0.58-0.635,1.117l-1.248-0.174c0.11-0.533,0.296-0.965,0.559-1.295c0.262-0.33,0.639-0.584,1.134-0.762
		c0.491-0.178,1.062-0.267,1.714-0.267c0.643,0,1.168,0.076,1.57,0.229s0.698,0.343,0.889,0.571s0.322,0.521,0.398,0.872
		c0.042,0.216,0.063,0.609,0.063,1.172v1.693c0,1.185,0.025,1.93,0.08,2.247c0.051,0.317,0.157,0.622,0.313,0.91h-1.337
		C50.399,175.682,50.319,175.365,50.281,175.005z M50.179,172.174c-0.466,0.19-1.164,0.351-2.091,0.482
		c-0.529,0.072-0.901,0.157-1.117,0.254c-0.22,0.093-0.385,0.233-0.504,0.41c-0.118,0.182-0.182,0.381-0.182,0.605
		c0,0.334,0.131,0.618,0.389,0.842c0.258,0.229,0.635,0.339,1.13,0.339c0.495,0,0.931-0.106,1.316-0.322
		c0.381-0.212,0.664-0.504,0.842-0.876c0.14-0.288,0.207-0.711,0.207-1.27L50.179,172.174z M53.433,175.949v-7.533h1.147v1.066
		c0.233-0.368,0.55-0.664,0.939-0.889c0.394-0.229,0.838-0.339,1.337-0.339c0.559,0,1.016,0.118,1.371,0.347
		c0.355,0.233,0.609,0.554,0.753,0.969c0.601-0.876,1.375-1.316,2.332-1.316c0.753,0,1.329,0.207,1.731,0.622
		c0.406,0.41,0.609,1.049,0.609,1.909v5.163h-1.278v-4.74c0-0.508-0.042-0.876-0.127-1.1c-0.08-0.229-0.233-0.406-0.453-0.542
		c-0.216-0.14-0.474-0.207-0.766-0.207c-0.533,0-0.973,0.178-1.325,0.529s-0.525,0.914-0.525,1.689v4.372H57.9v-4.888
		c0-0.567-0.102-0.994-0.309-1.274c-0.212-0.284-0.55-0.427-1.024-0.427c-0.355,0-0.69,0.093-0.994,0.284
		c-0.305,0.186-0.525,0.466-0.66,0.829c-0.135,0.364-0.203,0.889-0.203,1.57v3.906L53.433,175.949L53.433,175.949z M70.661,173.511
		l1.325,0.174c-0.207,0.766-0.592,1.367-1.151,1.79c-0.563,0.423-1.278,0.635-2.154,0.635c-1.096,0-1.968-0.339-2.611-1.016
		s-0.965-1.625-0.965-2.848c0-1.261,0.326-2.243,0.973-2.941c0.652-0.698,1.494-1.049,2.535-1.049c1.003,0,1.824,0.343,2.459,1.028
		c0.639,0.681,0.956,1.646,0.956,2.886c0,0.076-0.004,0.19-0.008,0.339h-5.607c0.047,0.825,0.279,1.46,0.698,1.9
		c0.419,0.436,0.944,0.656,1.57,0.656c0.47,0,0.868-0.123,1.198-0.372C70.209,174.447,70.471,174.053,70.661,173.511z
		 M66.485,171.463h4.194c-0.055-0.631-0.22-1.105-0.482-1.422c-0.402-0.495-0.931-0.741-1.574-0.741
		c-0.588,0-1.079,0.195-1.477,0.588S66.527,170.807,66.485,171.463z M82.769,173.511l1.32,0.174
		c-0.203,0.766-0.588,1.367-1.151,1.79c-0.559,0.423-1.274,0.635-2.15,0.635c-1.096,0-1.968-0.339-2.611-1.016
		s-0.965-1.625-0.965-2.848c0-1.261,0.322-2.243,0.973-2.941c0.652-0.698,1.494-1.049,2.531-1.049c1.007,0,1.828,0.343,2.463,1.028
		c0.635,0.681,0.956,1.646,0.956,2.886c0,0.076-0.004,0.19-0.008,0.339h-5.611c0.051,0.825,0.284,1.46,0.702,1.9
		c0.419,0.436,0.944,0.656,1.57,0.656c0.466,0,0.868-0.123,1.193-0.372C82.316,174.447,82.574,174.053,82.769,173.511z
		 M78.588,171.463h4.198c-0.059-0.631-0.22-1.105-0.482-1.422c-0.402-0.495-0.931-0.741-1.578-0.741
		c-0.584,0-1.075,0.195-1.473,0.588S78.634,170.807,78.588,171.463z M85.414,172.61l1.295-0.114
		c0.059,0.521,0.203,0.952,0.427,1.286s0.571,0.605,1.045,0.813c0.47,0.207,1.003,0.309,1.595,0.309
		c0.521,0,0.986-0.076,1.388-0.233s0.698-0.372,0.893-0.647c0.195-0.271,0.296-0.571,0.296-0.889c0-0.326-0.093-0.609-0.284-0.851
		c-0.19-0.245-0.499-0.449-0.935-0.614c-0.279-0.106-0.897-0.275-1.849-0.508c-0.956-0.229-1.625-0.444-2.006-0.647
		c-0.499-0.258-0.868-0.584-1.109-0.969c-0.245-0.385-0.364-0.817-0.364-1.295c0-0.529,0.148-1.02,0.449-1.473
		c0.296-0.457,0.728-0.804,1.303-1.041c0.571-0.237,1.206-0.355,1.904-0.355c0.77,0,1.452,0.123,2.04,0.372
		c0.588,0.245,1.037,0.614,1.354,1.096c0.317,0.482,0.487,1.028,0.512,1.638l-1.32,0.102c-0.072-0.656-0.309-1.151-0.719-1.485
		s-1.011-0.504-1.811-0.504c-0.834,0-1.439,0.152-1.82,0.457c-0.381,0.305-0.571,0.673-0.571,1.105c0,0.372,0.135,0.681,0.406,0.923
		c0.262,0.237,0.952,0.487,2.069,0.741c1.121,0.254,1.887,0.474,2.302,0.664c0.601,0.275,1.049,0.626,1.337,1.054
		c0.288,0.427,0.432,0.918,0.432,1.473c0,0.554-0.157,1.075-0.474,1.562c-0.317,0.491-0.77,0.868-1.363,1.138
		c-0.592,0.271-1.257,0.41-2.002,0.41c-0.935,0-1.722-0.14-2.357-0.415c-0.635-0.271-1.134-0.686-1.494-1.236
		C85.621,173.926,85.435,173.304,85.414,172.61z M100.526,173.511l1.32,0.174c-0.207,0.766-0.588,1.367-1.151,1.79
		c-0.563,0.423-1.278,0.635-2.15,0.635c-1.1,0-1.972-0.339-2.615-1.016s-0.965-1.625-0.965-2.848c0-1.261,0.326-2.243,0.978-2.941
		c0.647-0.698,1.494-1.049,2.531-1.049c1.003,0,1.824,0.343,2.463,1.028c0.635,0.681,0.952,1.646,0.952,2.886
		c0,0.076,0,0.19-0.004,0.339h-5.611c0.047,0.825,0.279,1.46,0.702,1.9c0.415,0.436,0.944,0.656,1.57,0.656
		c0.466,0,0.868-0.123,1.193-0.372C100.069,174.447,100.331,174.053,100.526,173.511z M96.345,171.463h4.194
		c-0.055-0.631-0.216-1.105-0.478-1.422c-0.406-0.495-0.931-0.741-1.578-0.741c-0.584,0-1.075,0.195-1.477,0.588
		C96.607,170.282,96.387,170.807,96.345,171.463z M103.446,175.949v-7.533h1.147v1.155c0.292-0.537,0.563-0.889,0.813-1.058
		c0.25-0.174,0.525-0.258,0.821-0.258c0.432,0,0.868,0.135,1.312,0.406l-0.453,1.176c-0.309-0.174-0.618-0.262-0.931-0.262
		c-0.275,0-0.525,0.089-0.745,0.254s-0.377,0.398-0.474,0.694c-0.14,0.457-0.212,0.952-0.212,1.49v3.936L103.446,175.949
		L103.446,175.949z M108.295,167.007v-1.452h1.278v1.452H108.295z M108.295,175.949v-7.533h1.278v7.533H108.295z M116.658,173.511
		l1.32,0.174c-0.203,0.766-0.588,1.367-1.151,1.79c-0.559,0.423-1.278,0.635-2.15,0.635c-1.096,0-1.968-0.339-2.611-1.016
		s-0.965-1.625-0.965-2.848c0-1.261,0.322-2.243,0.973-2.941s1.494-1.049,2.531-1.049c1.007,0,1.828,0.343,2.463,1.028
		c0.635,0.681,0.956,1.646,0.956,2.886c0,0.076-0.004,0.19-0.008,0.339h-5.611c0.051,0.825,0.279,1.46,0.702,1.9
		c0.419,0.436,0.944,0.656,1.57,0.656c0.466,0,0.868-0.123,1.193-0.372C116.205,174.447,116.463,174.053,116.658,173.511z
		 M112.477,171.463h4.198c-0.059-0.631-0.22-1.105-0.482-1.422c-0.402-0.495-0.931-0.741-1.578-0.741
		c-0.584,0-1.075,0.195-1.473,0.588S112.523,170.807,112.477,171.463z M119.087,173.702l1.261-0.203
		c0.072,0.504,0.271,0.889,0.592,1.164c0.326,0.267,0.779,0.402,1.363,0.402c0.588,0,1.02-0.118,1.308-0.355
		c0.284-0.241,0.423-0.521,0.423-0.842c0-0.288-0.127-0.516-0.381-0.677c-0.178-0.118-0.614-0.258-1.308-0.436
		c-0.931-0.233-1.578-0.436-1.942-0.609c-0.36-0.174-0.631-0.411-0.821-0.715c-0.182-0.305-0.279-0.639-0.279-1.007
		c0-0.339,0.076-0.647,0.229-0.931c0.157-0.288,0.364-0.525,0.631-0.711c0.195-0.144,0.47-0.271,0.808-0.372
		c0.343-0.102,0.711-0.152,1.1-0.152c0.592,0,1.109,0.085,1.553,0.258c0.449,0.169,0.779,0.402,0.99,0.69
		c0.212,0.292,0.36,0.686,0.44,1.172l-1.253,0.174c-0.055-0.389-0.216-0.698-0.491-0.918c-0.267-0.22-0.652-0.33-1.147-0.33
		c-0.584,0-1.003,0.097-1.253,0.292s-0.372,0.419-0.372,0.677c0,0.169,0.051,0.317,0.152,0.449c0.106,0.135,0.267,0.25,0.491,0.339
		c0.127,0.051,0.499,0.157,1.126,0.33c0.897,0.237,1.528,0.436,1.887,0.588c0.355,0.152,0.635,0.377,0.838,0.669
		c0.207,0.292,0.309,0.656,0.309,1.092c0,0.423-0.123,0.821-0.372,1.198c-0.25,0.372-0.605,0.664-1.075,0.868
		c-0.47,0.207-0.999,0.309-1.587,0.309c-0.978,0-1.727-0.203-2.239-0.605C119.557,175.098,119.226,174.497,119.087,173.702z
		 M127.187,175.949v-1.452h1.452v1.452c0,0.537-0.097,0.969-0.288,1.299c-0.186,0.326-0.491,0.584-0.901,0.762l-0.351-0.55
		c0.271-0.118,0.47-0.292,0.597-0.521c0.127-0.229,0.199-0.559,0.216-0.99L127.187,175.949L127.187,175.949z M133.137,175.949
		l3.986-10.393h1.515l4.228,10.393h-1.562l-1.202-3.149h-4.38l-1.126,3.149H133.137z M136.129,171.683h3.542l-1.083-2.882
		c-0.33-0.876-0.576-1.6-0.749-2.171c-0.14,0.677-0.33,1.342-0.571,2.002L136.129,171.683z M143.509,172.61l1.291-0.114
		c0.059,0.521,0.203,0.952,0.427,1.286s0.576,0.605,1.045,0.813c0.474,0.207,1.003,0.309,1.595,0.309
		c0.525,0,0.986-0.076,1.388-0.233c0.402-0.157,0.698-0.372,0.897-0.647c0.195-0.271,0.292-0.571,0.292-0.889
		c0-0.326-0.093-0.609-0.284-0.851c-0.186-0.245-0.499-0.449-0.935-0.614c-0.275-0.106-0.893-0.275-1.849-0.508
		c-0.956-0.229-1.625-0.444-2.006-0.647c-0.495-0.258-0.863-0.584-1.105-0.969c-0.245-0.385-0.364-0.817-0.364-1.295
		c0-0.529,0.148-1.02,0.444-1.473c0.3-0.457,0.732-0.804,1.303-1.041s1.21-0.355,1.909-0.355c0.77,0,1.447,0.123,2.036,0.372
		c0.588,0.245,1.041,0.614,1.358,1.096s0.487,1.028,0.512,1.638l-1.325,0.102c-0.068-0.656-0.309-1.151-0.715-1.485
		c-0.41-0.334-1.016-0.504-1.815-0.504c-0.829,0-1.439,0.152-1.82,0.457c-0.377,0.305-0.567,0.673-0.567,1.105
		c0,0.372,0.131,0.681,0.402,0.923c0.267,0.237,0.956,0.487,2.074,0.741c1.117,0.254,1.883,0.474,2.302,0.664
		c0.601,0.275,1.049,0.626,1.337,1.054c0.288,0.427,0.432,0.918,0.432,1.473c0,0.554-0.161,1.075-0.478,1.562
		c-0.313,0.491-0.766,0.868-1.358,1.138c-0.592,0.271-1.261,0.41-2.002,0.41c-0.939,0-1.727-0.14-2.357-0.415
		c-0.639-0.271-1.134-0.686-1.494-1.236C143.716,173.926,143.526,173.304,143.509,172.61z M157.212,175.949v-2.48h-4.515v-1.176
		l4.748-6.737h1.045v6.737h1.405v1.176h-1.405v2.48H157.212z M157.212,172.292v-4.676l-3.259,4.676H157.212z M161.207,170.82
		c0-1.227,0.123-2.217,0.377-2.967c0.254-0.753,0.631-1.333,1.126-1.735c0.495-0.406,1.126-0.605,1.879-0.605
		c0.554,0,1.045,0.11,1.468,0.334c0.419,0.229,0.77,0.55,1.041,0.973s0.482,0.939,0.639,1.545c0.157,0.609,0.233,1.426,0.233,2.454
		c0,1.219-0.127,2.209-0.372,2.958c-0.25,0.753-0.626,1.329-1.126,1.735c-0.495,0.406-1.126,0.614-1.883,0.614
		c-0.999,0-1.786-0.36-2.357-1.071C161.545,174.184,161.207,172.775,161.207,170.82z M162.51,170.828
		c0,1.71,0.199,2.844,0.601,3.407c0.398,0.563,0.889,0.842,1.477,0.842c0.584,0,1.079-0.284,1.477-0.846
		c0.402-0.567,0.601-1.701,0.601-3.402c0-1.714-0.199-2.852-0.601-3.411c-0.398-0.563-0.893-0.846-1.494-0.846
		c-0.584,0-1.054,0.25-1.405,0.749C162.73,167.951,162.51,169.119,162.51,170.828z M169.277,170.82c0-1.227,0.127-2.217,0.381-2.967
		c0.254-0.753,0.626-1.333,1.126-1.735c0.495-0.406,1.121-0.605,1.879-0.605c0.554,0,1.045,0.11,1.468,0.334
		c0.419,0.229,0.77,0.55,1.041,0.973s0.482,0.939,0.639,1.545c0.157,0.609,0.233,1.426,0.233,2.454c0,1.219-0.127,2.209-0.377,2.958
		c-0.245,0.753-0.622,1.329-1.121,1.735c-0.495,0.406-1.126,0.614-1.883,0.614c-0.999,0-1.786-0.36-2.357-1.071
		C169.62,174.184,169.277,172.775,169.277,170.82z M170.585,170.828c0,1.71,0.199,2.844,0.597,3.407
		c0.402,0.563,0.893,0.842,1.481,0.842c0.584,0,1.079-0.284,1.477-0.846c0.398-0.567,0.597-1.701,0.597-3.402
		c0-1.714-0.199-2.852-0.597-3.411c-0.398-0.563-0.897-0.846-1.494-0.846c-0.584,0-1.054,0.25-1.405,0.749
		C170.805,167.951,170.585,169.119,170.585,170.828z M178.545,179h-0.914c1.409-2.268,2.116-4.537,2.116-6.809
		c0-0.889-0.102-1.769-0.305-2.645c-0.157-0.707-0.385-1.388-0.673-2.04c-0.182-0.423-0.563-1.13-1.138-2.124h0.914
		c0.884,1.185,1.54,2.378,1.964,3.572c0.364,1.028,0.546,2.103,0.546,3.229c0,1.274-0.245,2.509-0.732,3.699
		C179.835,177.074,179.243,178.111,178.545,179z"/>
	<path fill="#373435" d="M232.192,156.262l1.38,0.347c-0.288,1.13-0.804,1.989-1.553,2.581c-0.745,0.592-1.663,0.889-2.742,0.889
		c-1.117,0-2.027-0.224-2.73-0.681c-0.702-0.457-1.236-1.117-1.6-1.981c-0.364-0.868-0.55-1.794-0.55-2.785
		c0-1.083,0.207-2.027,0.622-2.831s1.003-1.418,1.76-1.837c0.766-0.419,1.604-0.626,2.518-0.626c1.041,0,1.913,0.262,2.62,0.796
		c0.711,0.529,1.202,1.27,1.481,2.23l-1.35,0.317c-0.237-0.753-0.588-1.308-1.049-1.65c-0.457-0.347-1.033-0.516-1.727-0.516
		c-0.796,0-1.464,0.19-1.997,0.571c-0.533,0.385-0.91,0.897-1.126,1.545c-0.22,0.643-0.326,1.308-0.326,1.993
		c0,0.884,0.127,1.655,0.385,2.315c0.254,0.66,0.652,1.151,1.193,1.477c0.542,0.326,1.13,0.491,1.76,0.491
		c0.77,0,1.418-0.224,1.951-0.669S232.006,157.138,232.192,156.262z M235.087,159.906v-10.393h1.278v10.393H235.087z
		 M238.341,150.964v-1.452h1.278v1.452H238.341z M238.341,159.906v-7.533h1.278v7.533H238.341z M246.703,157.468l1.32,0.174
		c-0.203,0.766-0.588,1.367-1.151,1.786c-0.563,0.427-1.278,0.639-2.15,0.639c-1.1,0-1.968-0.339-2.611-1.016
		c-0.647-0.677-0.969-1.625-0.969-2.848c0-1.261,0.326-2.247,0.978-2.941c0.647-0.702,1.494-1.05,2.531-1.05
		c1.007,0,1.824,0.343,2.463,1.028c0.635,0.681,0.952,1.646,0.952,2.886c0,0.076,0,0.19-0.004,0.339h-5.611
		c0.051,0.825,0.279,1.46,0.702,1.9c0.419,0.436,0.944,0.656,1.57,0.656c0.465,0,0.868-0.123,1.193-0.372
		C246.251,158.403,246.509,158.01,246.703,157.468z M242.522,155.42h4.198c-0.059-0.631-0.22-1.109-0.482-1.426
		c-0.406-0.491-0.931-0.736-1.578-0.736c-0.584,0-1.075,0.195-1.477,0.588C242.785,154.239,242.565,154.764,242.522,155.42z
		 M249.64,159.906v-7.533h1.147v1.071c0.55-0.821,1.346-1.231,2.391-1.231c0.453,0,0.872,0.085,1.248,0.245
		c0.381,0.161,0.669,0.377,0.855,0.639c0.19,0.267,0.322,0.58,0.398,0.944c0.047,0.237,0.072,0.652,0.072,1.24v4.625h-1.278v-4.575
		c0-0.521-0.051-0.91-0.148-1.168s-0.275-0.461-0.529-0.618c-0.25-0.152-0.546-0.229-0.889-0.229c-0.542,0-1.007,0.169-1.401,0.516
		c-0.394,0.343-0.588,0.999-0.588,1.964v4.109L249.64,159.906L249.64,159.906z M260.487,158.767l0.173,1.126
		c-0.36,0.076-0.681,0.114-0.961,0.114c-0.461,0-0.821-0.072-1.079-0.22c-0.254-0.148-0.432-0.339-0.537-0.576
		c-0.102-0.241-0.152-0.745-0.152-1.511v-4.342h-0.944v-0.986h0.944v-1.862l1.278-0.766v2.628h1.278v0.986h-1.278v4.414
		c0,0.364,0.021,0.601,0.068,0.702c0.042,0.106,0.114,0.186,0.216,0.25c0.102,0.059,0.25,0.093,0.436,0.093
		C260.068,158.818,260.254,158.801,260.487,158.767z M266.885,157.468l1.32,0.174c-0.207,0.766-0.592,1.367-1.151,1.786
		c-0.563,0.427-1.278,0.639-2.154,0.639c-1.096,0-1.968-0.339-2.611-1.016s-0.965-1.625-0.965-2.848
		c0-1.261,0.326-2.247,0.973-2.941c0.652-0.702,1.498-1.05,2.535-1.05c1.003,0,1.824,0.343,2.459,1.028
		c0.639,0.681,0.956,1.646,0.956,2.886c0,0.076-0.004,0.19-0.008,0.339h-5.607c0.047,0.825,0.279,1.46,0.698,1.9
		c0.419,0.436,0.944,0.656,1.57,0.656c0.47,0,0.868-0.123,1.198-0.372C266.428,158.403,266.69,158.01,266.885,157.468z
		 M262.704,155.42h4.194c-0.055-0.631-0.216-1.109-0.482-1.426c-0.402-0.491-0.931-0.736-1.574-0.736
		c-0.588,0-1.079,0.195-1.477,0.588C262.966,154.239,262.746,154.764,262.704,155.42z M273.343,156.787v-1.278h3.948v1.278H273.343z
		 M282.429,156.567l1.291-0.114c0.059,0.521,0.203,0.948,0.427,1.286c0.224,0.334,0.576,0.605,1.045,0.813
		c0.474,0.207,1.003,0.309,1.595,0.309c0.525,0,0.986-0.076,1.388-0.233s0.698-0.372,0.897-0.647
		c0.195-0.275,0.292-0.571,0.292-0.889c0-0.326-0.093-0.609-0.284-0.855c-0.186-0.241-0.499-0.444-0.935-0.609
		c-0.275-0.106-0.893-0.275-1.849-0.508c-0.956-0.229-1.625-0.444-2.006-0.647c-0.495-0.262-0.863-0.584-1.105-0.969
		c-0.245-0.385-0.364-0.817-0.364-1.295c0-0.529,0.148-1.02,0.444-1.473c0.3-0.457,0.732-0.804,1.303-1.041s1.21-0.355,1.909-0.355
		c0.77,0,1.447,0.123,2.036,0.372c0.588,0.245,1.041,0.614,1.358,1.096c0.317,0.482,0.487,1.028,0.512,1.638l-1.325,0.102
		c-0.068-0.656-0.309-1.151-0.715-1.485c-0.41-0.334-1.016-0.504-1.815-0.504c-0.829,0-1.439,0.152-1.82,0.457
		c-0.377,0.305-0.567,0.673-0.567,1.105c0,0.372,0.135,0.681,0.402,0.923c0.267,0.237,0.956,0.487,2.074,0.741
		c1.117,0.254,1.883,0.474,2.302,0.66c0.601,0.279,1.049,0.631,1.337,1.058s0.432,0.918,0.432,1.473
		c0,0.554-0.161,1.075-0.478,1.562c-0.313,0.491-0.766,0.868-1.358,1.138c-0.592,0.271-1.261,0.406-2.002,0.406
		c-0.939,0-1.727-0.135-2.357-0.41c-0.639-0.271-1.134-0.686-1.494-1.236C282.636,157.883,282.446,157.261,282.429,156.567z
		 M297.537,157.468l1.325,0.174c-0.207,0.766-0.592,1.367-1.151,1.786c-0.563,0.427-1.278,0.639-2.154,0.639
		c-1.096,0-1.968-0.339-2.611-1.016s-0.965-1.625-0.965-2.848c0-1.261,0.322-2.247,0.973-2.941c0.652-0.702,1.494-1.05,2.535-1.05
		c1.003,0,1.824,0.343,2.459,1.028c0.639,0.681,0.956,1.646,0.956,2.886c0,0.076-0.004,0.19-0.008,0.339h-5.607
		c0.047,0.825,0.279,1.46,0.698,1.9c0.419,0.436,0.944,0.656,1.57,0.656c0.465,0,0.868-0.123,1.198-0.372
		C297.084,158.403,297.346,158.01,297.537,157.468z M293.36,155.42h4.194c-0.055-0.631-0.22-1.109-0.482-1.426
		c-0.402-0.491-0.931-0.736-1.574-0.736c-0.588,0-1.079,0.195-1.477,0.588C293.622,154.239,293.402,154.764,293.36,155.42z
		 M300.461,159.906v-7.533h1.147v1.155c0.292-0.537,0.563-0.889,0.813-1.058c0.245-0.174,0.521-0.258,0.821-0.258
		c0.427,0,0.868,0.135,1.312,0.406l-0.457,1.176c-0.309-0.174-0.618-0.262-0.927-0.262c-0.279,0-0.529,0.085-0.749,0.254
		c-0.22,0.165-0.377,0.398-0.47,0.694c-0.144,0.453-0.216,0.952-0.216,1.49v3.936L300.461,159.906L300.461,159.906z
		 M307.367,159.906l-2.844-7.533h1.367l1.612,4.511c0.173,0.487,0.334,0.994,0.482,1.515c0.114-0.394,0.271-0.872,0.478-1.43
		l1.672-4.596h1.312l-2.852,7.533L307.367,159.906L307.367,159.906z M312.568,150.964v-1.452h1.274v1.452H312.568z M312.568,159.906
		v-7.533h1.274v7.533H312.568z M320.655,159.906v-0.956c-0.478,0.745-1.181,1.117-2.107,1.117c-0.597,0-1.151-0.165-1.65-0.495
		c-0.504-0.33-0.893-0.791-1.172-1.384c-0.275-0.592-0.415-1.27-0.415-2.04c0-0.749,0.127-1.43,0.377-2.044
		c0.254-0.609,0.626-1.079,1.126-1.401c0.499-0.33,1.062-0.491,1.68-0.491c0.453,0,0.859,0.097,1.21,0.288
		c0.355,0.19,0.639,0.444,0.863,0.749v-3.737h1.278v10.393L320.655,159.906L320.655,159.906z M316.618,156.148
		c0,0.965,0.203,1.684,0.614,2.158c0.406,0.478,0.889,0.715,1.439,0.715c0.563,0,1.033-0.229,1.426-0.681
		c0.389-0.457,0.584-1.151,0.584-2.082c0-1.028-0.195-1.782-0.597-2.264c-0.394-0.482-0.884-0.719-1.468-0.719
		c-0.567,0-1.045,0.229-1.426,0.69C316.809,154.425,316.618,155.153,316.618,156.148z M323.385,156.139
		c0-1.392,0.389-2.421,1.164-3.094c0.647-0.554,1.439-0.834,2.37-0.834c1.033,0,1.879,0.339,2.539,1.016
		c0.656,0.677,0.982,1.612,0.982,2.806c0,0.969-0.144,1.727-0.436,2.281c-0.288,0.554-0.711,0.986-1.27,1.291
		c-0.554,0.309-1.16,0.461-1.815,0.461c-1.054,0-1.909-0.339-2.556-1.011C323.711,158.378,323.385,157.409,323.385,156.139z
		 M324.693,156.144c0,0.961,0.212,1.684,0.631,2.158c0.423,0.478,0.952,0.719,1.595,0.719c0.635,0,1.16-0.241,1.583-0.724
		c0.423-0.478,0.635-1.215,0.635-2.196c0-0.931-0.216-1.633-0.639-2.112c-0.423-0.478-0.948-0.715-1.578-0.715
		c-0.643,0-1.172,0.237-1.595,0.711C324.904,154.464,324.693,155.183,324.693,156.144z M331.925,159.906v-7.533h1.147v1.155
		c0.292-0.537,0.563-0.889,0.813-1.058c0.25-0.174,0.521-0.258,0.821-0.258c0.432,0,0.868,0.135,1.312,0.406l-0.453,1.176
		c-0.313-0.174-0.622-0.262-0.931-0.262c-0.279,0-0.525,0.085-0.749,0.254c-0.216,0.165-0.377,0.398-0.47,0.694
		c-0.144,0.453-0.212,0.952-0.212,1.49v3.936L331.925,159.906L331.925,159.906z"/>
	<path fill="#373435" d="M455.411,159.732v-10.393h7.507v1.219h-6.124v3.195h5.73v1.219h-5.73v3.542h6.369v1.219L455.411,159.732
		L455.411,159.732z M464.907,159.732V152.2h1.147v1.062c0.233-0.364,0.546-0.664,0.939-0.884c0.394-0.229,0.838-0.339,1.337-0.339
		c0.559,0,1.016,0.114,1.371,0.347s0.605,0.554,0.753,0.969c0.597-0.876,1.375-1.316,2.332-1.316c0.753,0,1.329,0.207,1.731,0.622
		c0.406,0.41,0.609,1.05,0.609,1.909v5.163h-1.278v-4.74c0-0.508-0.047-0.876-0.127-1.1c-0.08-0.229-0.233-0.406-0.453-0.542
		c-0.216-0.14-0.474-0.207-0.766-0.207c-0.533,0-0.973,0.178-1.325,0.525c-0.351,0.355-0.525,0.918-0.525,1.693v4.372h-1.278v-4.888
		c0-0.567-0.102-0.994-0.313-1.278c-0.207-0.279-0.546-0.423-1.02-0.423c-0.355,0-0.69,0.093-0.994,0.284
		c-0.305,0.186-0.525,0.465-0.66,0.829s-0.203,0.889-0.203,1.57v3.906h-1.277V159.732z M482.135,157.295l1.325,0.174
		c-0.207,0.766-0.592,1.367-1.151,1.786c-0.563,0.427-1.278,0.639-2.154,0.639c-1.096,0-1.968-0.339-2.611-1.016
		s-0.965-1.625-0.965-2.848c0-1.261,0.322-2.247,0.973-2.941c0.652-0.702,1.494-1.05,2.535-1.05c1.003,0,1.824,0.343,2.459,1.028
		c0.639,0.681,0.956,1.646,0.956,2.886c0,0.076-0.004,0.19-0.008,0.339h-5.607c0.047,0.825,0.279,1.46,0.698,1.9
		c0.419,0.436,0.944,0.656,1.57,0.656c0.466,0,0.868-0.123,1.198-0.372C481.683,158.23,481.945,157.836,482.135,157.295z
		 M477.959,155.246h4.194c-0.055-0.631-0.22-1.109-0.482-1.426c-0.402-0.491-0.931-0.736-1.578-0.736
		c-0.584,0-1.075,0.195-1.473,0.588C478.221,154.066,478.001,154.591,477.959,155.246z M485.06,159.732V152.2h1.147v1.155
		c0.292-0.537,0.563-0.889,0.812-1.058c0.245-0.174,0.521-0.258,0.817-0.258c0.432,0,0.872,0.135,1.316,0.406l-0.457,1.176
		c-0.309-0.174-0.618-0.262-0.927-0.262c-0.279,0-0.529,0.085-0.749,0.254c-0.22,0.165-0.377,0.398-0.47,0.694
		c-0.144,0.453-0.216,0.952-0.216,1.49v3.936h-1.273V159.732z M489.672,160.359l1.236,0.173c0.051,0.381,0.195,0.66,0.432,0.838
		c0.317,0.233,0.749,0.351,1.299,0.351c0.588,0,1.045-0.118,1.367-0.351c0.326-0.237,0.542-0.567,0.656-0.99
		c0.063-0.258,0.093-0.804,0.089-1.633c-0.559,0.656-1.253,0.986-2.082,0.986c-1.037,0-1.841-0.372-2.408-1.121
		c-0.567-0.745-0.851-1.638-0.851-2.683c0-0.715,0.131-1.38,0.389-1.985c0.258-0.609,0.635-1.075,1.13-1.409
		c0.495-0.33,1.075-0.495,1.744-0.495c0.889,0,1.621,0.364,2.196,1.088V152.2h1.176v6.504c0,1.172-0.118,2.006-0.36,2.493
		c-0.237,0.491-0.618,0.876-1.13,1.16c-0.521,0.284-1.155,0.423-1.913,0.423c-0.897,0-1.621-0.199-2.171-0.601
		C489.918,161.776,489.651,161.167,489.672,160.359z M490.718,155.839c0,0.986,0.195,1.701,0.588,2.154
		c0.394,0.453,0.884,0.681,1.477,0.681c0.584,0,1.075-0.224,1.477-0.677c0.394-0.449,0.592-1.155,0.592-2.12
		c0-0.918-0.203-1.612-0.614-2.078c-0.406-0.47-0.901-0.698-1.477-0.698c-0.567,0-1.049,0.229-1.452,0.69
		C490.917,154.248,490.718,154.929,490.718,155.839z M503.117,157.295l1.325,0.174c-0.207,0.766-0.592,1.367-1.151,1.786
		c-0.563,0.427-1.278,0.639-2.154,0.639c-1.096,0-1.968-0.339-2.611-1.016s-0.965-1.625-0.965-2.848
		c0-1.261,0.322-2.247,0.973-2.941c0.652-0.702,1.494-1.05,2.535-1.05c1.003,0,1.824,0.343,2.459,1.028
		c0.639,0.681,0.956,1.646,0.956,2.886c0,0.076-0.004,0.19-0.008,0.339h-5.607c0.047,0.825,0.279,1.46,0.698,1.9
		c0.419,0.436,0.944,0.656,1.57,0.656c0.466,0,0.868-0.123,1.198-0.372C502.664,158.23,502.927,157.836,503.117,157.295z
		 M498.94,155.246h4.194c-0.055-0.631-0.22-1.109-0.482-1.426c-0.402-0.491-0.931-0.736-1.574-0.736
		c-0.588,0-1.079,0.195-1.477,0.588C499.203,154.066,498.983,154.591,498.94,155.246z M506.054,159.732V152.2h1.147v1.071
		c0.55-0.821,1.35-1.231,2.395-1.231c0.453,0,0.868,0.085,1.248,0.245c0.381,0.161,0.664,0.377,0.855,0.639
		c0.186,0.267,0.322,0.58,0.398,0.944c0.047,0.237,0.068,0.652,0.068,1.24v4.625h-1.278v-4.575c0-0.521-0.047-0.91-0.148-1.168
		c-0.097-0.258-0.275-0.461-0.525-0.618c-0.254-0.152-0.55-0.229-0.889-0.229c-0.542,0-1.007,0.169-1.405,0.516
		c-0.394,0.343-0.588,0.999-0.588,1.964v4.109L506.054,159.732L506.054,159.732z M516.9,158.594l0.174,1.126
		c-0.36,0.076-0.677,0.114-0.961,0.114c-0.461,0-0.821-0.072-1.075-0.22s-0.436-0.339-0.537-0.576
		c-0.106-0.241-0.157-0.745-0.157-1.511v-4.342H513.4V152.2h0.944v-1.862l1.278-0.766v2.628h1.278v0.986h-1.278v4.414
		c0,0.364,0.021,0.601,0.068,0.702c0.042,0.106,0.118,0.186,0.22,0.25c0.102,0.059,0.245,0.093,0.436,0.093
		C516.486,158.645,516.672,158.628,516.9,158.594z M523.299,157.295l1.32,0.174c-0.203,0.766-0.588,1.367-1.151,1.786
		c-0.563,0.427-1.278,0.639-2.15,0.639c-1.1,0-1.968-0.339-2.611-1.016s-0.969-1.625-0.969-2.848c0-1.261,0.326-2.247,0.978-2.941
		c0.647-0.702,1.494-1.05,2.531-1.05c1.007,0,1.824,0.343,2.463,1.028c0.635,0.681,0.952,1.646,0.952,2.886
		c0,0.076,0,0.19-0.004,0.339h-5.612c0.051,0.825,0.279,1.46,0.703,1.9c0.419,0.436,0.944,0.656,1.57,0.656
		c0.466,0,0.868-0.123,1.193-0.372C522.846,158.23,523.104,157.836,523.299,157.295z M519.118,155.246h4.198
		c-0.059-0.631-0.22-1.109-0.482-1.426c-0.406-0.491-0.931-0.736-1.578-0.736c-0.584,0-1.075,0.195-1.477,0.588
		C519.38,154.066,519.164,154.591,519.118,155.246z M525.728,157.481l1.261-0.203c0.068,0.508,0.267,0.893,0.592,1.168
		c0.326,0.267,0.779,0.402,1.358,0.402c0.588,0,1.024-0.118,1.312-0.36c0.279-0.237,0.423-0.516,0.423-0.838
		c0-0.288-0.127-0.516-0.381-0.681c-0.178-0.114-0.614-0.254-1.308-0.432c-0.931-0.237-1.578-0.436-1.942-0.609
		c-0.36-0.174-0.635-0.41-0.821-0.715s-0.279-0.639-0.279-1.007c0-0.339,0.076-0.647,0.229-0.931
		c0.157-0.288,0.364-0.525,0.626-0.711c0.199-0.148,0.47-0.271,0.812-0.372c0.343-0.102,0.707-0.152,1.1-0.152
		c0.592,0,1.109,0.085,1.553,0.258c0.449,0.169,0.779,0.402,0.99,0.69c0.212,0.292,0.355,0.681,0.436,1.172l-1.248,0.174
		c-0.055-0.389-0.22-0.698-0.491-0.918c-0.271-0.22-0.652-0.33-1.147-0.33c-0.584,0-1.003,0.097-1.253,0.292
		c-0.25,0.19-0.372,0.419-0.372,0.677c0,0.165,0.051,0.317,0.152,0.449c0.106,0.135,0.267,0.25,0.491,0.339
		c0.127,0.051,0.499,0.157,1.126,0.326c0.897,0.241,1.528,0.44,1.883,0.592c0.36,0.152,0.639,0.377,0.842,0.669
		c0.207,0.292,0.309,0.656,0.309,1.092c0,0.419-0.123,0.821-0.372,1.193c-0.25,0.377-0.605,0.669-1.075,0.872
		c-0.47,0.207-0.999,0.309-1.587,0.309c-0.978,0-1.727-0.203-2.239-0.609C526.198,158.877,525.868,158.276,525.728,157.481z
		 M446.795,179c-0.702-0.889-1.295-1.926-1.782-3.119c-0.487-1.189-0.728-2.425-0.728-3.699c0-1.126,0.182-2.201,0.542-3.229
		c0.427-1.193,1.083-2.387,1.968-3.572h0.914c-0.571,0.982-0.948,1.684-1.134,2.103c-0.288,0.652-0.516,1.333-0.681,2.04
		c-0.203,0.884-0.305,1.773-0.305,2.666c0,2.273,0.707,4.541,2.12,6.809h-0.914V179z M451.141,175.949l-2.734-10.393h1.426
		l1.557,6.818c0.169,0.715,0.322,1.422,0.449,2.124c0.275-1.109,0.432-1.748,0.478-1.917l1.968-7.025h1.655l1.49,5.264
		c0.368,1.303,0.639,2.531,0.813,3.678c0.14-0.656,0.313-1.409,0.529-2.26l1.625-6.682h1.38l-2.844,10.393h-1.337l-2.184-7.918
		c-0.182-0.664-0.292-1.066-0.334-1.219c-0.118,0.474-0.224,0.88-0.317,1.215l-2.179,7.922L451.141,175.949L451.141,175.949z
		 M463.079,175.949v-10.393h7.503v1.219h-6.124v3.195h5.734v1.219h-5.734v3.542h6.373v1.219L463.079,175.949L463.079,175.949z
		 M472.673,175.949v-10.393h3.902c0.791,0,1.43,0.106,1.913,0.313c0.478,0.212,0.855,0.537,1.121,0.973
		c0.275,0.436,0.41,0.897,0.41,1.375c0,0.44-0.123,0.859-0.36,1.253c-0.241,0.389-0.601,0.707-1.088,0.948
		c0.626,0.186,1.113,0.499,1.447,0.944c0.339,0.444,0.508,0.969,0.508,1.574c0,0.487-0.102,0.939-0.309,1.358
		s-0.461,0.741-0.762,0.969c-0.305,0.224-0.681,0.398-1.138,0.512c-0.457,0.118-1.016,0.174-1.68,0.174H472.673z M474.053,169.927
		h2.247c0.609,0,1.049-0.042,1.312-0.123c0.351-0.102,0.614-0.279,0.791-0.521c0.178-0.241,0.267-0.542,0.267-0.91
		c0-0.347-0.08-0.652-0.25-0.91c-0.165-0.262-0.402-0.444-0.707-0.542c-0.309-0.097-0.838-0.148-1.583-0.148h-2.078v3.154H474.053z
		 M474.053,174.73h2.59c0.444,0,0.758-0.017,0.939-0.051c0.313-0.055,0.58-0.148,0.791-0.284c0.216-0.131,0.389-0.326,0.525-0.58
		c0.14-0.254,0.207-0.546,0.207-0.876c0-0.389-0.097-0.728-0.3-1.016c-0.199-0.288-0.474-0.487-0.825-0.605
		c-0.351-0.114-0.863-0.174-1.519-0.174h-2.408L474.053,174.73L474.053,174.73z M482.588,175.949v-1.452h1.452v1.452
		c0,0.537-0.093,0.969-0.284,1.299c-0.19,0.326-0.495,0.584-0.906,0.762l-0.347-0.55c0.267-0.118,0.466-0.292,0.592-0.521
		c0.127-0.229,0.203-0.559,0.216-0.99L482.588,175.949L482.588,175.949z M490.451,175.949v-10.393h2.061l2.459,7.359
		c0.229,0.686,0.389,1.198,0.495,1.536c0.118-0.377,0.305-0.931,0.559-1.667l2.501-7.228h1.841v10.393h-1.325v-8.692l-3.03,8.692
		h-1.24l-3-8.853v8.853L490.451,175.949L490.451,175.949z M501.932,172.182c0-1.392,0.389-2.421,1.164-3.089
		c0.647-0.559,1.439-0.838,2.37-0.838c1.033,0,1.879,0.339,2.539,1.016c0.656,0.677,0.982,1.612,0.982,2.806
		c0,0.969-0.144,1.727-0.436,2.281c-0.288,0.554-0.711,0.986-1.27,1.291c-0.554,0.309-1.16,0.461-1.815,0.461
		c-1.054,0-1.909-0.339-2.556-1.011C502.258,174.425,501.932,173.452,501.932,172.182z M503.24,172.187
		c0,0.961,0.212,1.684,0.631,2.158c0.423,0.478,0.952,0.719,1.595,0.719c0.635,0,1.16-0.241,1.583-0.719
		c0.423-0.482,0.635-1.215,0.635-2.201c0-0.931-0.216-1.634-0.639-2.112s-0.948-0.715-1.578-0.715c-0.643,0-1.172,0.237-1.595,0.711
		C503.451,170.507,503.24,171.226,503.24,172.187z M504.399,167.485l0.931-1.985h1.684l-1.553,1.985H504.399z M512.546,175.949
		l-2.844-7.533h1.367l1.612,4.511c0.174,0.487,0.334,0.994,0.482,1.519c0.114-0.398,0.271-0.876,0.478-1.435l1.672-4.596h1.312
		l-2.852,7.533L512.546,175.949L512.546,175.949z M517.742,167.007v-1.452h1.278v1.452H517.742z M517.742,175.949v-7.533h1.278
		v7.533H517.742z M520.942,175.949v-10.393h1.274v10.393H520.942z M529.334,173.511l1.32,0.174c-0.207,0.766-0.592,1.367-1.151,1.79
		c-0.563,0.423-1.278,0.635-2.15,0.635c-1.1,0-1.972-0.339-2.615-1.016s-0.965-1.625-0.965-2.848c0-1.261,0.326-2.243,0.978-2.941
		c0.647-0.698,1.494-1.049,2.531-1.049c1.003,0,1.824,0.343,2.463,1.028c0.635,0.681,0.952,1.646,0.952,2.886
		c0,0.076,0,0.19-0.004,0.339h-5.611c0.047,0.825,0.279,1.46,0.703,1.9c0.415,0.436,0.944,0.656,1.57,0.656
		c0.466,0,0.863-0.123,1.193-0.372C528.877,174.447,529.139,174.053,529.334,173.511z M525.152,171.463h4.194
		c-0.055-0.631-0.216-1.105-0.478-1.422c-0.406-0.495-0.935-0.741-1.578-0.741c-0.584,0-1.079,0.195-1.477,0.588
		C525.415,170.282,525.195,170.807,525.152,171.463z M531.758,173.702l1.265-0.203c0.068,0.504,0.267,0.889,0.592,1.164
		c0.326,0.267,0.779,0.402,1.358,0.402c0.588,0,1.024-0.118,1.308-0.355c0.284-0.241,0.427-0.521,0.427-0.842
		c0-0.288-0.127-0.516-0.381-0.677c-0.178-0.118-0.614-0.258-1.308-0.436c-0.935-0.233-1.578-0.436-1.942-0.609
		c-0.36-0.174-0.635-0.411-0.821-0.715c-0.186-0.305-0.279-0.639-0.279-1.007c0-0.339,0.076-0.647,0.229-0.931
		c0.157-0.288,0.364-0.525,0.626-0.711c0.199-0.144,0.47-0.271,0.812-0.372s0.707-0.152,1.1-0.152c0.588,0,1.109,0.085,1.553,0.258
		c0.449,0.169,0.774,0.402,0.99,0.69c0.207,0.292,0.355,0.686,0.436,1.172l-1.248,0.174c-0.055-0.389-0.22-0.698-0.491-0.918
		c-0.271-0.22-0.652-0.33-1.147-0.33c-0.584,0-1.003,0.097-1.253,0.292s-0.377,0.419-0.377,0.677c0,0.169,0.051,0.317,0.157,0.449
		c0.106,0.135,0.267,0.25,0.487,0.339c0.131,0.051,0.504,0.157,1.126,0.33c0.901,0.237,1.532,0.436,1.887,0.588
		c0.36,0.152,0.639,0.377,0.842,0.669c0.207,0.292,0.309,0.656,0.309,1.092c0,0.423-0.123,0.821-0.372,1.198
		c-0.25,0.372-0.609,0.664-1.075,0.868c-0.47,0.207-0.999,0.309-1.591,0.309c-0.978,0-1.722-0.203-2.239-0.605
		C532.228,175.098,531.902,174.497,531.758,173.702z M540.37,179h-0.918c1.413-2.268,2.12-4.537,2.12-6.809
		c0-0.889-0.102-1.769-0.305-2.645c-0.161-0.707-0.385-1.388-0.673-2.04c-0.182-0.423-0.567-1.13-1.143-2.124h0.918
		c0.884,1.185,1.54,2.378,1.964,3.572c0.364,1.028,0.546,2.103,0.546,3.229c0,1.274-0.245,2.509-0.732,3.699
		C541.661,177.074,541.069,178.111,540.37,179z"/>
</g>
</svg>
