<?xml version="1.0" encoding="utf-8"?>
<!-- Generator: Adobe Illustrator 17.0.0, SVG Export Plug-In . SVG Version: 6.00 Build 0)  -->
<!DOCTYPE svg PUBLIC "-//W3C//DTD SVG 1.1//EN" "http://www.w3.org/Graphics/SVG/1.1/DTD/svg11.dtd">
<svg version="1.1" id="Capa_1" xmlns="http://www.w3.org/2000/svg" xmlns:xlink="http://www.w3.org/1999/xlink" x="0px" y="0px"
	 width="599px" height="134px" viewBox="0 0 599 134" enable-background="new 0 0 599 134" xml:space="preserve">
<rect y="0.115" fill="#353970" width="599" height="2.385"/>
<g id="Capa_x0020_1">
	<g id="_877952890816">
		<path fill="#373435" d="M17.139,20.12l-1.928,16.634h-5.39c-0.484-2.555-0.922-5.468-1.315-8.734
			c-0.178,1.404-0.582,4.317-1.209,8.734H1.938L0,20.12h4.206l0.456,5.811L5.1,31.546C5.264,28.64,5.664,24.83,6.298,20.12h4.48
			c0.052,0.495,0.207,2.324,0.459,5.495l0.487,6.331c0.255-4.028,0.659-7.97,1.209-11.826H17.139z M27.264,30.172h-5.383v2.954
			c0,0.617,0.045,1.017,0.133,1.196c0.091,0.179,0.262,0.267,0.518,0.267c0.319,0,0.533-0.119,0.638-0.354
			c0.109-0.238,0.161-0.697,0.161-1.377v-1.802h3.932v1.01c0,0.844-0.052,1.493-0.157,1.945c-0.109,0.452-0.358,0.936-0.747,1.45
			c-0.389,0.516-0.886,0.901-1.486,1.16c-0.6,0.256-1.349,0.386-2.254,0.386c-0.876,0-1.65-0.126-2.323-0.382
			c-0.67-0.253-1.192-0.6-1.567-1.041s-0.63-0.929-0.774-1.461c-0.144-0.53-0.217-1.301-0.217-2.317v-3.978
			c0-1.191,0.161-2.13,0.484-2.821c0.322-0.687,0.847-1.217,1.58-1.581c0.735-0.367,1.577-0.55,2.53-0.55
			c1.164,0,2.124,0.221,2.881,0.662c0.757,0.443,1.29,1.027,1.594,1.756c0.306,0.726,0.456,1.753,0.456,3.074L27.264,30.172
			L27.264,30.172z M23.122,27.964v-0.995c0-0.708-0.039-1.16-0.116-1.367c-0.077-0.208-0.235-0.309-0.473-0.309
			c-0.294,0-0.477,0.087-0.546,0.263c-0.07,0.175-0.105,0.644-0.105,1.413v0.995H23.122z M32.757,20.12v3.943
			c0.343-0.4,0.725-0.697,1.15-0.893c0.42-0.197,0.879-0.295,1.374-0.295c0.568,0,1.062,0.087,1.482,0.267
			c0.417,0.178,0.736,0.427,0.957,0.749c0.221,0.323,0.351,0.638,0.395,0.947c0.046,0.308,0.067,0.968,0.067,1.973v6.148
			c0,0.998-0.067,1.746-0.199,2.233c-0.137,0.49-0.45,0.915-0.943,1.275c-0.498,0.361-1.083,0.541-1.763,0.541
			c-0.487,0-0.943-0.109-1.367-0.322c-0.421-0.215-0.81-0.533-1.16-0.961l-0.267,1.03h-3.869V20.12H32.757z M34.04,26.996
			c0-0.703-0.046-1.163-0.137-1.381c-0.087-0.214-0.267-0.322-0.53-0.322c-0.258,0-0.424,0.094-0.5,0.284
			c-0.078,0.185-0.116,0.662-0.116,1.419v5.879c0,0.732,0.041,1.201,0.13,1.404c0.087,0.208,0.258,0.309,0.518,0.309
			c0.263,0,0.434-0.105,0.516-0.319c0.08-0.211,0.119-0.722,0.119-1.528V26.996z M48.811,25.167h-4.016v-1.23
			c0-0.575-0.052-0.943-0.155-1.101c-0.101-0.157-0.269-0.235-0.507-0.235c-0.26,0-0.456,0.106-0.589,0.32
			c-0.133,0.21-0.199,0.529-0.199,0.96c0,0.555,0.077,0.971,0.228,1.252c0.146,0.276,0.554,0.616,1.223,1.016
			c1.918,1.146,3.126,2.089,3.624,2.821c0.5,0.733,0.749,1.914,0.749,3.541c0,1.184-0.14,2.057-0.417,2.621
			c-0.277,0.561-0.81,1.03-1.605,1.409c-0.792,0.382-1.714,0.571-2.769,0.571c-1.157,0-2.142-0.221-2.962-0.659
			c-0.817-0.439-1.349-0.996-1.605-1.672c-0.253-0.68-0.378-1.644-0.378-2.888v-1.089h4.016v2.022c0,0.624,0.055,1.023,0.168,1.203
			c0.112,0.178,0.313,0.266,0.6,0.266c0.288,0,0.502-0.112,0.642-0.34c0.139-0.224,0.21-0.561,0.21-1.002
			c0-0.978-0.133-1.619-0.4-1.917c-0.276-0.302-0.95-0.807-2.022-1.514c-1.073-0.712-1.781-1.231-2.131-1.553
			c-0.347-0.322-0.637-0.767-0.865-1.335s-0.343-1.294-0.343-2.177c0-1.272,0.161-2.203,0.486-2.792
			c0.327-0.589,0.849-1.048,1.574-1.381c0.726-0.334,1.598-0.498,2.625-0.498c1.121,0,2.075,0.182,2.867,0.543
			c0.788,0.365,1.311,0.82,1.567,1.374c0.255,0.551,0.385,1.486,0.385,2.808L48.811,25.167L48.811,25.167z M54.63,23.127
			l-0.073,1.206c0.372-0.491,0.778-0.856,1.223-1.098c0.445-0.242,0.932-0.361,1.459-0.361c0.644,0,1.201,0.172,1.671,0.519
			c0.466,0.347,0.761,0.746,0.877,1.198c0.116,0.452,0.175,1.22,0.175,2.303v5.745c0,1.24-0.073,2.12-0.221,2.646
			c-0.148,0.522-0.448,0.943-0.904,1.255c-0.456,0.312-1.007,0.466-1.651,0.466c-0.512,0-0.988-0.119-1.427-0.361
			c-0.438-0.242-0.837-0.6-1.201-1.076v3.119h-4.143V23.127H54.63z M55.818,27.091c0-0.845-0.032-1.354-0.094-1.532
			c-0.06-0.179-0.231-0.267-0.516-0.267c-0.276,0-0.452,0.101-0.532,0.309c-0.081,0.203-0.119,0.7-0.119,1.489v5.65
			c0,0.82,0.041,1.335,0.123,1.538c0.084,0.208,0.262,0.309,0.539,0.309c0.27,0,0.434-0.094,0.502-0.284
			c0.066-0.185,0.098-0.644,0.098-1.37L55.818,27.091L55.818,27.091z M65.471,20.12v3.747c0.358-0.33,0.742-0.578,1.157-0.744
			c0.413-0.165,0.858-0.249,1.331-0.249c0.726,0,1.343,0.186,1.854,0.554c0.509,0.372,0.82,0.795,0.936,1.279
			c0.112,0.484,0.169,1.367,0.169,2.646v9.4h-4.144V27.16c0-0.792-0.038-1.304-0.118-1.528c-0.081-0.228-0.256-0.34-0.533-0.34
			c-0.256,0-0.427,0.116-0.518,0.351c-0.089,0.231-0.133,0.694-0.133,1.384v9.726h-4.143V20.12H65.471z M81.747,30.172h-5.383v2.954
			c0,0.617,0.045,1.017,0.133,1.196c0.091,0.179,0.262,0.267,0.518,0.267c0.319,0,0.533-0.119,0.638-0.354
			c0.109-0.238,0.161-0.697,0.161-1.377v-1.802h3.932v1.01c0,0.844-0.052,1.493-0.157,1.945c-0.109,0.452-0.358,0.936-0.747,1.45
			c-0.389,0.516-0.886,0.901-1.486,1.16c-0.6,0.256-1.349,0.386-2.254,0.386c-0.876,0-1.65-0.126-2.323-0.382
			c-0.67-0.253-1.192-0.6-1.567-1.041s-0.63-0.929-0.774-1.461c-0.144-0.53-0.217-1.301-0.217-2.317v-3.978
			c0-1.191,0.161-2.13,0.484-2.821c0.322-0.687,0.847-1.217,1.58-1.581c0.735-0.367,1.577-0.55,2.53-0.55
			c1.164,0,2.124,0.221,2.881,0.662c0.757,0.443,1.29,1.027,1.594,1.756c0.306,0.726,0.456,1.753,0.456,3.074L81.747,30.172
			L81.747,30.172z M77.605,27.964v-0.995c0-0.708-0.039-1.16-0.116-1.367c-0.077-0.208-0.235-0.309-0.473-0.309
			c-0.294,0-0.477,0.087-0.546,0.263c-0.07,0.175-0.105,0.644-0.105,1.413v0.995H77.605z M87.219,23.127l-0.148,1.794
			c0.607-1.289,1.482-1.97,2.628-2.046v4.795c-0.76,0-1.321,0.101-1.678,0.308c-0.358,0.207-0.575,0.491-0.659,0.859
			c-0.081,0.363-0.123,1.209-0.123,2.534v5.383h-4.143V23.127H87.219z M100.022,30.172h-5.383v2.954
			c0,0.617,0.045,1.017,0.133,1.196c0.091,0.179,0.262,0.267,0.518,0.267c0.319,0,0.533-0.119,0.638-0.354
			c0.109-0.238,0.161-0.697,0.161-1.377v-1.802h3.932v1.01c0,0.844-0.052,1.493-0.157,1.945c-0.109,0.452-0.358,0.936-0.747,1.45
			c-0.389,0.516-0.886,0.901-1.486,1.16c-0.6,0.256-1.349,0.386-2.254,0.386c-0.876,0-1.65-0.126-2.323-0.382
			c-0.67-0.253-1.192-0.6-1.567-1.041s-0.63-0.929-0.774-1.461c-0.144-0.53-0.217-1.301-0.217-2.317v-3.978
			c0-1.191,0.161-2.13,0.484-2.821c0.322-0.687,0.847-1.217,1.58-1.581c0.735-0.367,1.577-0.55,2.53-0.55
			c1.164,0,2.124,0.221,2.881,0.662c0.757,0.443,1.29,1.027,1.594,1.756c0.306,0.726,0.456,1.753,0.456,3.074L100.022,30.172
			L100.022,30.172z M95.879,27.964v-0.995c0-0.708-0.039-1.16-0.116-1.367c-0.077-0.208-0.235-0.309-0.473-0.309
			c-0.294,0-0.477,0.087-0.546,0.263c-0.07,0.175-0.105,0.644-0.105,1.413v0.995H95.879z"/>
		<path fill="#373435" d="M49.397,56.515l-0.841-2.567h-4.547l-0.902,2.567h-1.853l4.947-12.325h0.441l4.591,12.325H49.397z
			 M46.345,47.386l-1.895,5.338h3.63L46.345,47.386z M51.961,55.955l0.605-1.531c0.312,0.227,0.7,0.417,1.163,0.57
			c0.464,0.152,0.878,0.229,1.243,0.229c0.649,0,1.171-0.178,1.565-0.532c0.393-0.354,0.591-0.805,0.591-1.351
			c0-0.411-0.11-0.791-0.328-1.142c-0.218-0.351-0.771-0.733-1.652-1.15l-0.983-0.457c-0.833-0.388-1.414-0.847-1.742-1.377
			c-0.332-0.532-0.496-1.172-0.496-1.918c0-0.909,0.322-1.663,0.965-2.261c0.643-0.597,1.468-0.895,2.48-0.895
			c1.345,0,2.284,0.218,2.81,0.657l-0.49,1.45c-0.221-0.162-0.561-0.32-1.014-0.471c-0.457-0.15-0.876-0.227-1.264-0.227
			c-0.567,0-1.011,0.162-1.335,0.483c-0.326,0.32-0.487,0.733-0.487,1.238c0,0.308,0.06,0.591,0.176,0.846
			c0.117,0.255,0.277,0.469,0.485,0.638c0.207,0.172,0.634,0.413,1.275,0.722l0.997,0.476c0.833,0.391,1.414,0.862,1.751,1.406
			c0.334,0.546,0.502,1.238,0.502,2.08c0,0.915-0.369,1.689-1.102,2.326c-0.734,0.637-1.717,0.955-2.947,0.955
			C53.649,56.719,52.726,56.465,51.961,55.955z"/>
	</g>
	<path fill="#373435" d="M400.924,21.75l-3.914,14.816h-3.696l-2.455-9.505c-0.131-0.497-0.209-1.05-0.237-1.664h-0.041
		c-0.064,0.674-0.152,1.231-0.269,1.664l-2.517,9.505h-3.851l-3.891-14.816h3.643l2.085,9.868c0.089,0.42,0.156,0.984,0.195,1.694
		h0.064c0.027-0.529,0.126-1.108,0.3-1.735l2.685-9.826h3.568l2.428,9.949c0.089,0.367,0.169,0.896,0.236,1.591h0.042
		c0.028-0.543,0.099-1.094,0.215-1.651l2.047-9.889L400.924,21.75L400.924,21.75z M411.41,32.206h-6.895
		c0.109,1.534,1.078,2.304,2.9,2.304c1.163,0,2.185-0.275,3.065-0.825v2.356c-0.976,0.522-2.244,0.782-3.807,0.782
		c-1.707,0-3.031-0.472-3.975-1.421c-0.941-0.945-1.413-2.268-1.413-3.961c0-1.756,0.508-3.15,1.528-4.176
		c1.019-1.027,2.27-1.538,3.757-1.538c1.539,0,2.733,0.458,3.576,1.371c0.841,0.917,1.264,2.162,1.264,3.732V32.206L411.41,32.206z
		 M408.388,30.2c0-1.513-0.613-2.271-1.839-2.271c-0.522,0-0.977,0.215-1.356,0.648c-0.385,0.434-0.614,0.977-0.699,1.623H408.388z
		 M416.654,35.335h-0.043v1.231h-3.26V20.904h3.26v6.673h0.042c0.806-1.231,1.951-1.848,3.438-1.848c1.361,0,2.41,0.469,3.146,1.403
		c0.736,0.938,1.106,2.219,1.106,3.844c0,1.764-0.43,3.178-1.289,4.246c-0.864,1.069-2.012,1.602-3.449,1.602
		C418.306,36.823,417.322,36.33,416.654,35.335L416.654,35.335z M416.562,30.874v1.082c0,0.685,0.194,1.249,0.589,1.697
		c0.391,0.447,0.895,0.669,1.507,0.669c0.74,0,1.318-0.286,1.727-0.86S421,32.073,421,31.018c0-0.875-0.19-1.558-0.563-2.052
		c-0.378-0.49-0.909-0.736-1.607-0.736c-0.651,0-1.194,0.243-1.623,0.733C416.776,29.449,416.562,30.087,416.562,30.874z
		 M435.595,36.566h-8.816V21.75h3.338v12.108h5.479v2.708H435.595z M442.303,36.823c-1.761,0-3.146-0.493-4.153-1.481
		c-1.008-0.988-1.512-2.331-1.512-4.025c0-1.749,0.522-3.12,1.567-4.108c1.047-0.988,2.463-1.481,4.242-1.481
		c1.755,0,3.132,0.493,4.131,1.481c0.996,0.988,1.497,2.296,1.497,3.922c0,1.756-0.515,3.146-1.543,4.165
		C445.502,36.316,444.094,36.823,442.303,36.823L442.303,36.823z M442.387,28.229c-0.771,0-1.37,0.264-1.796,0.793
		c-0.426,0.532-0.641,1.284-0.641,2.254c0,2.031,0.82,3.046,2.458,3.046c1.561,0,2.344-1.043,2.344-3.128
		C444.752,29.216,443.963,28.229,442.387,28.229z M460.554,35.356c0,1.965-0.568,3.484-1.702,4.564
		c-1.138,1.075-2.781,1.616-4.937,1.616c-1.422,0-2.55-0.202-3.386-0.61v-2.748c1.089,0.635,2.185,0.952,3.294,0.952
		c1.1,0,1.957-0.294,2.559-0.876c0.607-0.582,0.909-1.371,0.909-2.37v-0.839h-0.039c-0.742,1.185-1.842,1.777-3.294,1.777
		c-1.35,0-2.417-0.476-3.209-1.425c-0.793-0.952-1.187-2.226-1.187-3.823c0-1.793,0.44-3.214,1.321-4.268
		c0.88-1.055,2.039-1.58,3.478-1.58c1.285,0,2.251,0.493,2.892,1.488h0.039v-1.231h3.263L460.554,35.356L460.554,35.356z
		 M457.333,31.484v-0.839c0-0.667-0.197-1.238-0.591-1.711c-0.399-0.469-0.912-0.705-1.544-0.705c-0.726,0-1.294,0.282-1.704,0.846
		c-0.413,0.564-0.621,1.361-0.621,2.388c0,0.882,0.197,1.577,0.589,2.091c0.393,0.515,0.93,0.768,1.609,0.768
		c0.677,0,1.223-0.257,1.639-0.779C457.126,33.026,457.333,32.337,457.333,31.484L457.333,31.484z M464.859,24.311
		c-0.55,0-1-0.163-1.353-0.491c-0.349-0.328-0.525-0.726-0.525-1.203c0-0.49,0.176-0.889,0.525-1.199
		c0.353-0.31,0.803-0.465,1.353-0.465c0.557,0,1.011,0.155,1.357,0.465c0.349,0.31,0.52,0.709,0.52,1.199
		c0,0.495-0.171,0.903-0.52,1.22C465.871,24.152,465.417,24.311,464.859,24.311z M466.439,32.98c0,0.447,0.106,0.786,0.32,1.019
		c0.211,0.23,0.5,0.346,0.857,0.346c0.181,0,0.359-0.018,0.535-0.052c0.181-0.032,0.36-0.067,0.541-0.103v2.296
		c-0.395,0.103-0.808,0.188-1.244,0.25c-0.438,0.067-0.895,0.099-1.368,0.099c-0.433,0-0.827-0.071-1.184-0.215
		c-0.353-0.145-0.655-0.353-0.909-0.628c-0.25-0.271-0.444-0.6-0.582-0.984c-0.138-0.388-0.208-0.821-0.208-1.305v-7.716h3.242
		V32.98L466.439,32.98z M478.073,36.185c-0.738,0.427-1.801,0.638-3.19,0.638c-1.623,0-2.938-0.49-3.941-1.478
		c-1.004-0.984-1.508-2.254-1.508-3.812c0-1.799,0.539-3.214,1.613-4.25c1.079-1.037,2.52-1.556,4.323-1.556
		c1.244,0,2.146,0.165,2.703,0.493v2.772c-0.681-0.511-1.441-0.765-2.28-0.765c-0.937,0-1.677,0.271-2.226,0.821
		c-0.546,0.546-0.821,1.302-0.821,2.267c0,0.935,0.264,1.672,0.786,2.205c0.52,0.536,1.244,0.8,2.156,0.8
		c0.813,0,1.606-0.254,2.385-0.765V36.185z"/>
	<path id="path2565" fill="#4B4B4D" d="M323.333,58.856l1.323,2.653h-1.119l-1.286-2.569h-1.462v2.569h-0.952v-6.495h2.84
		c1.129,0,2.082,0.603,2.082,1.939C324.758,57.992,324.212,58.633,323.333,58.856L323.333,58.856z M322.676,55.932h-1.887v2.088
		h1.887c0.648,0,1.101-0.334,1.101-1.04C323.777,56.303,323.333,55.932,322.676,55.932z"/>
	<path id="path2575" fill="#4B4B4D" d="M330.031,59.413h-3.21c0.102,0.937,0.629,1.336,1.222,1.336c0.407,0,0.731-0.149,1.054-0.389
		l0.565,0.611c-0.426,0.408-0.935,0.641-1.675,0.641c-1.138,0-2.101-0.918-2.101-2.533c0-1.652,0.87-2.543,2.128-2.543
		c1.379,0,2.045,1.122,2.045,2.441C330.059,59.152,330.04,59.31,330.031,59.413z M327.949,57.398c-0.639,0-1.027,0.445-1.111,1.225
		h2.258C329.05,57.955,328.736,57.398,327.949,57.398z"/>
	<path id="path2585" fill="#4B4B4D" d="M334.166,61.509v-0.464c-0.352,0.326-0.759,0.567-1.268,0.567
		c-1.046,0-1.869-0.76-1.869-2.617c0-1.671,0.908-2.46,1.915-2.46c0.491,0,0.954,0.26,1.222,0.557v-1.856l0.944-0.492v6.765H334.166
		L334.166,61.509z M334.176,58.058c-0.214-0.288-0.657-0.641-1.139-0.641c-0.685,0-1.054,0.519-1.054,1.55
		c0,1.225,0.388,1.762,1.092,1.762c0.453,0,0.851-0.306,1.101-0.621L334.176,58.058L334.176,58.058z"/>
	<polygon id="path2595" fill="#4B4B4D" points="343.103,61.509 343.103,58.595 340.123,58.595 340.123,61.509 339.152,61.509 
		339.152,55.014 340.123,55.014 340.123,57.639 343.103,57.639 343.103,55.014 344.074,55.014 344.074,61.509 	"/>
	<path id="path2605" fill="#4B4B4D" d="M348.402,61.509v-0.482c-0.333,0.334-0.805,0.584-1.331,0.584
		c-0.787,0-1.684-0.445-1.684-1.643c0-1.086,0.832-1.578,1.933-1.578c0.454,0,0.814,0.065,1.082,0.186v-0.362
		c0-0.529-0.323-0.826-0.916-0.826c-0.499,0-0.887,0.093-1.268,0.307l-0.369-0.723c0.463-0.288,0.981-0.437,1.665-0.437
		c1.082,0,1.823,0.529,1.823,1.633v3.34L348.402,61.509L348.402,61.509z M348.402,59.43c-0.258-0.13-0.591-0.214-1.109-0.214
		c-0.611,0-1,0.279-1,0.725c0,0.482,0.306,0.807,0.934,0.807c0.51,0,0.954-0.316,1.176-0.622L348.402,59.43L348.402,59.43
		L348.402,59.43z"/>
	<path id="path2615" fill="#4B4B4D" d="M353.029,61.388c-0.233,0.13-0.556,0.222-0.935,0.222c-0.676,0-1.093-0.417-1.093-1.289
		V57.51h-0.694v-0.873h0.694v-1.391l0.935-0.502v1.893h1.204v0.873h-1.204v2.644c0,0.456,0.149,0.585,0.5,0.585
		c0.249,0,0.526-0.093,0.702-0.195L353.029,61.388L353.029,61.388z"/>
	<path id="path2625" fill="#AF1109" d="M308.123,32.189c1.604-0.805,2.696-2.298,2.696-4.135c0-4.284-3.87-5.206-7.396-5.146h-9.516
		h-0.054h-5.276v13.677c0,1.986-0.69,2.674-1.92,2.674c-1.321,0-2.064-0.745-2.064-2.098v-1.894h-5.017v0.888
		c0,4.573,1.749,7.702,7.165,7.702c4.419,0,6.756-1.962,7.112-5.837v5.408h9.828c4.384,0,7.966-1.493,7.966-6.379
		C311.646,34.72,310.303,32.824,308.123,32.189z M299.184,27.044h4.124c1.12,0,2.179,0.492,2.179,1.984
		c0,1.466-1.259,1.954-2.179,1.954h-4.124V27.044z M303.451,39.146h-4.268V34.43h4.268c1.606,0,2.868,0.605,2.868,2.412
		C306.319,38.541,305.144,39.146,303.451,39.146z"/>
	<path id="path2635" fill="#AF1109" d="M300.791,58.034c0-3.466-2.805-6.282-6.263-6.282c-3.464,0-6.268,2.816-6.268,6.282
		c0,3.473,2.804,6.283,6.268,6.283C297.986,64.318,300.791,61.508,300.791,58.034z"/>
	<path id="path2645" fill="#AF1109" d="M284.148,56.053c0-3.072-2.486-5.564-5.551-5.564s-5.548,2.491-5.548,5.564
		s2.483,5.566,5.548,5.566C281.662,61.619,284.148,59.126,284.148,56.053L284.148,56.053z"/>
	<path id="path2655" fill="#AF1109" d="M271.609,45.998c0-2.773-2.239-5.024-5.009-5.024s-5.012,2.251-5.012,5.024
		c0,2.781,2.242,5.03,5.012,5.03C269.369,51.028,271.609,48.779,271.609,45.998z"/>
	<path id="path2665" fill="#AF1109" d="M269.283,32.003c0-2.48-2.002-4.485-4.472-4.485s-4.475,2.004-4.475,4.485
		c0,2.478,2.005,4.49,4.475,4.49C267.281,36.493,269.283,34.481,269.283,32.003z"/>
	<path id="path2675" fill="#AF1109" d="M275.553,19.438c0-2.081-1.686-3.768-3.76-3.768c-2.075,0-3.759,1.688-3.759,3.768
		c0,2.082,1.684,3.768,3.759,3.768C273.867,23.206,275.553,21.52,275.553,19.438z"/>
	<path id="path2685" fill="#AF1109" d="M286.289,13.872c0-1.884-1.52-3.411-3.398-3.411s-3.401,1.527-3.401,3.411
		c0,1.886,1.524,3.413,3.401,3.413S286.289,15.758,286.289,13.872z"/>
	<path id="path2695" fill="#AF1109" d="M297.568,12.076c0-1.586-1.279-2.873-2.863-2.873c-1.579,0-2.864,1.286-2.864,2.873
		c0,1.589,1.285,2.874,2.864,2.874C296.289,14.949,297.568,13.664,297.568,12.076z"/>
	<path id="path2705" fill="#4B4B4D" d="M350.048,34.519c-2.235-0.487-5.651-0.745-5.651-2.156c0-1.036,1.292-1.12,2.093-1.12
		c0.602,0,1.142,0.117,1.548,0.373c0.398,0.26,0.627,0.662,0.627,1.291h4.5c-0.172-3.877-3.584-4.827-6.844-4.827
		c-2.717,0-6.246,0.849-6.734,3.847c-0.667-3.054-3.748-3.847-6.712-3.847c-2.925,0-6.944,0.978-6.944,4.571
		c0,0.064,0.009,0.117,0.011,0.179c-1.134-2.836-3.813-4.75-7.259-4.75c-3.728,0-6.515,2.183-7.458,5.404
		c0.721,0.972,1.1,2.24,1.1,3.564c0,1.087-0.172,2.049-0.499,2.892c1.282,2.376,3.747,3.917,6.857,3.917
		c3.302,0,5.894-1.744,7.103-4.377c0.636,3.382,3.936,4.377,7.167,4.377c2.779,0,5.849-0.913,6.818-3.501
		c1.004,2.679,3.994,3.501,6.927,3.501c3.352,0,7.136-1.321,7.136-5.316C353.832,37.305,353.054,35.124,350.048,34.519z
		 M318.682,40.122c-2.267,0-2.955-2.239-2.955-4.139c0-1.894,0.688-4.17,2.955-4.17c2.262,0,2.979,2.275,2.979,4.17
		C321.661,37.883,320.944,40.122,318.682,40.122z M332.924,40.693c-0.686,0-1.348-0.168-1.807-0.515
		c-0.484-0.373-0.803-0.919-0.803-1.664h-4.159c0.243-0.79,0.378-1.637,0.378-2.532c0-0.418-0.037-0.821-0.092-1.219
		c1.14,1.971,4.001,2.163,6.398,2.772c0.857,0.198,2.377,0.432,2.377,1.578C335.216,40.296,333.865,40.693,332.924,40.693z
		 M346.668,40.693c-0.687,0-1.347-0.168-1.807-0.515c-0.484-0.373-0.803-0.919-0.803-1.664h-3.971
		c-0.011-1.239-0.797-3.394-3.784-3.996c-2.234-0.487-5.501-0.745-5.501-2.156c0-1.036,1.442-1.12,2.242-1.12
		c0.602,0,1.142,0.117,1.548,0.373c0.398,0.26,0.627,0.662,0.627,1.291h4.321c0.173,3.763,4.042,3.868,7.042,4.63
		c0.856,0.198,2.376,0.432,2.376,1.579C348.96,40.296,347.61,40.693,346.668,40.693L346.668,40.693z"/>
	<path id="path2715" fill="#4B4B4D" d="M354.27,25.492h0.433l0.651,1.075h0.424l-0.706-1.095c0.362-0.046,0.637-0.238,0.637-0.68
		c0-0.495-0.287-0.708-0.87-0.708h-0.944v2.483h0.374L354.27,25.492L354.27,25.492z M354.27,25.171v-0.772h0.513
		c0.254,0,0.538,0.06,0.538,0.368c0,0.381-0.284,0.404-0.601,0.404H354.27z"/>
	<path id="path2725" fill="#4B4B4D" d="M357.14,25.331c0,1.342-1.087,2.429-2.425,2.429c-1.341,0-2.428-1.087-2.428-2.429
		c0-1.345,1.087-2.435,2.428-2.435C356.053,22.896,357.14,23.985,357.14,25.331z M354.715,23.328c-1.107,0-2,0.893-2,2.003
		c0,1.104,0.893,1.996,2,1.996c1.1,0,1.993-0.892,1.993-1.996C356.708,24.221,355.815,23.328,354.715,23.328z"/>
	<path id="path2735" fill="#4B4B4D" d="M308.949,61.61c-0.491,0-0.954-0.258-1.222-0.556v0.454h-0.944v-6.273l0.944-0.492V57.1
		c0.351-0.325,0.758-0.565,1.268-0.565c1.044,0,1.868,0.76,1.868,2.617C310.863,60.823,309.957,61.61,308.949,61.61L308.949,61.61z
		 M308.819,57.417c-0.454,0-0.852,0.306-1.101,0.622v2.05c0.212,0.288,0.656,0.641,1.138,0.641c0.685,0,1.055-0.519,1.055-1.55
		C309.911,57.955,309.522,57.417,308.819,57.417z"/>
	<path id="path2745" fill="#4B4B4D" d="M313.749,63.226h-1.008l0.703-1.809l-1.787-4.78h1.046l0.795,2.385
		c0.149,0.427,0.371,1.151,0.426,1.42c0.084-0.288,0.287-0.984,0.434-1.401l0.824-2.404h1.009L313.749,63.226L313.749,63.226z"/>
	<g id="_877952901728">
		<path fill="#373435" d="M147.269,20.12l-1.928,16.634h-5.39c-0.484-2.555-0.922-5.468-1.315-8.734
			c-0.178,1.404-0.582,4.317-1.209,8.734h-5.359L130.13,20.12h4.206l0.456,5.811l0.438,5.614c0.164-2.906,0.564-6.715,1.198-11.426
			h4.48c0.052,0.495,0.207,2.324,0.459,5.495l0.487,6.331c0.255-4.028,0.659-7.97,1.209-11.826h4.206V20.12z M157.394,30.172h-5.383
			v2.954c0,0.617,0.045,1.017,0.133,1.196c0.091,0.179,0.262,0.267,0.518,0.267c0.319,0,0.533-0.119,0.638-0.354
			c0.109-0.238,0.161-0.697,0.161-1.377v-1.802h3.932v1.01c0,0.844-0.052,1.493-0.157,1.945c-0.109,0.452-0.358,0.936-0.747,1.45
			c-0.389,0.516-0.886,0.901-1.486,1.16c-0.6,0.256-1.349,0.386-2.254,0.386c-0.876,0-1.65-0.126-2.323-0.382
			c-0.67-0.253-1.192-0.6-1.567-1.041s-0.63-0.929-0.774-1.461c-0.144-0.53-0.217-1.301-0.217-2.317v-3.978
			c0-1.191,0.161-2.13,0.484-2.821c0.322-0.687,0.847-1.217,1.58-1.581c0.735-0.367,1.577-0.55,2.53-0.55
			c1.164,0,2.124,0.221,2.881,0.662c0.757,0.443,1.29,1.027,1.594,1.756c0.306,0.726,0.456,1.753,0.456,3.074L157.394,30.172
			L157.394,30.172z M153.252,27.964v-0.995c0-0.708-0.039-1.16-0.116-1.367c-0.077-0.208-0.235-0.309-0.473-0.309
			c-0.294,0-0.477,0.087-0.546,0.263c-0.07,0.175-0.105,0.644-0.105,1.413v0.995H153.252z M162.887,20.12v3.943
			c0.343-0.4,0.725-0.697,1.15-0.893c0.42-0.197,0.879-0.295,1.374-0.295c0.568,0,1.062,0.087,1.482,0.267
			c0.417,0.178,0.736,0.427,0.957,0.749c0.221,0.323,0.351,0.638,0.395,0.947c0.046,0.308,0.067,0.968,0.067,1.973v6.148
			c0,0.998-0.067,1.746-0.199,2.233c-0.137,0.49-0.45,0.915-0.943,1.275c-0.498,0.361-1.083,0.541-1.763,0.541
			c-0.487,0-0.943-0.109-1.367-0.322c-0.421-0.215-0.81-0.533-1.16-0.961l-0.267,1.03h-3.869V20.12H162.887z M164.17,26.996
			c0-0.703-0.046-1.163-0.137-1.381c-0.087-0.214-0.267-0.322-0.53-0.322c-0.258,0-0.424,0.094-0.5,0.284
			c-0.078,0.185-0.116,0.662-0.116,1.419v5.879c0,0.732,0.041,1.201,0.13,1.404c0.087,0.208,0.258,0.309,0.518,0.309
			c0.263,0,0.434-0.105,0.516-0.319c0.08-0.211,0.119-0.722,0.119-1.528L164.17,26.996L164.17,26.996z M178.941,25.167h-4.016v-1.23
			c0-0.575-0.052-0.943-0.155-1.101c-0.102-0.157-0.269-0.235-0.507-0.235c-0.26,0-0.456,0.106-0.589,0.32
			c-0.133,0.21-0.199,0.529-0.199,0.96c0,0.555,0.077,0.971,0.228,1.252c0.146,0.276,0.554,0.616,1.223,1.016
			c1.918,1.146,3.126,2.089,3.624,2.821c0.5,0.733,0.749,1.914,0.749,3.541c0,1.184-0.14,2.057-0.417,2.621
			c-0.277,0.561-0.81,1.03-1.605,1.409c-0.792,0.382-1.714,0.571-2.769,0.571c-1.157,0-2.142-0.221-2.962-0.659
			c-0.817-0.439-1.349-0.996-1.605-1.672c-0.253-0.68-0.378-1.644-0.378-2.888v-1.089h4.016v2.022c0,0.624,0.055,1.023,0.168,1.203
			c0.112,0.178,0.313,0.266,0.6,0.266c0.288,0,0.502-0.112,0.642-0.34c0.139-0.224,0.21-0.561,0.21-1.002
			c0-0.978-0.133-1.619-0.4-1.917c-0.276-0.302-0.95-0.807-2.022-1.514c-1.073-0.712-1.781-1.231-2.131-1.553
			c-0.347-0.322-0.637-0.767-0.865-1.335c-0.228-0.568-0.343-1.294-0.343-2.177c0-1.272,0.161-2.203,0.486-2.792
			c0.327-0.589,0.849-1.048,1.574-1.381c0.726-0.334,1.598-0.498,2.625-0.498c1.121,0,2.075,0.182,2.867,0.543
			c0.788,0.365,1.311,0.82,1.567,1.374c0.255,0.551,0.385,1.486,0.385,2.808L178.941,25.167L178.941,25.167z M184.76,23.127
			l-0.073,1.206c0.372-0.491,0.778-0.856,1.223-1.098c0.445-0.242,0.932-0.361,1.459-0.361c0.644,0,1.201,0.172,1.671,0.519
			c0.466,0.347,0.761,0.746,0.877,1.198s0.175,1.22,0.175,2.303v5.745c0,1.24-0.073,2.12-0.221,2.646
			c-0.148,0.522-0.448,0.943-0.904,1.255c-0.456,0.312-1.007,0.466-1.651,0.466c-0.512,0-0.988-0.119-1.427-0.361
			c-0.438-0.242-0.837-0.6-1.201-1.076v3.119h-4.143V23.127H184.76z M185.948,27.091c0-0.845-0.032-1.354-0.094-1.532
			c-0.06-0.179-0.231-0.267-0.516-0.267c-0.276,0-0.452,0.101-0.532,0.309c-0.081,0.203-0.119,0.7-0.119,1.489v5.65
			c0,0.82,0.041,1.335,0.123,1.538c0.084,0.208,0.262,0.309,0.539,0.309c0.27,0,0.434-0.094,0.502-0.284
			c0.066-0.185,0.098-0.644,0.098-1.37v-5.842H185.948z M195.601,20.12v3.747c0.358-0.33,0.742-0.578,1.157-0.744
			c0.413-0.165,0.858-0.249,1.331-0.249c0.726,0,1.343,0.186,1.854,0.554c0.509,0.372,0.82,0.795,0.936,1.279
			c0.112,0.484,0.169,1.367,0.169,2.646v9.4h-4.144V27.16c0-0.792-0.038-1.304-0.118-1.528c-0.081-0.228-0.256-0.34-0.533-0.34
			c-0.256,0-0.427,0.116-0.518,0.351c-0.089,0.231-0.133,0.694-0.133,1.384v9.726h-4.143V20.12H195.601z M211.878,30.172h-5.383
			v2.954c0,0.617,0.045,1.017,0.133,1.196c0.091,0.179,0.262,0.267,0.518,0.267c0.319,0,0.533-0.119,0.639-0.354
			c0.109-0.238,0.161-0.697,0.161-1.377v-1.802h3.932v1.01c0,0.844-0.052,1.493-0.157,1.945c-0.109,0.452-0.358,0.936-0.747,1.45
			c-0.389,0.516-0.886,0.901-1.486,1.16c-0.6,0.256-1.349,0.386-2.254,0.386c-0.876,0-1.65-0.126-2.323-0.382
			c-0.67-0.253-1.192-0.6-1.567-1.041s-0.63-0.929-0.774-1.461c-0.144-0.53-0.217-1.301-0.217-2.317v-3.978
			c0-1.191,0.161-2.13,0.484-2.821c0.322-0.687,0.847-1.217,1.58-1.581c0.735-0.367,1.577-0.55,2.53-0.55
			c1.164,0,2.124,0.221,2.881,0.662c0.757,0.443,1.29,1.027,1.594,1.756c0.306,0.726,0.456,1.753,0.456,3.074L211.878,30.172
			L211.878,30.172z M207.735,27.964v-0.995c0-0.708-0.039-1.16-0.116-1.367c-0.077-0.208-0.235-0.309-0.473-0.309
			c-0.294,0-0.477,0.087-0.546,0.263c-0.07,0.175-0.105,0.644-0.105,1.413v0.995H207.735z M217.349,23.127l-0.148,1.794
			c0.607-1.289,1.482-1.97,2.628-2.046v4.795c-0.76,0-1.321,0.101-1.678,0.308c-0.358,0.207-0.575,0.491-0.659,0.859
			c-0.081,0.363-0.123,1.209-0.123,2.534v5.383h-4.143V23.127H217.349z M230.152,30.172h-5.383v2.954
			c0,0.617,0.045,1.017,0.133,1.196c0.091,0.179,0.262,0.267,0.518,0.267c0.319,0,0.533-0.119,0.638-0.354
			c0.109-0.238,0.161-0.697,0.161-1.377v-1.802h3.932v1.01c0,0.844-0.052,1.493-0.157,1.945c-0.109,0.452-0.358,0.936-0.747,1.45
			c-0.389,0.516-0.886,0.901-1.486,1.16c-0.6,0.256-1.349,0.386-2.254,0.386c-0.876,0-1.65-0.126-2.323-0.382
			c-0.67-0.253-1.192-0.6-1.567-1.041s-0.63-0.929-0.774-1.461c-0.144-0.53-0.217-1.301-0.217-2.317v-3.978
			c0-1.191,0.161-2.13,0.484-2.821c0.322-0.687,0.847-1.217,1.58-1.581c0.735-0.367,1.577-0.55,2.53-0.55
			c1.164,0,2.124,0.221,2.881,0.662c0.757,0.443,1.29,1.027,1.594,1.756c0.306,0.726,0.456,1.753,0.456,3.074L230.152,30.172
			L230.152,30.172z M226.009,27.964v-0.995c0-0.708-0.039-1.16-0.116-1.367c-0.077-0.208-0.235-0.309-0.473-0.309
			c-0.294,0-0.477,0.087-0.546,0.263c-0.07,0.175-0.105,0.644-0.105,1.413v0.995H226.009z"/>
		<path fill="#373435" d="M179.079,56.421l-1.436-7.802l-2.661,7.972h-0.407l-2.745-7.972l-1.403,7.802h-1.58l2.278-12.155h0.748
			l2.915,8.874l2.66-8.874h0.748l2.464,12.155C180.66,56.421,179.079,56.421,179.079,56.421z M193.368,57.321l-0.249,1.616
			c-2.896,0-4.798-0.807-5.698-2.419c-0.17,0.071-0.538,0.107-1.105,0.107c-1.533,0-2.732-0.598-3.598-1.794
			c-0.867-1.192-1.301-2.725-1.301-4.596c0-1.754,0.439-3.224,1.319-4.41c0.882-1.187,2.075-1.78,3.58-1.78
			c1.688,0,2.982,0.544,3.884,1.635c0.898,1.091,1.349,2.609,1.349,4.556c0,2.794-0.837,4.709-2.508,5.752
			c0.601,0.89,1.612,1.334,3.034,1.334L193.368,57.321L193.368,57.321z M186.319,45.541c-1.029,0-1.81,0.42-2.346,1.262
			c-0.536,0.841-0.805,1.986-0.805,3.433c0,1.394,0.275,2.556,0.825,3.491s1.325,1.402,2.326,1.402c1.137,0,2-0.433,2.593-1.297
			c0.591-0.867,0.886-2.065,0.886-3.596C189.798,47.105,188.639,45.541,186.319,45.541z"/>
	</g>
	<g id="_877952904320">
		<path fill="#373435" d="M512.599,36.481c0.216-0.407,0.477-1.164,0.666-1.642c0.502-1.268,4.432-11.436,4.652-11.527l0.013,13.168
			l2.946-0.002l-0.009-17.117l-4.08,0.004c-0.371,1.022-0.856,2.133-1.291,3.164c-0.266,0.63-3.699,9.19-3.851,9.407
			c-0.006,0.008-0.024,0.04-0.027,0.032c-0.005-0.008-0.018,0.021-0.024,0.028l-5.01-12.635l-4.235,0.008l0.009,17.112l2.756-0.012
			c0.076-0.943,0.009-5.292,0.009-6.602c0-1.814-0.052-4.432-0.007-6.215c0.007-0.27,0.039-0.264,0.104-0.335
			c0.827,2.185,1.763,4.388,2.657,6.604c0.437,1.083,0.883,2.199,1.319,3.285c0.428,1.062,0.859,2.268,1.327,3.274L512.599,36.481
			L512.599,36.481z M523.679,24.22c-0.12,0.191-0.032,0.007-0.054,0.161c-0.005,0.038-0.004,0.161-0.002,0.204l0.002,5.748
			c0,1.362-0.065,5.057,0.008,6.137c0.25,0.094,2.587,0.081,2.923,0.019c0.089-0.878,0.014-2.179,0.014-3.102
			c0-0.616,0.08-8.934-0.052-9.182L523.679,24.22z M524.706,19.035c-2.219,0.519-1.471,3.804,0.882,3.239
			c0.805-0.194,1.518-1.002,1.238-2.045C526.612,19.431,525.748,18.791,524.706,19.035z M543.191,26.285l-0.006-2.072
			c-0.541-0.007-2.495-0.07-2.889,0.027v12.223l2.888,0.015c0.072-1.718-0.12-6.004,0.074-7.208c0.253-1.572,1.206-2.779,2.75-2.645
			c0.655,0.058,0.944,0.236,1.419,0.451l0.007-2.912C544.115,23.356,543.508,25.943,543.191,26.285z M538.121,33.315
			c-0.326,0.152-0.597,0.384-0.978,0.567c-2.591,1.244-5.67,0.136-5.626-3.549c0.041-3.509,3.077-4.832,5.683-3.551
			c0.354,0.175,0.644,0.42,0.923,0.542l-0.009-2.792c-0.578-0.202-0.919-0.372-1.632-0.498c-2.783-0.493-5.868,0.502-7.154,3.064
			c-0.494,0.985-0.797,2.089-0.806,3.392c-0.021,2.639,1.172,4.562,2.89,5.5c2.858,1.561,6.591,0.351,6.713-0.117L538.121,33.315
			L538.121,33.315z M561.589,36.094c1.004,0.348,1.869,0.648,3.11,0.677c1.122,0.026,2.258-0.182,3.1-0.646
			c2.049-1.127,2.456-3.509,1.427-5.042c-1.198-1.782-3.966-1.919-4.545-2.961c-0.654-1.174,0.427-1.917,1.57-1.907
			c1.343,0.009,1.906,0.425,2.844,0.886l-0.009-2.663c-2.902-1.203-7.12-0.371-7.472,2.81c-0.394,3.564,3.044,3.866,4.549,4.879
			c0.397,0.267,0.702,0.526,0.662,1.209c-0.066,1.119-1.461,1.26-2.57,1.07c-0.542-0.093-1.024-0.255-1.472-0.45
			c-0.227-0.099-0.406-0.196-0.613-0.319c-0.183-0.11-0.395-0.276-0.581-0.359L561.589,36.094L561.589,36.094z M576.883,26.341
			c2.367-0.319,3.593,1.318,3.716,3.525c0.131,2.351-0.598,4.289-2.808,4.491c-2.403,0.218-3.657-1.317-3.781-3.557
			C573.877,28.41,574.743,26.629,576.883,26.341z M583.555,31.265c0.493-4.12-1.583-7.013-5.333-7.324
			c-4.039-0.338-6.739,1.803-7.161,5.449c-0.476,4.089,1.632,6.981,5.292,7.342C580.418,37.135,583.121,34.877,583.555,31.265z
			 M553.624,26.325c2.362-0.216,3.528,1.443,3.594,3.696c0.071,2.371-0.673,4.211-2.972,4.347c-2.36,0.138-3.571-1.463-3.628-3.725
			C550.558,28.298,551.427,26.526,553.624,26.325z M560.163,31.317c0.511-4.13-1.541-7.042-5.277-7.373
			c-4.085-0.361-6.773,1.789-7.209,5.408c-0.492,4.086,1.592,6.987,5.25,7.376C556.982,37.16,559.719,34.893,560.163,31.317
			L560.163,31.317z M588.864,24.209c-0.06-0.4-0.033-1.37-0.007-1.799c0.034-0.543,0.189-1.034,0.456-1.362
			c0.804-0.985,2.161-0.387,2.732-0.241l-0.008-2.483c-1.002-0.198-1.727-0.339-2.807-0.101c-0.876,0.194-1.557,0.61-2.041,1.063
			c-1.648,1.545-1.135,3.498-1.288,4.923l-2.015,0.007l0.004,2.35l2.023,0.007l0.013,9.907l2.915,0.001l0.007-9.913l4.302,0.002
			c0.196,1.256-0.257,6.328,0.243,7.981c0.799,2.641,4.073,2.526,5.606,1.78l-0.002-2.373c-0.346,0.155-0.513,0.303-0.995,0.386
			c-1.576,0.273-1.927-0.806-1.932-2.199c-0.004-0.9-0.045-5.025,0.013-5.577l2.917-0.01v-2.346l-2.928-0.013l-0.007-3.647
			l-2.894,0.891l-0.018,2.768L588.864,24.209L588.864,24.209z"/>
		<path fill="#373435" d="M545.958,45.954v1.196h-1.161v9.511h1.161v1.196h-3.718V56.66h1.163v-9.511h-1.163v-1.196L545.958,45.954
			L545.958,45.954z M550.483,45.954v1.196h-1.161v9.511h1.161v1.196h-3.718V56.66h1.162v-9.511h-1.162v-1.196L550.483,45.954
			L550.483,45.954z M551.894,57.374v-1.643c0.19,0.166,0.417,0.314,0.677,0.447c0.263,0.133,0.541,0.247,0.83,0.336
			c0.292,0.091,0.584,0.162,0.876,0.214c0.294,0.047,0.567,0.073,0.813,0.073c0.858,0,1.499-0.158,1.924-0.479
			c0.423-0.317,0.635-0.777,0.635-1.371c0-0.322-0.071-0.601-0.212-0.838c-0.142-0.238-0.338-0.457-0.584-0.651
			c-0.249-0.198-0.544-0.386-0.884-0.568c-0.342-0.178-0.708-0.368-1.102-0.567c-0.413-0.209-0.801-0.425-1.161-0.64
			c-0.36-0.216-0.672-0.453-0.938-0.714s-0.473-0.556-0.626-0.884c-0.153-0.329-0.23-0.714-0.23-1.157
			c0-0.544,0.119-1.014,0.358-1.416c0.237-0.402,0.552-0.731,0.937-0.991c0.388-0.261,0.831-0.453,1.327-0.581
			c0.493-0.127,1-0.194,1.513-0.194c1.173,0,2.029,0.142,2.567,0.425v1.57c-0.703-0.486-1.606-0.731-2.706-0.731
			c-0.306,0-0.609,0.031-0.915,0.093c-0.303,0.065-0.576,0.17-0.813,0.312c-0.238,0.145-0.431,0.332-0.581,0.558
			c-0.151,0.227-0.224,0.502-0.224,0.831c0,0.303,0.057,0.567,0.17,0.787c0.113,0.221,0.281,0.423,0.502,0.607
			c0.221,0.181,0.493,0.36,0.811,0.53c0.316,0.172,0.685,0.36,1.099,0.563c0.427,0.214,0.83,0.434,1.212,0.667
			c0.384,0.231,0.718,0.49,1.003,0.771c0.289,0.283,0.516,0.595,0.686,0.937c0.17,0.343,0.253,0.736,0.253,1.179
			c0,0.587-0.113,1.085-0.343,1.491c-0.229,0.407-0.541,0.739-0.929,0.991c-0.391,0.255-0.842,0.439-1.349,0.552
			c-0.51,0.113-1.046,0.17-1.612,0.17c-0.187,0-0.419-0.014-0.696-0.045c-0.275-0.032-0.558-0.074-0.847-0.133
			c-0.286-0.057-0.558-0.131-0.815-0.216C552.257,57.575,552.05,57.48,551.894,57.374z"/>
	</g>
	<polygon fill="#FEFEFE" points="175.906,109.721 178.158,109.725 178.159,107.489 175.916,107.474 	"/>
	<path fill="#F57D00" d="M77.036,116.428c0.081-0.498,1.88-3.316,2.226-3.811l1.862-2.672c1.564-2.154,4.478-5.749,6.143-7.409
		c0.183,0.138,1.297,1.522,1.567,1.794c0.07,0.07,0.117,0.096,0.186,0.172l0.465,0.523c0.098,0.102,0.243,0.201,0.301,0.332
		c-0.258,0.171-2.054,0.578-3.814,1.984c-0.5,0.399-0.813,0.659-1.227,1.107c-0.099,0.107-0.177,0.178-0.288,0.295
		c-1.296,1.374-2.87,4.374-2.792,6.984l0.018,0.701C81.683,116.428,77.036,116.428,77.036,116.428z M120.989,91.579l6.156,0.005
		c-0.204,0.166-0.495,0.334-0.716,0.479c-0.713,0.47-1.589,1.089-2.285,1.501c-0.236-0.098-0.565-0.339-0.793-0.478L120.989,91.579z
		 M127.924,90.813l-7.638-0.001c0.034-0.171,0.943-2.016,1.181-3.249l5.977-0.001c-0.124,0.675-0.183,1.083-0.044,1.789
		c0.054,0.282,0.123,0.52,0.22,0.771C127.699,90.324,127.892,90.654,127.924,90.813z M116.427,83.718l0.663,0.258
		c0.113-0.136,0.169-0.313,0.251-0.457c0.261-0.452,0.579-0.843,0.995-1.161c0.461-0.356,1.548-0.821,2.231-0.362
		c0.994,0.669,0.681,3.554,0.319,4.796l-3.441,0.013l0.001,0.754l3.239,0.001c-0.182,0.85-0.686,2.069-1.068,2.854
		c-0.145,0.299-0.354,0.604-0.469,0.89c0.166,0.171,0.819,0.538,1.066,0.696c0.371,0.236,0.712,0.453,1.075,0.677
		c0.29,0.178,2.03,1.246,2.12,1.366c-0.3,0.264-0.836,0.554-1.173,0.785c-0.258,0.178-0.98,0.689-1.206,0.772
		c0.067,0.25,0.262,0.431,0.371,0.647c0.207-0.054,1.138-0.71,1.383-0.871c0.372-0.244,0.99-0.713,1.362-0.884l2.915,1.884
		c0.112-0.094,0.352-0.485,0.404-0.634c-0.858-0.559-1.802-1.1-2.676-1.663c0.171-0.183,2.722-1.797,3.155-2.076
		c0.307-0.197,0.787-0.472,1.06-0.699c-0.057-0.229-0.545-0.795-0.787-1.645c-0.152-0.533-0.247-1.62,0.037-2.1h3.555l0.002-0.754
		h-3.263c0.079-0.616,0.884-1.638,1.532-2.051c0.8-0.511,1.826-0.659,2.928-0.669l0.011-0.754c-1.375,0-2.568,0.266-3.492,0.916
		c-0.423,0.296-0.782,0.657-1.072,1.083c-0.345,0.51-0.479,0.854-0.732,1.467l-6.032,0.008c0.017-0.76,0.415-1.576,0.286-3.194
		c-0.241-3.002-2.467-2.987-3.999-1.928C117.54,81.985,116.559,83.035,116.427,83.718z M105.422,90.331
		c0.86-0.365,1.814-0.702,2.758-1.022c0.851-0.29,2.012-0.664,2.954-0.847c0.192,1.021,1.526,3.968,1.541,4.08l-2.53,0.002
		l0.008,0.838l2.968,0.006c0.149,0.218,0.554,0.944,0.638,1.17l-3.611,0.009v0.83l4.153,0.005l0.99,1.428
		c0.346,0.467,0.687,0.885,1.054,1.325c0.537,0.643,1.716,1.915,2.34,2.464c0.436,0.384,0.837,0.746,1.301,1.125
		c0.893,0.728,3.194,2.45,4.246,2.955c0.336-0.136,0.948-0.566,1.266-0.759c0.304,0.22,0.712,0.759,1.02,1.054
		c-0.065,0.277-1.544,2.346-1.653,2.641c0.447-0.155,0.978-0.445,1.446-0.65c0.28-0.123,1.255-0.614,1.472-0.635l1.651,1.787
		c-0.137,0.189-1.956,1.522-2.422,1.884c-0.169,0.13-0.228,0.137-0.323,0.284c0.568-0.085,1.394-0.342,1.954-0.492
		c0.395-0.106,1.605-0.466,1.932-0.466c0.153,0.243,1.949,2.109,2.329,2.517l2.628,2.85c0.13,0.139,0.212,0.204,0.335,0.359
		c1.546-0.112,2.803-0.066,4.17,0.795c0.596,0.375,1.553,1.144,1.734,1.846h-5.231c-0.675,0.004-0.788-0.17-1.291-0.428
		c-1.554-0.799-3.017-1.545-4.595-2.324c-1.551-0.766-3.1-1.474-4.695-2.219c-2.912-1.36-6.865-2.951-9.847-3.986
		c-5.687-1.976-10.735-3.158-16.929-3.775c-0.057-1.095,0.303-3.28,0.572-4.426c0.097-0.415,0.268-0.956,0.323-1.362l-1.139-0.276
		c-0.06,0.424-0.236,0.968-0.341,1.425c-0.106,0.467-0.197,0.954-0.28,1.428c-0.175,0.995-0.299,2.083-0.313,3.104
		c-2.005-0.058-4.205-0.234-6.181,0.055c-0.176,0.026-0.379,0.073-0.539,0.091c-0.221,0.025-0.243-0.065-0.356-0.185
		c-0.198-0.212-0.371-0.387-0.569-0.598l-2.252-2.562c0.168-0.332,0.945-0.929,1.227-1.252c0.754-0.865,3.835-3.174,4.021-3.367
		c0.195,0.058,1.164,0.76,1.386,0.916c0.242,0.17,1.164,0.85,1.361,0.91l-0.852-3.132c0.211-0.207,1.957-1.27,2.353-1.52
		c0.266-0.169,0.315-0.037,0.837,0.227c0.556,0.28,1.126,0.569,1.701,0.859c0.305,0.155,1.42,0.752,1.664,0.821l-1.847-3.215
		c0.143-0.143,0.816-0.457,0.994-0.551c0.728-0.388,0.62-0.366,0.937-0.149c0.587,0.4,1.197,0.797,1.775,1.187
		c0.602,0.407,1.178,0.794,1.801,1.209c0.316,0.211,1.543,1.07,1.779,1.163L105.422,90.331z M111.768,84.731
		c-0.401-0.197-0.304-0.256-0.385-0.739c-0.055-0.333-0.101-0.644-0.145-0.99c-0.38-2.991-0.435-7.394,0.401-10.223
		c0.216,0.511,0.225,1.657,1.105,3.434c0.485,0.983,1.251,1.82,2.14,2.35c0.878,0.523,0.738,0.373,1.72,0.135
		c0.597-0.145,1.243-0.277,1.853-0.382c0.82-0.143,3.296-0.531,4.071-0.426c0.369,0.622,1.807,4.158,2.03,4.337l1.294-4.388
		c1.501-0.073,4.238,0.34,5.785,0.674c1.543,0.333,1.021,0.435,1.877-0.289l0.774-0.843c0.647-0.843,1.132-1.783,1.48-2.83
		c0.105-0.314,0.389-1.507,0.483-1.67c0.502,1.636,0.584,8.129,0.437,9.986c-0.045,0.574-0.23,2.807-0.41,3.143
		c-0.153,0.186-1.887,0.746-2.231,1.007l1.957,0.294c-0.009,0.225-0.454,1.875-0.542,1.979c-0.168,0.199-1.663,0.426-1.895,0.637
		l1.484,0.535c-0.058,0.297-0.749,1.895-0.898,2.081l-3.223,0.015l0.005,0.824l2.777,0.001c-0.031,0.211-0.519,1.004-0.647,1.178
		l-2.135,0.015l0.005,0.82l1.591,0.012c-0.13,0.297-0.605,0.903-0.808,1.175c-0.752,1.002-1.95,2.402-2.841,3.177l-1.075,0.944
		c-0.837,0.714-1.984,1.521-2.936,2.094c-0.211,0.126-0.42,0.345-0.669,0.225c-0.856-0.411-1.807-1.01-2.53-1.517
		c-1.564-1.091-2.481-1.92-3.764-3.286c-0.131-0.139-0.329-0.371-0.456-0.533c-0.356-0.458-1.596-1.9-1.698-2.288l1.205-0.011
		l0.001-0.826l-1.747-0.005c-0.126-0.122-0.629-1-0.664-1.174l2.41-0.012l0.001-0.829l-2.857-0.001
		c-0.28-0.376-1.152-2.503-1.306-3.079l1.393-0.392c-0.008-0.008-0.02-0.019-0.027-0.024c-0.269-0.198-1.446-0.546-1.687-0.707
		c-0.17-0.113-0.528-1.574-0.561-1.843l2.792-0.195L111.768,84.731z M109.725,79.274l0.02,0.768
		c-0.021,0.635,0.223,2.797,0.295,3.452c0.035,0.334,0.096,0.626,0.153,0.968c0.06,0.36,0.104,0.655,0.172,0.996
		c0.097,0.489,0.227,1.413,0.438,1.852c-0.162,0.013-0.282,0.061-0.433,0.106l-1.374,0.378c-2.573,0.715-5.788,2.098-8.195,3.302
		l-1.122,0.583c-0.158,0.079-0.236,0.137-0.379,0.204c-1.433,0.682-3.632,2.114-5.008,3.032c-1.603,1.067-3.117,2.254-4.586,3.497
		c-0.417,0.352-0.777,0.749-1.207,1.082c-0.398,0.307-0.812,0.897-1.187,1.148c-0.112-0.168-0.211-0.301-0.332-0.476
		c-0.117-0.168-0.227-0.312-0.328-0.48c-0.064-0.107-0.09-0.148-0.162-0.243c-0.076-0.103-0.092-0.139-0.157-0.245
		c-0.532-0.856-1.08-1.718-1.479-2.653c-0.091-0.214-0.172-0.319-0.254-0.554c-0.079-0.224-0.15-0.354-0.234-0.575l-0.407-1.255
		c-0.066-0.224-0.126-0.398-0.177-0.63c-0.34-1.538-0.376-2.977-0.06-4.513c0.06-0.294,0.136-0.532,0.227-0.805
		c0.038-0.112,0.083-0.262,0.123-0.372c0.215-0.598,0.556-1.206,0.895-1.709c0.269-0.399,0.578-0.804,0.918-1.147
		c1.603-1.619,3.68-2.345,5.964-2.345c0.808,0,1.513,0.042,2.273,0.153c0.235,0.033,0.478,0.098,0.692,0.116
		c0,1.223,0.197,1.773,1.364,2.183c1.938,0.682,4.2,0.714,6.208,0.313c0.991-0.198,1.37-0.438,1.725-0.52
		c-0.046-0.172-0.177-0.289-0.288-0.43c-1.493-1.897-4.659-3.79-7.033-3.79c-0.819,0-1.282,0.487-1.617,1.121
		c-0.486,0-2.018-0.359-3.549-0.359c-1.486,0-3.44,0.42-4.681,1.203c-0.483,0.306-0.949,0.63-1.373,1.008
		c-0.124,0.111-0.188,0.143-0.314,0.269l-0.584,0.629c-0.09,0.097-0.173,0.21-0.261,0.322c-0.526,0.674-1.003,1.408-1.329,2.219
		l-0.441,1.309c-0.046,0.173-0.094,0.313-0.132,0.497c-0.375,1.84-0.211,3.648,0.221,5.384c0.221,0.882,0.576,1.884,0.989,2.693
		l0.941,1.797c0.12,0.21,0.22,0.381,0.347,0.596l0.727,1.115c0.131,0.177,0.249,0.339,0.374,0.523
		c0.136,0.197,0.266,0.353,0.395,0.548c-0.175,0.127-1.103,1.184-1.358,1.471l-0.584,0.673c-0.34,0.348-0.62,0.754-0.942,1.124
		l-2.022,2.514c-0.538,0.649-1.276,1.672-1.759,2.371c-0.238,0.345-0.444,0.634-0.683,0.98c-0.906,1.31-1.845,2.648-2.578,4.067
		c-0.177,0.342-0.432,0.72-0.578,1.083c-0.341,0.849-0.411,0.851-0.411,1.789h7.501c-0.012-0.539-0.224-0.969-0.224-1.526
		c0-1.796,0.23-2.528,0.859-4.079c0.19-0.469,0.478-0.931,0.757-1.354c0.25-0.379,0.991-1.367,1.439-1.705
		c0.12-0.092,0.168-0.148,0.28-0.258c0.303-0.302,0.829-0.707,1.203-0.909c0.152-0.083,0.176-0.125,0.328-0.21
		c0.926-0.512,1.887-0.958,3.04-1.226c0.202,0.135,1.76,1.682,2.201,2.021c0.185,0.142,0.362,0.32,0.552,0.48
		c1.721,1.454,3.484,2.892,5.331,4.189l0.936,0.68c0.105,0.079,0.204,0.172,0.367,0.172h5.435c0-0.582,0.037-1.12-0.277-1.607
		c-0.08-0.125-0.144-0.24-0.254-0.33c-0.699-0.575-1.404-0.8-2.434-0.8c-0.384,0-1.193,0.152-1.438,0.269
		c-0.664-0.991-0.747-0.773-1.341-2.251c-0.157-0.392-0.327-0.932-0.415-1.381c-0.103-0.513-0.208-1.104-0.22-1.62
		c0.417,0.097,2.13,0.237,2.732,0.321l2.67,0.43c2.209,0.367,4.206,0.906,6.276,1.448l1.767,0.524
		c0.592,0.169,1.203,0.345,1.768,0.568c0.201,0.079,0.372,0.104,0.578,0.185l1.731,0.603c1.616,0.584,4.5,1.657,6.043,2.401
		l0.811,0.358c0.106,0.045,0.19,0.063,0.296,0.107c0.181,0.076,0.343,0.158,0.525,0.238c0.184,0.081,0.304,0.158,0.519,0.243
		c0.918,0.362,1.776,0.838,2.683,1.225l2.608,1.255c0.597,0.301,4.104,2.026,4.619,2.34c0.164,0.1,0.892,0.503,1.069,0.503h6.917
		c0.251,0,0.482-1.106-0.215-2.209c-0.078-0.123-0.124-0.164-0.208-0.287c-0.098-0.142-0.11-0.155-0.216-0.277l-0.491-0.497
		c-0.76-0.614-1.656-1.1-2.617-1.336c-0.263-0.064-0.526-0.142-0.758-0.185l-1.784-0.191c-0.381-0.006-0.427-0.039-0.655-0.333
		c-0.163-0.21-0.296-0.319-0.461-0.526l-8.574-9.163c-0.144-0.143-0.408-0.332-0.46-0.528c0.093-0.127,0.379-0.289,0.528-0.414
		c0.103-0.085,0.153-0.106,0.262-0.188c0.109-0.081,0.162-0.135,0.275-0.218c0.361-0.268,0.74-0.558,1.057-0.875l0.764-0.673
		c0.585-0.516,1.16-1.138,1.662-1.707l1.702-2.114c0.085-0.112,0.125-0.164,0.204-0.29c0.078-0.124,0.123-0.171,0.203-0.29
		c0.263-0.393,0.532-0.757,0.754-1.177l3.55,0.001c0.566,0.009,0.402-0.09,0.402-0.899h-3.368c0.09-0.382,0.45-0.74,0.539-1.122
		h2.829v-0.898h-2.381c0.55-1.037,1.18-2.763,1.473-3.915c0.438-1.723,0.679-2.66,0.928-4.46c0.505-3.648,0.227-7.532-0.385-11.147
		c-0.079-0.465-0.182-0.977-0.335-1.415c-0.064-0.179-0.11-0.247-0.153-0.431c-0.701,0.015-2.746,1.364-3.472,1.96
		c-0.157,0.13-0.292,0.227-0.454,0.354l-0.8,0.727c-0.138,0.138-0.244,0.243-0.382,0.381c-0.597,0.595-1.336,1.543-1.538,2.412
		c-0.424-0.098-1.01-0.157-1.45-0.211c-0.585-0.073-1.893-0.098-2.386-0.173l-1.643-0.064c-0.334-0.02-0.484,0.047-0.808,0.046
		c-0.269-0.001-0.539,0-0.81-0.001c-0.577-0.002-1.068,0.085-1.617,0.09c-0.685,0.005-2.363,0.241-3.073,0.34l-0.744,0.11
		c-0.054-0.23-0.103-0.375-0.186-0.578c-0.066-0.162-0.157-0.397-0.249-0.559c-0.203-0.361-0.379-0.626-0.623-0.948
		c-0.71-0.936-1.685-1.776-2.679-2.395c-0.105-0.066-0.137-0.099-0.234-0.17l-0.978-0.595c-0.402-0.245-1.186-0.718-1.609-0.816
		c-0.001,0.004-0.465,0.983-0.664,1.715C109.927,74.873,109.725,76.944,109.725,79.274z"/>
	<path fill="#299926" d="M177.389,112.436l-0.083-14.121l5.961-3.3l5.853,3.299v14.122l6.482-3.325l12.543,7.107l12.537-6.912
		l12.13,6.861l12.098-6.876l12.659,6.65l-0.083-7.511l-5.768-3.236l-0.027-6.773l5.835-3.384l6.037,3.611l-0.066,6.281l6.295-3.722
		l0.368-6.63l-12.334-7.086l-12.592,6.901l0.081-15.045l-6.524,4.239l-0.111,7.25l-5.841-3.228l-12.16,7.069l-12.595-7.022
		l-12.455,6.75l-12.362-6.911l-12.476,7.09l0.207,14.323L177.389,112.436L177.389,112.436z M253.855,99.81l0.078,4.099l3.722,2.162
		l3.732-2.242v-4.088l-3.548-2.01L253.855,99.81L253.855,99.81z M238.799,105.429l-5.697,3.405l-6.183-3.204l-0.015-7.195
		l11.827-7.007L238.799,105.429z M202.071,105.486l-0.041-6.948l5.875-3.502l6.026,3.748l0.004,6.531l-5.565,3.341L202.071,105.486z
		"/>
	<g id="_877952905536">
		<path fill="#AF1109" d="M326.063,98.044h-7.972c-1.892,0-3.904-1.894-3.904-4.069c0-2.523,1.815-4.399,4.399-4.399h6.983
			c0.793,0,1.539,0.182,2.134,0.505c3.129,1.703,2.889,6.054-0.044,7.524C327.266,97.801,326.643,98.044,326.063,98.044
			L326.063,98.044z M311.657,93.809c0,1.987,0.851,3.575,1.855,4.578c0.626,0.624,0.97,0.931,1.828,1.362
			c0.635,0.317,1.639,0.659,2.585,0.659h8.303c2.442,0,4.858-1.808,5.774-4.122c0.847-2.137,0.536-4.575-0.849-6.411
			c-0.275-0.366-0.474-0.548-0.787-0.862c-1.243-1.251-2.993-1.801-4.853-1.801h-6.872c-1.121,0-2.049,0.173-2.853,0.502
			c-0.577,0.235-1.113,0.554-1.603,0.926c-0.11,0.085-0.127,0.11-0.232,0.208c-0.422,0.393-0.644,0.565-1.03,1.113
			C312.155,91.049,311.657,92.322,311.657,93.809L311.657,93.809z"/>
		<path fill="#AF1109" d="M397.873,93.48c0,1.552,0.119,2.303,0.862,3.647c1.138,2.058,3.358,3.282,5.791,3.281h7.753
			c0.087-0.325,1.404-2.062,1.429-2.364c-1.153,0-9.297,0.084-9.994-0.068c-1.009-0.218-1.875-0.781-2.48-1.589
			c-0.203-0.27-0.634-0.968-0.667-1.368h10.776c0.347-0.655,1.211-1.847,1.485-2.364h-12.261c0.018-0.214,0.144-0.489,0.22-0.66
			c0.627-1.409,2.221-2.43,3.958-2.419c2.436,0.013,4.877,0,7.314,0l1.088-1.715c0.127-0.19,0.32-0.398,0.341-0.649
			c-1.814,0-3.629,0-5.443,0c-2.816,0-4.978-0.326-7.138,1.055c-1.167,0.746-1.959,1.721-2.521,2.978
			C398.126,91.829,397.873,92.663,397.873,93.48z"/>
		<path fill="#AF1109" d="M333.762,87.377v13.031h2.583V89.576h8.249c2.331,0,2.959,2.914,1.153,3.957
			c-0.679,0.393-1.494,0.276-2.528,0.276c-1.888,0-3.775,0-5.664,0c0.047,0.071,0.471,0.448,0.574,0.528l0.879,0.769
			c0.152,0.118,0.161,0.129,0.293,0.257l0.62,0.536c0.132,0.102,0.164,0.145,0.288,0.261l4.472,3.886
			c0.336,0.26,0.179,0.369,0.735,0.364l3.357-0.002l-1.869-1.594c-0.218-0.17-0.4-0.346-0.621-0.533l-2.513-2.105
			c1.715,0,3.026-0.08,4.25-1.304c0.127-0.127,0.15-0.195,0.273-0.332c0.175-0.195,0.389-0.504,0.518-0.746
			c0.792-1.482,0.638-3.406-0.351-4.728c-0.194-0.258-0.332-0.38-0.552-0.602c-0.773-0.778-1.841-1.251-3.368-1.251h-10.612
			C333.799,87.212,333.762,87.249,333.762,87.377z"/>
		<path fill="#AF1109" d="M349.377,100.408h3.024l4.047-6.456c0.235-0.359,2.292-3.732,2.496-3.882l2.595,4.224
			c0.156,0.241,0.817,1.244,0.869,1.44h-6.653c0.018,0.209,0.878,1.473,1.055,1.749c0.116,0.179,0.322,0.418,0.374,0.615h6.874
			c0.406,0.767,1.046,1.689,1.375,2.31h3.024c-0.384-0.574-0.733-1.144-1.122-1.737l-2.229-3.489
			c-0.643-1.078-1.545-2.378-2.225-3.493l-1.678-2.609c-0.288-0.483-0.795-1.361-1.222-1.638c-1.022-0.667-2.189-0.322-2.814,0.742
			l-1.664,2.625c-0.107,0.165-0.184,0.269-0.287,0.428c-0.103,0.159-0.168,0.282-0.274,0.44l-5.291,8.291
			C349.554,100.114,349.475,100.261,349.377,100.408L349.377,100.408z"/>
		<path fill="#AF1109" d="M367.137,93.48c0,1.299,0.052,2.005,0.615,3.179c0.975,2.032,3.202,3.748,5.653,3.748h8.028
			c0.172,0,0.192-0.181,0.418-0.517c0.148-0.218,0.237-0.385,0.385-0.604c0.146-0.218,0.72-1.044,0.736-1.243
			c-2.785,0-5.572,0-8.357,0c-0.783,0-1.314,0.042-1.945-0.145c-0.554-0.164-0.976-0.393-1.387-0.702
			c-1.815-1.361-2.147-4.139-0.817-5.886c1.67-2.192,3.863-1.735,6.622-1.735c1.412,0,2.823,0,4.235,0
			c0.116-0.22,0.228-0.354,0.361-0.572c0.177-0.292,1.046-1.521,1.068-1.792c-1.814,0-3.629,0-5.443,0
			c-1.679,0-3.94-0.13-5.268,0.23c-0.687,0.186-1.316,0.471-1.869,0.825C368.5,89.335,367.137,91.399,367.137,93.48z"/>
		<path fill="#AF1109" d="M384.127,99.198c0,0.596,0.565,1.21,1.154,1.21h11.602c0.171,0,0.317-0.365,0.418-0.517
			c0.178-0.274,1.1-1.578,1.122-1.847h-11.712V87.377c0-0.127-0.038-0.165-0.164-0.165h-2.419L384.127,99.198L384.127,99.198z"/>
		<path fill="#AF1109" d="M416.073,89.795c-1.635,0-1.448-2.375-0.012-2.294C417.633,87.589,417.436,89.795,416.073,89.795z
			 M414.533,88.641c0,0.805,0.613,1.446,1.409,1.5c0.867,0.058,1.56-0.679,1.56-1.335v-0.33c0-1.327-2.136-1.912-2.822-0.457
			C414.63,88.126,414.533,88.512,414.533,88.641z"/>
		<path fill="#AF1109" d="M415.962,88.531h-0.164v-0.44c0.456,0,0.495-0.044,0.495,0.221
			C416.293,88.48,416.132,88.531,415.962,88.531z M415.468,89.466h0.33v-0.66c0.281,0.006,0.253,0.048,0.351,0.254
			c0.077,0.163,0.16,0.262,0.199,0.406h0.385c-0.048-0.204-0.208-0.43-0.33-0.66c0.08-0.119,0.275-0.312,0.275-0.495
			c0-0.651-0.746-0.55-1.21-0.55L415.468,89.466L415.468,89.466z"/>
	</g>
	<path fill="#AF1109" d="M354.202,133.565V119.71h1.899v13.855H354.202z M361.164,121.415v3.837h4.864v1.607h-4.864v6.705h-1.898
		V119.71h8.564v1.705H361.164L361.164,121.415z M368.815,132.925l0.692-1.743c0.355,0.257,0.798,0.474,1.324,0.649
		c0.529,0.173,1.001,0.261,1.417,0.261c0.739,0,1.334-0.203,1.782-0.607c0.45-0.404,0.675-0.917,0.675-1.54
		c0-0.469-0.126-0.902-0.374-1.302c-0.249-0.4-0.878-0.837-1.882-1.311l-1.121-0.52c-0.949-0.443-1.611-0.965-1.986-1.57
		c-0.378-0.607-0.565-1.336-0.565-2.186c0-1.036,0.368-1.895,1.101-2.578c0.734-0.681,1.674-1.02,2.827-1.02
		c1.533,0,2.602,0.248,3.203,0.749l-0.558,1.653c-0.253-0.184-0.64-0.366-1.157-0.537c-0.519-0.171-0.997-0.258-1.44-0.258
		c-0.647,0-1.153,0.184-1.521,0.55c-0.372,0.365-0.556,0.836-0.556,1.41c0,0.353,0.068,0.675,0.201,0.967
		c0.132,0.29,0.316,0.532,0.552,0.726c0.236,0.197,0.723,0.472,1.453,0.824l1.137,0.543c0.95,0.445,1.612,0.981,1.996,1.602
		c0.381,0.623,0.572,1.412,0.572,2.37c0,1.043-0.42,1.925-1.257,2.652c-0.836,0.727-1.957,1.088-3.358,1.088
		C370.74,133.797,369.687,133.507,368.815,132.925L368.815,132.925z"/>
	<g id="_877952908864">
		<g>
			<path fill="#AF1109" d="M463.833,95.068h-7.972c-1.892,0-3.904-1.893-3.904-4.068c0-2.523,1.815-4.399,4.399-4.399h6.983
				c0.793,0,1.539,0.182,2.134,0.505c3.129,1.703,2.889,6.054-0.044,7.523C465.035,94.826,464.412,95.068,463.833,95.068z
				 M449.427,90.835c0,1.986,0.851,3.575,1.855,4.578c0.626,0.624,0.969,0.931,1.828,1.361c0.635,0.319,1.639,0.66,2.585,0.66h8.303
				c2.442,0,4.858-1.809,5.774-4.124c0.846-2.137,0.536-4.573-0.849-6.41c-0.276-0.366-0.476-0.549-0.787-0.863
				c-1.243-1.25-2.993-1.801-4.853-1.801h-6.872c-1.121,0-2.049,0.175-2.853,0.503c-0.577,0.235-1.113,0.554-1.603,0.926
				c-0.111,0.084-0.127,0.11-0.232,0.207c-0.423,0.394-0.644,0.567-1.03,1.114C449.924,88.073,449.427,89.348,449.427,90.835
				L449.427,90.835z"/>
			<path fill="#AF1109" d="M535.643,90.506c0,1.552,0.119,2.301,0.862,3.646c1.138,2.058,3.357,3.282,5.791,3.282h7.753
				c0.086-0.325,1.404-2.063,1.429-2.365c-1.153,0-9.297,0.084-9.994-0.067c-1.009-0.218-1.877-0.782-2.48-1.589
				c-0.203-0.271-0.634-0.969-0.667-1.368h10.776c0.347-0.656,1.211-1.847,1.485-2.364h-12.261c0.018-0.214,0.144-0.489,0.22-0.66
				c0.627-1.409,2.221-2.43,3.958-2.421c2.436,0.014,4.877,0.001,7.314,0.001l1.088-1.716c0.126-0.19,0.32-0.398,0.341-0.649
				c-1.815,0-3.629,0-5.443,0c-2.817,0-4.978-0.325-7.138,1.056c-1.168,0.746-1.96,1.721-2.521,2.976
				C535.895,88.853,535.643,89.689,535.643,90.506z"/>
			<path fill="#AF1109" d="M471.531,84.402v13.032h2.583V86.602h8.247c2.331,0,2.959,2.914,1.154,3.957
				c-0.68,0.393-1.494,0.276-2.528,0.276c-1.888,0-3.776,0-5.664,0c0.047,0.071,0.471,0.447,0.574,0.526l0.879,0.771
				c0.152,0.117,0.161,0.129,0.293,0.257l0.618,0.535c0.133,0.101,0.164,0.146,0.289,0.262l4.472,3.885
				c0.336,0.261,0.179,0.371,0.735,0.365l3.357-0.002l-1.869-1.594c-0.218-0.17-0.4-0.347-0.621-0.533l-2.513-2.107
				c1.715,0,3.025-0.079,4.249-1.303c0.129-0.129,0.151-0.196,0.274-0.332c0.175-0.195,0.389-0.505,0.518-0.746
				c0.791-1.482,0.637-3.407-0.352-4.728c-0.194-0.26-0.33-0.38-0.552-0.603c-0.773-0.778-1.84-1.251-3.367-1.251h-10.612
				C471.569,84.236,471.531,84.275,471.531,84.402z"/>
			<path fill="#AF1109" d="M487.147,97.434h3.024l4.046-6.456c0.236-0.36,2.293-3.732,2.497-3.882l2.595,4.223
				c0.156,0.241,0.817,1.245,0.869,1.441h-6.653c0.018,0.208,0.878,1.473,1.055,1.749c0.116,0.179,0.322,0.418,0.374,0.615h6.874
				c0.406,0.767,1.046,1.688,1.374,2.31h3.025c-0.384-0.574-0.733-1.144-1.122-1.737l-2.229-3.489
				c-0.643-1.078-1.545-2.378-2.225-3.493l-1.679-2.611c-0.288-0.482-0.795-1.36-1.22-1.638c-1.022-0.666-2.189-0.321-2.814,0.744
				l-1.664,2.625c-0.107,0.164-0.185,0.269-0.287,0.427c-0.103,0.161-0.168,0.282-0.275,0.441l-5.29,8.291
				C487.324,97.138,487.245,97.287,487.147,97.434L487.147,97.434z"/>
			<path fill="#AF1109" d="M504.906,90.506c0,1.299,0.052,2.005,0.615,3.178c0.975,2.034,3.202,3.75,5.653,3.75h8.028
				c0.172,0,0.192-0.181,0.418-0.517c0.148-0.22,0.237-0.385,0.385-0.605c0.146-0.218,0.72-1.044,0.736-1.243
				c-2.785,0-5.572,0-8.357,0c-0.782,0-1.314,0.044-1.945-0.144c-0.554-0.164-0.976-0.394-1.388-0.702
				c-1.815-1.361-2.147-4.139-0.816-5.886c1.669-2.192,3.863-1.735,6.622-1.735c1.411,0,2.823,0,4.235,0
				c0.116-0.22,0.228-0.354,0.361-0.574c0.177-0.29,1.046-1.52,1.068-1.792c-1.815,0-3.629,0-5.443,0
				c-1.679,0-3.94-0.13-5.268,0.231c-0.688,0.185-1.316,0.471-1.869,0.825C506.27,86.361,504.906,88.424,504.906,90.506
				L504.906,90.506z"/>
			<path fill="#AF1109" d="M521.897,96.224c0,0.596,0.564,1.21,1.154,1.21h11.602c0.17,0,0.318-0.365,0.418-0.518
				c0.178-0.273,1.1-1.577,1.122-1.847H524.48V84.402c0-0.126-0.038-0.165-0.165-0.165h-2.418V96.224z"/>
			<path fill="#AF1109" d="M553.842,86.821c-1.633,0-1.447-2.376-0.011-2.294C555.402,84.614,555.206,86.821,553.842,86.821z
				 M552.303,85.667c0,0.805,0.612,1.446,1.409,1.499c0.866,0.059,1.56-0.679,1.56-1.334v-0.33c0-1.328-2.137-1.913-2.822-0.458
				C552.399,85.151,552.303,85.538,552.303,85.667z"/>
			<path fill="#AF1109" d="M553.732,85.557h-0.164v-0.44c0.454,0,0.495-0.044,0.495,0.22
				C554.062,85.505,553.901,85.557,553.732,85.557z M553.237,86.492h0.33v-0.66c0.28,0.006,0.253,0.048,0.351,0.254
				c0.077,0.162,0.16,0.262,0.198,0.406h0.386c-0.048-0.205-0.209-0.43-0.33-0.66c0.08-0.119,0.275-0.313,0.275-0.496
				c0-0.651-0.746-0.55-1.21-0.55V86.492z"/>
		</g>
		<path fill="#AF1109" d="M487.822,130.59l-0.96-2.926h-5.184l-1.027,2.926h-2.113l5.639-14.048h0.504l5.232,14.048H487.822
			L487.822,130.59z M484.344,120.186l-2.161,6.084h4.137L484.344,120.186z M490.744,129.951l0.692-1.743
			c0.355,0.257,0.798,0.474,1.324,0.649c0.529,0.173,1.001,0.261,1.417,0.261c0.739,0,1.334-0.203,1.782-0.607
			c0.45-0.404,0.675-0.917,0.675-1.54c0-0.469-0.126-0.902-0.374-1.302c-0.249-0.4-0.878-0.837-1.882-1.311l-1.121-0.52
			c-0.949-0.443-1.611-0.965-1.986-1.57c-0.378-0.607-0.565-1.336-0.565-2.186c0-1.036,0.368-1.895,1.101-2.578
			c0.734-0.681,1.674-1.02,2.827-1.02c1.533,0,2.602,0.248,3.203,0.749l-0.558,1.653c-0.253-0.184-0.64-0.366-1.157-0.537
			c-0.519-0.171-0.997-0.258-1.44-0.258c-0.647,0-1.153,0.184-1.521,0.55c-0.372,0.365-0.556,0.836-0.556,1.41
			c0,0.353,0.068,0.675,0.201,0.967c0.132,0.29,0.316,0.532,0.552,0.726c0.236,0.197,0.723,0.472,1.453,0.824l1.137,0.543
			c0.95,0.445,1.612,0.981,1.996,1.602c0.381,0.623,0.572,1.412,0.572,2.37c0,1.043-0.42,1.925-1.257,2.652
			c-0.836,0.727-1.957,1.088-3.358,1.088C492.669,130.823,491.616,130.533,490.744,129.951L490.744,129.951z M502.577,130.59h-1.525
			l5.019-13.912h1.524L502.577,130.59z M511.175,130.59v-13.854h1.899v13.854H511.175L511.175,130.59z M524.125,130.59l-0.959-2.926
			h-5.184l-1.027,2.926h-2.113l5.639-14.048h0.504l5.232,14.048H524.125L524.125,130.59z M520.647,120.186l-2.161,6.084h4.137
			L520.647,120.186L520.647,120.186z M527.047,129.951l0.692-1.743c0.355,0.257,0.798,0.474,1.324,0.649
			c0.529,0.173,1.001,0.261,1.417,0.261c0.739,0,1.334-0.203,1.782-0.607c0.45-0.404,0.675-0.917,0.675-1.54
			c0-0.469-0.126-0.902-0.374-1.302c-0.249-0.4-0.878-0.837-1.882-1.311l-1.121-0.52c-0.949-0.443-1.611-0.965-1.986-1.57
			c-0.378-0.607-0.565-1.336-0.565-2.186c0-1.036,0.368-1.895,1.101-2.578c0.734-0.681,1.674-1.02,2.827-1.02
			c1.533,0,2.602,0.248,3.203,0.749l-0.558,1.653c-0.253-0.184-0.64-0.366-1.157-0.537c-0.519-0.171-0.997-0.258-1.44-0.258
			c-0.647,0-1.153,0.184-1.521,0.55c-0.372,0.365-0.556,0.836-0.556,1.41c0,0.353,0.068,0.675,0.201,0.967
			c0.132,0.29,0.316,0.532,0.552,0.726c0.236,0.197,0.723,0.472,1.453,0.824l1.136,0.543c0.95,0.445,1.612,0.981,1.996,1.602
			c0.381,0.623,0.572,1.412,0.572,2.37c0,1.043-0.42,1.925-1.257,2.652c-0.836,0.727-1.957,1.088-3.358,1.088
			C528.972,130.823,527.919,130.533,527.047,129.951L527.047,129.951z"/>
	</g>
</g>
</svg>
