<?xml version="1.0" encoding="utf-8"?>
<!-- Generator: Adobe Illustrator 17.0.0, SVG Export Plug-In . SVG Version: 6.00 Build 0)  -->
<!DOCTYPE svg PUBLIC "-//W3C//DTD SVG 1.1//EN" "http://www.w3.org/Graphics/SVG/1.1/DTD/svg11.dtd">
<svg version="1.1" id="Capa_1" xmlns="http://www.w3.org/2000/svg" xmlns:xlink="http://www.w3.org/1999/xlink" x="0px" y="0px"
	 width="599px" height="251px" viewBox="0 0 599 251" enable-background="new 0 0 599 251" xml:space="preserve">
<rect y="0.115" fill="#880E4F" width="599" height="2.385"/>
<g id="_877952928096">
	<g id="_877952905984">
		<g>
			<path fill="#52658C" d="M296.378,218.401h4.436v-17.519l6.868,15.272c0.81,1.849,1.919,2.503,4.095,2.503
				c2.175,0,3.241-0.653,4.053-2.503l6.867-15.272v17.519h4.437v-17.489c0-1.707-0.683-2.531-2.09-2.958
				c-3.37-1.052-5.631-0.142-6.655,2.134l-6.741,15.071l-6.526-15.071c-0.981-2.275-3.285-3.186-6.655-2.134
				c-1.408,0.427-2.09,1.251-2.09,2.958L296.378,218.401L296.378,218.401z"/>
		</g>
		<g>
			<path fill="#52658C" d="M330.822,204.142h4.435v9.65c-0.041,0.525,0.169,1.755,2.598,1.794c1.241,0.019,9.569,0,9.647,0v-11.492
				h4.445c0.021,0-0.005,15.672-0.004,15.738c0.025,3.865-4.796,4.705-7.018,4.77h-14.007v-2.985c0.025,0,13.998,0.004,14.032,0
				c2.855-0.302,2.518-1.721,2.518-2.199v-1.164h-9.429c-4.388-0.04-7.181-1.954-7.216-4.156
				C330.822,213.893,330.919,204.238,330.822,204.142L330.822,204.142z"/>
		</g>
		<g>
			<path fill="#F57D00" d="M355.366,218.401h12.755c1.492,0,2.943-0.313,4.095-0.853c1.919-0.882,2.858-2.076,2.858-3.641v-3.241
				c0-1.28-1.066-2.475-3.157-3.271c-1.109-0.427-2.473-0.655-3.796-0.655h-5.376c-1.79,0-2.644-0.54-2.857-1.734
				c-0.044-0.143-0.044-0.256-0.044-0.399v-2.019c0-0.113,0-0.228,0.044-0.369c0.212-0.911,0.682-1.166,2.26-1.308
				c0.129,0,0.298-0.029,0.427-0.029h12.669v-2.957h-12.455c-1.792,0-2.73,0.114-3.583,0.369c-2.644,0.826-3.797,2.134-3.797,4.409
				v2.588c0,1.991,2.261,3.696,6.058,4.095c0.427,0.028,0.853,0.057,1.279,0.057h4.607c0.171,0,0.342,0,0.469,0.028
				c1.408,0.114,2.005,0.37,2.432,0.882c0.256,0.255,0.341,0.512,0.341,0.796v2.588c0,0.313-0.214,0.711-0.639,1.052
				c-0.385,0.341-1.024,0.569-1.878,0.626c-0.17,0-0.298,0.028-0.468,0.028h-12.243L355.366,218.401L355.366,218.401z"/>
		</g>
		<g>
			<path fill="#F57D00" d="M402.749,213.254c0,3.043,2.26,4.75,6.824,5.091c0.427,0.028,0.854,0.057,1.28,0.057h11.561v-2.957
				h-11.646c-2.602,0-3.583-0.655-3.583-2.219v-15.3h-4.436V213.254z"/>
		</g>
		<g>
			<path fill="#F57D00" d="M377.905,213.409v-10.544c0-2.679,1.881-4.304,5.6-4.817c0.385-0.057,0.813-0.085,1.197-0.085h8.42
				c0.427,0,0.813,0.028,1.24,0.085c3.719,0.513,5.6,2.138,5.6,4.817v10.544c0,2.173-0.799,3.336-2.64,4.094l4.37,3.944h-5.151
				l-3.536-3.192l-3.56,0.226h-4.744c-0.813,0-1.668-0.114-2.608-0.372C379.273,217.342,377.905,215.86,377.905,213.409
				L377.905,213.409z M382.693,213.152c0,0.143,0.042,0.285,0.085,0.456c0.257,1.225,1.411,1.91,3.163,1.91h4.03l-3.702-3.343h5.152
				l3.228,2.914c0.596-0.317,0.987-0.802,1.124-1.425c0.042-0.143,0.042-0.284,0.042-0.427v-10.116c0-0.114,0-0.257-0.042-0.4
				c-0.257-1.139-1.411-1.795-3.121-1.795h-6.711c-1.966,0-3.248,0.855-3.248,2.195V213.152L382.693,213.152z"/>
		</g>
		<g>
			<path fill="#52658C" d="M426.317,193.019c-2.728-0.073-4.811,0.18-6.592,0.931c-0.506,0.213-1.313,0.219-1.395,0.854
				c0.278,0.291,0.322,0.727,0.543,1.085c0.426,0.689,1.143,1.61,1.783,2.094c0.701,0.528,1.421,1.093,2.171,1.551
				c1.335,0.814,2.825,1.279,4.11,2.094c0.757,0.481,1.51,1.086,2.248,1.629c0.366,0.268,0.611,0.685,1.085,0.853
				c0-0.026,0-0.052,0-0.078c-0.249-0.317-0.314-0.754-0.543-1.085c-0.336-0.336-0.671-0.672-1.008-1.008
				c-0.985-1.308-2.236-2.457-3.567-3.412c-1.06-0.761-3.433-1.789-3.877-3.023c-0.026-0.026-0.051-0.052-0.078-0.078
				c0.752-0.085,1.634-0.357,2.327-0.544c1.166-0.313,2.208-0.231,3.412-0.543c0.543-0.155,1.085-0.31,1.628-0.465
				c0-0.104,0-0.206,0-0.31c-0.609-0.625-1.043-1.451-1.706-2.016c-1.736-1.479-3.632-2.956-5.584-4.188
				c-1.082-0.683-2.419-1.126-3.567-1.705c-0.386-0.195-1.064-0.296-1.319-0.62c-0.603-0.769-0.931-1.742-1.395-2.637
				c-0.973-1.874-1.93-3.921-2.792-5.893c-0.587-1.345-0.972-2.671-1.706-3.877c-3.521-5.789-7.31-9.284-13.182-12.717
				c-1.249-0.731-2.753-1.019-4.343-1.396c-0.853-0.051-1.706-0.103-2.558-0.154c-0.521-0.218-1.063-0.855-1.551-1.163
				c-1.945-1.229-6.934-3.902-8.374-0.388c-0.909,2.217,1.36,4.382,2.17,5.506c0.571,0.788,1.3,1.672,1.707,2.558
				c0.268,0.583,0.314,1.168,0.543,1.785c0.564,1.518,1.054,3.17,1.783,4.574c0.369,0.71,0.775,1.459,1.241,2.094
				c0.285,0.39,0.775,0.561,0.853,1.164c-0.479,0.67-0.506,1.709-0.775,2.558c-1.212,3.821-0.755,8.571,1.007,11.4
				c0.541,0.868,1.815,2.729,3.568,2.016c1.532-0.624,1.19-2.558,1.628-4.265c0.099-0.387,0.039-0.671,0.232-0.931
				c0,0.026,0,0.052,0,0.078c0.466,0.931,0.931,1.861,1.396,2.791c1.033,1.664,2.866,3.403,4.419,4.576
				c0.806,0.607,1.44,1.66,2.482,2.016c0-0.026,0-0.052,0-0.078c-0.026,0-0.052,0-0.078,0c-0.202-0.315-0.518-0.445-0.775-0.698
				c-0.607-0.594-1.282-1.334-1.783-2.016c-1.413-1.918-2.662-4.017-3.8-6.203c-0.543-1.044-1.016-2.195-1.473-3.258
				c-0.177-0.409-0.175-1.028-0.543-1.241c-0.501,0.778-1.241,1.408-1.629,2.327c-0.62,1.468-0.701,3.26-0.929,5.118
				c-0.137,0.048-0.075,0.015-0.156,0.077c-1.08-0.259-1.46-1.372-1.861-2.326c-1.014-2.412-1.203-6.296-0.31-9.072
				c0.231-0.718,1.276-2.98,0.853-3.645c-0.202-0.662-0.868-1.045-1.241-1.551c-0.461-0.625-0.921-1.448-1.241-2.171
				c-0.83-1.88-1.218-3.991-2.094-5.893c-0.418-0.909-1.124-1.828-1.706-2.636c-0.643-0.895-1.362-1.555-1.861-2.637
				c-0.177-0.384-0.418-1-0.155-1.395c0.084-0.267,0.202-0.379,0.465-0.466c0.451-0.347,1.703,0.116,2.171,0.31
				c1.243,0.517,2.281,1.008,3.334,1.707c0.506,0.335,1.017,0.984,1.629,1.163c0.232,0,0.465,0,0.697,0
				c1.092,0.251,2.315,0.078,3.334,0.388c1.802,0.547,3.418,1.4,4.885,2.326c4.469,2.822,8.124,6.84,10.623,11.632
				c0.402,0.771,0.576,1.507,0.931,2.326c0.715,1.65,1.615,3.348,2.326,4.962c0.709,1.611,1.401,3.236,2.404,4.576
				c0.527,0.704,2.564,1.082,3.489,1.473c0.649,0.274,1.713,0.559,2.327,0.929c1.174,0.709,2.311,1.551,3.412,2.327
				C424.541,191.469,426.232,192.318,426.317,193.019L426.317,193.019z"/>
		</g>
		<g>
			<path fill="#52658C" d="M391.656,163.476c-0.569-0.011-0.971,0.062-1.396,0.155c0,0.026,0,0.052,0,0.078c0.026,0,0.052,0,0.078,0
				c0.271,0.558,0.75,0.916,1.085,1.396c0.258,0.543,0.518,1.085,0.776,1.628c0.026-0.026,0.052-0.052,0.078-0.077
				c0.48-0.339,0.699-0.88,0.697-1.707c-0.192-0.203-0.221-0.456-0.387-0.698C392.364,163.929,391.936,163.746,391.656,163.476z"/>
		</g>
		<g>
			<path fill="#F57D00" d="M424.496,215.359c0,1.953,1.543,3.269,3.269,3.269c1.727,0,3.27-1.316,3.27-3.269
				s-1.543-3.268-3.269-3.268S424.496,213.406,424.496,215.359L424.496,215.359z M430.302,215.359c0,1.483-1.133,2.59-2.537,2.59
				c-1.421,0-2.537-1.107-2.537-2.59c0-1.481,1.116-2.589,2.537-2.589C429.169,212.77,430.302,213.878,430.302,215.359z
				 M428.646,217.225h0.731l-1.071-1.638c0.574-0.061,1.011-0.341,1.011-1.02c0-0.758-0.48-1.072-1.404-1.072h-1.457v3.731h0.629
				v-1.612h0.584L428.646,217.225L428.646,217.225z M427.086,215.089v-1.072h0.723c0.375,0,0.828,0.07,0.828,0.506
				c0,0.523-0.409,0.566-0.88,0.566L427.086,215.089L427.086,215.089z"/>
		</g>
	</g>
	<g id="_877952911552">
		<path fill="#AF1109" d="M18.312,59.701H8.353c-2.362,0-4.876-2.366-4.876-5.082c0-3.153,2.267-5.494,5.494-5.494h8.722
			c0.991,0,1.924,0.226,2.666,0.631c3.908,2.127,3.609,7.562-0.054,9.397C19.814,59.398,19.036,59.701,18.312,59.701z M0.318,54.412
			c0,2.482,1.063,4.465,2.318,5.718c0.782,0.78,1.211,1.163,2.283,1.701c0.793,0.396,2.048,0.823,3.228,0.823h10.371
			c3.05,0,6.067-2.26,7.212-5.151c1.057-2.669,0.669-5.712-1.06-8.007c-0.344-0.456-0.594-0.684-0.984-1.076
			c-1.552-1.562-3.738-2.249-6.061-2.249H9.04c-1.4,0-2.558,0.217-3.562,0.626c-0.721,0.294-1.391,0.692-2.002,1.158
			c-0.139,0.105-0.16,0.137-0.291,0.258c-0.528,0.491-0.804,0.706-1.287,1.391C0.939,50.963,0.318,52.554,0.318,54.412z"/>
		<path fill="#AF1109" d="M108.007,54c0,1.939,0.149,2.876,1.077,4.555c1.42,2.57,4.193,4.099,7.234,4.099h9.683
			c0.109-0.406,1.754-2.576,1.786-2.953c-1.441,0-11.612,0.104-12.483-0.085c-1.261-0.272-2.344-0.977-3.098-1.985
			c-0.252-0.337-0.791-1.209-0.833-1.708h13.461c0.434-0.819,1.512-2.307,1.854-2.953h-15.315c0.022-0.267,0.179-0.61,0.275-0.823
			c0.782-1.76,2.775-3.036,4.944-3.023c3.043,0.018,6.091,0.001,9.135,0.001l1.36-2.143c0.158-0.237,0.4-0.497,0.426-0.81
			c-2.267,0-4.533,0-6.8,0c-3.517,0-6.217-0.407-8.914,1.317c-1.459,0.933-2.449,2.149-3.149,3.719
			C108.322,51.938,108.007,52.98,108.007,54z"/>
		<path fill="#AF1109" d="M27.927,46.376v16.278h3.228v-13.53h10.303c2.911,0,3.695,3.64,1.44,4.943
			c-0.848,0.489-1.866,0.344-3.157,0.344c-2.358,0-4.717,0-7.074,0c0.059,0.088,0.589,0.559,0.716,0.658l1.099,0.961
			c0.19,0.147,0.201,0.162,0.364,0.322l0.774,0.669c0.165,0.126,0.205,0.182,0.36,0.327l5.586,4.853
			c0.42,0.326,0.225,0.461,0.919,0.455l4.193-0.004l-2.335-1.992c-0.272-0.212-0.5-0.432-0.776-0.666l-3.139-2.63
			c2.143,0,3.78-0.099,5.309-1.629c0.159-0.159,0.188-0.243,0.341-0.414c0.218-0.243,0.486-0.63,0.648-0.932
			c0.988-1.851,0.796-4.255-0.439-5.906c-0.242-0.323-0.413-0.474-0.69-0.752c-0.966-0.971-2.299-1.562-4.207-1.562H28.133
			C27.975,46.171,27.927,46.218,27.927,46.376z"/>
		<path fill="#AF1109" d="M47.431,62.654h3.778l5.054-8.064c0.294-0.448,2.864-4.661,3.119-4.848l3.242,5.275
			c0.193,0.301,1.02,1.555,1.085,1.799h-8.31c0.021,0.261,1.097,1.84,1.319,2.184c0.144,0.225,0.401,0.522,0.467,0.769h8.585
			c0.507,0.959,1.306,2.109,1.716,2.885h3.778c-0.479-0.716-0.915-1.428-1.402-2.17l-2.784-4.358
			c-0.803-1.346-1.931-2.97-2.78-4.363l-2.096-3.26c-0.36-0.603-0.994-1.7-1.526-2.046c-1.276-0.832-2.734-0.401-3.514,0.928
			l-2.078,3.279c-0.134,0.205-0.231,0.335-0.359,0.534c-0.129,0.199-0.209,0.351-0.343,0.55l-6.607,10.356
			C47.653,62.286,47.554,62.471,47.431,62.654z"/>
		<path fill="#AF1109" d="M69.616,54c0,1.624,0.065,2.505,0.768,3.971c1.218,2.539,3.998,4.682,7.061,4.682h10.027
			c0.216,0,0.241-0.225,0.522-0.645c0.184-0.274,0.296-0.481,0.48-0.756c0.183-0.272,0.9-1.304,0.921-1.552
			c-3.481,0-6.96,0-10.439,0c-0.977,0-1.641,0.053-2.43-0.18c-0.691-0.205-1.218-0.492-1.733-0.878
			c-2.267-1.7-2.681-5.17-1.019-7.352c2.085-2.738,4.824-2.167,8.272-2.167c1.763,0,3.525,0,5.289,0
			c0.145-0.274,0.284-0.442,0.452-0.716c0.222-0.363,1.306-1.9,1.334-2.237c-2.267,0-4.533,0-6.8,0c-2.097,0-4.92-0.163-6.58,0.288
			c-0.859,0.232-1.644,0.589-2.335,1.03C71.318,48.824,69.616,51.401,69.616,54z"/>
		<path fill="#AF1109" d="M90.837,61.143c0,0.744,0.706,1.511,1.442,1.511h14.492c0.212,0,0.395-0.455,0.52-0.646
			c0.224-0.341,1.374-1.97,1.402-2.307H94.065V46.376c0-0.158-0.047-0.205-0.205-0.205h-3.023V61.143z"/>
		<path fill="#D42E12" d="M130.74,49.398c-2.042,0-1.808-2.966-0.014-2.866C132.689,46.642,132.443,49.398,130.74,49.398z
			 M128.817,47.957c0,1.005,0.765,1.806,1.761,1.873c1.082,0.073,1.948-0.848,1.948-1.668V47.75c0-1.658-2.669-2.39-3.525-0.572
			C128.938,47.313,128.817,47.796,128.817,47.957z"/>
		<path fill="#D42E12" d="M130.602,47.819h-0.205v-0.55c0.569,0,0.618-0.054,0.618,0.275
			C131.015,47.755,130.813,47.819,130.602,47.819z M129.984,48.987h0.413v-0.824c0.35,0.008,0.315,0.061,0.438,0.317
			c0.097,0.203,0.201,0.328,0.249,0.507h0.48c-0.059-0.255-0.259-0.535-0.412-0.824c0.1-0.149,0.343-0.389,0.343-0.618
			c0-0.814-0.932-0.686-1.511-0.686L129.984,48.987L129.984,48.987z"/>
	</g>
	<g id="_877952917664">
		<path d="M78.796,202.282c0-2.738,3.725-3.838,3.725,0.256v10.58h4.161v-9.552c0-2.214,0.268-4.007,2.772-3.505
			c1.479,1.251,1.014,3.655,1.014,6.073c0,2.311-0.007,4.616,0.014,6.94l4.106,0.045v-12.12c0-5.941-6.185-5.677-8.916-3.72
			c-4.185-3.143-7.015,0.48-7.178,0.337l-0.081-1.299l-3.796,0.063l-0.001,16.696l4.18,0.042
			C78.796,213.118,78.796,202.282,78.796,202.282z M105.114,193.809c2.01,0,2.825-1.152,2.825-2.824
			c0-2.095-2.834-2.824-4.251-1.689C101.971,190.672,103.028,193.809,105.114,193.809z M97.412,201.8
			c0.787,0.29-0.001,0.617,1.569-1.288c0.396-0.48,1.049-1.207,1.565-1.559c3.39-2.32-3.134,8.678-3.134,11.802
			c0,4.667,4.488,2.621,6.371,0.472c0.637-0.725,1.991-2.308,2.141-3.324c0.004-0.025-0.015-0.08-0.014-0.146
			c0.001-0.067-0.007-0.1-0.026-0.146c-1.17-0.119-1.938,2.909-4.108,3.241c0.251-3.456,5.237-11.208,3.916-14.025
			c-1.316-1.947-4.197-0.493-5.364,0.673l-2.643,3.288C97.234,201.531,97.317,201.575,97.412,201.8z M66.29,213.063
			c0-6.197-1.621-15.166,6.584-12.633l0.017-4.106c-3.607-0.657-4.546-0.204-6.566,1.597l-0.033-1.543l-4.106-0.054v16.801
			L66.29,213.063z M7.55,213.118h4.234l0.131-24.056H7.498L7.55,213.118z M38.412,196.324c0.007-1.97,0.34-3.304,2.272-3.543
			c3.077-0.382,2.242,0.515,2.247-3.62c-2.734-0.278-5.324-0.09-7.169,1.793c-1.602,1.634-1.407,2.825-1.558,5.37h-2.005
			l0.054,3.593h1.987l0.012,13.202h4.16v-13.15c4.984-0.394,4.514,1.53,4.515-3.602L38.412,196.324z M50.755,199.659
			c3.022-0.568,4.579,1.555,4.87,4.352c0.256,2.465-0.584,5.073-2.907,5.705C46.323,211.456,45.341,200.677,50.755,199.659z
			 M43.24,204.849c0,11.468,16.483,11.585,16.483,0C59.723,192.987,43.24,192.927,43.24,204.849z M19.486,213.118
			c0.322-2.958-0.995-11.067,1.617-12.696c1.077-0.671,2.899-0.722,3.939,0.028c2.111,1.524,1.306,8.975,1.304,12.65l4.106,0.018
			c0.308-2.584,0.386-12.003-0.846-14.151c-0.855-1.493-2.224-2.551-4.352-2.84c-3.495-0.474-4.82,1.041-5.753,1.151l-0.015-0.954
			h-4.103v16.794L19.486,213.118L19.486,213.118z M113.36,197.76l-5.141,0.436c1.803,0.832,4.733,0.334,6.42,1.301l-5.134,0.626
			l6.673,0.94c-1.288,0.718-3.895,0.61-5.66,0.88l6.959,1.038l-5.664,0.672c1.032,0.55,5.016,0.872,6.676,1.004
			c-1.694,0.826-5.102,0.293-6.671,1.097l5.387,0.612c-0.953,0.648-5.127,0.977-6.675,1.138c1.444,0.659,4.055,0.127,5.385,0.83
			l-6.67,0.967c1.425,0.648,4.076,0.138,5.387,0.842l-6.413,1.123c0.809,0.296,3.946,0.081,5.124,0.637l-6.408,1.137l7.424,0.09
			c1.485,0,3.645-3.867,4.276-5.033c0.594,0.403,0.065-0.012,0.493,0.414c0.057,0.055,0.212,0.229,0.263,0.289l2.861,4.33h5.266
			c-0.531-1.236-2.226-3.235-3.023-4.296c-3.882-5.17-3.856-3.014-0.162-8.397l2.774-4.106l-5.449,0.401
			c-0.035,0.042-0.085,0.103-0.12,0.147c-0.231,0.291-0.221,0.302-0.425,0.607c-0.714,1.063-1.621,2.881-2.413,3.444
			c-0.604-1.006-2.335-4.072-3.315-4.622l-7.967-0.064L113.36,197.76z"/>
		<path fill="#3E4095" d="M105.115,196.238l0.747,1.144c-0.035-0.202-0.092-0.387-0.171-0.556
			C105.522,196.577,105.328,196.384,105.115,196.238z M113.36,197.76l-5.141,0.436c1.803,0.832,4.733,0.334,6.42,1.301l-5.134,0.626
			l6.673,0.94c-1.288,0.718-3.895,0.61-5.66,0.88l6.959,1.039l-5.664,0.671c1.032,0.55,5.016,0.872,6.676,1.004
			c-1.694,0.826-5.102,0.293-6.672,1.097l5.388,0.612c-0.953,0.648-5.127,0.977-6.675,1.138c1.444,0.659,4.055,0.127,5.385,0.83
			l-6.67,0.967c1.425,0.648,4.076,0.139,5.388,0.842l-6.414,1.123c0.809,0.296,3.946,0.081,5.124,0.637l-6.408,1.137l7.424,0.09
			c1.485,0,3.645-3.867,4.276-5.033c0.594,0.402,0.065-0.012,0.493,0.414c0.055,0.055,0.213,0.229,0.263,0.289l2.861,4.33h5.266
			c-0.531-1.236-2.226-3.235-3.023-4.296c-3.882-5.168-3.856-3.014-0.162-8.397l2.774-4.106l-5.449,0.401
			c-0.035,0.042-0.085,0.103-0.12,0.147c-0.231,0.291-0.221,0.302-0.425,0.607c-0.714,1.063-1.621,2.881-2.413,3.443
			c-0.604-1.006-2.335-4.07-3.315-4.621l-7.967-0.064L113.36,197.76z"/>
		<path fill="#F57C00" d="M105.114,193.809c2.01,0,2.825-1.152,2.825-2.824c0-2.095-2.834-2.824-4.251-1.689
			C101.971,190.672,103.028,193.809,105.114,193.809z M97.412,201.8c0.787,0.29-0.001,0.617,1.569-1.288
			c0.396-0.48,1.049-1.207,1.565-1.559c3.39-2.32-3.134,8.678-3.134,11.802c0,4.667,4.488,2.621,6.371,0.472
			c0.637-0.725,1.991-2.308,2.141-3.324c0.004-0.025-0.015-0.08-0.014-0.146c0.001-0.067-0.007-0.101-0.026-0.146
			c-1.17-0.118-1.938,2.909-4.108,3.241c0.251-3.456,5.237-11.208,3.915-14.025c-1.315-1.947-4.195-0.493-5.363,0.673l-2.643,3.288
			C97.234,201.531,97.317,201.575,97.412,201.8z"/>
	</g>
	<polygon fill="#FEFEFE" points="344.054,31.927 347.26,31.933 347.26,28.749 344.069,28.727 	"/>
	<g id="_877952917792">
		<path fill="#47657F" d="M231.694,218.413c-0.609-0.749-1.742-2.189-2.268-3.22c-2.585-5.072-8.818-14.951-5.541-19.978
			c1.671-2.564,4.934-2.574,8.32-2.597c-2.483-8.019-10.32-14.625-19.476-15.32c-5.367-0.407-9.59,1.504-12.24,4.83
			c-1.946,2.441-4.869,9.15-4.244,12.784c1.985-1.182,5.888-2.543,8.895-1.667c3.102,0.902,3.77,3.531,4.284,6.862
			c1.649,10.691-1.986,12.341-3.305,18.305c1.424,0.648,4.856,0.342,4.725,5.555c-0.087,3.469-0.054,6.857,0.013,10.324
			c0.117,5.886,0.587,13.477,7.957,12.332c7.408-1.149,7.539-4.973,8.512-12.076c0.412-3.004,0.826-6.184,1.12-9.17
			c0.165-1.674-0.002-3.332,0.623-4.642C229.699,219.413,230.75,219.302,231.694,218.413z"/>
		<path fill="#47657F" d="M197.182,217.855c-5.306-6.907-3.418-6.671-3.251-14.481c0.137-6.403-0.905-8.884,1.511-16.272
			c1.562-4.776,2.42-4.675,4.371-7.683l-1.194-0.557c-3.106-0.975-6.716-1.484-10.028-1.409
			c-14.327,0.324-13.546,13.993-11.1,25.019c0.797,3.595,7.153,30.351,13.924,22.372L197.182,217.855z"/>
		<path fill="#201E1E" d="M203.597,220.443c-6.31-0.924-2.749-2.952-8.753,3.665c-1.985,2.188-4.647,6.502-8.985,3.451
			c-4.311-3.031-7.395-12.993-9.181-19.232c-1.973-6.899-4.393-17.182-1.657-24.388c2.69-7.083,9.655-9.662,19.078-8.331
			c1.923,0.271,4.071,0.781,5.876,1.366c4.757,1.542,2.649-1.947,11.466-1.908c1.9,0.009,4.984,0.788,6.191,0.527
			c7.875-1.701,15.162-2.661,22.648,2.845c2.865,2.108,5.024,4.226,5.166,9.051c0.201,6.864-3.043,16.463-5.947,22.503
			c-1.92,3.996-3.424,6.046-4.908,8.959c5.278,1.878,9.213-1.537,10.773,0.585c0.085,0.114,1.105,0.794-0.09,2.348
			c-4.411,5.738-12.988,4.234-14.752,4.448c-0.477,4.569-0.967,10.18-1.969,14.487c-1.09,4.687-3.661,6.809-8.596,7.835
			c-5.808,1.208-8.969-1.714-10.363-5.832c-0.972-2.872-1.218-12.185-0.958-15.521c-1.025,0.23-1.809,1.078-2.938,1.537
			c-3.208,1.306-8.393,0.934-10.364-1.011c-2.412-2.381,1.179-3.709,3.259-4.147C201.386,223.094,202.486,222.352,203.597,220.443z
			 M215.348,251h3.58c1.503-0.852,4.369-1.05,6.535-2.404c6.859-4.284,5.742-13.998,6.749-19.754
			c3.321-0.249,5.516-0.109,8.557-1.164c4.698-1.632,10.165-6.666,5.779-10.126c-2.22-1.75-5.451-0.189-8.16-0.185l4.483-9.313
			c1.395-3.242,2.515-6.519,3.439-10.178c2.173-8.59,2.899-15.123-3.896-20.465c-5.536-4.353-12.744-6.448-21.584-4.758
			c-7.569,1.447-6.303-0.395-12.626,0.523c-1.828,0.265-3.586,0.768-5.113,1.526c-2.073,1.028-2.798,0.151-5.17-0.412
			c-19.61-4.649-29.249,5.868-25.499,25.199c1.552,7.997,5.334,23.907,11.411,29.255c1.176,1.036,2.51,1.99,4.526,2.13
			c2.535,0.178,3.433-0.794,4.975-1.647c2.194,1.233,2.741,2.111,6.12,2.561c4.411,0.587,6.007-0.69,7.375-0.692
			c0.351,4.603,0.022,8.602,1.463,12.754C210.408,249.944,212.459,249.519,215.348,251z"/>
		<path fill="#47657F" d="M229.05,176.532c-1.373-0.139-2.708-0.155-4.133-0.058c-2.272,0.153-3.07,0.244-3.696,0.736
			c5.637,2.562,11.001,8.224,13.191,14.886c1.007,3.06-0.683,8.411-0.221,12.468c1.108,9.742-0.256,7.442-1.212,11.888
			c0.66-0.111,0.511,0,1.216-1.183c4.263-7.144,8.356-17.062,8.991-25.273c0.282-3.642,0.116-5.329-1.744-7.435
			c-1.347-1.524-2.937-2.88-5.175-4.014C234.058,177.43,231.868,176.82,229.05,176.532z"/>
		<path fill="#47657F" d="M205.807,197.523c-0.737,2.431-3.601,1.59-3.985,0.116C201.381,195.952,204.694,195.893,205.807,197.523z
			 M203.888,218.163c1.139-5.028,3.89-7.403,3.739-13.679c-0.158-6.55-0.925-11.026-7.731-8.769
			c-3.873,1.284-3.804,1.631-3.865,2.891c-0.022,0.461,0.071,1.46,0.092,1.981c0.126,3.081-0.33,5.513-0.425,8.352
			C195.526,214.194,199.147,217.907,203.888,218.163z"/>
		<path fill="#201E1E" d="M256.815,144.521c11.691-2.572,14.205,12.19,4.484,14.05C249.726,160.784,247.02,146.675,256.815,144.521
			L256.815,144.521z M267.703,161.086l1.223-0.715c-0.642-1.316-1.772-1.415-2.578-2.399c1.838-1.976,2.972-3.148,2.89-6.691
			c-0.228-9.802-13.271-9.949-17.914-5.792c-4.181,3.744-2.662,10.693,1.354,13.027c2.096,1.217,4.738,1.733,7.751,1.577
			c1.984-0.101,3.517-0.724,3.978-0.756C265.528,159.26,266.484,160.488,267.703,161.086z"/>
		<path fill="#201E1E" d="M234.001,154.36l-1.932-0.014c0.423,5.621,5.627,6.18,10.576,5.639c2.377-0.259,4.404-0.905,5.251-2.898
			c2.475-5.816-5.501-6.174-8.996-6.807c-2.247-0.406-4.921-0.913-4.053-3.942c0.829-2.892,7.485-2.457,9.418-1.124
			c1.26,0.867,0.902,1.292,1.433,2.676l2.022,0.085c-0.334-5.065-6.231-5.753-11.151-4.721c-2.138,0.448-3.93,1.448-3.922,4.14
			c0.015,4.745,5.736,3.951,11.102,5.324c4.311,1.103,3.239,7.527-5.581,5.831c-1.241-0.238-2.195-0.576-2.904-1.283
			C234.286,156.289,234.561,155.38,234.001,154.36z"/>
		<path fill="#47657F" d="M226.826,196.687c0.896-0.939,1.902-0.999,3.405-0.648c0.466,1.602-0.927,2.05-2.452,2.029
			C227.162,197.463,226.984,197.658,226.826,196.687z M231.431,214.13c1.478-2.594,0.872-6.442,0.553-9.613
			c-0.526-5.255,0.721-7.099,0.475-9.654c-7.227-0.321-8.507,1.36-6.468,8.152C226.551,204.883,230.322,212.44,231.431,214.13z"/>
		<path fill="#201E1E" d="M199.667,150.03c7.97-1.905,8.736,6.897,3.632,8.152c-2.864,0.705-5.864-0.155-6.62-2.444
			C195.716,152.823,197.197,150.62,199.667,150.03z M206.477,157.814c0.05,3.635-0.6,5.12-4.291,5.324
			c-1.26,0.07-2.971,0.022-3.948-0.611c-1.943-1.26,0.158-1.887-2.953-1.839c0.906,5.323,9.635,3.463,11.198,2.37
			c1.893-1.326,1.696-3.332,1.702-6.2c0.004-2.545,0.104-5.321-0.039-7.838l-1.537,0.006l-0.114,1.881
			c-0.004,0.054-0.31-0.51-0.347-0.46c-2.776-3.223-11.464-2.579-11.47,3.626c-0.004,2.922,1.555,4.629,4.059,5.193
			C203.134,160.256,204.591,158.621,206.477,157.814z"/>
		<path fill="#201E1E" d="M147.165,151.491l-0.085-6.864c4.211,0.324,10.863-1.466,11.009,3.319
			C158.243,152.904,151.014,151.356,147.165,151.491z M145.429,159.661l1.671-0.005l-0.035-6.912
			c5.302-0.015,13.939,1.338,12.998-5.536c-0.363-2.656-2.295-3.816-5.167-3.891c-3.085-0.08-6.363,0.032-9.466,0.053
			L145.429,159.661L145.429,159.661z"/>
		<path fill="#201E1E" d="M218.817,153.659c0.441-2.687,2.153-4.005,5.135-3.959c2.811,0.042,4.568,1.413,4.855,3.949
			L218.817,153.659z M230.353,156.303l-1.644-0.081c-0.653,0.84-1.036,1.636-2.083,2.165c-2.136,1.082-7.814,0.928-7.828-3.66
			l11.843-0.084c-0.133-3.742-2.196-5.7-5.817-5.969c-3.918-0.291-7.155,1.074-7.714,4.359
			C215.669,161.518,228.689,162.085,230.353,156.303z"/>
		<path fill="#201E1E" d="M175.789,156.359l-1.61-0.013c0.423,5.433,10.264,3.86,11.678,2.233c2.048-2.355-0.305-4.189-2.671-4.64
			c-2.459-0.467-4.942-0.132-6.813-1.484c-0.387-0.477-0.415-0.993-0.051-1.553c1.473-1.696,6.492-1.394,7.424-0.054
			c1.072,1.538-0.347,1.321,2.222,1.386c-0.354-3.805-4.371-4.028-8.079-3.42c-1.373,0.147-3.07,0.768-3.277,2.488
			c-0.435,3.612,3.672,3.21,7.694,3.791c3.829,0.552,3.554,4.539-3.189,3.801C176.554,158.613,176.293,157.95,175.789,156.359z"/>
		<path fill="#201E1E" d="M164.459,150.111c7.579-2.485,9.6,6.811,4.193,8.526C161.481,160.91,158.599,152.033,164.459,150.111z
			 M163.832,148.981c-7.333,2.091-4.915,13.33,5.382,10.77C176.634,157.906,174.009,146.079,163.832,148.981z"/>
		<path fill="#201E1E" d="M284.693,159.688v-1.386l-12.174-0.012c0.064-2.727,0.32-13.09-0.152-14.976l-1.71,0.041l-0.086,16.253
			L284.693,159.688L284.693,159.688z"/>
		<path fill="#201E1E" d="M189.056,148.931c-0.208,0.008-1.268,0.021-1.296,0.029c-0.942,0.247-0.527-0.282-0.832,0.656
			c0.426,0.79,0.376,0.323,2.183,0.567c-0.121,3.78-1.321,11.811,4.467,9.46l-0.012-0.928c-0.852-0.092-1.571,0.501-2.584-0.655
			c-0.597-1.761-0.183-5.794-0.217-7.968c0.449,0.007,1.373,0.079,1.762,0.046c1.468-0.127,0.706,0.176,1.166-0.522
			c-0.295-0.638,0.724-0.795-2.809-0.613l-0.119-3.537l-1.664-0.024L189.056,148.931z"/>
		<path fill="#47657F" d="M197.419,226.49c4.046,2.741,12.598-0.827,10.971-4.454c-1.471-3.279-3.898,1.104-4.759,1.939
			c-1.197,1.158-3.089,1.513-4.759,1.902c-0.493,0.114-0.461,0.078-0.875,0.255C197.586,226.306,197.602,226.337,197.419,226.49z"/>
		<path fill="#47657F" d="M230.805,223.828c3.228,1.225,10.266-0.204,11.792-2.564l-4.418,0.461
			C234.834,221.898,230.322,218.351,230.805,223.828z"/>
		<path fill="#201E1E" d="M211.816,150.784c-0.073-0.215,0.012-1.788-0.162-1.79l-1.631-0.026l-0.015,10.714l1.71-0.027
			c-0.083-5.965-0.839-9.216,3.934-9.633c2.052-0.179,1.023,0.393,1.524-0.684c-0.027-0.059,0.673-1.448-3.163-0.494
			C212.744,149.158,212.127,149.782,211.816,150.784z"/>
	</g>
	<g enable-background="new    ">
		<path fill="#201E1E" enable-background="new    " d="M0,0"/>
		<path fill="#999999" d="M347.847,42.332L347.847,42.332z M386.758,21.16c-0.313,1.175-7.16,9.917-8.529,11.214
			c-0.821-1.505-3.43-4.301-5.49-5.778C373.785,25.169,384.512,22.238,386.758,21.16z M372.739,24.308
			c0.669-2.868,2.003-4.287,2.003-7.725c1.464,0.121,9.48,2.913,10.872,3.856C381.369,21.24,376.323,23.259,372.739,24.308z
			 M368.733,65.556c3.134-4.05,4.277-19.62,4.296-22.942c0.014-2.465-0.576-4.395-0.576-6.469
			c9.172-3.193,17.684-5.068,26.894-6.401c-3.415-5.1-5.686-7.641-11.535-10.783c-6.061-3.255-18.835-5.08-22.505-6.18
			c-0.999-1.396-5.234-9.961-5.443-11.734L359.539,0c-1.848,0.143-19.103,5.648-15.661,9.372c4.303,4.653,9.833,8.202,9.977,15.292
			c0,6.887-1.448,10.216-5.838,15.835c-7.882,8.973-26.415,18.277-9.058,27.887c5.978,3.31,16.675,5.418,26.055,5.418
			c0.215-0.383,0.156-0.315,0.285-0.852c0.813-0.953,1.33-2.286,1.91-3.535C367.614,68.543,368.661,66.362,368.733,65.556
			L368.733,65.556z M366.71,64.935c-3.49-0.842-4.456-0.975-7.814-2.18c-1.084-0.389-1.492-0.741-2.465-0.968l1.429-0.814
			c3.57-1.099,8.678-3.845,12.016-5.481C369.849,56.795,368.08,64.581,366.71,64.935L366.71,64.935z M345.559,9.042
			c0.179-1.838,1.287-2.151,2.411-3.045c0.968,0.997,2.515,3.103,3.311,4.292C349.57,10.288,346.898,9.582,345.559,9.042z
			 M343.607,47.768c-0.142,2.017-0.491,1.598,0.011,3.649c0.271,1.109,0.839,2.173,1.083,3.218
			c-3.052,0.254-7.878,2.794-10.872,2.861C335.803,53.381,338.816,48.943,343.607,47.768L343.607,47.768z M357.289,59.499
			c1.585-2.996,2.372-5.775,3.72-8.584c0.58,0.136,8.86,3.708,8.868,3.72C368.182,55.34,359.17,59.342,357.289,59.499
			L357.289,59.499z M354.593,61.094c-2.005-1.741-5.171-3.536-6.745-5.887c3.932-0.962,7.458-2.857,11.159-3.72
			C357.697,54.215,356.249,58.953,354.593,61.094z M353.855,10.98l-4.577-4.983C352.75,6.806,357.292,8,360.722,8
			c-0.305,0.265,0.094-0.004-0.493,0.364l-4.656,2.914L353.855,10.98L353.855,10.98z M349.85,5.138
			c0.609-0.83,7.413-3.838,8.064-4.01c0.751-0.199,0.965-0.287,1.008-0.275c0.405,0.116,1.336,5.319,1.514,6.002L349.85,5.138z
			 M380.177,32.032c2.186-3.262,6.619-5.841,7.725-10.586c3.072,1.626,7.374,4.422,9.299,7.296
			C391.913,28.742,386.094,30.549,380.177,32.032z M349.278,52.918L349.278,52.918z M351.87,43.763
			c-0.85,1.507-1.448,3.012-2.361,4.523c-0.472,0.781-0.755,1.365-1.25,2.182c-0.51,0.84-0.878,1.385-1.237,2.164l-0.605,0.572
			c-0.236-1.014-0.694-1.665-0.828-2.891c-0.143-1.301-0.083-2.929,0.256-3.823C347.325,45.705,350.181,44.145,351.87,43.763
			L351.87,43.763z M349.278,52.918c0.224-0.84,1.926-3.852,2.48-4.958c0.469-0.94,0.849-1.643,1.202-2.517
			c0.377-0.931,0.688-1.992,1.182-2.715l0.298-0.109c0.69,2.655,3.372,5.017,4.566,7.152
			C356.08,50.584,352.157,52.678,349.278,52.918L349.278,52.918z M357.861,11.442c0.446-0.622,2.965-2.384,3.72-2.584l1.431,3.524
			L357.861,11.442z M347.562,11.146c0.689,0.058,1.405,0.241,2.143,0.432c1.655,0.431,1.875,1.378,2.721,5.004
			C350.726,14.046,347.623,11.239,347.562,11.146z M347.562,11.146L347.562,11.146z M354.142,17.503l-2.003-5.212l7.724,1.43
			l-5.087,3.812C354.122,17.931,354.604,18.22,354.142,17.503z M361.009,13.987h0.285c0.846,1.833,0.859,4.176,0.859,6.887
			c-2.299-0.191-4.431-1.514-6.867-1.717c0.735-1.096,1.775-1.744,2.798-2.638C358.957,15.755,360.465,14.836,361.009,13.987
			L361.009,13.987z M362.44,13.977c1.442,0.781,8.46,1.631,9.845,2.116c-1.588,0.132-7.3,3.843-8.701,4.782
			c0-1.448-0.021-2.682-0.249-3.757C363.059,15.818,362.704,15.171,362.44,13.977z M373.883,16.582
			c-1.317,2.746-1.235,4.73-3.432,8.011l-5.436-2.575C365.608,21.208,372.367,16.936,373.883,16.582z M355.286,36.037
			L355.286,36.037z M367.589,28.885c-0.795,1.503-5.716,8.026-6.867,8.87c-0.539-2.313-0.407-2.644-1.431-4.579
			C360.778,32.78,365.623,29.344,367.589,28.885L367.589,28.885z M367.589,28.885L367.589,28.885z M358.72,31.746
			c-0.96-0.257-2.286-1.426-3.147-2.003c0.661-0.987,4.958-4.87,6.008-5.151C360.929,27.391,359.217,29.61,358.72,31.746z
			 M355.286,28.084c0-2.332-0.285-4.707-0.285-6.925c0.579,0.165,5.612,1.516,5.669,1.772
			C360.762,23.343,355.917,27.662,355.286,28.084L355.286,28.084z M354.142,32.032l2.289,1.144c-0.561,0.839-2.707,2.358-3.72,2.861
			C353.066,34.515,353.995,33.801,354.142,32.032L354.142,32.032z M355.286,36.037l-0.857,1.078
			c-1.651,1.355-4.656,4.704-6.581,5.217c0.452-0.675,0.911-1.041,1.43-1.717C350.448,39.092,353.24,36.132,355.286,36.037z
			 M358.147,34.893c0.824,0.8,0.9,1.907,1.431,3.259c-0.39,0.855-8.27,3.754-8.87,3.893
			C351.06,41.565,358.035,34.967,358.147,34.893z M362.741,37.343c0.029-0.045,7.95-9.284,7.994-9.317
			c1.358,0.718,5.53,3.724,6.295,4.864C372.836,33.24,365.892,37.081,362.741,37.343z M368.153,26.596
			c-2.453,0.967-4.579,2.381-6.859,3.433c0.228-0.975,1.693-5.025,2.129-6.008C364.347,24.293,367.643,25.882,368.153,26.596z
			 M344.7,56.066c-1.98,2.956-4.693,6.128-6.295,9.155c-2.417-1.279-3.972-3.984-4.577-6.58
			C337.542,57.723,341.009,56.926,344.7,56.066z M346.131,56.638c1.031,0.69,3.859,4.004,6.008,4.577
			c-0.456,0.623-12.432,5.032-12.875,4.577C338.713,65.229,345.152,58.099,346.131,56.638z M352.711,63.218
			c-0.31,1.162-3.223,5.555-4.005,6.867c-1.253-0.028-7.782-2.347-8.512-3.505C343.383,66.509,349.352,63.976,352.711,63.218z
			 M355.001,62.933c1.003,0.083,1.733,0.545,2.605,0.827c2.504,0.808,6.187,1.748,8.839,1.748c-3.473,1.808-12.437,4.114-16.88,5.15
			C350.864,68.714,354.508,64.776,355.001,62.933L355.001,62.933z M366.73,66.365c-0.086,1.037-1.84,5.653-2.288,6.573
			c-3.64,0.038-10.513-1.709-12.303-1.709C352.608,71.661,365.819,67.433,366.73,66.365z M369.877,55.492L369.877,55.492z
			 M370.45,53.776c-1.722-0.401-6.209-2.859-8.05-4.074c2.101-0.684,6.671-3.867,8.622-5.081
			C371.022,49.086,370.45,51.161,370.45,53.776z M370.47,36.896c0.322,1.622,0.552,3.748,0.552,5.723
			c-1.201-0.28-5.665-3.035-6.295-4.034C365.842,38.112,369.079,37.008,370.47,36.896z M363.283,39.185
			c1.853,1.553,5.236,3.117,7.453,4.291c-0.817,1.117-7.115,4.456-8.87,4.864c0.274-3.286,1.145-2.741,1.145-9.182L363.283,39.185
			L363.283,39.185z M361.65,39.757c-0.257,2.708-0.617,6.741-1.5,8.583c-2.607-1.746-3.543-4.22-4.578-6.269
			C356.575,41.539,360.604,39.975,361.65,39.757z M350.709,42.045L350.709,42.045z"/>
		<path fill="#D42E12" d="M347.847,42.332L347.847,42.332z M343.43,8.366l2.134,0.627l-0.005,0.048
			c0.927,0.374,2.492,0.827,3.936,1.071l4.263,0.76l0.098,0.106l1.717,0.3l0.103-0.065l11.739,2.091h0.002
			c5.106,1.132,15.208,2.871,20.395,5.658c5.849,3.141,8.121,5.681,11.535,10.781c-9.21,1.333-17.723,3.208-26.895,6.401v0.015
			l-1.978,0.754l-0.004-0.018c-1.392,0.112-4.628,1.216-5.742,1.689c0.068,0.111,0.186,0.243,0.34,0.39l-1.386,0.528
			c-0.139-0.106-0.274-0.212-0.4-0.318l-0.271-0.027l-0.004,0.603l-1.408,0.537l0.051-0.54c-1.046,0.218-5.075,1.782-6.078,2.314
			c0.073,0.145,0.145,0.293,0.218,0.441l-1.242,0.474c-0.04-0.123-0.077-0.245-0.108-0.368l-0.298,0.109
			c-0.111,0.162-0.212,0.341-0.308,0.532l-2.136,0.814l0.171-0.31c-1.289,0.293-3.26,1.271-4.779,2.068h-0.001l-0.009,0.006
			l-4.634,2.293c-0.663,0.25-1.289,0.564-1.88,0.931l-0.004,0.001l-0.001,0.001c-1.256,0.781-2.355,1.801-3.318,2.95h-0.001v0.001
			c-0.552,0.657-1.058,1.358-1.526,2.078l-3.932,5.358c0.381-6.468,10.82-12.787,16.234-18.95c4.39-5.619,5.838-8.949,5.838-15.837
			c-0.144-7.089-5.674-10.639-9.977-15.291C343.58,9.048,343.44,8.71,343.43,8.366L343.43,8.366z M386.758,21.161
			c-0.313,1.174-7.159,9.916-8.529,11.213c-0.821-1.505-3.431-4.301-5.49-5.778C373.785,25.169,384.512,22.238,386.758,21.161z
			 M372.739,24.308c0.669-2.868,2.003-4.287,2.003-7.725c1.464,0.123,9.481,2.913,10.872,3.856
			C381.369,21.24,376.323,23.259,372.739,24.308z M380.178,32.032c2.184-3.262,6.619-5.841,7.725-10.586
			c3.072,1.625,7.373,4.422,9.299,7.296C391.913,28.742,386.094,30.549,380.178,32.032L380.178,32.032z M347.562,11.147
			c0.689,0.057,1.405,0.239,2.143,0.43c1.655,0.431,1.875,1.379,2.721,5.004C350.726,14.046,347.623,11.239,347.562,11.147z
			 M347.562,11.147L347.562,11.147z M354.142,17.503l-2.003-5.212l7.724,1.43l-5.087,3.812
			C354.122,17.931,354.604,18.22,354.142,17.503z M361.009,13.987h0.285c0.844,1.833,0.859,4.176,0.859,6.887
			c-2.299-0.191-4.432-1.514-6.867-1.717c0.734-1.096,1.775-1.744,2.798-2.638C358.957,15.755,360.465,14.836,361.009,13.987
			L361.009,13.987z M362.44,13.977c1.442,0.781,8.459,1.631,9.845,2.116c-1.588,0.132-7.3,3.843-8.701,4.782
			c0-1.448-0.02-2.682-0.249-3.757C363.059,15.818,362.704,15.171,362.44,13.977z M373.883,16.582
			c-1.317,2.746-1.235,4.73-3.433,8.011l-5.435-2.575C365.608,21.208,372.367,16.936,373.883,16.582z M355.286,36.037
			L355.286,36.037z M367.589,28.885c-0.795,1.503-5.716,8.026-6.867,8.87c-0.539-2.313-0.407-2.644-1.431-4.579
			C360.778,32.78,365.623,29.344,367.589,28.885L367.589,28.885z M367.589,28.885L367.589,28.885z M358.72,31.746
			c-0.96-0.257-2.286-1.426-3.147-2.003c0.661-0.987,4.958-4.87,6.008-5.151C360.929,27.391,359.217,29.61,358.72,31.746z
			 M355.286,28.084c0-2.332-0.285-4.707-0.285-6.923c0.579,0.164,5.612,1.514,5.669,1.77
			C360.762,23.343,355.917,27.662,355.286,28.084L355.286,28.084z M354.142,32.032l2.288,1.144c-0.56,0.839-2.706,2.358-3.719,2.861
			C353.066,34.515,353.995,33.801,354.142,32.032L354.142,32.032z M355.286,36.037l-0.857,1.078
			c-1.651,1.355-4.656,4.704-6.581,5.217c0.452-0.675,0.911-1.041,1.43-1.717C350.448,39.092,353.24,36.132,355.286,36.037z
			 M358.148,34.893c0.824,0.8,0.9,1.907,1.431,3.259c-0.39,0.855-8.27,3.754-8.87,3.895
			C351.06,41.565,358.035,34.967,358.148,34.893z M362.742,37.343c0.029-0.045,7.95-9.282,7.994-9.317
			c1.358,0.718,5.53,3.724,6.295,4.864C372.837,33.24,365.892,37.081,362.742,37.343z M368.153,26.596
			c-2.453,0.967-4.579,2.381-6.859,3.433c0.228-0.977,1.693-5.025,2.129-6.007C364.347,24.293,367.643,25.882,368.153,26.596z
			 M350.709,42.047L350.709,42.047z"/>
		<path fill="#B3B3B3" d="M372.452,36.181l-1.977,0.735c0.318,1.618,0.547,3.737,0.547,5.703c-1.08-0.251-4.795-2.503-5.993-3.68
			l-1.404,0.521c1.904,1.461,5.023,2.912,7.11,4.016c-0.817,1.116-7.115,4.455-8.868,4.864c0.265-3.193,1.095-2.771,1.142-8.651
			l-1.401,0.52c-0.255,2.687-0.622,6.389-1.458,8.131c-2.472-1.656-3.442-3.967-4.418-5.949l-1.227,0.456
			c0.778,2.562,3.341,4.85,4.501,6.923c-2.926,0.813-6.849,2.907-9.728,3.148c0.224-0.841,1.925-3.853,2.479-4.96
			c0.471-0.94,0.849-1.643,1.203-2.517c0.323-0.797,0.597-1.69,0.98-2.385l-2.115,0.786c-0.827,1.48-1.419,2.959-2.316,4.443
			c-0.472,0.781-0.755,1.365-1.251,2.182c-0.508,0.84-0.876,1.385-1.235,2.164l-0.606,0.572c-0.236-1.014-0.694-1.665-0.828-2.891
			c-0.143-1.301-0.081-2.929,0.256-3.823c0.487-0.258,1.123-0.6,1.816-0.957l-5.126,2.561l-0.762,0.242l-0.268,0.199
			c0.66-0.326,1.36-0.586,2.102-0.768c-0.142,2.017-0.491,1.598,0.011,3.649c0.271,1.109,0.839,2.173,1.083,3.218
			c-3.052,0.254-7.878,2.794-10.872,2.861c1.064-2.219,2.43-4.529,4.214-6.374l-0.967,0.723l-5.296,7.698
			c-0.129,2.918,1.802,5.865,7.179,8.842c5.979,3.31,16.675,5.418,26.055,5.418c0.215-0.383,0.156-0.315,0.285-0.852
			c0.813-0.953,1.329-2.286,1.91-3.535c0.405-0.875,1.452-3.056,1.524-3.863c3.133-4.05,4.277-19.62,4.296-22.942
			C373.043,40.163,372.459,38.242,372.452,36.181L372.452,36.181z M366.71,64.935c-3.49-0.842-4.457-0.975-7.814-2.18
			c-1.084-0.389-1.491-0.741-2.466-0.968l1.431-0.813c3.57-1.1,8.678-3.846,12.016-5.482
			C369.849,56.795,368.079,64.581,366.71,64.935L366.71,64.935z M357.289,59.499c1.585-2.996,2.372-5.775,3.72-8.584
			c0.58,0.136,8.86,3.708,8.868,3.72C368.182,55.34,359.17,59.342,357.289,59.499z M354.593,61.094
			c-2.005-1.741-5.171-3.536-6.745-5.887c3.932-0.962,7.458-2.857,11.159-3.72C357.697,54.215,356.25,58.953,354.593,61.094z
			 M349.278,52.919L349.278,52.919z M344.701,56.066c-1.98,2.956-4.693,6.128-6.295,9.155c-2.417-1.279-3.972-3.984-4.577-6.58
			C337.542,57.723,341.009,56.926,344.701,56.066z M346.131,56.638c1.031,0.69,3.859,4.004,6.008,4.577
			c-0.456,0.623-12.432,5.032-12.875,4.577C338.714,65.229,345.152,58.099,346.131,56.638z M352.711,63.218
			c-0.31,1.162-3.223,5.555-4.005,6.867c-1.253-0.028-7.782-2.347-8.512-3.505C343.383,66.509,349.352,63.978,352.711,63.218z
			 M355.001,62.931c1.003,0.084,1.731,0.546,2.605,0.828c2.504,0.808,6.187,1.748,8.839,1.748c-3.473,1.808-12.437,4.114-16.88,5.15
			C350.864,68.714,354.508,64.776,355.001,62.931L355.001,62.931z M366.73,66.365c-0.086,1.037-1.84,5.653-2.288,6.573
			c-3.64,0.038-10.513-1.709-12.303-1.709C352.608,71.661,365.818,67.433,366.73,66.365z M369.877,55.492L369.877,55.492z
			 M370.449,53.776c-1.721-0.401-6.207-2.859-8.049-4.073c2.101-0.684,6.672-3.869,8.622-5.082
			C371.023,49.086,370.449,51.16,370.449,53.776L370.449,53.776z"/>
	</g>
	<g enable-background="new    ">
		<polygon fill="#00A859" points="159.168,39.438 159.168,69.25 220.036,69.25 220.054,39.438 		"/>
		<path fill="#FFFFFF" d="M166.789,43.572c0,6.711,0,13.422,0,20.133c2.986,0,4.866,0,7.853,0c2.169-0.449,5.112-3.51,5.335-5.789
			c0-3.556,0-4.899,0-8.456c0.012-2.469-2.477-5.72-5.335-5.889C171.789,43.572,169.641,43.572,166.789,43.572z M170.617,46.642
			c0.016,4.58,0.032,8.91,0.048,13.489c0.991,0,1.98,0,2.97,0c1.591-0.61,2.077-1.491,2.064-3.926
			c-0.016-2.114-0.034-4.228-0.051-6.342c-0.045-1.35-0.526-3.031-2.19-3.248C172.585,46.631,171.488,46.625,170.617,46.642z"/>
		<path fill="#FFFFFF" d="M182.771,43.646c0.016,6.627,0.033,13.255,0.05,19.882c3.121-0.034,5.487-0.059,8.608-0.093
			c1.776-0.405,4.099-1.654,4.127-4.286c0-1.158,0-2.315,0-3.474c-0.523-1.48-1.793-2.379-3.523-2.919
			c1.314-0.613,2.498-1.395,2.87-3.221c-0.018-0.973-0.034-1.946-0.051-2.919c-0.364-1.371-1.361-2.641-3.474-2.87
			C188.509,43.713,185.639,43.679,182.771,43.646z M186.802,54.799c0,1.527,0.025,4.086,0.025,5.612c0.973,0,1.897,0,2.87,0
			c2.351-0.414,2.609-5.651-0.236-5.628C188.504,54.815,187.759,54.766,186.802,54.799z M186.596,46.49c0,1.527,0,3.331,0,4.857
			c0.973,0,1.897,0,2.87,0c2.349-0.414,2.34-4.912-0.504-4.891C188.006,46.49,187.553,46.457,186.596,46.49z"/>
		<path fill="#FFFFFF" d="M197.846,49.811c1.04,0,2.407-0.1,3.448-0.1c-0.6-5.569,5.033-3.919,4.807-1.007
			c-0.017,2.315-5.772,7.702-8.506,11.578c0.05,1.057-0.025,2.138,0.025,3.196c3.91,0,8.257-0.063,12.167-0.063
			c0-0.991-0.011-2.7-0.011-3.689c-2.511-0.02-4.548,0.101-7.288,0.131c2.046-3.429,8.617-7.531,7.085-12.361
			c-0.41-1.188-1.034-2.121-1.782-2.813c-2.524-2.331-6.478-1.926-8.561,0.625C198.325,46.418,197.773,47.936,197.846,49.811z"/>
		<ellipse fill="#FFFFFF" cx="214.885" cy="61.676" rx="2.894" ry="2.919"/>
	</g>
	<path fill="#201E1E" d="M455.698,65.815l0.083-11.001l0.626,0.109c0.744,2.796,1.634,4.993,2.668,6.599
		c1.933,2.969,4.376,4.457,7.307,4.457c2.052,0,3.74-0.681,5.075-2.051c1.334-1.362,1.997-3.096,1.997-5.184
		c0-0.907-0.145-1.833-0.445-2.768c-0.291-0.944-0.682-1.751-1.181-2.424c-0.518-0.69-1.243-1.353-2.178-1.997
		c-0.935-0.636-2.36-1.444-4.284-2.424c-1.698-0.845-2.986-1.57-3.885-2.151c-0.899-0.59-1.625-1.179-2.178-1.779
		c-1.535-1.67-2.298-3.704-2.298-6.1c0-1.471,0.3-2.886,0.899-4.257c0.591-1.362,1.426-2.532,2.497-3.514
		c1.888-1.734,4.129-2.604,6.708-2.604c0.844,0,1.616,0.081,2.333,0.244c0.708,0.173,1.661,0.5,2.859,0.999
		c0.889,0.354,1.498,0.581,1.815,0.671c0.328,0.1,0.609,0.146,0.863,0.146c0.617,0,1.034-0.445,1.253-1.353h0.599L476.994,40h-0.599
		c-0.481-1.688-0.889-2.986-1.243-3.885c-0.346-0.899-0.754-1.724-1.235-2.487c-0.872-1.388-1.833-2.414-2.877-3.085
		c-1.053-0.663-2.261-0.999-3.632-0.999c-1.987,0-3.558,0.672-4.72,2.024c-0.481,0.554-0.853,1.208-1.125,1.952
		c-0.282,0.744-0.418,1.488-0.418,2.242c0,2.969,1.906,5.356,5.727,7.171l3.748,1.815c2.897,1.371,4.984,2.886,6.255,4.539
		c1.461,1.852,2.188,4.003,2.188,6.454c0,1.624-0.327,3.177-0.99,4.657c-0.926,2.061-2.315,3.658-4.158,4.774
		c-1.852,1.117-4.03,1.68-6.545,1.68c-2.296,0-4.502-0.454-6.617-1.371c-1.108-0.491-1.761-0.763-1.979-0.835
		c-0.209-0.073-0.454-0.11-0.717-0.11c-0.853,0-1.442,0.427-1.761,1.28L455.698,65.815L455.698,65.815z M487.95,65.979v-0.4
		c0.672-0.035,1.223-0.132,1.647-0.284c0.429-0.151,0.804-0.399,1.137-0.744c0.363-0.381,0.611-0.859,0.744-1.44
		c0.127-0.58,0.195-1.477,0.195-2.699l0.018-3.462c0-0.495-0.103-1.046-0.303-1.651c-0.223-0.696-0.683-1.573-1.379-2.627
		l-4.593-6.905l-0.817-1.247c-0.599-0.895-1.192-1.512-1.773-1.846c-0.297-0.175-0.593-0.302-0.883-0.375
		c-0.297-0.066-0.715-0.114-1.241-0.139v-0.399h11.569v0.399c-0.98,0.061-1.603,0.145-1.875,0.267
		c-0.659,0.284-0.992,0.798-0.992,1.543c0,0.272,0.072,0.581,0.217,0.926c0.152,0.346,0.388,0.775,0.715,1.295l4.78,7.528
		l4.133-6.427l0.46-0.727c0.441-0.69,0.659-1.361,0.659-2.026c0-0.757-0.242-1.343-0.732-1.755
		c-0.484-0.418-1.168-0.624-2.045-0.624v-0.399h8.151v0.399c-0.611,0.073-1.083,0.176-1.409,0.309
		c-0.334,0.139-0.666,0.363-1.011,0.665c-0.798,0.763-1.689,1.888-2.663,3.396l-4.066,6.178c-0.491,0.732-0.787,1.27-0.891,1.616
		c-0.108,0.344-0.163,0.919-0.163,1.736v4.351c0,1.264,0.06,2.178,0.188,2.729c0.127,0.551,0.375,1.017,0.756,1.409
		c0.653,0.684,1.585,1.028,2.796,1.028v0.4H487.95V65.979z M506.037,65.979v-0.4c0.684-0.035,1.235-0.132,1.658-0.29
		c0.418-0.163,0.787-0.406,1.108-0.738c0.375-0.381,0.629-0.859,0.762-1.44c0.127-0.58,0.193-1.477,0.193-2.699V47.329
		c0-1.223-0.066-2.118-0.193-2.699c-0.133-0.581-0.387-1.059-0.762-1.44c-0.321-0.346-0.69-0.593-1.119-0.745
		c-0.423-0.151-0.974-0.248-1.647-0.284v-0.399h11.631c1.179,0,1.948,0.012,2.318,0.037c1.343,0.109,2.457,0.423,3.34,0.961
		c0.769,0.472,1.361,1.096,1.779,1.864c0.417,0.769,0.63,1.635,0.63,2.596c0,1.556-0.478,2.826-1.434,3.825
		c-0.339,0.363-0.732,0.671-1.168,0.914c-0.436,0.242-1.065,0.514-1.888,0.81c1.132,0.188,2.016,0.394,2.638,0.617
		c0.63,0.224,1.198,0.539,1.707,0.939c0.756,0.617,1.343,1.379,1.767,2.293c0.418,0.914,0.63,1.906,0.63,2.965
		c0,1.077-0.218,2.057-0.648,2.953c-0.43,0.889-1.03,1.609-1.797,2.148c-0.696,0.485-1.525,0.823-2.487,1.011
		s-2.318,0.284-4.067,0.284H506.037L506.037,65.979z M513.606,42.306v10.566h1.44c0.672,0,1.368-0.048,2.095-0.145
		c0.623-0.091,1.131-0.205,1.518-0.333c0.382-0.133,0.732-0.309,1.053-0.539c0.605-0.447,1.071-1.028,1.392-1.73
		c0.327-0.708,0.491-1.488,0.491-2.341c0-0.902-0.17-1.755-0.508-2.567c-0.333-0.816-0.781-1.446-1.338-1.894
		c-0.485-0.393-1.042-0.659-1.658-0.804c-0.623-0.139-1.568-0.212-2.832-0.212L513.606,42.306L513.606,42.306z M513.606,53.417
		v7.304c0,0.883,0.061,1.597,0.188,2.142c0.122,0.545,0.328,1.004,0.612,1.386c0.605,0.793,1.639,1.185,3.11,1.185
		c1.906,0,3.412-0.52,4.52-1.56c1.108-1.041,1.664-2.457,1.664-4.254c0-1.028-0.17-1.979-0.514-2.863
		c-0.344-0.878-0.804-1.555-1.386-2.027c-1.065-0.878-2.735-1.313-5.01-1.313C516.79,53.417,513.606,53.417,513.606,53.417z
		 M555.142,65.979h-11.66v-0.4c1.053-0.097,1.792-0.271,2.202-0.532c0.732-0.46,1.102-1.102,1.102-1.918
		c0-0.485-0.163-1.132-0.497-1.948l-0.302-0.745l-1.701-4.187h-7.818l-0.926,2.451l-0.448,1.096
		c-0.532,1.301-0.799,2.324-0.799,3.068c0,0.441,0.097,0.847,0.296,1.228c0.193,0.375,0.454,0.684,0.787,0.92
		c0.466,0.321,1.059,0.508,1.786,0.569v0.4h-7.952v-0.4c0.63-0.035,1.174-0.188,1.652-0.46c0.472-0.271,0.932-0.714,1.38-1.313
		c0.381-0.484,0.75-1.113,1.113-1.875c0.356-0.763,0.835-1.906,1.421-3.431l6.487-16.738h1.017l7.734,18.65
		c0.58,1.409,1.04,2.414,1.386,3.019c0.339,0.605,0.714,1.059,1.113,1.368c0.284,0.211,0.611,0.375,0.974,0.489
		c0.369,0.109,0.92,0.206,1.651,0.29L555.142,65.979L555.142,65.979z M544.008,55.522l-3.721-9.197l-3.534,9.197H544.008z
		 M556.456,65.871l0.054-7.335l0.418,0.073c0.497,1.864,1.089,3.328,1.779,4.399c1.289,1.979,2.917,2.971,4.871,2.971
		c1.368,0,2.493-0.454,3.383-1.367c0.891-0.908,1.332-2.064,1.332-3.456c0-0.605-0.097-1.222-0.296-1.846
		c-0.195-0.629-0.454-1.168-0.787-1.616c-0.346-0.46-0.829-0.901-1.453-1.33c-0.623-0.423-1.573-0.962-2.855-1.616
		c-1.132-0.563-1.991-1.047-2.59-1.434c-0.599-0.394-1.083-0.787-1.452-1.187c-1.023-1.113-1.531-2.469-1.531-4.066
		c0-0.981,0.199-1.925,0.599-2.839c0.393-0.907,0.949-1.688,1.663-2.341c1.26-1.156,2.754-1.737,4.472-1.737
		c0.563,0,1.077,0.055,1.555,0.164c0.473,0.114,1.107,0.333,1.906,0.665c0.593,0.236,0.999,0.388,1.211,0.448
		c0.217,0.066,0.405,0.097,0.574,0.097c0.412,0,0.69-0.296,0.835-0.901h0.4l0.109,7.044h-0.4c-0.321-1.126-0.592-1.991-0.829-2.59
		c-0.229-0.599-0.501-1.15-0.822-1.658c-0.581-0.926-1.223-1.61-1.919-2.057c-0.702-0.442-1.506-0.666-2.42-0.666
		c-1.325,0-2.372,0.448-3.147,1.349c-0.321,0.369-0.568,0.806-0.75,1.301c-0.188,0.497-0.278,0.993-0.278,1.496
		c0,1.978,1.271,3.57,3.818,4.78l2.499,1.21c1.931,0.913,3.323,1.924,4.169,3.025c0.974,1.235,1.459,2.669,1.459,4.303
		c0,1.083-0.218,2.117-0.66,3.104c-0.617,1.373-1.543,2.438-2.771,3.182c-1.235,0.744-2.687,1.12-4.363,1.12
		c-1.531,0-3.002-0.303-4.412-0.914c-0.737-0.327-1.174-0.508-1.319-0.557c-0.139-0.048-0.302-0.073-0.478-0.073
		c-0.57,0-0.962,0.284-1.175,0.854L556.456,65.871L556.456,65.871z M593.459,41.762l0.29,5.863l-0.399,0.019
		c-0.152-0.999-0.406-1.822-0.763-2.476c-0.357-0.648-0.872-1.228-1.543-1.724c-0.557-0.412-1.216-0.708-1.973-0.878
		c-0.756-0.176-1.767-0.261-3.019-0.261h-4.067V52.98h1.072c1.083,0,1.893-0.073,2.438-0.212c0.551-0.145,0.993-0.393,1.338-0.762
		c0.333-0.34,0.58-0.744,0.744-1.21c0.157-0.466,0.29-1.156,0.4-2.064l0.399,0.018l-0.072,9.495h-0.4
		c-0.109-0.913-0.267-1.645-0.472-2.202c-0.206-0.557-0.497-1.028-0.866-1.417c-0.356-0.381-0.816-0.659-1.392-0.835
		c-0.568-0.176-1.295-0.267-2.173-0.267h-1.017v4.061c0,1.616,0.042,2.795,0.127,3.534c0.079,0.738,0.242,1.355,0.478,1.852
		c0.406,0.847,1.024,1.471,1.852,1.869c0.829,0.394,1.925,0.593,3.28,0.593c1.417,0,2.602-0.182,3.558-0.538
		c0.956-0.363,1.73-0.92,2.335-1.677c0.423-0.507,0.769-1.089,1.036-1.736c0.259-0.648,0.508-1.506,0.731-2.571l0.4,0.018
		l-0.218,7.05h-21.167v-0.4c0.677-0.035,1.228-0.132,1.645-0.284c0.423-0.151,0.8-0.399,1.132-0.744
		c0.369-0.381,0.623-0.865,0.756-1.446c0.139-0.587,0.205-1.483,0.205-2.693V47.329c0-1.21-0.066-2.107-0.205-2.693
		c-0.133-0.587-0.387-1.065-0.756-1.446c-0.321-0.346-0.69-0.593-1.113-0.745c-0.418-0.151-0.974-0.248-1.664-0.284v-0.399H593.459
		L593.459,41.762z"/>
	<path fill="#D64838" d="M459.079,216.491v-21.467h15.89v3.628h-11.542v4.767h10.733v3.628h-10.733v5.816h11.962v3.628
		L459.079,216.491L459.079,216.491z M477.937,209.536l4.227-0.42c0.255,1.414,0.764,2.449,1.539,3.113
		c0.774,0.665,1.819,0.994,3.133,0.994c1.389,0,2.439-0.295,3.143-0.885s1.059-1.279,1.059-2.069c0-0.51-0.15-0.939-0.445-1.299
		c-0.295-0.355-0.814-0.665-1.553-0.925c-0.505-0.179-1.655-0.489-3.453-0.939c-2.314-0.58-3.937-1.29-4.872-2.135
		c-1.314-1.184-1.969-2.628-1.969-4.332c0-1.095,0.31-2.123,0.925-3.077c0.619-0.955,1.509-1.68,2.673-2.18
		c1.165-0.499,2.564-0.749,4.213-0.749c2.683,0,4.707,0.594,6.061,1.789c1.359,1.194,2.069,2.782,2.138,4.777l-4.348,0.15
		c-0.184-1.11-0.579-1.904-1.184-2.388c-0.604-0.485-1.513-0.73-2.723-0.73c-1.249,0-2.228,0.261-2.933,0.78
		c-0.454,0.335-0.684,0.78-0.684,1.34c0,0.51,0.215,0.944,0.645,1.303c0.544,0.465,1.868,0.945,3.972,1.445
		c2.103,0.494,3.658,1.014,4.661,1.544c1.01,0.534,1.8,1.26,2.37,2.183c0.57,0.925,0.854,2.064,0.854,3.418
		c0,1.229-0.34,2.384-1.024,3.458c-0.685,1.074-1.649,1.874-2.899,2.393c-1.249,0.525-2.808,0.784-4.672,0.784
		c-2.713,0-4.797-0.624-6.251-1.879C479.086,213.753,478.221,211.929,477.937,209.536L477.937,209.536z M497.935,209.536l4.227-0.42
		c0.255,1.414,0.764,2.449,1.539,3.113c0.774,0.665,1.819,0.994,3.133,0.994c1.389,0,2.439-0.295,3.143-0.885
		s1.059-1.279,1.059-2.069c0-0.51-0.15-0.939-0.445-1.299c-0.295-0.355-0.814-0.665-1.553-0.925
		c-0.505-0.179-1.655-0.489-3.453-0.939c-2.314-0.58-3.937-1.29-4.872-2.135c-1.314-1.184-1.969-2.628-1.969-4.332
		c0-1.095,0.31-2.123,0.925-3.077c0.619-0.955,1.509-1.68,2.673-2.18c1.165-0.499,2.564-0.749,4.213-0.749
		c2.683,0,4.707,0.594,6.061,1.789c1.359,1.194,2.069,2.782,2.138,4.777l-4.347,0.15c-0.184-1.11-0.579-1.904-1.184-2.388
		c-0.604-0.485-1.513-0.73-2.723-0.73c-1.249,0-2.228,0.261-2.933,0.78c-0.454,0.335-0.684,0.78-0.684,1.34
		c0,0.51,0.215,0.944,0.645,1.303c0.544,0.465,1.868,0.945,3.972,1.445c2.103,0.494,3.658,1.014,4.661,1.544
		c1.01,0.534,1.8,1.26,2.37,2.183c0.57,0.925,0.854,2.064,0.854,3.418c0,1.229-0.34,2.384-1.024,3.458
		c-0.685,1.074-1.649,1.874-2.899,2.393c-1.249,0.525-2.808,0.784-4.672,0.784c-2.713,0-4.797-0.624-6.251-1.879
		C499.084,213.753,498.219,211.929,497.935,209.536L497.935,209.536z M519.072,195.024h8.584c1.704,0,2.969,0.071,3.803,0.21
		c0.84,0.145,1.584,0.44,2.245,0.885c0.659,0.449,1.209,1.045,1.649,1.789s0.659,1.584,0.659,2.509c0,0.999-0.27,1.924-0.809,2.758
		c-0.54,0.84-1.275,1.465-2.2,1.885c1.305,0.385,2.305,1.033,3.009,1.953c0.699,0.92,1.05,1.999,1.05,3.244
		c0,0.979-0.225,1.928-0.681,2.853c-0.454,0.925-1.073,1.664-1.864,2.219c-0.784,0.55-1.754,0.889-2.909,1.019
		c-0.719,0.075-2.463,0.125-5.226,0.145h-7.31L519.072,195.024L519.072,195.024z M523.42,198.592v4.948h2.838
		c1.684,0,2.733-0.026,3.143-0.075c0.74-0.085,1.325-0.34,1.749-0.764c0.425-0.425,0.635-0.98,0.635-1.669
		c0-0.665-0.185-1.2-0.55-1.615c-0.366-0.414-0.909-0.664-1.629-0.749c-0.431-0.051-1.664-0.075-3.699-0.075L523.42,198.592
		L523.42,198.592z M523.42,207.108v5.756h4.017c1.559,0,2.554-0.045,2.973-0.13c0.644-0.12,1.169-0.405,1.573-0.86
		c0.405-0.459,0.61-1.064,0.61-1.828c0-0.65-0.155-1.195-0.469-1.644c-0.31-0.449-0.764-0.78-1.354-0.985
		c-0.59-0.204-1.874-0.309-3.849-0.309L523.42,207.108L523.42,207.108z M560.062,216.491h-4.682l-1.854-4.887h-8.61l-1.783,4.887
		h-4.598l8.335-21.467h4.592L560.062,216.491L560.062,216.491z M552.116,207.977l-2.983-7.946l-2.898,7.946H552.116L552.116,207.977
		z M561.235,209.536l4.227-0.42c0.255,1.414,0.764,2.449,1.539,3.113c0.774,0.665,1.819,0.994,3.133,0.994
		c1.389,0,2.439-0.295,3.143-0.885s1.059-1.279,1.059-2.069c0-0.51-0.15-0.939-0.445-1.299c-0.295-0.355-0.814-0.665-1.553-0.925
		c-0.505-0.179-1.655-0.489-3.453-0.939c-2.314-0.58-3.937-1.29-4.872-2.135c-1.314-1.184-1.969-2.628-1.969-4.332
		c0-1.095,0.31-2.123,0.925-3.077c0.619-0.955,1.508-1.68,2.673-2.18c1.165-0.499,2.564-0.749,4.213-0.749
		c2.683,0,4.707,0.594,6.061,1.789c1.359,1.194,2.069,2.782,2.138,4.777l-4.347,0.15c-0.184-1.11-0.579-1.904-1.184-2.388
		c-0.604-0.485-1.513-0.73-2.723-0.73c-1.249,0-2.228,0.261-2.933,0.78c-0.454,0.335-0.684,0.78-0.684,1.34
		c0,0.51,0.215,0.944,0.645,1.303c0.544,0.465,1.868,0.945,3.972,1.445c2.103,0.494,3.658,1.014,4.661,1.544
		c1.01,0.534,1.8,1.26,2.37,2.183c0.57,0.925,0.854,2.064,0.854,3.418c0,1.229-0.34,2.384-1.024,3.458
		c-0.685,1.074-1.649,1.874-2.899,2.393c-1.249,0.525-2.808,0.784-4.672,0.784c-2.713,0-4.797-0.624-6.251-1.879
		C562.384,213.753,561.52,211.929,561.235,209.536L561.235,209.536z M582.373,216.491v-21.467h15.89v3.628H586.72v4.767h10.733
		v3.628H586.72v5.816h11.962v3.628L582.373,216.491L582.373,216.491z"/>
</g>
</svg>
