<?xml version="1.0" encoding="utf-8"?>
<!-- Generator: Adobe Illustrator 17.0.0, SVG Export Plug-In . SVG Version: 6.00 Build 0)  -->
<!DOCTYPE svg PUBLIC "-//W3C//DTD SVG 1.1//EN" "http://www.w3.org/Graphics/SVG/1.1/DTD/svg11.dtd">
<svg version="1.1" id="Capa_1" xmlns="http://www.w3.org/2000/svg" xmlns:xlink="http://www.w3.org/1999/xlink" x="0px" y="0px"
	 width="599px" height="230px" viewBox="0 0 599 230" enable-background="new 0 0 599 230" xml:space="preserve">
<rect y="0.115" fill="#01579B" width="599" height="2.385"/>
<g id="Capa_x0020_1">
	<path fill="#201E1E" d="M231.839,87.079c1.525,3.625,4.621,5.875,9.298,3.823c4.045-1.775,4.302-4.465,8.204-6.366
		c3.026-1.474,8.139-3.038,5.449-7.475c-1.245-2.053-1.791-1.666-2.506-4.627c-0.718-2.978-0.66-3.162-2.735-4.709
		c0.104-3.84,1.701-5.781-0.89-12.382c-2.821-7.187-9.656-12.752-11.479-18.412c-1.791-5.564,1.772-18.828-6.943-22.903
		c-3.713-1.736-9.142-1.122-12.282,0.732c-8.333,4.922-2.841,14.802-5.58,23.651c-1.866,6.028-8.247,11.537-10.953,18.89
		c-3.254,8.842,0.295,7.048-3.283,11.663c-2.793,3.604-7.304,0.632-6.225,8.423c0.689,4.97-3.271,8.722,3.976,9.76
		c10.531,1.51,6.41,1.931,11.594,3.213c4.139,1.024,6.111,0.089,8.137-2.221c1.05-1.198,0.696-0.729,2.785-1.038
		C227.963,85.689,223.611,86.77,231.839,87.079z"/>
	<path fill="#00A859" d="M37.017,82.691h14.005l-0.025-9.396c1.396,1.42,5.636,7.65,6.69,9.59l10.752,0.009V51.138l-14.011-0.006
		v10.296l-5.805-7.944c-2.202-3.199-0.374-2.352-11.6-2.352L37.017,82.691z M74.427,82.485l1.568,0.021l12.412-0.004l0.014-31.557
		l-13.994,0.004V82.485z M104.522,66.246c-0.794,1.937-10.086,13.383-12.112,16.128l13.744,0.129
		c3.178-0.004,3.214-4.231,6.58-6.147c1.083,2.184,3.247,4.053,4.455,6.144l15.281,0.002c-1.012-1.863-10.493-13.208-12.395-15.883
		c0.767-1.872,6.607-8.82,8.648-11.613c0.907-1.24,2.313-2.697,2.842-4.008l-15.16-0.002c-0.431,0.995-3.395,4.985-4.294,5.579
		c-0.907-0.875-3.635-4.39-4.201-5.592l-15.305-0.028c0.536,1.234-0.032,0.11,0.653,1.166c0.024,0.035,0.576,0.8,0.683,0.938
		c0.555,0.722,1.048,1.307,1.572,1.99L104.522,66.246z M0.003,62.251c0,6.72,0.89,13.287,4.665,16.512
		c3.52,3.008,10.021,5.278,16.077,3.299c12.965-4.236,10.739-17.116,10.739-31.303l-14.073-0.024l0.011,12.706
		c0,1.739,0.292,4.894-1.164,5.461c-2.472,0.963-2.288-2.545-2.293-4.261c-0.011-4.614,0.008-9.232,0.008-13.847L0.036,50.735
		L0.003,62.251z"/>
	<path fill="#201E1E" d="M205.515,108.692h2.259c0.247,0,0.454-0.012,0.621-0.041c0.164-0.03,0.308-0.073,0.426-0.136
		c0.117-0.058,0.223-0.141,0.317-0.249c0.094-0.106,0.185-0.245,0.272-0.418c0.087-0.17,0.167-0.387,0.247-0.65
		c0.076-0.261,0.174-0.653,0.288-1.177h0.871l-0.174,3.465h-7.747v-0.423c0.359-0.092,0.598-0.191,0.718-0.306
		c0.12-0.112,0.2-0.271,0.235-0.477c0.038-0.206,0.056-0.523,0.056-0.946v-7.455c0-0.395-0.014-0.685-0.041-0.865
		c-0.03-0.182-0.076-0.32-0.144-0.424c-0.064-0.099-0.152-0.178-0.261-0.241c-0.109-0.059-0.298-0.126-0.562-0.2v-0.424h3.629v0.424
		c-0.253,0.067-0.432,0.13-0.537,0.185c-0.106,0.053-0.195,0.126-0.265,0.217c-0.069,0.091-0.12,0.233-0.154,0.424
		c-0.035,0.188-0.053,0.49-0.053,0.903v8.814H205.515z M214.623,97.873v1.67h-1.585v-1.67H214.623z M212.158,109.063
		c0.223-0.069,0.385-0.128,0.48-0.18c0.093-0.053,0.174-0.124,0.241-0.215c0.065-0.095,0.118-0.233,0.156-0.424
		c0.035-0.188,0.056-0.484,0.056-0.887v-3.755c0-0.369-0.006-0.665-0.018-0.888c-0.012-0.224-0.053-0.403-0.121-0.539
		c-0.071-0.135-0.174-0.235-0.314-0.3c-0.142-0.067-0.341-0.123-0.6-0.17v-0.456l2.008-0.077h0.523v6.162
		c0,0.494,0.024,0.835,0.071,1.029c0.047,0.191,0.132,0.338,0.262,0.438c0.129,0.1,0.341,0.188,0.634,0.262v0.423h-3.379v-0.423
		H212.158z M225.454,109.486h-3.396v-0.423c0.226-0.069,0.385-0.128,0.482-0.18c0.1-0.053,0.182-0.124,0.247-0.215
		c0.065-0.095,0.118-0.235,0.156-0.426c0.035-0.194,0.056-0.486,0.056-0.877v-2.255c0-0.403-0.012-0.768-0.035-1.094
		c-0.022-0.33-0.061-0.598-0.115-0.807c-0.056-0.211-0.123-0.373-0.2-0.49c-0.077-0.118-0.17-0.221-0.276-0.304
		c-0.106-0.082-0.227-0.15-0.365-0.197c-0.138-0.05-0.32-0.073-0.543-0.073c-0.223,0-0.436,0.045-0.638,0.132
		c-0.201,0.091-0.421,0.245-0.663,0.462c-0.241,0.217-0.417,0.436-0.526,0.647c-0.109,0.211-0.165,0.456-0.165,0.732v3.214
		c0,0.494,0.024,0.835,0.071,1.029c0.047,0.191,0.132,0.338,0.262,0.438c0.129,0.1,0.341,0.188,0.634,0.262v0.423h-3.379v-0.423
		c0.223-0.069,0.385-0.128,0.48-0.18c0.093-0.053,0.174-0.124,0.241-0.215c0.065-0.095,0.118-0.233,0.156-0.424
		c0.035-0.188,0.056-0.484,0.056-0.887V103.6c0-0.369-0.006-0.665-0.018-0.888c-0.012-0.224-0.053-0.403-0.121-0.539
		c-0.071-0.135-0.174-0.235-0.314-0.3c-0.142-0.067-0.341-0.123-0.6-0.17v-0.456l2.018-0.077h0.523l-0.094,1.403l0.12,0.035
		c0.426-0.43,0.768-0.738,1.03-0.921c0.261-0.185,0.526-0.326,0.794-0.426c0.267-0.103,0.549-0.152,0.847-0.152
		c0.312,0,0.588,0.038,0.832,0.109c0.245,0.071,0.46,0.182,0.647,0.332c0.185,0.15,0.341,0.333,0.462,0.556
		c0.12,0.221,0.209,0.486,0.271,0.796c0.059,0.31,0.091,0.703,0.091,1.18v3.25c0,0.393,0.012,0.682,0.032,0.861
		c0.024,0.176,0.065,0.314,0.12,0.412c0.059,0.097,0.142,0.178,0.25,0.247c0.109,0.065,0.3,0.135,0.571,0.209L225.454,109.486
		L225.454,109.486z M226.704,101.249h2.455v4.385c0,0.673,0.027,1.185,0.077,1.535c0.053,0.351,0.13,0.615,0.233,0.791
		c0.103,0.18,0.249,0.33,0.441,0.45c0.189,0.12,0.45,0.18,0.783,0.18c0.22,0,0.429-0.041,0.628-0.13
		c0.203-0.085,0.426-0.235,0.673-0.45c0.247-0.217,0.424-0.429,0.529-0.644c0.106-0.211,0.159-0.458,0.159-0.741v-3.23
		c0-0.33-0.009-0.576-0.026-0.741c-0.018-0.168-0.045-0.3-0.086-0.4c-0.041-0.103-0.087-0.182-0.141-0.247
		c-0.056-0.061-0.132-0.12-0.233-0.174c-0.103-0.05-0.265-0.105-0.488-0.162v-0.423h2.456v5.884c0,0.444,0.008,0.762,0.026,0.956
		c0.018,0.197,0.053,0.353,0.112,0.468c0.056,0.115,0.146,0.207,0.267,0.28c0.12,0.071,0.335,0.138,0.644,0.203v0.447l-1.97,0.085
		h-0.526l0.05-1.412l-0.129-0.035c-0.477,0.519-0.93,0.898-1.366,1.139c-0.432,0.241-0.867,0.361-1.305,0.361
		c-0.523,0-0.952-0.103-1.291-0.312c-0.338-0.206-0.591-0.515-0.758-0.926c-0.168-0.409-0.25-0.989-0.25-1.735v-3.256
		c0-0.482-0.018-0.814-0.056-0.997c-0.038-0.18-0.109-0.324-0.215-0.429c-0.105-0.106-0.338-0.206-0.693-0.298L226.704,101.249
		L226.704,101.249z M240.297,104.516l1.12-1.423c0.12-0.156,0.221-0.306,0.294-0.454c0.073-0.144,0.112-0.297,0.112-0.449
		c0-0.132-0.051-0.245-0.148-0.33s-0.25-0.15-0.456-0.189v-0.423h2.817v0.423c-0.217,0.063-0.441,0.185-0.667,0.371
		c-0.227,0.182-0.506,0.48-0.832,0.888l-1.783,2.188l1.964,2.644c0.279,0.379,0.532,0.671,0.758,0.871
		c0.223,0.2,0.448,0.344,0.671,0.43v0.423h-3.465v-0.423c0.476-0.057,0.715-0.236,0.715-0.533c0-0.12-0.018-0.235-0.059-0.344
		c-0.041-0.112-0.115-0.239-0.223-0.38l-1.25-1.74l-1.327,1.724c-0.097,0.126-0.174,0.241-0.229,0.346
		c-0.053,0.109-0.083,0.227-0.083,0.359c0,0.156,0.053,0.282,0.162,0.383c0.106,0.103,0.274,0.164,0.503,0.185v0.423h-2.879v-0.423
		c0.191-0.069,0.361-0.154,0.514-0.256c0.15-0.106,0.306-0.239,0.465-0.403c0.158-0.162,0.364-0.403,0.624-0.718l1.793-2.223
		l-1.835-2.517c-0.253-0.344-0.456-0.594-0.604-0.749c-0.15-0.154-0.288-0.272-0.415-0.353c-0.126-0.079-0.253-0.138-0.379-0.171
		v-0.423h3.38v0.423c-0.456,0.069-0.683,0.248-0.683,0.533c0,0.132,0.03,0.265,0.091,0.397c0.059,0.132,0.154,0.28,0.28,0.442
		L240.297,104.516z"/>
	<path fill="#FFFFFF" d="M222.921,29.363c-0.803-9.136,11.551-5.493,6.613,3.035l-1.896-0.55c1.249-6.878-2.532-6.583-3.058-1.69
		L222.921,29.363z"/>
	<path fill="#FFFFFF" d="M216.229,32.338c-2.576-0.848-2.051-6.667-0.08-7.541c1.638-0.728,2.83,0.584,3.347,1.66
		c1.523,3.175-0.333,3.7-0.333,3.701c-1.063-0.864-0.511-0.626-1.036-1.682c-1.171-2.361-2.705-0.22-2.123,1.479
		C216.293,31.608,217.034,31.161,216.229,32.338z"/>
	<path fill="#F57C00" d="M214.54,35.813c-0.113-1.92,5.31-5.709,7.465-5.803c1.968,0.171,2.998,1.255,4.568,1.922
		c1.419,0.602,3.877,0.973,3.975,2.872c0.143,2.793-7.097,5.153-7.324,5.207C219.2,40.983,214.66,36.319,214.54,35.813z"/>
	<path fill="#FFFFFF" d="M237.457,47.779c1.501,0.52,3.417,3.718,4.331,5.618c1.634,3.4,1.491,4.833,1.333,8.556
		c1.628,1.271,5.742,2.535,4.371,5.396c-0.696-1.109-0.098-2.319-3.842-3.96c-2.5-1.096-4.663-1.506-5.694,0.942
		c-0.967,2.299-2.455,1.529-3.361,4.83c-1.616,5.889,0.754,9.846-3.884,12.303c-6.47,3.425-12.493,3.321-17.199-2.876
		c1.432-0.956,2.677-0.954,2.253-3.228c-1.283-6.874-13.63-6.6-10.58-17.971c0.712-2.653,2.549-6.468,3.892-8.02
		c-1.833,6.198-5.43,7.408-1.812,15.112c2.077-8.588-0.215-3.493,4.11-13.163c1.76-3.935,3.628-7.862,4.129-12.721
		c2.667,1.008,3.44,4.007,7.808,2.835c2.113-0.582,6.061-2.563,7.523-3.901c2.958,10.662,4.993,11.728,7.479,18.327
		c1.918,5.095,0.554,5.657,3.269,5.621c0.892-3.086,0.631-5.36-0.469-8.088C239.933,50.465,238.761,49.696,237.457,47.779z"/>
	<path fill="#201E1E" d="M238.678,67.046c-1.35-6.151,5.741-2.901,6.009-0.938C245.036,68.657,239.611,71.294,238.678,67.046z"/>
	<path fill="#F57C00" d="M192.976,77.231c-0.995-6.127,2.273-4.334,4.943-6.461c1.901-1.513,3.052-6.067,6.808-3.419
		c1.895,1.337,3.301,4.392,4.57,6.987c1.777,3.631,10.432,11.377,3.86,14.705c-2.833,1.434-6.525,0.12-8.994-1.112
		c-3.543-1.768-5.778-1.14-9.485-2.077C190.288,84.745,193.633,81.27,192.976,77.231z"/>
	<path fill="#F57C00" d="M237.228,66.672c0.737,0.63,0.554,0.773,0.952,1.879c0.984,2.739,3.418,3.127,5.852,1.8
		c1.777-0.967,1.833-2.106,4.061-1.832c1.755,0.216,2.455,1.423,2.901,3.132c1.721,6.592,3.93,5.682,3.42,8.184
		c-0.387,1.903-5.429,3.402-7.346,4.746c-2.514,1.765-3.306,4.036-6.481,5.397c-3.594,1.54-7.297-0.237-7.725-3.596
		c-0.396-3.114,1.565-6.814,1.931-9.942C235.312,72.006,234.696,69.481,237.228,66.672z"/>
	<path fill="#00BCF2" d="M368.592,32.15l-0.043,27.131c1.784,0.304,35.494-0.031,36.957-0.113c0.293-1.073,0.229-29.08,0.1-32.15
		L368.592,32.15L368.592,32.15z M337.541,85.607l27.86,3.836l-0.063-26.797l-27.812-0.182L337.541,85.607L337.541,85.607z
		 M337.67,36.462c-0.543,1.799-0.152,19.729-0.143,23.129l27.797-0.158l0.078-26.778L337.67,36.462z M368.578,89.937l37.031,5.123
		c0.126-3.543,0.337-30.703-0.113-32.161l-36.944-0.171L368.578,89.937L368.578,89.937z"/>
	<path fill="#00BCF2" d="M353.514,108.441h-2.458c-0.181,1.029-0.574,2.309-0.853,3.364l-2.181,8.464
		c-0.085,0.327-0.268,1.562-0.341,1.712c-0.056-0.113-0.311-1.455-0.387-1.744c-0.516-1.937-2.967-10.797-3.132-11.8l-2.412,0.005
		c-0.175,1.003-0.67,2.412-0.962,3.436c-0.317,1.108-0.65,2.293-0.975,3.419c-0.326,1.132-0.646,2.299-0.97,3.421l-0.851,3.422
		c-0.326-2.308-1.096-4.768-1.698-6.939l-1.802-6.766l-2.528,0.025c0.279,1.234,4.566,15.992,4.687,16.181l2.702-0.008
		c0.203-0.978,0.588-2.162,0.861-3.152l2.606-9.392l0.157,0.435c0.03,0.163,0.035,0.228,0.074,0.384
		c0.92,3.671,2.236,8.014,3.236,11.737l2.746-0.047L353.514,108.441z M355.332,107.649c-1.857,0.537-1.084,3.148,0.807,2.617
		C357.791,109.802,357.137,107.126,355.332,107.649z M354.541,124.635l2.233,0.005l0.008-11.566l-2.234-0.012L354.541,124.635z
		 M413.695,124.243c1.323,0.973,6.716,1.44,7.323-2.142c0.689-4.055-4.373-3.753-4.956-5.637c-0.353-1.146,0.594-1.811,1.633-1.857
		c1.556-0.069,2.106,0.555,2.793,0.781l-0.005-2.107c-1.104-0.35-1.728-0.58-3.097-0.499c-3.742,0.223-4.8,4.003-2.48,5.923
		c1.679,1.388,4.306,1.471,3.84,3.348c-0.234,0.943-1.526,1.154-2.585,1.021c-1.105-0.138-1.724-0.593-2.476-1.035L413.695,124.243
		L413.695,124.243z M361.62,124.62c0.017-2.128-0.001-4.263-0.002-6.392c0-1.909,1.022-3.452,2.793-3.558
		c2.213-0.133,2.674,1.612,2.685,3.635c0.011,2.063-0.09,4.29,0.007,6.338l2.224-0.026c0.066-1.777,0.006-3.673,0.006-5.464
		c0-1.654,0.09-3.456-0.674-4.705c-1.366-2.231-4.622-2.201-6.411-0.312c-0.175,0.185-0.194,0.207-0.314,0.378l-0.313,0.35
		l-0.005-1.798l-2.233,0.004l0.011,11.572L361.62,124.62z M389.185,114.739c2.542-0.465,3.972,1.119,4.158,3.408
		c0.208,2.539-0.52,4.51-2.77,4.879c-2.439,0.4-3.968-1.225-4.172-3.41C386.165,117.077,387.087,115.124,389.185,114.739z
		 M395.656,119.616c0.298-2.441-0.599-5.133-2.692-6.19c-0.708-0.358-1.374-0.547-2.293-0.631c-3.8-0.345-6.203,1.861-6.577,5.208
		c-0.426,3.823,1.575,6.629,5,6.911C392.797,125.217,395.212,123.264,395.656,119.616z M379.932,119.77
		c-0.567,4.902-7.283,4.464-6.292-1.889c0.302-1.939,1.687-3.719,4.034-3.122C379.962,115.342,380.165,117.763,379.932,119.77z
		 M379.95,114.509c-0.246-0.137-0.365-0.571-1.048-1.056c-1.397-0.995-3.547-0.804-4.912-0.066
		c-1.683,0.911-2.745,3.012-2.752,5.689c-0.006,2.731,1.017,4.735,2.93,5.513c1.068,0.436,2.469,0.474,3.547,0.079
		c0.552-0.202,0.954-0.484,1.307-0.777c0.33-0.273,0.671-0.903,0.931-1.088l0.019,1.839l2.209-0.009l-0.009-17.124l-2.213-0.001
		L379.95,114.509L379.95,114.509z M409.445,124.64c0.228-0.132,0.104-0.008,0.211-0.34l2.467-8.331
		c0.237-0.84,0.717-2.097,0.853-2.907l-2.201,0.021l-2.389,9.526c-0.131-1.311-1.992-7.924-2.47-9.547l-2.11,0.002
		c-0.386,1.349-2.777,8.776-2.724,9.504c-0.031-0.046-0.495-2.124-0.574-2.418c-0.552-2.052-1.465-5.224-1.868-7.087l-2.322,0.004
		c0.107,0.933,2.992,9.735,3.408,11.576l2.326-0.007c0.403-1.118,2.532-8.105,2.657-9.003c0.265,1.505,0.778,3.047,1.195,4.518
		l1.304,4.489H409.445z"/>
	<polygon fill="#201E1E" points="506.954,66.809 510.04,66.814 510.042,63.75 506.969,63.728 	"/>
	<path fill="#201E1E" d="M484.489,54.992c2.459,0,4.438,0.438,5.945,1.322c1.499,0.885,2.576,2.198,3.225,3.933
		c0.649,1.735,0.977,3.933,0.977,6.577c0,2.719-0.353,4.977-1.069,6.753c-0.716,1.785-1.827,3.107-3.327,3.966
		c-1.507,0.868-3.435,1.297-5.81,1.297c-2.274,0-4.144-0.421-5.609-1.271c-1.465-0.842-2.543-2.156-3.243-3.933
		c-0.698-1.777-1.053-4.051-1.053-6.813c0.026-3.95,0.851-6.898,2.484-8.859C478.645,56.011,481.138,55.018,484.489,54.992z
		 M480.085,66.824c0.093,2.754,0.379,4.892,0.877,6.417c0.496,1.516,1.65,2.291,3.478,2.315c1.347,0,2.358-0.412,3.015-1.23
		c0.665-0.816,1.086-1.827,1.263-3.031c0.177-1.204,0.261-2.661,0.261-4.371c0-1.751-0.076-3.208-0.228-4.353
		c-0.151-1.154-0.555-2.156-1.204-3.006c-0.649-0.851-1.634-1.281-2.956-1.289c-1.887,0-3.107,0.767-3.663,2.307
		C480.363,62.116,480.085,64.205,480.085,66.824L480.085,66.824z M501.467,60.853c0,0.892,0.749,1.575,2.231,2.029
		c1.481,0.455,2.98,0.875,4.488,1.263c1.516,0.387,2.829,1.053,3.957,2.003c1.129,0.952,1.711,2.409,1.752,4.363
		c0,1.946-0.328,3.503-0.977,4.691c-0.649,1.179-1.557,2.046-2.728,2.593c-1.171,0.548-2.602,0.877-4.279,0.993
		c-0.404,0.034-0.977,0.051-1.709,0.051c-1.229,0-2.383-0.092-3.478-0.269c-1.086-0.185-1.987-0.379-2.695-0.598
		s-1.061-0.354-1.061-0.396l-0.91-3.588c0.008,0,0.371,0.151,1.095,0.463s1.591,0.606,2.611,0.867
		c1.018,0.261,2.138,0.413,3.376,0.447c1.987,0,3.327-0.328,4.016-0.969c0.683-0.647,1.028-1.624,1.028-2.93
		c0-1.558-0.463-2.578-1.397-3.065c-0.926-0.489-2.433-0.96-4.53-1.407c-2.097-0.454-3.671-1.102-4.724-1.953
		c-1.054-0.851-1.576-2.35-1.576-4.497c0.051-1.364,0.43-2.493,1.146-3.377c0.716-0.892,1.659-1.549,2.821-1.979
		c1.162-0.437,2.468-0.682,3.916-0.749c2.409,0,4.294,0.135,5.667,0.412c1.364,0.278,2.274,0.506,2.721,0.699l0.969,3.79
		c0,0-0.338-0.152-0.995-0.447c-0.657-0.295-1.499-0.565-2.526-0.809c-1.028-0.243-2.249-0.361-3.663-0.361
		c-1.373,0-2.45,0.169-3.233,0.497C501.997,58.95,501.559,59.691,501.467,60.853L501.467,60.853z M528.253,54.84h3.234
		l-11.773,23.797h-3.182L528.253,54.84L528.253,54.84z M535.84,60.945v-4.034c0-0.084,0.295-0.294,0.868-0.631
		c0.572-0.337,1.422-0.657,2.552-0.969c1.128-0.304,2.534-0.48,4.21-0.522c2.543,0,4.732,0.379,6.585,1.146
		c1.853,0.757,2.788,2.087,2.813,4c0,2.299-0.775,3.788-2.332,4.479c-1.558,0.69-2.855,1.036-3.891,1.036
		c0.102,0.008,0.522,0.067,1.264,0.168c0.749,0.102,1.557,0.328,2.433,0.691c0.875,0.353,1.642,0.918,2.315,1.685
		c0.665,0.765,1.019,1.768,1.069,3.023c0,1.76-0.471,3.225-1.422,4.396c-0.952,1.179-2.198,2.038-3.739,2.593
		c-1.542,0.556-3.208,0.834-5.003,0.834c-2.012-0.043-3.68-0.278-5.002-0.708c-1.314-0.437-2.274-0.892-2.88-1.373
		c-0.598-0.48-0.901-0.8-0.901-0.943v-5.263c0.455,0.825,1.322,1.861,2.594,3.115c1.263,1.246,2.88,1.895,4.842,1.937
		c2.071,0,3.604-0.404,4.606-1.205c1.002-0.8,1.499-1.895,1.499-3.292c-0.067-1.591-0.775-2.686-2.113-3.267
		c-1.348-0.581-2.863-0.875-4.556-0.875c-0.438,0-0.825,0.008-1.145,0.033c-0.32,0.026-0.548,0.051-0.675,0.067v-3.082
		c0.135,0.018,0.379,0.043,0.716,0.067c0.346,0.026,0.742,0.034,1.205,0.034c4.143,0,6.215-1.179,6.215-3.529
		c-0.102-0.951-0.548-1.617-1.356-2.003c-0.808-0.387-2.005-0.581-3.604-0.581c-1.482,0-2.762,0.219-3.823,0.657
		c-1.062,0.437-1.845,0.875-2.35,1.322C536.329,60.39,536.001,60.727,535.84,60.945z M566.046,75.648
		c1.179-0.059,2.115-0.471,2.804-1.238c0.699-0.774,1.179-1.65,1.448-2.635s0.396-1.852,0.396-2.585
		c-0.194,0.302-0.766,0.682-1.718,1.136c-0.951,0.455-2.501,0.683-4.648,0.683c-1.507-0.085-2.804-0.489-3.873-1.221
		s-1.861-1.701-2.391-2.914c-0.532-1.212-0.801-2.585-0.801-4.1c0.018-1.407,0.379-2.711,1.095-3.908
		c0.708-1.195,1.777-2.146,3.208-2.854c1.432-0.716,3.184-1.07,5.246-1.07c6.029,0.338,9.044,4.11,9.044,11.31v1.171
		c-0.102,2.98-0.8,5.575-2.097,7.772c-1.305,2.198-3.647,3.42-7.049,3.647c-0.337,0.034-0.841,0.051-1.516,0.051
		c-2.063,0-3.637-0.253-4.732-0.758c-1.086-0.496-1.785-0.918-2.089-1.255v-4.059c0.067,0.093,0.21,0.278,0.438,0.565
		c0.227,0.286,0.581,0.606,1.069,0.969c0.497,0.361,1.162,0.673,2.021,0.943c0.859,0.269,1.87,0.404,3.031,0.404
		C565.415,75.699,565.785,75.682,566.046,75.648L566.046,75.648z M566.164,58.276c-1.221,0-2.164,0.455-2.838,1.373
		c-0.673,0.918-1.011,1.996-1.011,3.225c0,1.264,0.354,2.367,1.07,3.302c0.716,0.934,1.726,1.397,3.023,1.397
		c1.297-0.025,2.299-0.48,2.998-1.373c0.698-0.884,1.044-1.944,1.044-3.174c0-1.281-0.379-2.384-1.129-3.335
		C568.564,58.747,567.512,58.276,566.164,58.276L566.164,58.276z M589.035,54.739c3.394,0,5.878,1.028,7.469,3.074
		s2.417,5.052,2.493,9.011c0,2.576-0.396,4.775-1.195,6.576c-0.8,1.803-1.946,3.158-3.445,4.067
		c-1.499,0.918-3.267,1.373-5.322,1.373c-1.887,0-3.579-0.463-5.061-1.389c-1.483-0.926-2.645-2.299-3.478-4.118
		c-0.834-1.811-1.255-4.025-1.255-6.627c0.05-3.865,0.918-6.813,2.61-8.842C583.544,55.826,585.936,54.79,589.035,54.739z
		 M584.648,66.714c0,5.852,1.465,8.817,4.387,8.893c1.803,0,3.006-0.834,3.604-2.493c0.598-1.66,0.901-3.757,0.901-6.29
		c0-5.87-1.466-8.801-4.387-8.801c-1.836,0.161-3.041,1.011-3.604,2.56C584.984,62.133,584.682,64.179,584.648,66.714
		L584.648,66.714z"/>
	<path fill="#201E1E" d="M69.077,170.237c2.459,0,4.438,0.438,5.945,1.322c1.499,0.885,2.576,2.198,3.225,3.933
		s0.977,3.933,0.977,6.577c0,2.719-0.353,4.977-1.069,6.753c-0.716,1.785-1.827,3.107-3.327,3.966
		c-1.507,0.868-3.435,1.297-5.81,1.297c-2.274,0-4.144-0.421-5.609-1.271c-1.465-0.842-2.543-2.156-3.243-3.933
		c-0.698-1.777-1.053-4.051-1.053-6.813c0.026-3.95,0.851-6.898,2.484-8.859C63.233,171.256,65.726,170.263,69.077,170.237z
		 M64.673,182.069c0.093,2.754,0.379,4.892,0.877,6.417c0.496,1.516,1.65,2.291,3.478,2.315c1.347,0,2.358-0.412,3.015-1.23
		c0.665-0.816,1.086-1.827,1.263-3.031c0.177-1.204,0.261-2.661,0.261-4.371c0-1.751-0.076-3.208-0.228-4.353
		c-0.151-1.154-0.555-2.156-1.204-3.006c-0.649-0.851-1.634-1.281-2.956-1.289c-1.887,0-3.107,0.767-3.663,2.307
		C64.951,177.361,64.673,179.45,64.673,182.069z M86.055,176.099c0,0.892,0.749,1.575,2.231,2.029
		c1.481,0.455,2.98,0.875,4.488,1.263c1.516,0.387,2.829,1.053,3.957,2.003c1.129,0.952,1.711,2.409,1.752,4.363
		c0,1.946-0.328,3.503-0.977,4.691c-0.649,1.179-1.557,2.046-2.728,2.593c-1.171,0.548-2.602,0.877-4.279,0.993
		c-0.404,0.034-0.977,0.051-1.709,0.051c-1.229,0-2.383-0.092-3.478-0.269c-1.086-0.185-1.987-0.379-2.695-0.598
		c-0.708-0.219-1.061-0.354-1.061-0.396l-0.91-3.588c0.008,0,0.371,0.151,1.095,0.463s1.591,0.606,2.611,0.867
		c1.018,0.261,2.138,0.413,3.376,0.447c1.987,0,3.327-0.328,4.016-0.969c0.683-0.647,1.028-1.624,1.028-2.93
		c0-1.558-0.463-2.578-1.397-3.065c-0.926-0.489-2.433-0.96-4.53-1.407c-2.097-0.454-3.671-1.102-4.724-1.953
		c-1.054-0.851-1.576-2.35-1.576-4.497c0.051-1.364,0.43-2.493,1.146-3.377c0.716-0.892,1.659-1.549,2.821-1.979
		c1.162-0.437,2.468-0.682,3.916-0.749c2.409,0,4.294,0.135,5.667,0.412c1.364,0.278,2.274,0.506,2.721,0.699l0.969,3.79
		c0,0-0.338-0.152-0.995-0.447c-0.657-0.295-1.499-0.565-2.526-0.809c-1.028-0.243-2.249-0.361-3.663-0.361
		c-1.373,0-2.45,0.169-3.233,0.497C86.585,174.195,86.147,174.936,86.055,176.099z M112.841,170.086h3.234l-11.773,23.797h-3.182
		L112.841,170.086z M136.395,193.883h-5.456v-5.456h-11.924v-3.445l12.479-14.796h4.901v15.31h2.821v2.931h-2.821L136.395,193.883
		L136.395,193.883z M123.259,185.496h7.68v-8.993L123.259,185.496z M151.14,169.984c3.394,0,5.878,1.028,7.469,3.074
		c1.591,2.046,2.417,5.052,2.493,9.011c0,2.576-0.396,4.775-1.195,6.576c-0.8,1.803-1.946,3.158-3.445,4.067
		c-1.499,0.918-3.267,1.373-5.322,1.373c-1.887,0-3.579-0.463-5.061-1.389c-1.483-0.926-2.645-2.299-3.478-4.118
		c-0.834-1.811-1.255-4.025-1.255-6.627c0.05-3.865,0.918-6.813,2.609-8.842C145.649,171.071,148.041,170.035,151.14,169.984z
		 M146.752,181.959c0,5.852,1.465,8.817,4.387,8.893c1.803,0,3.006-0.834,3.604-2.493c0.598-1.66,0.901-3.757,0.901-6.29
		c0-5.87-1.466-8.801-4.387-8.801c-1.836,0.161-3.041,1.011-3.604,2.56C147.089,177.378,146.786,179.424,146.752,181.959z
		 M173.623,169.984c3.394,0,5.878,1.028,7.469,3.074c1.591,2.046,2.417,5.052,2.493,9.011c0,2.576-0.396,4.775-1.195,6.576
		c-0.8,1.803-1.946,3.158-3.445,4.067c-1.499,0.918-3.267,1.373-5.322,1.373c-1.887,0-3.579-0.463-5.061-1.389
		c-1.483-0.926-2.645-2.299-3.478-4.118c-0.834-1.811-1.255-4.025-1.255-6.627c0.05-3.865,0.918-6.813,2.609-8.842
		C168.133,171.071,170.525,170.035,173.623,169.984z M169.236,181.959c0,5.852,1.465,8.817,4.387,8.893
		c1.803,0,3.006-0.834,3.604-2.493c0.598-1.66,0.901-3.757,0.901-6.29c0-5.87-1.466-8.801-4.387-8.801
		c-1.836,0.161-3.041,1.011-3.604,2.56C169.573,177.378,169.27,179.424,169.236,181.959z"/>
	<path fill="#4FA800" d="M292.187,139.954L292.187,139.954c-24.968,0-45.208,20.158-45.208,45.023
		c0,24.866,20.24,45.023,45.208,45.023c24.968,0,45.208-20.156,45.208-45.023C337.395,160.112,317.154,139.954,292.187,139.954z
		 M292.187,227.755c-23.723,0-42.954-19.152-42.954-42.778s19.232-42.778,42.954-42.778s42.954,19.152,42.954,42.778
		C335.141,208.603,315.909,227.755,292.187,227.755z"/>
	<path fill="#4FA800" d="M292.187,145.302c-22.002,0-39.838,17.763-39.838,39.675s17.836,39.676,39.838,39.676
		c22.003,0,39.839-17.764,39.839-39.676S314.189,145.302,292.187,145.302z M280.178,195.265l-2.352-6.059h-9.084l-2.49,6.053h-4.637
		l9.867-23.878l4.289,0.008l9.632,23.875h-5.225V195.265z M291.737,195.265h-4.406v-23.883h4.406V195.265z M312.64,195.265
		l-6.302-8.346l-6.301,8.346h-5.585l9.082-12.061l-8.928-11.822h5.636l6.097,8.097l6.097-8.097h5.636l0,0l0,0l-8.927,11.822
		l9.081,12.061H312.64z M322.47,195.265c-1.351,0-2.446-1.096-2.446-2.446c0-1.351,1.095-2.446,2.446-2.446s2.446,1.095,2.446,2.446
		C324.917,194.169,323.822,195.265,322.47,195.265z"/>
	<path fill="#4FA800" d="M322.47,190.96c-1.025,0-1.857,0.832-1.857,1.858c0,1.025,0.832,1.857,1.857,1.857s1.857-0.832,1.857-1.857
		C324.327,191.792,323.496,190.96,322.47,190.96z M323.543,194.014h-0.539l-0.673-0.997h-0.265v1.075h-0.487
		c0-0.875,0-1.751,0-2.626l0,0h1.155c0.445,0,0.855,0.339,0.855,0.801c0,0.561-0.382,0.701-0.697,0.737L323.543,194.014z"/>
	<path fill="#4FA800" d="M322.645,191.858l-0.579,0.006v0.755h0.613c0.374-0.02,0.403-0.194,0.403-0.352
		C323.082,192.033,322.87,191.871,322.645,191.858z"/>
	<polygon fill="#4FA800" points="270.343,185.313 276.313,185.313 273.415,177.846 	"/>
	<path fill="#4FA800" d="M385.325,181.258v9.219c0,2.852-4.309,2.852-4.309,0v-9.219
		C381.015,178.408,385.325,178.408,385.325,181.258L385.325,181.258z M390.088,166.056L390.088,166.056
		c0.176-0.109,0.408-0.054,0.516,0.12l2.391,3.853c2.641-0.988,5.735-0.99,8.368,0.004l2.395-3.857
		c0.109-0.175,0.34-0.229,0.515-0.12l0,0c0.175,0.109,0.229,0.34,0.121,0.515l-2.331,3.755c2.659,1.225,4.726,3.538,5.16,6.952
		h-20.149c0.434-3.407,2.53-5.729,5.223-6.958l-2.328-3.749C389.859,166.397,389.913,166.165,390.088,166.056z M392.717,172.101
		c0.711,0,1.288,0.582,1.288,1.302c0,0.718-0.576,1.302-1.288,1.302c-0.71,0-1.286-0.584-1.286-1.302
		C391.431,172.683,392.007,172.101,392.717,172.101z M401.608,172.101c0.71,0,1.286,0.582,1.286,1.302
		c0,0.718-0.576,1.302-1.286,1.302c-0.711,0-1.288-0.584-1.288-1.302C400.32,172.683,400.897,172.101,401.608,172.101z
		 M403.583,197.182v5.238c0,2.85-4.309,2.85-4.309,0v-5.238h-4.191v5.238c0,2.85-4.309,2.85-4.309,0v-5.238h-1.737
		c-1.119,0-2.035-0.917-2.035-2.035v-16.043h20.294v16.043c0,1.119-0.916,2.035-2.035,2.035H403.583z M413.281,181.258v9.219
		c0,2.852-4.311,2.852-4.311,0v-9.219C408.971,178.408,413.281,178.408,413.281,181.258z"/>
	<path fill="#000066" d="M469.878,167.768c10.712,0,19.396,8.684,19.396,19.396c0,10.711-8.684,19.395-19.396,19.395
		s-19.395-8.684-19.395-19.395C450.483,176.452,459.166,167.768,469.878,167.768z M461.437,176.208l-2.553,8.894
		c3.292-0.771,6.563-1.323,9.602,0.754l2.717-9.082C468.616,175.179,465.524,174.647,461.437,176.208z M469.611,186.655
		c3.249,2.106,6.674,2.541,10.325,0.845l2.754-9.255c-3.38,1.146-6.797,1.767-10.43-0.684L469.611,186.655z M458.497,186.451
		l-2.627,9.153c3.714-0.978,7.077-1.178,9.463,0.794l2.816-9.415C464.618,184.649,461.516,185.262,458.497,186.451z
		 M466.505,197.319c2.939,1.898,7.53,2.08,10.377,0.439l2.607-8.763c-2.986,0.911-7.01,1.618-10.209-1.174l-0.007-0.006
		L466.505,197.319z"/>
	<path fill="#999999" d="M430.067,173.217c-9.376-4.208-17.284,3.511-15.101,14.207c0.602,5.784,3.303,12.078,6.51,14.307
		c4.242,3.296,7.841-0.132,10.835-0.285c3.421-0.188,4.872,2.406,8.048,1.595c4.117-1.05,7.287-6.749,7.667-10.903
		c-5.781-2.658-7.794-11.519-0.944-17.06c-2.431-3.187-5.816-4.769-11.317-2.402C434.48,173.23,432.409,174.156,430.067,173.217
		L430.067,173.217z M431.313,170.138c3.676,1.401,9.565-5.621,8.342-8.77C436.244,160.457,430.495,167.674,431.313,170.138z"/>
	<path d="M518.143,169.984h-18.081c-4.582,0-8.332,3.749-8.332,8.332v17.696c0,4.582,3.749,8.332,8.332,8.332h18.081
		c4.582,0,8.332-3.749,8.332-8.332v-17.696C526.475,173.734,522.725,169.984,518.143,169.984z M501.799,189.199h-4.43l1.048-4.071
		h3.382c1.12,0,2.035,0.916,2.035,2.035S502.919,189.199,501.799,189.199z M502.877,183.152h-4.43l1.048-4.071h3.382
		c1.119,0,2.035,0.915,2.035,2.035S503.996,183.152,502.877,183.152z M509.162,196.142h-4.43l1.048-4.071h3.382
		c1.12,0,2.035,0.917,2.035,2.035C511.197,195.226,510.281,196.142,509.162,196.142z M510.3,189.528h-4.43l1.048-4.071h3.382
		c1.119,0,2.035,0.915,2.035,2.035C512.336,188.611,511.419,189.528,510.3,189.528z M511.616,183.152h-4.43l1.048-4.071h3.382
		c1.12,0,2.035,0.915,2.035,2.035S512.736,183.152,511.616,183.152z M518.082,193.598h-4.43l1.048-4.071h3.382
		c1.12,0,2.035,0.916,2.035,2.035C520.117,192.682,519.201,193.598,518.082,193.598z M519.608,186.833h-4.43l1.048-4.071h3.382
		c1.12,0,2.035,0.917,2.035,2.035C521.643,185.917,520.728,186.833,519.608,186.833z"/>
</g>
</svg>
