<?xml version="1.0" encoding="utf-8"?>
<!-- Generator: Adobe Illustrator 17.0.0, SVG Export Plug-In . SVG Version: 6.00 Build 0)  -->
<!DOCTYPE svg PUBLIC "-//W3C//DTD SVG 1.1//EN" "http://www.w3.org/Graphics/SVG/1.1/DTD/svg11.dtd">
<svg version="1.1" id="Capa_1" xmlns="http://www.w3.org/2000/svg" xmlns:xlink="http://www.w3.org/1999/xlink" x="0px" y="0px"
	 width="599px" height="191px" viewBox="0 0 599 191" enable-background="new 0 0 599 191" xml:space="preserve">
<rect y="0.115" fill="#33691E" width="599" height="2.385"/>
<g id="_877952866208">
	<path fill="#D5B931" d="M20.61,131.857l2.74,0.019l-0.026,18.908l-8.218-2.247l-0.003-3.356l5.492,1.447L20.61,131.857z
		 M24.511,128.178l2.931-0.008h0.565h0.988h1.835l2.541,0.001l2.723-0.005l-2.186,24.773l-9.397,2.531
		C24.511,155.47,24.511,128.178,24.511,128.178z M24.336,157.848c0.643,0,10.133-2.845,11.858-3.246
		c0-1.366,0.243-2.444,0.282-3.671l1.634-18.411c0.081-0.562,0.133-1.357,0.179-1.798l0.403-4.571c0.04-0.412,0.073-0.63-0.38-0.63
		h-27.67c-0.713,0-0.352,1.079-0.198,2.177l1.188,13.492c0.088,2.044,0.58,5.732,0.708,8.044c0.044,0.782,0.202,1.931,0.267,2.699
		c0.293,3.475-0.729,2.332,4.795,3.957c0.714,0.21,1.632,0.478,2.304,0.66L24.336,157.848z"/>
	<path fill="#FED93C" d="M25.639,131.867l9.022,0.005l-0.362,3.32l-5.919,0.001l0.002,5.06l5.63-0.675l-0.718,9.197l-7.666,1.97
		l0.037-3.289l5.453-1.44l0.119-2.846l-5.609,0.956L25.639,131.867z M24.511,155.47l9.397-2.531l2.186-24.773l-2.723,0.005
		l-2.541-0.001h-1.835h-0.988h-0.565l-2.931,0.008C24.511,128.178,24.511,155.47,24.511,155.47z"/>
	<polygon fill="#FEFEFC" points="25.629,144.126 31.238,143.17 31.118,146.016 25.665,147.456 25.629,150.744 33.295,148.774 
		34.012,139.577 28.382,140.253 28.38,135.193 34.299,135.191 34.662,131.871 25.639,131.867 	"/>
	<polygon fill="#EAEAEA" points="20.594,146.628 15.102,145.181 15.105,148.537 23.324,150.784 23.35,131.876 20.61,131.857 	"/>
</g>
<path fill="#7A7A7A" d="M578.802,79.121c0.152-0.515,0.673-2.829,0.634-3.248c-2.024-0.308-4.208-0.646-6.326-0.452
	c-6.536,0.6-8.818,7.863-3.767,11.197c3.548,2.343,7.942,1.877,7.123,6.342c-0.208,1.138-0.555,1.556-1.626,1.815
	c-0.932,0.226-2.073,0.203-3.002,0.016c-2.8-0.561-3.155-1.164-4.845-1.831c-0.227,0.279-0.982,2.695-1.07,3.194
	c0.8,0.769,3.818,1.532,5.304,1.606c2.139,0.107,4.168-0.244,5.722-1.216c1.37-0.856,2.572-1.959,3.189-3.733
	c0.648-1.858,0.227-4.121-0.722-5.516c-2.1-3.083-6.848-3.077-8.562-5.292c-0.526-0.681-0.521-1.995-0.181-2.857
	C571.526,76.985,577.336,78.699,578.802,79.121z M556.55,104.328c0.777-0.112,1.975-0.742,2.58-1.107
	c2.419-1.46,3.825-3.843,3.824-6.958L562.89,75.57l-4.18,0.014c-0.129,0.648-0.047,14.047-0.047,15.084
	c0,3.029,0.506,8.128-0.886,10.461c-0.623,1.044-1.428,1.409-1.883,1.917L556.55,104.328z M596.256,75.574H583.89l-0.02,21.88
	l4.298-0.023l-0.008-9.442l7.412-0.19c0.163-0.416,0.277-1.578,0.157-2.011l-7.569-0.065v-7.845l7.92-0.149L596.256,75.574z"/>
<g id="_877952868288">
	<path fill="#59666C" d="M518.851,94.403c0.013,0.532,3.379,6.024,3.746,6.675c0.31,0.548,3.532,6.396,3.979,6.604l6.756-11.579
		c1.164-2.004,1.185-1.341-0.043-3.355c-2.061-3.375-4.217-7.364-6.29-10.811l-0.39-0.635c-0.159-0.231-0.033-0.066-0.147-0.196
		l-5.769,9.963C520.399,91.602,518.954,93.834,518.851,94.403z"/>
	<path fill="#BCAE79" d="M526.576,107.681c-0.446-0.208-3.668-6.056-3.979-6.604c-0.367-0.65-3.733-6.142-3.746-6.675l-15.172,0.022
		c-0.469,0.097-0.303,0.196-0.221,0.393l7.531,12.996h15.229C526.351,107.798,526.468,107.761,526.576,107.681z"/>
	<path fill="#BCAE79" d="M510.932,81.105h15.53c-0.109-0.404-0.698-1.283-0.94-1.682l-6.738-11.615h-14.016
		c-0.834,0.025-1.378,0.061-1.464,0.113L510.932,81.105z"/>
	<path fill="#59666C" d="M510.932,81.105l-7.627-13.184c-0.291,0.223-0.803,1.227-1.017,1.597l-3.35,5.769
		c-0.188,0.307-0.334,0.53-0.514,0.856l-2.903,4.962l5.765,9.966c0.653,1.158,1.303,2.187,1.913,3.331
		c0.375-0.273,1.641-2.65,1.997-3.247c1.722-2.888,3.631-6.396,5.332-9.147C510.717,81.702,510.937,81.485,510.932,81.105z"/>
</g>
<path fill="#C53E48" d="M490.677,144.137l3.471-0.345c0.209,1.161,0.628,2.01,1.263,2.557c0.636,0.545,1.494,0.817,2.573,0.817
	c1.14,0,2.002-0.243,2.581-0.727c0.578-0.484,0.87-1.05,0.87-1.698c0-0.418-0.124-0.771-0.366-1.067
	c-0.242-0.291-0.668-0.545-1.276-0.759c-0.414-0.147-1.359-0.401-2.835-0.771c-1.899-0.476-3.233-1.059-4-1.753
	c-1.079-0.971-1.617-2.158-1.617-3.556c0-0.899,0.255-1.744,0.759-2.528c0.509-0.784,1.239-1.379,2.195-1.788
	c0.956-0.411,2.104-0.616,3.458-0.616c2.203,0,3.865,0.489,4.977,1.47c1.115,0.981,1.699,2.285,1.757,3.922l-3.569,0.123
	c-0.152-0.91-0.477-1.562-0.973-1.96c-0.497-0.399-1.244-0.6-2.237-0.6c-1.026,0-1.829,0.214-2.408,0.64
	c-0.374,0.275-0.563,0.641-0.563,1.1c0,0.419,0.177,0.775,0.53,1.07c0.447,0.383,1.534,0.775,3.261,1.186
	c1.728,0.406,3.004,0.833,3.829,1.268c0.828,0.439,1.476,1.034,1.944,1.793c0.469,0.759,0.702,1.695,0.702,2.807
	c0,1.009-0.28,1.957-0.842,2.839c-0.562,0.883-1.354,1.539-2.379,1.965c-1.026,0.431-2.306,0.645-3.836,0.645
	c-2.228,0-3.939-0.512-5.133-1.543C491.621,147.6,490.911,146.102,490.677,144.137z M522.2,147.616
	c0.87,0.628,1.818,1.124,2.843,1.493l-1.309,2.536c-0.533-0.161-1.059-0.383-1.572-0.666c-0.11-0.057-0.898-0.578-2.363-1.571
	c-1.153,0.505-2.432,0.759-3.836,0.759c-2.708,0-4.833-0.8-6.368-2.396c-1.534-1.6-2.302-3.844-2.302-6.737
	c0-2.885,0.771-5.128,2.31-6.729c1.538-1.604,3.627-2.404,6.262-2.404c2.613,0,4.684,0.8,6.215,2.404
	c1.531,1.6,2.298,3.841,2.298,6.725c0,1.522-0.214,2.863-0.641,4.02C523.418,145.934,522.906,146.791,522.2,147.616z
	 M519.344,145.615c0.456-0.542,0.797-1.19,1.026-1.954c0.227-0.763,0.341-1.637,0.341-2.626c0-2.038-0.447-3.561-1.345-4.57
	c-0.9-1.006-2.073-1.51-3.521-1.51c-1.452,0-2.63,0.504-3.528,1.518c-0.903,1.013-1.354,2.535-1.354,4.57
	c0,2.064,0.451,3.611,1.354,4.633c0.901,1.026,2.043,1.538,3.421,1.538c0.517,0,1.001-0.086,1.457-0.254
	c-0.718-0.472-1.453-0.837-2.195-1.1l0.997-2.068C517.161,144.198,518.278,144.801,519.344,145.615z M527.279,149.848V132.37h3.569
	v14.499h8.838v2.979L527.279,149.848L527.279,149.848z"/>
<g id="_877952869760">
	<path fill="#2D3D92" d="M560.544,18.175c2.459-0.638,3.187,2.048,3.317,4.167c0.139,2.294-0.137,5.024-2.12,5.534
		c-2.427,0.624-3.263-2.291-3.364-4.183C558.246,21.196,558.49,18.709,560.544,18.175z M560.206,17.169
		c-3.158,0.602-5.069,3.09-4.636,6.863c0.374,3.249,2.826,5.504,6.517,4.819C569.256,27.523,567.833,15.715,560.206,17.169z"/>
	<path fill="#2D3D92" d="M585.666,30.927c3.446-1.223,3.849,7.225,1.185,7.968c-2.031,0.568-2.759-1.728-2.868-3.35
		C583.846,33.495,584.058,31.498,585.666,30.927z M591.492,41.542c-0.273-0.413-2.027-0.241-3.335-1.997
		c0.424-0.407,1.007-0.562,1.5-1.109c1.519-1.686,1.652-4.542,0.6-6.367c-1.441-2.5-5.267-2.874-7.374-0.653
		c-2.104,2.217-1.537,6.311,0.764,7.754c0.713,0.447,1.138,0.392,1.806,0.943c1.442,1.191,3.13,1.999,5.068,1.852
		C591.765,41.869,591.432,41.718,591.492,41.542z"/>
	<path fill="#2D3D92" d="M556.461,34.767l-0.002-3.628c1.498-0.105,2.515,0.291,2.52,1.789
		C558.985,34.452,557.934,34.885,556.461,34.767z M553.032,30.235c0.354,0.582,1.039,0.487,1.212,0.857
		c0.193,1.531,0.118,3.275,0.117,4.832c-0.001,0.564,0.063,2.018-0.06,2.485c-0.199,0.754-1.063,0.548-1.288,1.067l4.726,0.052
		c-0.497-1.264-1.632,0.867-1.274-3.808c1.523,0.043,2.83,0.05,3.894-0.733c1.3-0.955,1.924-4.921-2.805-4.787
		c-0.706,0.02-1.41,0.099-2.12,0.106C554.634,30.313,553.834,30.217,553.032,30.235z"/>
	<path fill="#2D3D92" d="M574.908,36.839l-0.16,2.456c1.405,0.812,3.949,0.663,5.124-0.15c1.32-0.915,1.634-3.221,0.152-4.341
		c-0.982-0.744-3.535-1.337-3.026-3.047c0.228-0.767,1.133-1.118,2.104-0.895c1.13,0.258,0.579,1.479,1.298,1.969
		c0.285-0.536,0.202-1.946,0.156-2.534c-1.667-0.323-3.799-0.632-5.046,0.49c-1.323,1.192-1.137,3.273,0.3,4.236
		c0.993,0.666,3.762,1.406,2.699,3.26c-0.438,0.765-2.532,1.191-3.045-0.268l-0.306-0.838c-0.016-0.031-0.034-0.06-0.052-0.089
		c-0.018-0.028-0.044-0.06-0.061-0.085L574.908,36.839z"/>
	<path fill="#2D3D92" d="M560.946,30.264c0.44,0.601,1.115,0.274,1.289,1.091l0.012,7.151c-0.458,0.399-0.931,0.44-1.297,1.019
		l7.821-0.034c0.031-0.75,0.349-2.284,0.02-2.944c-0.551,0.621-0.263,1.826-1.278,1.936l-2.702-0.014
		c-0.315-0.064-0.162,0.016-0.319-0.138c-0.258-0.337-0.141-3.788-0.152-4.529c-0.011-0.639-0.061-1.769,0.02-2.367
		c0.12-0.891,1.001-0.479,1.291-1.128L560.946,30.264z"/>
	<path fill="#2D3D92" d="M576.004,25.033c0.139,4.541-3.073,2.332-1.743,0.627C574.66,25.149,575.191,25.03,576.004,25.033z
		 M572.503,23.218c0.663,0.44,0.598,0.114,1.134-0.291c0.492-0.373,2.413-1.117,2.375,1.406c-2.027,0.138-4.051,0.345-3.952,2.604
		c0.101,2.296,2.98,2.344,3.857,0.88c0.097,0.25,0.02,0.163,0.084,0.373l0.155,0.404l2.646-0.025
		c-0.214-0.517-0.247-0.27-0.967-0.795c-0.239-1.872,0.631-4.846-0.787-5.855C575.29,20.666,572.634,22.129,572.503,23.218z"/>
	<path fill="#2D3D92" d="M592.368,38.543l-1.335,0.831c0.266,0.221,6.948,0.179,7.897,0.127l0.07-1.959
		c-0.101-1.15,0.053-0.378-0.328-0.734c-0.064,0.375-0.161,0.731-0.318,1.103c-0.197,0.472-0.264,0.543-0.857,0.58
		c-3.397,0.206-2.982,0.231-3.029-2.187l-0.007-4.728c0.08-0.753,0.615-0.84,1.259-1.052c-0.189-0.208-0.077-0.348-1.09-0.268
		c-1.429,0.114-2.184-0.008-3.57-0.034c0.487,0.773,1.157,0.257,1.308,1.223C592.511,32.343,592.459,37.865,592.368,38.543z"/>
	<path fill="#2D3D92" d="M589.353,24.095c-0.222-2.41,2.572-2.763,2.246-0.043L589.353,24.095z M589.387,24.825l4.213-0.03
		c0.88-2.374-1.982-3.991-4.188-3.082c-1.733,0.714-2.878,3.133-1.688,5.389c1.77,3.357,6.516,0.782,5.392,0.273
		c-0.228-0.104-0.399,0.078-0.726,0.199C590.651,28.217,589.285,26.556,589.387,24.825z"/>
	<path fill="#2D3D92" d="M583.852,18.448c0.024,0.025,0.063,0.024,0.076,0.066c0.013,0.043,0.059,0.05,0.077,0.063l0.716,0.371
		c0.293,1.223,0.145,3.736,0.145,5.119c0,0.55,0.125,3.455-0.136,3.825c-0.189,0.27-0.529,0.237-0.897,0.543
		c0.452,0.276,1.291,0.106,1.811,0.101c0.687-0.008,1.385,0.038,2.069,0.086c-0.135-0.367-0.077-0.236-0.323-0.444
		c-0.565-0.477-0.666-0.018-0.68-1.359c-0.01-0.961-0.016-1.916-0.016-2.878c0.001-1.855,0.117-3.954,0.005-5.773
		C586.156,18.208,584.174,18.274,583.852,18.448z"/>
	<path fill="#2D3D92" d="M583.89,27.56c-0.445-0.179-2.594,1.258-3.255-1.712c-0.403-1.81-0.112-3.94,2.012-3.579l0.994,1.675
		c0.223-0.446,0.289-1.636,0.255-2.127c-2.914-1.03-5.715,0.517-5.558,3.75c0.129,2.638,2.676,4.094,5.047,2.747
		C583.877,28.034,583.945,28.087,583.89,27.56z"/>
	<path fill="#2D3D92" d="M566.867,21.777c0.792,1.246,1.111-0.871,1.114,3.412c0,0.649,0.04,1.5-0.032,2.129
		c-0.133,1.159-0.706,0.501-1.033,1.255l3.933-0.002c-0.29-0.616-0.744-0.511-0.877-0.76c-0.001-0.001-0.804-4.447,0.734-4.828
		c0.893-0.222,0.791,0.377,1.33,0.634l0.176-0.917c0-0.388-0.019-0.786-0.023-1.176c-1.186-0.181-2.046,0.459-2.319,1.108
		l-0.055-1.049L566.867,21.777z"/>
	<path fill="#2D3D92" d="M569.615,39.784l1.093,0.039c0.36-0.898,2.683-8.945,2.816-9.862l-1.177,0.003
		C572.026,32.112,569.665,38.466,569.615,39.784z"/>
</g>
<g enable-background="new    ">
	<path fill="#2D3D92" d="M0,0"/>
	<g>
		<path fill="#E91A21" d="M65.491,189.863h-3.645c-0.865,0-1.785-0.865-1.785-1.859c0-1.154,0.83-2.011,2.011-2.011h3.191
			c0.362,0,0.705,0.083,0.976,0.231c1.429,0.778,1.321,2.767-0.02,3.438C66.041,189.753,65.755,189.863,65.491,189.863z
			 M58.905,187.929c0,0.907,0.39,1.633,0.849,2.092c0.285,0.285,0.442,0.425,0.836,0.622c0.29,0.145,0.75,0.301,1.182,0.301h3.796
			c1.116,0,2.22-0.826,2.639-1.885c0.387-0.977,0.245-2.09-0.388-2.931c-0.125-0.166-0.217-0.25-0.36-0.393
			c-0.568-0.572-1.368-0.824-2.218-0.824h-3.142c-0.512,0-0.936,0.079-1.304,0.229c-0.263,0.108-0.509,0.254-0.732,0.423
			c-0.051,0.039-0.059,0.051-0.107,0.096c-0.193,0.179-0.294,0.258-0.471,0.509C59.132,186.666,58.905,187.249,58.905,187.929z"/>
		<path fill="#E91A21" d="M98.317,187.778c0,0.71,0.055,1.052,0.394,1.667c0.521,0.941,1.534,1.5,2.647,1.5h3.544
			c0.04-0.149,0.642-0.943,0.654-1.081c-0.528,0-4.25,0.039-4.569-0.031c-0.462-0.1-0.858-0.358-1.134-0.726
			c-0.092-0.124-0.289-0.443-0.304-0.625h4.926c0.158-0.3,0.554-0.844,0.679-1.081h-5.605c0.008-0.097,0.066-0.223,0.1-0.301
			c0.287-0.644,1.016-1.111,1.81-1.106c1.114,0.006,2.23,0,3.344,0l0.497-0.785c0.059-0.086,0.147-0.182,0.156-0.296
			c-0.829,0-1.659,0-2.488,0c-1.288,0-2.276-0.149-3.262,0.483c-0.535,0.341-0.896,0.786-1.153,1.361
			C98.433,187.023,98.317,187.405,98.317,187.778z"/>
		<path fill="#E91A21" d="M69.009,184.988v5.957h1.181v-4.952h3.771c1.065,0,1.353,1.332,0.526,1.81
			c-0.31,0.179-0.682,0.126-1.155,0.126c-0.863,0-1.725,0-2.588,0c0.021,0.032,0.215,0.204,0.262,0.241l0.401,0.352
			c0.07,0.053,0.074,0.059,0.135,0.117l0.284,0.245c0.06,0.046,0.074,0.066,0.131,0.119L74,190.779
			c0.153,0.119,0.083,0.169,0.337,0.166l1.534-0.001l-0.854-0.728c-0.099-0.078-0.183-0.158-0.285-0.244l-1.148-0.963
			c0.785,0,1.383-0.037,1.943-0.596c0.059-0.058,0.07-0.089,0.125-0.151c0.08-0.089,0.178-0.23,0.237-0.341
			c0.361-0.677,0.291-1.557-0.161-2.161c-0.088-0.118-0.151-0.174-0.252-0.275c-0.354-0.357-0.842-0.572-1.54-0.572h-4.851
			C69.027,184.912,69.009,184.93,69.009,184.988z"/>
		<path fill="#E91A21" d="M76.147,190.945h1.384l1.849-2.951c0.107-0.164,1.048-1.706,1.142-1.774l1.186,1.93
			c0.071,0.11,0.373,0.569,0.398,0.659h-3.041c0.007,0.096,0.401,0.673,0.481,0.799c0.053,0.083,0.147,0.191,0.171,0.282h3.142
			c0.187,0.35,0.479,0.772,0.629,1.055h1.382c-0.176-0.262-0.335-0.523-0.513-0.794l-1.019-1.595
			c-0.294-0.492-0.707-1.087-1.017-1.597l-0.767-1.193c-0.132-0.221-0.364-0.622-0.558-0.748c-0.467-0.304-1.001-0.147-1.285,0.34
			l-0.762,1.199c-0.049,0.076-0.085,0.123-0.131,0.196c-0.047,0.073-0.077,0.129-0.125,0.201l-2.419,3.791
			C76.229,190.81,76.192,190.877,76.147,190.945z"/>
		<path fill="#E91A21" d="M84.267,187.778c0,0.594,0.024,0.917,0.281,1.453c0.446,0.93,1.464,1.714,2.585,1.714h3.669
			c0.079,0,0.087-0.083,0.191-0.236c0.067-0.1,0.109-0.176,0.176-0.276c0.067-0.101,0.329-0.478,0.337-0.569
			c-1.274,0-2.547,0-3.821,0c-0.358,0-0.601,0.02-0.889-0.065c-0.252-0.075-0.446-0.181-0.634-0.322
			c-0.83-0.622-0.982-1.892-0.373-2.69c0.762-1.002,1.766-0.793,3.028-0.793c0.644,0,1.29,0,1.934,0
			c0.053-0.1,0.105-0.162,0.165-0.262c0.081-0.134,0.478-0.695,0.488-0.819c-0.83,0-1.658,0-2.488,0
			c-0.768,0-1.801-0.059-2.409,0.105c-0.314,0.085-0.601,0.216-0.854,0.378C84.89,185.884,84.267,186.827,84.267,187.778z"/>
		<path fill="#E91A21" d="M92.033,190.392c0,0.273,0.259,0.552,0.529,0.552h5.303c0.078,0,0.145-0.167,0.191-0.236
			c0.082-0.125,0.503-0.721,0.512-0.845h-5.354v-4.876c0-0.058-0.016-0.076-0.076-0.076h-1.106L92.033,190.392L92.033,190.392z"/>
		<path fill="#E91A21" d="M106.637,186.094c-0.747,0-0.661-1.086-0.005-1.049C107.351,185.085,107.26,186.094,106.637,186.094z
			 M105.933,185.566c0,0.368,0.279,0.661,0.644,0.686c0.397,0.026,0.713-0.311,0.713-0.61v-0.151c0-0.607-0.976-0.874-1.29-0.209
			C105.978,185.33,105.933,185.507,105.933,185.566z"/>
		<path fill="#E91A21" d="M106.587,185.515h-0.076v-0.201c0.208,0,0.227-0.02,0.227,0.101
			C106.738,185.493,106.664,185.515,106.587,185.515z M106.361,185.943h0.151v-0.301c0.129,0.002,0.116,0.022,0.161,0.116
			c0.035,0.074,0.073,0.12,0.091,0.185h0.176c-0.022-0.093-0.095-0.196-0.151-0.301c0.037-0.054,0.126-0.143,0.126-0.227
			c0-0.297-0.341-0.251-0.554-0.251C106.361,185.164,106.361,185.943,106.361,185.943z"/>
	</g>
</g>
<path fill="#A1323D" d="M370.017,138.691l-0.254,0.827c-0.263-0.115-0.487-0.188-0.676-0.221c-0.15-0.027-0.386-0.04-0.709-0.043
	v2.884c0,0.751,0.059,1.326,0.176,1.725h-1.146c0.12-0.36,0.181-0.945,0.181-1.756v-2.853c-0.377,0.024-0.655,0.047-0.837,0.071
	c-0.301,0.043-0.573,0.106-0.811,0.193l0.28-0.827L370.017,138.691L370.017,138.691z M374.47,143.864h-0.932
	c-0.615-0.556-1.277-1.341-1.985-2.353v0.72c0,0.587,0.06,1.131,0.181,1.633h-1.146c0.117-0.374,0.176-0.887,0.176-1.537v-2.178
	c0-0.439-0.059-0.925-0.176-1.459h0.569c0.723,0,1.264,0.072,1.621,0.216c0.557,0.228,0.836,0.652,0.836,1.271
	c0,0.594-0.336,1.036-1.008,1.326C373.095,142.287,373.717,143.074,374.47,143.864z M372.771,140.221
	c0-0.622-0.406-0.964-1.218-1.026v2.091c0.347-0.037,0.627-0.134,0.839-0.291C372.644,140.807,372.771,140.549,372.771,140.221z
	 M379.661,143.864h-1.252c-0.027-0.275-0.091-0.549-0.195-0.821c-0.034-0.093-0.151-0.358-0.348-0.796h-1.859
	c-0.154,0.407-0.249,0.672-0.285,0.792c-0.095,0.302-0.147,0.577-0.155,0.825h-1.275c0.255-0.293,0.585-0.866,0.991-1.716
	l1.694-3.533l1.736,3.651C379.005,142.886,379.32,143.418,379.661,143.864z M377.576,141.609l-0.639-1.539l-0.655,1.539H377.576z
	 M384.718,143.864h-1.027c-0.093-0.216-0.299-0.542-0.617-0.976l-1.895-2.58v1.907c0,0.681,0.06,1.231,0.181,1.649h-1.064
	c0.118-0.457,0.177-1.005,0.177-1.648v-2.789l-0.628-0.736h1.207c0.137,0.243,0.347,0.561,0.629,0.956l2.153,2.984v-2.201
	c0-0.706-0.06-1.286-0.181-1.739h1.065c-0.12,0.527-0.181,1.112-0.181,1.755l0.003,1.941
	C384.54,142.963,384.599,143.456,384.718,143.864z M388.378,142.437c0,0.48-0.185,0.859-0.557,1.135
	c-0.337,0.244-0.752,0.367-1.249,0.367c-0.321,0-0.643-0.08-0.969-0.241v-1.004c0.162,0.205,0.309,0.353,0.439,0.44
	c0.171,0.116,0.367,0.174,0.588,0.174c0.243,0,0.452-0.074,0.627-0.221c0.187-0.153,0.28-0.349,0.28-0.587
	c0-0.245-0.164-0.497-0.494-0.751l-0.922-0.689c-0.329-0.309-0.495-0.65-0.495-1.027c0-0.443,0.167-0.794,0.497-1.055
	c0.305-0.242,0.683-0.364,1.137-0.364c0.304,0,0.609,0.063,0.916,0.188v0.932c-0.204-0.187-0.347-0.304-0.429-0.353
	c-0.153-0.091-0.331-0.136-0.535-0.136c-0.212,0-0.387,0.061-0.525,0.183c-0.145,0.129-0.218,0.294-0.218,0.499
	c0,0.234,0.164,0.477,0.493,0.729l0.923,0.7C388.213,141.678,388.378,142.038,388.378,142.437z M394.076,143.864h-1.252
	c-0.027-0.275-0.091-0.549-0.195-0.821c-0.034-0.093-0.151-0.358-0.348-0.796h-1.859c-0.155,0.407-0.249,0.672-0.285,0.792
	c-0.096,0.302-0.147,0.577-0.155,0.825h-1.275c0.255-0.293,0.585-0.866,0.992-1.716l1.694-3.533l1.736,3.651
	C393.42,142.886,393.735,143.418,394.076,143.864z M391.99,141.609l-0.638-1.539l-0.655,1.539H391.99z M398.632,142.691l-0.04,0.857
	c-0.594,0.261-1.132,0.392-1.61,0.392c-0.759,0-1.376-0.239-1.853-0.719c-0.477-0.478-0.715-1.095-0.715-1.852
	c0-0.812,0.258-1.475,0.775-1.986c0.518-0.511,1.18-0.767,1.99-0.767c0.414,0,0.855,0.071,1.325,0.21v0.888
	c-0.505-0.31-0.98-0.466-1.423-0.466c-0.573,0-1.026,0.202-1.36,0.604c-0.31,0.372-0.466,0.852-0.466,1.438
	c0,0.573,0.146,1.043,0.438,1.412c0.319,0.405,0.757,0.608,1.315,0.608C397.515,143.308,398.057,143.102,398.632,142.691z
	 M402.977,138.691l-0.254,0.827c-0.263-0.115-0.487-0.188-0.676-0.221c-0.15-0.027-0.386-0.04-0.709-0.043v2.884
	c0,0.751,0.059,1.326,0.176,1.725h-1.146c0.12-0.36,0.181-0.945,0.181-1.756v-2.853c-0.377,0.024-0.655,0.047-0.837,0.071
	c-0.301,0.043-0.572,0.106-0.811,0.193l0.28-0.827L402.977,138.691L402.977,138.691z M405.009,141.506l-0.316,0.674h-1.498
	l-0.051-0.152l0.271-0.637h1.531L405.009,141.506z M408.256,142.437c0,0.48-0.185,0.859-0.557,1.135
	c-0.337,0.244-0.752,0.367-1.249,0.367c-0.321,0-0.643-0.08-0.969-0.241v-1.004c0.162,0.205,0.309,0.353,0.439,0.44
	c0.171,0.116,0.367,0.174,0.588,0.174c0.243,0,0.452-0.074,0.627-0.221c0.187-0.153,0.28-0.349,0.28-0.587
	c0-0.245-0.164-0.497-0.495-0.751l-0.922-0.689c-0.329-0.309-0.495-0.65-0.495-1.027c0-0.443,0.166-0.794,0.497-1.055
	c0.305-0.242,0.683-0.364,1.137-0.364c0.304,0,0.609,0.063,0.916,0.188v0.932c-0.204-0.187-0.347-0.304-0.428-0.353
	c-0.153-0.091-0.331-0.136-0.535-0.136c-0.213,0-0.387,0.061-0.525,0.183c-0.145,0.129-0.218,0.294-0.218,0.499
	c0,0.234,0.164,0.477,0.493,0.729l0.923,0.7C408.092,141.678,408.256,142.038,408.256,142.437z M414.443,144.852
	c-0.179,0.052-0.337,0.08-0.477,0.08c-0.355,0-0.701-0.107-1.035-0.32c-0.211-0.137-0.489-0.374-0.833-0.711
	c-0.218,0.025-0.411,0.038-0.575,0.038c-0.753,0-1.38-0.263-1.88-0.79c-0.49-0.517-0.734-1.153-0.734-1.908
	c0-0.767,0.263-1.399,0.79-1.896c0.518-0.487,1.16-0.731,1.929-0.731c0.762,0,1.384,0.256,1.866,0.767
	c0.473,0.503,0.709,1.137,0.709,1.903c0,0.98-0.383,1.722-1.15,2.226c0.254,0.365,0.456,0.621,0.604,0.771
	C413.845,144.466,414.107,144.655,414.443,144.852z M413.361,141.453c0-0.575-0.162-1.076-0.486-1.504
	c-0.355-0.467-0.812-0.702-1.376-0.702c-0.53,0-0.957,0.18-1.282,0.538c-0.31,0.346-0.465,0.787-0.465,1.321
	c0,0.57,0.163,1.071,0.49,1.5c0.36,0.468,0.817,0.702,1.376,0.702c0.517,0,0.942-0.183,1.271-0.55
	C413.203,142.408,413.361,141.973,413.361,141.453z M418.036,142.849l-0.428,1.015h-2.636c0.117-0.394,0.176-0.912,0.176-1.554
	v-2.212c0-0.571-0.059-1.04-0.176-1.407h1.146c-0.12,0.429-0.181,0.891-0.181,1.388v3.221
	C416.675,143.249,417.374,143.098,418.036,142.849z"/>
<rect x="26.179" y="178.771" fill="#009933" width="23.007" height="10.77"/>
<path fill="#FEFEFE" d="M30.146,180.74h2.117c1.707,0.172,2.434,0.984,2.513,2.221v2.432c-0.006,1.399-0.713,2.083-1.938,2.238
	h-2.692C30.146,187.631,30.146,180.74,30.146,180.74z"/>
<path fill="#009933" d="M31.653,181.853h0.97c0.619,0.314,0.793,0.976,0.803,1.768c-0.006,0.478-0.012,0.957-0.018,1.435
	c0.018,0.995-0.359,1.532-0.785,1.534h-0.97C31.653,186.59,31.653,181.853,31.653,181.853z"/>
<path fill="#FEFEFE" d="M35.817,180.74h2.745c1.204,0.253,1.533,1.007,1.516,2.098c-0.052,0.638-0.362,1.05-1.013,1.138
	c0.667,0.276,1.169,0.63,1.132,1.704c0.06,1.246-0.447,1.812-1.473,1.952h-2.907C35.817,187.632,35.817,180.74,35.817,180.74z"/>
<path fill="#FEFEFE" d="M40.864,182.984c0.466,0,0.934,0,1.4,0c-0.006-0.467,0.024-0.898,0.251-1.133
	c0.273-0.242,0.688-0.277,0.924-0.117c0.433,0.337,0.383,1.13,0.198,1.565c-0.709,1.424-2.774,1.813-2.702,4.333
	c1.394,0,2.788,0,4.182,0c0-0.347,0-0.695,0-1.044c-0.844,0-1.688,0-2.531,0c0.408-1.048,1.716-1.793,2.332-2.796
	c0.338-0.45,0.626-3.108-2.189-3.101C41.399,180.691,40.837,181.707,40.864,182.984z"/>
<path fill="#166EAB" d="M434.402,145.422c0,0.061-0.05,0.151-0.148,0.262c-1.005,1.164-2.252,1.744-3.738,1.744
	c-1.547,0-2.788-0.565-3.715-1.692c-0.867-1.053-1.301-2.365-1.301-3.944c0-1.576,0.44-2.896,1.324-3.957
	c0.941-1.142,2.181-1.715,3.725-1.715c1.565,0,2.775,0.528,3.633,1.584c0.081,0.107,0.124,0.201,0.124,0.272
	c0,0.087-0.138,0.346-0.412,0.775c-0.275,0.431-0.441,0.647-0.499,0.647c-0.066,0-0.224-0.126-0.472-0.38
	c-0.303-0.308-0.591-0.541-0.861-0.697c-0.444-0.254-0.935-0.38-1.471-0.38c-1.022,0-1.816,0.388-2.384,1.166
	c-0.506,0.698-0.76,1.574-0.76,2.632c0,1.056,0.251,1.94,0.753,2.653c0.568,0.8,1.359,1.198,2.376,1.198
	c0.506,0,0.995-0.126,1.465-0.378c0.308-0.163,0.626-0.398,0.944-0.701c0.27-0.251,0.416-0.378,0.441-0.378
	c0.032,0,0.201,0.203,0.51,0.613C434.246,145.155,434.402,145.38,434.402,145.422z M445.47,141.777c0,1.531-0.491,2.848-1.47,3.951
	c-1.019,1.142-2.289,1.715-3.804,1.715c-1.52,0-2.79-0.57-3.804-1.708c-0.978-1.098-1.469-2.417-1.469-3.959
	c0-1.524,0.496-2.841,1.486-3.949c1.018-1.148,2.282-1.724,3.788-1.724c1.51,0,2.777,0.576,3.796,1.724
	C444.976,138.932,445.47,140.249,445.47,141.777z M443.601,141.756c0-1.011-0.314-1.891-0.942-2.64
	c-0.66-0.794-1.486-1.191-2.482-1.191c-0.985,0-1.805,0.401-2.46,1.207c-0.617,0.752-0.927,1.636-0.927,2.645
	c0,1.005,0.309,1.887,0.927,2.639c0.655,0.805,1.475,1.206,2.46,1.206c0.998,0,1.829-0.401,2.489-1.206
	C443.289,143.665,443.601,142.775,443.601,141.756z M455.086,143.865c0,0.897-0.269,1.668-0.81,2.312
	c-0.574,0.675-1.299,1.014-2.181,1.014c-0.329,0-0.826-0.008-1.488-0.025c-0.66-0.015-1.157-0.02-1.486-0.02
	c-0.243,0-0.608,0.007-1.093,0.028c-0.489,0.021-0.854,0.032-1.095,0.032c-0.13,0-0.194-0.058-0.194-0.177
	c0-0.568,0.027-1.42,0.079-2.558c0.053-1.136,0.08-1.988,0.08-2.555c0-0.596-0.027-1.497-0.08-2.695
	c-0.052-1.199-0.079-2.096-0.079-2.696c0-0.113,0.064-0.169,0.194-0.169c0.459,0,1.151,0.003,2.071,0.008
	c0.924,0.005,1.616,0.007,2.081,0.007c1.082,0,1.945,0.201,2.59,0.602c0.784,0.491,1.174,1.251,1.174,2.282
	c0,0.356-0.103,0.726-0.309,1.108c-0.205,0.386-0.457,0.676-0.752,0.871c-0.147,0.098-0.224,0.161-0.224,0.193
	s0.077,0.087,0.224,0.169c0.393,0.217,0.707,0.536,0.942,0.956C454.968,142.975,455.086,143.411,455.086,143.865z M452.917,139.425
	c0-0.723-0.325-1.215-0.974-1.465c-0.391-0.151-1.033-0.225-1.925-0.225c-0.865,0-1.298,0.064-1.298,0.193
	c0,0.169-0.008,0.425-0.024,0.765c-0.016,0.339-0.025,0.597-0.025,0.771c0,0.119,0.004,0.301,0.008,0.55
	c0.006,0.245,0.008,0.43,0.008,0.554c0,0.151,0.583,0.224,1.747,0.224C452.091,140.792,452.917,140.335,452.917,139.425z
	 M453.122,143.791c0-0.631-0.279-1.056-0.841-1.277c-0.357-0.146-0.909-0.217-1.661-0.217c-1.298,0-1.949,0.068-1.949,0.209v1.27
	c0,0.184,0.006,0.469,0.017,0.85c0.011,0.382,0.015,0.668,0.015,0.858c0,0.052,0.164,0.092,0.494,0.116
	c0.329,0.026,0.818,0.04,1.467,0.04c0.813,0,1.399-0.106,1.755-0.317C452.887,145.042,453.122,144.532,453.122,143.791z
	 M466.631,141.777c0,1.531-0.491,2.848-1.47,3.951c-1.019,1.142-2.289,1.715-3.804,1.715c-1.52,0-2.79-0.57-3.804-1.708
	c-0.978-1.098-1.47-2.417-1.47-3.959c0-1.524,0.496-2.841,1.486-3.949c1.018-1.148,2.282-1.724,3.787-1.724
	c1.51,0,2.777,0.576,3.796,1.724C466.136,138.932,466.631,140.249,466.631,141.777z M464.761,141.756
	c0-1.011-0.314-1.891-0.942-2.64c-0.66-0.794-1.486-1.191-2.482-1.191c-0.984,0-1.804,0.401-2.46,1.207
	c-0.617,0.752-0.927,1.636-0.927,2.645c0,1.005,0.309,1.887,0.927,2.639c0.655,0.805,1.475,1.206,2.46,1.206
	c0.999,0,1.83-0.401,2.489-1.206C464.45,143.665,464.761,142.775,464.761,141.756z M475.185,145.533c0,0.718-0.039,1.23-0.116,1.533
	c-0.038,0.151-0.128,0.226-0.269,0.226c-0.384,0-0.954-0.021-1.716-0.066c-0.763-0.043-1.334-0.066-1.716-0.066
	c-0.359,0-0.897,0.007-1.612,0.024c-0.715,0.015-1.255,0.024-1.616,0.024c-0.13,0-0.192-0.064-0.192-0.193
	c0-0.563,0.018-1.41,0.055-2.545s0.055-1.985,0.055-2.553c0-0.596-0.027-1.494-0.08-2.688c-0.052-1.193-0.079-2.088-0.079-2.686
	c0-0.114,0.064-0.17,0.193-0.17c0.095,0,0.235,0.008,0.427,0.025c0.19,0.015,0.335,0.024,0.433,0.024
	c0.092,0,0.237-0.008,0.433-0.024c0.197-0.016,0.34-0.025,0.435-0.025c0.124,0,0.184,0.051,0.184,0.149
	c0,0.546-0.021,1.367-0.064,2.466c-0.041,1.098-0.062,1.924-0.062,2.475c0,0.267,0,0.676,0,1.223
	c-0.006,0.547-0.008,0.952-0.008,1.222c0,1.144,0.047,1.716,0.14,1.716c1.898,0,3.333-0.045,4.3-0.137
	c0.047-0.006,0.166-0.023,0.356-0.055c0.152-0.029,0.272-0.045,0.356-0.045C475.132,145.385,475.185,145.435,475.185,145.533z"/>
<path fill="#373435" d="M557.98,140.466h0.512c1.491,0,2.48-0.174,2.968-0.522c0.489-0.347,0.735-0.961,0.735-1.845
	c0-0.954-0.262-1.624-0.787-2.016c-0.525-0.392-1.499-0.585-2.917-0.585h-0.512L557.98,140.466L557.98,140.466z M557.81,142.646
	v7.754h-2.641v-17.325h3.926c1.151,0,2.044,0.077,2.682,0.227c0.635,0.149,1.176,0.395,1.624,0.742
	c0.537,0.42,0.949,0.962,1.244,1.624c0.291,0.662,0.436,1.384,0.436,2.177c0,1.386-0.335,2.471-1.006,3.259
	c-0.671,0.784-1.66,1.256-2.968,1.414l5.962,7.883h-3.175l-5.767-7.754h-0.317V142.646z M571.55,140.321h0.723
	c1.564,0,2.605-0.17,3.127-0.51c0.521-0.339,0.779-0.936,0.779-1.797c0-0.92-0.279-1.571-0.836-1.951
	c-0.554-0.375-1.579-0.565-3.07-0.565h-0.723V140.321z M571.38,142.623v7.778h-2.642v-17.325h4.257c1.264,0,2.193,0.068,2.79,0.206
	c0.594,0.137,1.115,0.367,1.559,0.682c0.545,0.4,0.969,0.944,1.28,1.623c0.307,0.683,0.46,1.434,0.46,2.254
	c0,0.824-0.153,1.578-0.46,2.273c-0.312,0.695-0.735,1.239-1.28,1.631c-0.444,0.315-0.965,0.542-1.559,0.675
	c-0.597,0.133-1.526,0.202-2.79,0.202h-0.554h-1.061V142.623z M591.234,141.532h6.853c0,0.117,0.005,0.283,0.013,0.497
	c0.024,0.561,0.035,0.937,0.035,1.134c0,2.436-0.699,4.33-2.092,5.675c-1.397,1.349-3.364,2.023-5.9,2.023
	c-1.422,0-2.685-0.21-3.796-0.626c-1.111-0.42-2.088-1.05-2.92-1.894c-0.82-0.836-1.451-1.818-1.886-2.948
	c-0.44-1.127-0.659-2.335-0.659-3.619c0-1.308,0.222-2.515,0.667-3.622c0.447-1.102,1.106-2.076,1.983-2.92
	c0.844-0.827,1.833-1.458,2.968-1.894c1.134-0.432,2.35-0.649,3.642-0.649c1.361,0,2.585,0.25,3.659,0.747
	c1.074,0.496,2.035,1.256,2.88,2.282l-2.052,1.551c-0.585-0.679-1.243-1.184-1.978-1.514c-0.732-0.331-1.551-0.497-2.46-0.497
	c-1.878,0-3.409,0.602-4.596,1.805c-1.187,1.204-1.781,2.766-1.781,4.689c0,1.958,0.594,3.546,1.781,4.762
	c1.188,1.219,2.726,1.829,4.621,1.829c1.606,0,2.875-0.375,3.796-1.122c0.924-0.752,1.385-1.77,1.385-3.065v-0.247h-4.164v-2.377
	L591.234,141.532L591.234,141.532z"/>
<path fill="#373435" d="M260.226,134.576l-1.906,2.685h1.876v-1.945c0-0.103,0.001-0.216,0.007-0.341
	C260.208,134.849,260.217,134.716,260.226,134.576z M260.196,139.625v-1.517h-3.587l4.353-6.032h0.342v5.186h0.91v0.846h-0.91v1.517
	H260.196z M267.789,135.798h2.958c0,0.05,0.001,0.122,0.005,0.214c0.011,0.242,0.015,0.405,0.015,0.49
	c0,1.05-0.301,1.868-0.902,2.449c-0.603,0.582-1.452,0.872-2.547,0.872c-0.613,0-1.158-0.089-1.637-0.27
	c-0.48-0.181-0.902-0.452-1.26-0.817c-0.354-0.361-0.626-0.784-0.814-1.272c-0.189-0.486-0.283-1.007-0.283-1.562
	c0-0.564,0.095-1.086,0.287-1.563c0.193-0.475,0.478-0.896,0.856-1.26c0.365-0.357,0.792-0.629,1.282-0.817
	c0.49-0.187,1.014-0.281,1.571-0.281c0.588,0,1.115,0.109,1.579,0.322c0.464,0.215,0.878,0.542,1.243,0.984l-0.885,0.669
	c-0.253-0.293-0.537-0.51-0.855-0.653c-0.315-0.143-0.669-0.215-1.061-0.215c-0.809,0-1.47,0.26-1.983,0.779
	c-0.512,0.519-0.768,1.194-0.768,2.023c0,0.845,0.256,1.531,0.768,2.055c0.512,0.527,1.177,0.79,1.994,0.79
	c0.694,0,1.24-0.162,1.638-0.484c0.399-0.325,0.597-0.763,0.597-1.323v-0.106h-1.796v-1.024H267.789z M272.044,139.625v-7.476h1.213
	v6.389h2.718v1.087H272.044z M276.673,136.707h2.729v1.026h-2.729V136.707z M244.31,152.158v-7.476h1.213v7.476H244.31z
	 M247.271,152.158v-7.769l4.75,4.568c0.13,0.129,0.26,0.267,0.394,0.413c0.132,0.147,0.272,0.312,0.418,0.495v-5.183h1.119v7.769
	l-4.843-4.652c-0.129-0.128-0.254-0.26-0.374-0.399c-0.123-0.139-0.236-0.286-0.346-0.439v5.198L247.271,152.158L247.271,152.158z
	 M255.668,152.158v-7.476h4.172v1.035h-2.959v1.861h2.959v1.066h-2.959v3.513h-1.213L255.668,152.158L255.668,152.158z
	 M267.555,148.436c0-0.378-0.07-0.737-0.208-1.077c-0.137-0.34-0.337-0.643-0.594-0.909c-0.252-0.262-0.544-0.463-0.874-0.604
	c-0.333-0.141-0.683-0.212-1.05-0.212c-0.368,0-0.717,0.07-1.05,0.209c-0.332,0.139-0.628,0.342-0.885,0.608
	c-0.258,0.262-0.457,0.563-0.594,0.903c-0.136,0.34-0.203,0.701-0.203,1.082c0,0.379,0.067,0.735,0.203,1.072
	c0.137,0.337,0.335,0.639,0.594,0.903c0.257,0.267,0.552,0.469,0.883,0.608c0.329,0.139,0.681,0.21,1.053,0.21
	c0.364,0,0.71-0.071,1.039-0.21c0.327-0.139,0.623-0.341,0.885-0.608c0.257-0.264,0.457-0.567,0.594-0.904
	C267.485,149.166,267.555,148.811,267.555,148.436z M268.82,148.436c0,0.532-0.099,1.034-0.297,1.506
	c-0.201,0.474-0.49,0.896-0.872,1.267c-0.382,0.372-0.817,0.655-1.302,0.852c-0.483,0.197-0.989,0.296-1.519,0.296
	c-0.538,0-1.05-0.099-1.54-0.297c-0.489-0.201-0.918-0.483-1.294-0.851c-0.381-0.371-0.67-0.791-0.867-1.262
	c-0.197-0.469-0.296-0.972-0.296-1.51c0-0.535,0.099-1.039,0.296-1.511c0.197-0.475,0.486-0.897,0.867-1.272
	c0.381-0.371,0.815-0.653,1.297-0.846c0.483-0.194,0.995-0.291,1.537-0.291c0.537,0,1.046,0.098,1.528,0.291
	c0.48,0.193,0.912,0.475,1.292,0.846c0.383,0.379,0.672,0.805,0.872,1.279C268.721,147.407,268.82,147.908,268.82,148.436z
	 M271.425,147.871h0.222c0.642,0,1.069-0.076,1.281-0.225c0.21-0.15,0.317-0.414,0.317-0.796c0-0.412-0.113-0.701-0.34-0.87
	c-0.227-0.169-0.647-0.253-1.258-0.253h-0.222V147.871z M271.352,148.812v3.346h-1.14v-7.476h1.695c0.496,0,0.882,0.033,1.157,0.097
	c0.274,0.065,0.508,0.171,0.701,0.321c0.232,0.181,0.41,0.415,0.536,0.701c0.126,0.285,0.189,0.597,0.189,0.939
	c0,0.597-0.145,1.066-0.434,1.406c-0.289,0.339-0.716,0.542-1.28,0.61l2.572,3.401h-1.369l-2.489-3.346L271.352,148.812
	L271.352,148.812z M282.163,148.467c-0.014-0.058-0.037-0.218-0.066-0.479c-0.027-0.218-0.052-0.399-0.071-0.542
	c-0.032,0.17-0.075,0.341-0.131,0.51c-0.055,0.171-0.127,0.343-0.212,0.521l-1.956,3.984l-1.956-4.066
	c-0.081-0.168-0.152-0.327-0.212-0.484c-0.059-0.157-0.111-0.313-0.155-0.465c-0.003,0.156-0.015,0.32-0.039,0.492
	c-0.022,0.173-0.055,0.353-0.099,0.539l-0.802,3.68h-1.119l1.767-7.79l2.207,4.718c0.033,0.073,0.085,0.198,0.154,0.371
	c0.07,0.175,0.153,0.389,0.253,0.643c0.072-0.214,0.185-0.486,0.339-0.815c0.039-0.089,0.071-0.157,0.09-0.203l2.156-4.713
	l1.807,7.79h-1.13L282.163,148.467z M285.111,152.158v-7.476h1.213v7.476H285.111z M287.214,152.158l2.426-3.912l-2.144-3.564h1.276
	l1.076,1.828c0.058,0.095,0.166,0.293,0.321,0.592l0.077,0.148c0.055-0.106,0.116-0.217,0.182-0.337
	c0.066-0.12,0.143-0.25,0.228-0.393l1.138-1.839h1.244l-2.184,3.545l2.351,3.931h-1.342l-1.249-2.119l-0.021-0.037
	c-0.136-0.255-0.262-0.496-0.377-0.72c-0.058,0.117-0.122,0.235-0.19,0.36c-0.069,0.124-0.142,0.251-0.22,0.38l-1.307,2.135h-1.285
	L287.214,152.158L287.214,152.158z"/>
<g id="_877952879648">
	<path fill="#EE3537" d="M346.706,145.291c-0.209,0.116-0.607,0.501-1.177,0.819c-1.649,0.921-3.475,0.628-3.776-1.075
		c-0.207-1.165,0.279-2.115,1.378-2.515c1.02-0.372,2.408-0.371,3.581-0.375L346.706,145.291z M339.695,136.048l0.404,1.599
		c0.187-0.022,0.752-0.246,0.995-0.317c1.176-0.345,2.377-0.576,3.636-0.43c0.882,0.101,1.388,0.441,1.683,1.087
		c0.275,0.601,0.444,2.212,0.269,2.39c-0.109,0.081-1.229,0.092-1.48,0.108c-1.453,0.092-2.71,0.211-3.96,0.875
		c-1.371,0.726-2.48,1.956-2.192,4.183c0.255,1.977,1.341,2.841,3.338,3.082c1.459,0.177,2.581-0.199,3.759-0.936
		c0.531-0.333,0.661-0.546,0.897-0.713l0.258,1.351l2.062,0.018c0.074-0.898,0.006-2.109,0.006-3.029v-6.076
		c0-1.02-0.076-1.723-0.532-2.486c-1.337-2.234-4.452-2.074-6.905-1.512C341.376,135.372,340.035,135.751,339.695,136.048z"/>
	<path fill="#EE3537" d="M322.019,142.152c0.07,0.644,0.008,1.671,0.008,2.358c0,0.749,0.085,0.693-0.23,0.944
		c-0.233,0.185-0.437,0.335-0.694,0.498c-1.063,0.674-2.494,1.08-3.501,0.117c-0.431-0.412-0.637-1.013-0.546-1.826
		c0.168-1.499,1.422-1.897,2.758-2.005C320.366,142.193,321.504,142.091,322.019,142.152z M315.008,136.048l0.404,1.597
		c0.26-0.04,0.769-0.251,1.052-0.333c1.154-0.338,2.388-0.56,3.609-0.409c1.822,0.223,1.984,1.682,1.964,3.185
		c-0.001,0.039,0,0.119-0.003,0.153c-0.017,0.15,0.014,0.066-0.041,0.144c-0.059,0.032-2.59,0.188-2.952,0.234
		c-1.036,0.135-1.676,0.328-2.488,0.742c-1.362,0.696-2.475,1.991-2.19,4.178c0.257,1.964,1.341,2.86,3.339,3.085
		c1.413,0.159,2.631-0.185,3.756-0.935c0.358-0.239,0.872-0.69,0.896-0.705l0.268,1.358h2.055c0.077-0.89,0.008-2.11,0.008-3.027
		v-6.076c0-0.976-0.089-1.774-0.535-2.489c-1.384-2.221-4.419-2.092-6.909-1.506C316.694,135.374,315.332,135.757,315.008,136.048z"
		/>
	<path fill="#EE3537" d="M330.408,148.368l3.292,0.001c0.144-0.033,0.34-0.564,0.402-0.688c0.748-1.465,1.59-4.002,2.036-5.539
		c0.223-0.768,1.669-6.188,1.677-6.968l-2.824,0.001c-0.072,0.487-0.091,0.982-0.164,1.46c-0.205,1.336-0.543,2.708-0.888,4
		c-0.079,0.3-1.304,4.464-1.54,4.885c-0.028,0.052-0.026,0.047-0.053,0.078c-0.531-2.407-1.522-5.449-2.29-7.868
		c-0.257-0.816-0.525-1.788-0.828-2.552l-2.914-0.005c0.016,0.273,0.391,1.332,0.493,1.652c0.179,0.558,0.335,1.098,0.512,1.645
		l2.058,6.59C329.724,146.161,330.095,147.251,330.408,148.368z"/>
	<path fill="#EE3537" d="M309.495,134.164l0.003,12.153c0,1.259-0.191,2.356-0.698,3.331c-0.812,1.562-1.971,1.782-2.123,1.938
		l1.284,1.536c0.732-0.133,1.776-0.783,2.184-1.166c0.577-0.543,1.017-1.059,1.438-1.95c0.903-1.917,0.758-3.712,0.758-5.997
		c0-4.508,0.021-9.021-0.001-13.527c-0.334-0.059-2.311-0.023-2.845-0.02L309.495,134.164L309.495,134.164z"/>
</g>
<g id="_877952883008">
	<polygon fill="#0A2673" points="307.78,14.665 348.134,14.665 328.217,34.446 307.78,34.446 	"/>
	<path fill="#FFFEFF" d="M309.697,27.322c-0.417,0.8-0.834,1.602-1.252,2.403c2.335,1.368,5.366,2.014,8.157,0.059
		c-0.147,0.304-0.293,0.686-0.44,0.99c1.241,0,2.482,0,3.724,0c0.214-0.599,0.428-1.197,0.642-1.794
		c1.276,0.539,2.551,0.527,3.825,0c0.282,0.643,0.564,1.285,0.846,1.929c1.973-0.055,3.948-0.112,5.923-0.169
		c-0.022-1.252-0.045-2.505-0.068-3.757c0.846,0,1.692,0,2.539,0c2.037-0.413,3.446-1.605,3.588-4.366
		c-0.058-1.804-0.845-3.521-3.825-4.028c-1.884,0-3.767,0-5.651,0c0,3.024,0,6.048,0,9.071c-1.151-3.035-2.378-6.145-3.529-9.18
		l-3.317,0.018c-0.948,2.515-2.022,5.158-2.97,7.674c-0.157-3.431-6.098-2.831-5.952-4.427c0.113-0.964,1.263-1.311,4.564,0.095
		c0.428-0.79,0.917-1.638,1.345-2.428c-5.146-2.424-8.474-1.36-9.468,2.361c-0.406,4.541,6.82,3.988,6.075,5.703
		C313.538,28.996,311.501,28.074,309.697,27.322z M322.536,22.398l-1.167,3.824c0.941,0.338,1.733,0.286,2.437,0L322.536,22.398z
		 M331.05,21.146c0,1.027,0,2.052,0,3.079c1.632,0.168,2.944,0.005,2.86-1.591C333.917,21.626,333.454,21.088,331.05,21.146z"/>
	<path fill="#0C2F8D" d="M337.737,41.978h0.613v-4.366h-0.757v-1.828h4.937c2.488-0.009,3.844,1.1,3.844,2.487
		c0,1.186-0.634,2.11-2.559,2.312l-2.385,0.027v1.368h0.783v1.827h-4.476V41.978z M332.876,41.978h0.845l-0.367-1.003h-2.248
		l-0.355,1.003h0.721v1.827h-3.249v-1.827h0.551l1.684-4.366h-0.746v-1.828h5.72v1.828h-0.671l1.689,4.366h0.59v1.827h-4.163v-1.827
		H332.876z M332.988,39.976l-0.777-2.122l-0.752,2.122H332.988z M314.139,41.978h0.845l-0.367-1.003h-2.248l-0.355,1.003h0.721
		v1.827h-3.249v-1.827h0.551l1.684-4.366h-0.746v-1.828h5.72v1.828h-0.671l1.689,4.366h0.59v1.827h-4.163v-1.827H314.139z
		 M314.251,39.976l-0.777-2.122l-0.752,2.122H314.251z M322.541,37.416v1.638h1.433c0.74-0.066,0.858-1.612-0.067-1.591
		L322.541,37.416z M318.818,41.994l0.617-0.005v-4.378h-0.711v-1.828h2.795h1.021h2.889c2.178,0,3.031,2.82,0.744,3.554
		c-0.014,0.077-0.008,0.242,0.043,0.244c2.488,0.136,2.241,4.032-0.838,4.223l-2.266-0.032l-4.295,0.032v-1.81H318.818z
		 M322.541,41.967l1.061-0.009l0,0h0.007l0.072-0.001c1.328-0.031,1.348-1.302,0.135-1.499l-1.275-0.01V41.967z M342.817,37.612
		h-1.387v1.475h1.387C343.617,38.876,343.622,37.804,342.817,37.612z"/>
</g>
<g id="_877952885408">
	<path fill="#9D3C33" d="M449.708,67.112c0.429,1.147,2.786,5.873,3.495,7.358c0.757,1.585,10.349,21.244,10.458,21.807l-4.612-0.04
		c-0.582-0.695-2.386-5.71-3.041-6.567l-6.142,0.103l0.179,16.289l12.778-7.207c0.712-0.425,1.4-0.78,2.107-1.199
		c1.332-0.79,1.191-0.28,1.384-2.01c0.445-3.96,0.894-7.882,1.352-11.824c0.451-3.896,1.047-7.993,1.352-11.861l-19.21-6.271
		c-0.307-0.067-0.202,0.296-0.197,0.679C449.614,66.698,449.609,66.889,449.708,67.112z"/>
	<path fill="#C4473A" d="M450.044,106.062l-0.179-16.289l6.142-0.103c-0.771-0.268-4.855,0.162-6.165,0.016l-5.589,0.019
		l-2.528,6.629l-4.931,0.107l12.732-29.179c0.078-0.176-0.114-0.117,0.182-0.15c-0.099-0.223-0.093-0.414-0.098-0.744
		c-0.005-0.383-0.11-0.746,0.197-0.679c-0.765-0.269-16.493,6.187-18.953,6.78c0.141,2.38,1.12,8.919,1.468,11.794
		c0.477,3.935,0.993,7.85,1.497,11.797c0.239,1.871-0.166,1.155,3.381,3.091L450.044,106.062z"/>
	<path fill="#B3B3B3" d="M450.044,106.062l-12.845-6.911c-3.547-1.936-3.141-1.22-3.381-3.091c-0.504-3.947-1.02-7.862-1.497-11.797
		c-0.348-2.874-1.328-9.414-1.468-11.794c2.46-0.593,18.188-7.049,18.953-6.78l19.21,6.271c-0.306,3.868-0.901,7.965-1.352,11.861
		c-0.458,3.942-0.906,7.864-1.352,11.824c-0.193,1.73-0.053,1.22-1.384,2.01c-0.707,0.419-1.395,0.774-2.107,1.199L450.044,106.062z
		 M428.798,70.881c0.012,1.1,1.065,8.266,1.285,9.898l1.73,13.218c0.146,1.066,0.263,2.331,0.421,3.344
		c0.255,1.631-0.214,1.409,2.663,2.829c0.473,0.234,0.734,0.423,1.199,0.662l4.175,2.282c2.932,1.586,6.66,3.797,9.512,5.278
		c0.497,0.259,0.554-0.049,1.204-0.372l17.347-9.639c0.175-0.163,0.193-0.218,0.249-0.625c0.045-0.338,0.013-0.603,0.043-0.936
		l2.86-25.67c0.018-0.126,0.039-0.26,0.046-0.391c0.038-0.741-0.841-0.694-2.56-1.302l-3.997-1.354
		c-2.48-0.935-6.947-2.189-9.511-3.159l-5.446-1.761l-12.553,4.554c-0.218,0.07-0.357,0.135-0.633,0.249L428.798,70.881z"/>
	<path fill="#B3B3B3" d="M449.671,76.536c0.138,0.122,0.071,0.047,0.191,0.218l2.125,4.295c0.473,1.009,2.019,3.915,2.246,4.64
		l-4.374,0.024l-3.881,0.026l3.863,0.033l0.001,3.915c1.31,0.145,5.394-0.284,6.165-0.016c0.655,0.857,2.46,5.872,3.041,6.567
		l4.612,0.04c-0.109-0.563-9.701-20.222-10.458-21.807c-0.709-1.485-3.066-6.211-3.495-7.358c-0.296,0.033-0.104-0.026-0.182,0.15
		C449.744,67.63,449.897,75.926,449.671,76.536z"/>
	<path fill="#F1F1F1" d="M449.842,89.686l-0.001-3.915l-3.863-0.033c0.205-0.695,0.646-1.602,0.946-2.331
		c0.31-0.753,0.59-1.516,0.915-2.256c0.419-0.958,1.416-3.918,1.908-4.468l-0.076-0.147c0.226-0.609,0.073-8.905-0.145-9.273
		l-12.732,29.179l4.931-0.107l2.528-6.629L449.842,89.686z"/>
	<path fill="#9D3C33" d="M449.859,85.712l4.374-0.024c-0.227-0.725-1.773-3.631-2.246-4.64l-2.125-4.295
		c-0.12-0.171-0.053-0.097-0.191-0.218l0.076,0.147L449.859,85.712z"/>
	<path fill="#C4473A" d="M445.978,85.738l3.881-0.026l-0.112-9.029c-0.492,0.55-1.489,3.51-1.908,4.468
		c-0.325,0.74-0.604,1.503-0.915,2.256C446.624,84.137,446.183,85.043,445.978,85.738z"/>
</g>
<g id="_877952888960">
	<path fill="#C84440" d="M205.564,99.976l-5.844,0.665l-0.267-2.245l4.358-0.536c0.286-0.582,0.334-1.172,0.276-1.813l-6.754,0.005
		l8.27-17.67l0.001-2.5h12.012l-2.236,25.203l-9.743,2.959L205.564,99.976z M217.409,102.917l0.051-0.185l2.613-29.16l-29.055-0.028
		l2.646,29.398l7.892,2.264l1.993,0.548c0.647,0.131,1.618,0.541,2.146,0.489c0.592-0.058,1.508-0.463,2.221-0.591L217.409,102.917z
		"/>
	<polygon fill="#EC4847" points="214.711,78.383 213.151,96.055 206.399,96.056 205.744,99.702 205.564,99.976 205.638,104.043 
		215.381,101.084 217.617,75.881 205.605,75.881 205.604,78.381 	"/>
	<path fill="#FAEBEC" d="M205.564,99.976l0.181-0.274c-0.331-0.655,0.054-8.679-0.137-10.306l-0.636,0.033
		c-0.176,1.7-0.14,1.831-0.511,3.283l-4.508,0.034l-0.712-11.253l6.345,0.005l0.021-3.117l-9.733,0.018l1.46,17.652l6.754-0.005
		c0.033,0.368,0.039,0.633-0.021,1.009c-0.007,0.047-0.073,0.331-0.093,0.393c-0.151,0.479-0.049,0.183-0.162,0.411l-4.358,0.536
		l0.267,2.245L205.564,99.976z"/>
	<path fill="#FEFEFE" d="M205.585,81.499l5.629,0.014l-0.549,11.106l-3.703,0.057c0.099-0.977,0.486-2.335,0.383-3.253l-1.739-0.027
		c0.191,1.628-0.193,9.651,0.137,10.306l0.655-3.646l6.751-0.001l1.56-17.673l-9.069-0.001L205.585,81.499z"/>
	<path fill="#C84440" d="M205.607,89.396l-0.022-7.897l-6.345-0.005l0.712,11.253l4.508-0.034c0.371-1.453,0.335-1.584,0.511-3.283
		L205.607,89.396z"/>
	<path fill="#EC4847" d="M205.607,89.396l1.739,0.027c0.103,0.918-0.285,2.276-0.383,3.253l3.703-0.057l0.549-11.106l-5.629-0.014
		L205.607,89.396z"/>
</g>
<g id="_877952891040">
	<ellipse fill="#FF2E34" cx="515.052" cy="29.364" rx="21.534" ry="22.311"/>
	<path fill="#D32A2D" d="M536.58,28.992c0.003,0.124,0.005,0.248,0.005,0.372c0,12.322-9.641,22.311-21.534,22.311
		c-0.052,0-0.104-0.002-0.156-0.002l-16.662-16.662l15.249-20.401l11.968,2.008L536.58,28.992z"/>
	<path fill="#F2F2F2" d="M532.204,31.23v3.78h-33.971v-3.729l3.007-0.035c0.294-0.003,0.533-0.248,0.529-0.542l0,0
		c-0.004-0.295-0.247-0.534-0.542-0.53l-2.992,0.035c0.047-4.302,1.694-8.221,4.374-11.188l2.26,2.211
		c0.211,0.205,0.552,0.202,0.758-0.008l0,0c0.207-0.211,0.203-0.552-0.008-0.758l-2.266-2.217c2.938-2.87,6.914-4.683,11.312-4.824
		v3.294c0,0.295,0.241,0.536,0.536,0.536l0,0c0.295,0,0.536-0.241,0.536-0.536v-3.295c4.397,0.131,8.374,1.934,11.318,4.794
		l-2.351,2.316c-0.209,0.207-0.213,0.548-0.005,0.758l0,0c0.206,0.21,0.548,0.212,0.757,0.006l2.343-2.309
		c2.686,2.959,4.341,6.87,4.403,11.168l-3.176-0.001c-0.295,0-0.536,0.241-0.536,0.536l0,0c0,0.294,0.241,0.536,0.536,0.536
		L532.204,31.23z M504.52,30.705h21.683C524.954,16.185,504.877,17.236,504.52,30.705z"/>
</g>
<path fill="#00D8FF" d="M370.655,83.728c0.716,3.188,4.309,5.421,9.131,6.741c-1.348,5.565-0.982,10.178,2.175,11.54
	c3.056,0.925,6.671-0.993,10.122-4.389c3.815,3.667,7.739,5.541,10.71,3.863c2.75-2.137,3.007-6.349,1.752-11.201
	c5.139-1.486,8.771-3.973,8.79-7.411c-0.493-3.479-4.08-5.806-8.982-7.119c1.24-5.208,0.866-9.598-2.119-11.308
	c-3.252-1.277-7.017,0.669-10.555,4.245c-4.027-3.869-8.089-5.809-10.825-3.824c-2.418,2.211-2.565,6.456-1.305,11.312
	C374.084,77.745,370.287,80.327,370.655,83.728z M391.927,79.175c2.096,0,3.796,1.698,3.796,3.795c0,2.096-1.7,3.796-3.796,3.796
	s-3.796-1.7-3.796-3.796C388.131,80.873,389.83,79.175,391.927,79.175z M381.524,90.895c1.753,0.381,3.628,0.655,5.559,0.821
	c1.205,1.697,2.48,3.277,3.782,4.665c-2.756,2.766-5.592,4.398-8.076,3.945C380.517,98.993,380.37,95.343,381.524,90.895z
	 M402.568,75.328c-1.837-0.381-3.811-0.637-5.847-0.774c-1.151-1.583-2.361-3.064-3.589-4.386c2.962-3.049,5.956-4.79,8.333-4.032
	C403.608,67.235,403.726,70.843,402.568,75.328z M393.352,96.296c1.259-1.387,2.486-2.953,3.639-4.633
	c1.93-0.187,3.801-0.477,5.546-0.869c1.091,4.077,1.05,7.512-0.807,9.16C399.708,101.225,396.586,99.525,393.352,96.296z
	 M398.334,89.602c0.827-1.334,1.604-2.714,2.316-4.114c0.516,1.191,0.969,2.37,1.348,3.514
	C400.834,89.244,399.605,89.444,398.334,89.602z M401.816,83.046c0.795-1.784,1.47-3.568,1.992-5.292
	c4.143,1.076,7.158,2.828,7.672,5.282c0.1,2.405-2.978,4.283-7.447,5.486C403.459,86.734,402.705,84.887,401.816,83.046z
	 M390.461,69.993c-1.264,1.429-2.487,3.051-3.633,4.79c-1.949,0.218-3.837,0.538-5.594,0.952c-1.063-3.927-1.064-7.34,0.643-9.301
	C384.144,65.185,387.284,66.84,390.461,69.993z M385.531,76.857c-0.831,1.399-1.61,2.847-2.317,4.313
	c-0.558-1.247-1.047-2.486-1.45-3.691C382.957,77.224,384.222,77.016,385.531,76.857z M382.208,83.366
	c-0.788,1.831-1.455,3.66-1.971,5.421c-3.915-1.029-6.86-2.719-7.71-5.167c0.04-2.62,3.114-4.538,7.516-5.728
	C380.61,79.681,381.344,81.528,382.208,83.366z M392.137,95.018c0.854-0.973,1.694-2.042,2.506-3.18
	c-1.689,0.088-3.402,0.099-5.093,0.032C390.398,92.998,391.267,94.056,392.137,95.018z M395.991,89.843
	c1.342-2.088,2.575-4.333,3.632-6.58c-1.124-2.292-2.443-4.578-3.865-6.703c-2.525-0.152-5.137-0.135-7.657,0.047
	c-1.407,2.167-2.705,4.501-3.803,6.834c1.134,2.236,2.456,4.451,3.869,6.507C390.749,90.092,393.42,90.052,395.991,89.843z
	 M400.69,80.849c0.492-1.193,0.927-2.371,1.294-3.513c-1.186-0.236-2.439-0.425-3.731-0.565
	C399.119,78.093,399.939,79.461,400.69,80.849z M391.897,71.517c-0.809,0.932-1.61,1.95-2.388,3.032
	c1.579-0.1,3.178-0.135,4.759-0.101C393.493,73.403,392.699,72.419,391.897,71.517z M383.333,85.616
	c-0.508,1.216-0.952,2.417-1.32,3.579c1.19,0.24,2.447,0.425,3.743,0.561C384.892,88.417,384.079,87.028,383.333,85.616z"/>
<g id="_877952893248">
	<path fill="#4472C4" d="M213.52,144.53c0.052-1.067,0.395-3.463,0.551-4.746c0.141-1.157,0.015-1.24,0.459-1.24
		c0.924-0.001,3.661-0.082,4.384,0.049c0.06,0.355-0.575,5.154-0.695,5.89C217.822,144.607,214.312,144.536,213.52,144.53z
		 M223.275,135.19c0.058-1.303,0.331-2.92,0.49-4.237c0.042-0.353,0.282-1.883,0.181-2.106c-0.204-0.454-1.349-0.389-1.907-0.388
		c-2.325,0.001-1.954,0.413-2.2,2.492c-0.162,1.369-0.279,2.84-0.496,4.197c-0.36,0.107-4.365,0.107-4.712-0.002
		c0.052-1.246,0.356-2.907,0.516-4.184c0.277-2.22,0.761-2.504-1.741-2.502c-0.59,0-1.671,0.034-1.899,0.463
		c-0.103,0.193-0.7,5.546-0.809,6.214c-0.417,0.162-1.81,0.047-2.35,0.058c-0.778,0.015-0.877,0.711-0.895,1.455
		c-0.017,0.646,0.008,1.687,0.515,1.858c0.256,0.086,1.877,0.029,2.293,0.043c0.049,0.468-0.564,5.071-0.668,5.943
		c-1.871,0.419-3.059-0.905-3.164,1.491c-0.117,2.649,0.831,1.773,2.649,1.944c0.222,0.532-0.752,5.614-0.653,6.791
		c0.742,0.444,1.799,0.391,2.738,0.326c1.309-0.091,1.151-0.564,1.288-1.724c0.107-0.913,0.221-1.8,0.321-2.704
		c0.027-0.247,0.191-2.466,0.387-2.639c0.185-0.139,4.309-0.157,4.569-0.015c0.139,0.119,0.016,0.633-0.004,0.798
		c-0.124,0.995-0.761,5.69-0.65,5.929c0.453,0.519,1.892,0.415,2.722,0.356c1.317-0.095,1.17-0.546,1.309-1.729
		c0.079-0.665,0.49-5.126,0.696-5.316c0.175-0.177,0.814-0.086,1.08-0.086c1.199,0,1.688,0.185,1.927-0.492
		c0.111-0.315,0.137-0.665,0.151-1.011c0.103-2.682-0.917-1.63-2.78-1.908l0.731-5.927c0.741-0.061,1.562,0.04,2.292-0.015
		c0.713-0.053,0.784-0.798,0.803-1.489C226.075,134.632,225.311,135.252,223.275,135.19z"/>
	<path fill="#4472C4" d="M185.29,141.774c0,8.099,3.525,13.596,11.693,13.596c2.035,0,3.489-0.262,5.311-0.988
		c0.614-0.244,1.444-0.682,1.826-1.048c0.646-0.618,0.634-1.351,0.634-2.435c0-4.741-1.348,0.055-6.859,0.055
		c-3.439,0-5.419-1.894-6.285-4.578c-0.883-2.73-0.902-6.775,0.141-9.41c1.01-2.557,2.895-4.581,6.429-4.424
		c1.671,0.074,2.846,0.569,4.074,1.295c0.294,0.174,0.535,0.312,0.813,0.522c1.406,1.062,1.609,0.145,1.609-1.707
		c0-2.031-0.218-2.578-2.346-3.522c-3.78-1.68-8.996-1.196-12.235,1.336c-0.787,0.615-0.665,0.597-1.263,1.123
		c-0.187,0.163-0.228,0.287-0.377,0.466C186.235,134.73,185.29,138.24,185.29,141.774z"/>
</g>
<path fill="#1A7AAC" d="M123.093,150.464c1.662,0,3.324,0,4.986,0c7.173-0.919,3.947-8.477,9.971-13.827
	c1.562,6.77,3.237,14.287,7.712,13.362c2.925,0,5.691,0.066,8.617,0.066c5.317-1.792,8.381-10.673,12.522-17.018
	c-2.26,0-4.52,0-6.781,0c-7.511,0-5.849,9.129-8.774,13.694c-0.975-3.412-1.904-6.663-2.879-10.075
	c-0.693-2-2.024-3.619-5.746-3.493c-2.659,0-5.318,0-7.978,0C130.002,133.048,124.445,143.894,123.093,150.464z"/>
<g id="_877952898304">
	<path fill="#006FBA" d="M24.537,100.386l-8.072-2.008c-0.19-1.48-0.63-4.118-0.496-5.584c0.65-0.217,2.881-0.229,3.533,0
		l0.331,2.922l4.821,0.893l-0.057-6.142l-8.943,0.045l-0.289-3.805c0.927-0.313,8.312-3.466,8.676-3.855l-9.019-0.079
		c-0.408-0.763-0.438-2.299-0.463-3.269c0.033-0.022,0.083-0.041,0.106-0.049l9.982-0.12l0.018-3.445l11.956,0.026l-2.352,25.603
		c-1.44,0.478-8.558,2.557-9.62,2.58L24.537,100.386z M36.635,103.268l2.634-29.79L9.917,73.47l2.679,29.86
		c0.788,0.464,4.389,1.311,5.552,1.645l6.4,1.348C26.317,106.046,35.525,104.14,36.635,103.268z"/>
	<path fill="#FEFEFE" d="M24.801,90.467l4.525,0.045l-0.301,4.763l-4.269,1.282l-0.22,3.828c1.063-0.153,7.558-1.825,8.074-2.194
		c0.454-0.746,1.048-9.76,1.04-11.318l-7.736-0.003l7.884-3.55c0.36-0.323,0.465-3.385,0.49-3.88l-9.687-0.01
		C24.746,81.481,24.372,89.434,24.801,90.467z"/>
	<path fill="#29A9DE" d="M14.56,79.504l10.043-0.073l9.687,0.01c-0.025,0.495-0.13,3.556-0.49,3.88l-7.884,3.55l7.736,0.003
		c0.009,1.558-0.585,10.572-1.04,11.318c-0.517,0.369-7.011,2.041-8.074,2.194l0.112,3.713c1.062-0.023,8.18-2.102,9.62-2.58
		l2.352-25.603L24.666,75.89l-0.018,3.445l-9.982,0.12C14.643,79.463,14.593,79.482,14.56,79.504z"/>
	<path fill="#CFCFCF" d="M24.597,90.467h0.204c-0.429-1.034-0.055-8.987-0.198-11.037L14.56,79.504
		c0.025,0.97,0.055,2.506,0.463,3.269l9.019,0.079c-0.365,0.389-7.75,3.542-8.676,3.855l0.289,3.805L24.597,90.467z"/>
	<path fill="#CFCFCF" d="M24.537,100.386l0.22-3.828l-0.103,0.052l-4.821-0.893l-0.331-2.922c-0.652-0.229-2.882-0.217-3.533,0
		c-0.135,1.466,0.306,4.104,0.496,5.584L24.537,100.386z"/>
	<polygon fill="#29A9DE" points="24.654,96.61 24.757,96.558 29.026,95.276 29.327,90.513 24.801,90.467 24.597,90.467 	"/>
</g>
<g id="_877952909920">
	<path fill="#F16529" d="M97.126,125.623H82.988c0,8.893,0,25.769,0,32.297l11.412-3.503L97.126,125.623z"/>
	<path fill="#E44D26" d="M68.852,125.622h28.274l-2.466,28.793l-11.668,3.504l-11.414-3.504L68.852,125.622z M71.684,127.845h23
		l-2.186,24.819l-9.509,2.642l-9.009-2.642L71.684,127.845z"/>
	<path fill="#E44D26" d="M68.852,125.622h14.136c0,8.892,0,25.77,0,32.296l-11.411-3.503L68.852,125.622z"/>
	<polygon fill="#FEFEFE" points="74.152,131.287 92.059,131.287 91.724,134.933 78.068,134.933 78.392,138.527 91.393,138.527 
		90.372,149.629 82.988,151.705 75.798,149.547 75.3,144.016 78.889,144.016 79.171,146.757 83.105,147.812 87.055,146.725 
		87.444,142.07 86.422,142.07 78.409,142.07 75.124,142.07 	"/>
	<path fill="#EBEBEB" d="M82.988,131.386v3.646l-4.921-0.099l0.325,3.594l4.596,0.099v3.543l-4.579-0.099h-3.285l-0.973-10.783
		L82.988,131.386z M82.988,147.791v3.914l-7.19-2.158l-0.498-5.531h3.589l0.282,2.741L82.988,147.791z"/>
</g>
<g id="_877952912352">
	<path fill="#809CC8" d="M367.417,38.935c-0.016-0.089,0.047-0.252,0.09-0.308c0.197-0.263,0.683-0.171,0.748,0.181
		C368.359,39.361,367.522,39.491,367.417,38.935z M365.982,38.935c-0.027-0.147,0.098-0.434,0.348-0.457
		c0.254-0.021,0.466,0.127,0.495,0.355C366.891,39.356,366.084,39.493,365.982,38.935z M368.262,36.223
		c0,0.231-0.17,0.412-0.448,0.405c-0.244-0.007-0.402-0.201-0.394-0.429C367.438,35.681,368.262,35.681,368.262,36.223z
		 M366.232,35.839c0.299-0.163,0.752,0.195,0.544,0.573C366.424,37.056,365.541,36.213,366.232,35.839z M364.59,33.256v9.065
		c0.362-0.082,2.806-0.437,3.333-0.512c1.113-0.158,2.181-0.386,3.273-0.567c1.531-0.253,2.794-0.519,4.303-0.819
		c1.481-0.293,2.744-0.562,4.201-0.916c0.999-0.242,2.094-0.48,3.085-0.745l2.021-0.542c0.333-0.083,0.68-0.173,1.011-0.27
		c1.871-0.543,5.724-1.669,7.724-2.515c0.405-0.171,0.961-0.389,1.335-0.584c0.475-0.249,1.224-0.537,1.703-0.854
		c0.49-0.325,0.523-0.27,1.144-0.774c0.067-0.054,0.107-0.113,0.171-0.163c0.078-0.061,0.108-0.045,0.172-0.135l0.136-0.197
		c0.254-0.328,0.418-0.759,0.139-1.131c-0.049-0.064-0.116-0.097-0.178-0.157c-0.168-0.164-0.37-0.262-0.601-0.341
		c-0.331-0.112-0.671-0.199-1.03-0.25c-0.184-0.025-0.359-0.064-0.565-0.064c-0.185-0.001-0.455-0.03-0.616-0.045
		c-0.461-0.043-3.239,0.047-3.74,0.109l-1.198,0.077c-0.499,0.014-1.886,0.117-2.386,0.18c-0.57,0.072-1.743,0.15-2.35,0.197
		c-0.778,0.059-1.571,0.169-2.33,0.234c-1.518,0.13-3.18,0.358-4.655,0.472c-1.131,0.088-2.351,0.259-3.481,0.354
		c-1.125,0.095-2.375,0.243-3.506,0.331c-0.757,0.058-1.565,0.138-2.35,0.215c-0.372,0.037-0.779,0.054-1.179,0.094
		c-0.623,0.061-1.232,0.074-1.795,0.131L364.59,33.256z"/>
	<path fill="#809CC8" d="M364.59,44.98v0.071h42.379V33.939l-3.671,1.352c-0.418,0.136-0.83,0.292-1.234,0.426
		c-1.683,0.559-3.315,1.14-5.04,1.643l-2.574,0.777c-0.87,0.251-1.716,0.516-2.584,0.744c-0.445,0.116-0.879,0.249-1.326,0.359
		c-0.208,0.052-0.472,0.127-0.671,0.181l-5.963,1.532c-0.447,0.113-0.917,0.222-1.336,0.327l-2.684,0.665
		c-1.245,0.319-2.799,0.613-4.097,0.907c-1.82,0.412-3.697,0.768-5.532,1.133l-2.815,0.517c-0.471,0.078-0.963,0.161-1.424,0.242
		C365.554,44.825,365.037,44.879,364.59,44.98z"/>
	<path fill="#809CC8" d="M364.59,25.297c0.16-0.039,1.439-0.582,1.736-0.701c0.208-0.083,0.402-0.146,0.594-0.218
		c1.632-0.618,3.133-1.146,4.786-1.716c0.41-0.141,0.814-0.26,1.213-0.395l2.463-0.79c2.998-0.897,5.81-1.747,8.87-2.525
		l1.919-0.504c0.245-0.061,0.425-0.116,0.654-0.169l2.598-0.65c0.88-0.224,1.753-0.419,2.609-0.64
		c0.876-0.226,1.769-0.406,2.637-0.612c1.301-0.308,2.68-0.621,3.978-0.883c0.487-0.099,0.895-0.19,1.359-0.282
		c0.899-0.178,1.796-0.385,2.698-0.554l2.758-0.522H364.59V25.297z"/>
	<path fill="#809CC8" d="M406.97,25.038V16.54l-4.096,0.66c-0.956,0.19-2.064,0.341-3.026,0.535
		c-0.341,0.07-0.681,0.135-1.009,0.197c-0.646,0.124-1.308,0.277-1.968,0.408c-0.337,0.066-0.652,0.132-0.982,0.199
		c-0.859,0.175-2.08,0.471-2.907,0.673c-0.329,0.08-0.648,0.147-0.978,0.228c-0.29,0.071-0.65,0.171-0.949,0.255
		c-1.246,0.347-2.517,0.653-3.724,1.03c-0.61,0.19-1.227,0.361-1.833,0.548c-0.857,0.265-1.824,0.619-2.675,0.908
		c-1.614,0.55-3.121,1.152-4.657,1.899c-0.147,0.071-0.281,0.113-0.416,0.197c-0.25,0.156-0.517,0.287-0.76,0.443
		c-0.435,0.28-1.007,0.652-1.317,1.066c-0.517,0.694,0.116,1.252,0.595,1.367c0.961,0.231,0.606,0.158,1.493,0.274
		c0.375,0.049,2.551-0.014,2.926-0.033c0.74-0.037,1.495-0.093,2.227-0.159l4.372-0.386c0.731-0.072,1.438-0.143,2.205-0.207
		c1.039-0.089,2.174-0.23,3.226-0.328l2.149-0.216c0.36-0.028,0.747-0.086,1.1-0.116c1.387-0.111,3-0.326,4.353-0.424
		c0.718-0.052,1.47-0.163,2.198-0.19l1.081-0.089c0.374-0.04,0.75-0.053,1.12-0.078c0.381-0.026,0.766-0.079,1.126-0.092
		L406.97,25.038z"/>
	<path fill="#FFFFFF" d="M366.232,35.839c-0.69,0.374,0.193,1.217,0.544,0.573C366.984,36.034,366.53,35.676,366.232,35.839z"/>
	<path fill="#FFFFFF" d="M368.262,36.223c0-0.542-0.824-0.542-0.843-0.024c-0.008,0.228,0.15,0.421,0.394,0.429
		C368.092,36.634,368.262,36.454,368.262,36.223z"/>
	<path fill="#FFFFFF" d="M365.982,38.935c0.103,0.558,0.909,0.422,0.843-0.101c-0.028-0.228-0.241-0.377-0.495-0.355
		C366.079,38.501,365.954,38.787,365.982,38.935z"/>
	<path fill="#FFFFFF" d="M367.417,38.935c0.105,0.556,0.942,0.426,0.838-0.127c-0.065-0.352-0.551-0.444-0.748-0.181
		C367.464,38.683,367.4,38.846,367.417,38.935z"/>
</g>
<g id="_877952914912">
	<path d="M427.869,26.515c0.051-0.613,0.158-0.512,0.158-1.27h-2.857c-0.154,1.855-1.608,8.189-1.746,9.839
		c3.476,0,2.818,0.764,3.469-3.196c0.186-1.13,0.595-4.421,2.244-4.421c0.959,0,0.952,0.431,0.952,0.952
		c0,0.93-0.872,6.168-1.111,6.665h3.016l0.725-4.512c0.769-4.224,3.084-3.216,3.084-2.311c0,1.059-1.112,5.689-1.112,6.823h2.856
		c0.337-4.035,3.172-9.998-1.586-9.998c-1.59,0-2.068,1.112-3.016,1.746c-0.103-1.244-1.157-1.746-2.38-1.746
		C429.042,25.085,428.699,25.959,427.869,26.515z"/>
	<path fill="#FF6704" d="M443.738,33.338c-0.407,0-1.111,0.085-1.111-0.635c0-1.354,1.488-1.269,2.857-1.269
		C445.405,32.38,444.722,33.338,443.738,33.338z M441.675,27.308c-0.015,0.725-0.261,1.226-0.317,1.904
		c0.847-0.197,2.855-1.035,4.058-0.401c0.309,0.164,0.68,0.62,0.407,0.891c-0.441,0.439-5.893-0.469-5.893,3.319
		c0,1.876,1.408,2.063,2.698,2.063c1.193,0,1.677-0.64,2.381-1.111l-0.183,0.947l2.564,0.006c0.262-1.13,0.455-2.209,0.701-3.425
		c0.237-1.177,0.6-2.392,0.092-3.399C447.294,26.339,443.621,26.855,441.675,27.308z"/>
	<path d="M463.733,28.578c0.813,0,1.112,0.706,1.112,1.586h-3.175C462.111,29.33,462.461,28.578,463.733,28.578z M458.814,31.752
		c0,2.977,1.704,3.332,4.285,3.332c1.321,0,2.134-0.393,3.174-0.635c0-0.719,0.179-1.314,0.316-1.904
		c-0.975,0.081-5.236,2.292-5.236-0.793h5.712c0.39-1.675,0.636-3.838-1.564-4.627C462.491,26.046,458.814,28.266,458.814,31.752z"
		/>
	<path d="M472.144,28.101l0.183-0.947l-2.562-0.006c-0.593,2.544-0.995,5.234-1.588,7.777c3.07,0,2.463,0.616,3.082-2.474
		c0.168-0.839,0.272-1.663,0.562-2.295c0.522-1.135,2.546-2.069,2.546-0.31c0,0.742-0.747,4.652-0.952,5.079h2.698
		c0-0.873,0.323-2.013,0.488-2.843c0.24-1.197,1.418-5.092-1.283-5.092C473.487,26.99,473.781,27.006,472.144,28.101z"/>
	<path d="M451.673,34.925h2.857c0.683-1.291,1.475-2.585,2.213-3.818c0.414-0.693,2.102-3.41,2.231-3.959h-2.54
		c-0.123,0.531-2.521,4.833-2.856,5.079c-0.137-1.65-0.656-3.427-0.793-5.079h-2.539c0.099,1.193,0.472,2.612,0.701,3.901
		L451.673,34.925z"/>
</g>
<g id="_877952915904">
	<path fill="#543629" d="M30.989,23.682c0.039-0.07,0.08-0.17,0.105-0.221c0.464,0.083,1.427,0.296,1.783,0.505
		c-0.55,0.469-1.69,0.728-2.599,0.758c-0.31-0.161-0.431-1.049-0.437-1.466l0.974,0.136l-0.027,0.551L30.989,23.682z M26.225,24.948
		c-0.202-0.892-0.446-1.225-0.242-2.297c0.095-0.498,0.521-1.752,0.925-1.752c1.562,0,3.182,0.769,4.379,1.602l1.046,0.842
		c-0.319-0.039-0.837-0.239-1.233-0.318c-0.451-0.089-0.947-0.165-1.432-0.145c-1.703,0.07-1.063,0.852-3.712,0.497
		c0.79,0.806,2.149,0.199,2.974,0.049c0.016,0.414,0.181,0.299-0.567,0.531C27.527,24.219,26.695,24.799,26.225,24.948z
		 M25.707,28.558c0.342-0.36,0.67-0.652,0.998-1.084c1.411-0.043,3.947,0.407,5.369,0.644c1.703,0.285,3.372,0.61,5.015,1.004
		c1.034,0.197,1.918,0.408,2.083,1.414c-1.436-0.132-2.872-0.348-4.316-0.485c-0.738-0.07-3.864-0.254-4.297-0.404l-1.645-0.045
		l5.291,0.993c0.744,0.136,4.306,0.741,4.695,1.002c-0.162,0.345-0.627,0.66-1.092,0.794c-0.643,0.184-1.035,0.069-1.658,0.015
		c0.347,0.821,0.083,1.321-0.668,1.63c-1.008,0.416-1.354,0.044-2.201,0.025c0.325,0.782-0.589,1.223-1.251,1.316
		c-1.075,0.152-1.5-0.202-2.324-0.436c-0.157,1.019-2.131,1.166-3.698,0.041c0.083,0.328,0.2,0.393,0.147,0.778
		c-0.09,0.665-0.399,1.424-0.719,1.979c-2.111,3.669-6.926,2.993-10.263,1.21c-0.396-0.211-0.765-0.465-1.114-0.704
		c-0.395-0.27-0.633-0.494-0.977-0.774c-1.014-0.821-2.698-2.954-3.031-4.175c-0.518-0.917-0.9-2.797-0.975-4.026
		c-0.24-3.926,1.325-8.02,4.276-10.489c2.709-2.266,7.411-4.058,10.941-1.62c0.629,0.434,1.873,1.793,2.088,2.869
		c-0.823,0.621-1.347,2.016-1.389,3.142c-0.025,0.686,0.114,1.409,0.315,2.004c0.386,1.145,0.716,1.008,0.331,1.51
		c-0.659,0.858-1.344,1.541-2.391,2.127c-0.887,0.496-1.762,0.886-2.753,1.156c-0.079,0.021-0.136,0.031-0.211,0.06l-0.199,0.101
		c1.313,0.094,3.306-0.318,4.51-0.915L25.707,28.558z M30.362,20.884c0.697-1.896,3.378-3.884,5.703-3.98
		c-0.886,1.275-0.915,1.289-1.276,3.101c-0.213,1.064-0.466,2.671-1.143,3.242c-0.323-0.191-1.095-1.066-1.74-1.428
		c0.209-0.588,0.818-1.557,1.152-2.061c0.69-1.04,0.757-0.998,1.455-1.751c-0.706,0.251-1.434,0.949-1.824,1.448
		c-0.982,1.259-0.679,1.072-1.278,2.003L30.362,20.884z M7.568,28.229c0,4.106,1.318,8.258,3.795,11.301l0.735,0.881
		c1.1,1.112,2.507,2.409,4.256,1.861c0.424-0.132,0.728-0.339,1.003-0.615c0.704-0.709,0.449-0.578,0.722-0.893l0.413,1.138
		c0.12,0.361,0.268,0.734,0.424,1.126c0.302,0.76,0.876,1.308,1.792,1.308c0.767,0,0.551-0.445,1.032-0.233
		c1.378,0.609,2.693,0.111,2.878-0.576c0.367,0.031,0.183,0.067,0.809,0.067c1.044,0,2.224-0.789,2.224-1.82
		c0.936-0.02,1.36-1.409,0.698-2.785l-1.506-2.74c1.056,0.707,3.454,0.878,3.706-0.068c0.261,0.061,0.29,0.123,0.499,0.242
		c0.145,0.082,0.412,0.189,0.569,0.24c0.943,0.303,2.344,0.218,3.062-0.462c0.181-0.171,0.295-0.217,0.317-0.491
		c0.492,0,0.615,0.121,1.415,0.072c1.102-0.068,2.582-0.64,2.619-1.984c0.007-0.29,0.374-0.104,0.974-0.358
		c1.954-0.827,1.767-3.287,0.972-4.25c-1.339-1.625-9.587-2.673-12.168-2.995c-0.275-0.034-0.791-0.123-1.09-0.123l0.239-0.771
		c0.107-0.248-0.032-0.083,0.182-0.222c0.155-0.101,0.839-0.336,1.061-0.355c0.077,0.333,0.261,0.739,0.405,1.011
		c2.705,0,4.619-0.857,5.594-3.301c0.838-2.105-0.025-3.056,2.048-5.701c0.228-0.291,0.328-0.289,0.511-0.635
		c-1.497-0.348-2.168-0.225-3.648,0.261c-1.165,0.383-2.234,1.146-3.108,1.945c-0.3,0.274-1.424,1.672-1.466,2.174l-1.55-0.404
		c-0.468-2.005-2.283-4.181-4.264-4.968c-1.5-0.596-1.972-0.558-3.553-0.558c-1.378,0-3.323,0.506-4.559,1.101
		c-1.249,0.6-2.529,1.29-3.51,2.285l-0.842,0.843C9.296,20.731,7.568,24.318,7.568,28.229z"/>
	<path fill="#EF5734" d="M20.118,19.317c1.789-0.388,3.197,0.894,3.488,2.306c0.371,1.806-0.904,3.199-2.306,3.488
		C17.499,25.893,16.231,20.16,20.118,19.317z M10.051,33.299c1.37,0.603,3.176,0.854,4.772,0.366
		c0.177-0.053,0.325-0.105,0.491-0.181c1.003-0.456,0.097-0.373,1.554-0.064c2.583,0.549,4.518-0.012,6.413-1.605
		c0.779-0.656,1.92-1.989,2.426-3.256l-1.112,0.66c-1.204,0.597-3.197,1.009-4.51,0.915l0.199-0.101
		c0.075-0.03,0.132-0.039,0.211-0.06c0.99-0.269,1.866-0.66,2.753-1.156c1.047-0.585,1.733-1.269,2.391-2.127
		c0.386-0.502,0.055-0.365-0.331-1.51c-0.201-0.595-0.34-1.318-0.315-2.004c0.043-1.126,0.567-2.521,1.389-3.142
		c-0.215-1.076-1.459-2.435-2.088-2.869c-3.53-2.437-8.232-0.646-10.941,1.62c-2.951,2.469-4.516,6.564-4.276,10.489
		C9.152,30.502,9.533,32.382,10.051,33.299z"/>
	<path fill="#FFCC2F" d="M25.707,28.558c-0.505,1.268-1.646,2.6-2.426,3.256c-1.894,1.593-3.83,2.154-6.413,1.605
		c-1.458-0.309-0.551-0.392-1.554,0.064c-0.166,0.077-0.314,0.129-0.491,0.181c-1.596,0.488-3.402,0.237-4.772-0.366
		c0.333,1.221,2.017,3.353,3.031,4.175c0.345,0.28,0.582,0.504,0.977,0.774c0.349,0.239,0.718,0.492,1.114,0.704
		c3.337,1.783,8.151,2.46,10.263-1.21c0.32-0.556,0.629-1.315,0.719-1.979c0.053-0.385-0.065-0.45-0.147-0.778l-0.51-1.301
		c0.46,0.394,0.949,0.679,1.862,0.523c1.099-0.188,1.136-0.628,1.329-0.971l0.064-0.091c0.812,0.907,3.681-0.098,3.104-1.45
		c0.66,0.084,0.906,0.26,1.599-0.086c0.359-0.179,0.813-0.536,0.748-1.013l-5.291-0.993l1.645,0.045
		c1.072-0.022,5.805-0.274,6.53-0.525c-1.643-0.394-3.312-0.72-5.015-1.004c-1.422-0.237-3.959-0.687-5.369-0.644
		C26.377,27.906,26.049,28.198,25.707,28.558z"/>
	<path fill="#2BAF2B" d="M26.008,34.984c1.567,1.125,3.541,0.977,3.698-0.041c0.824,0.234,1.249,0.588,2.324,0.436
		c0.662-0.093,1.575-0.534,1.251-1.316c0.848,0.019,1.193,0.391,2.201-0.025c0.751-0.309,1.015-0.808,0.668-1.63
		c0.623,0.053,1.015,0.169,1.658-0.015c0.465-0.135,0.93-0.45,1.092-0.794c-0.389-0.261-3.952-0.866-4.695-1.002
		c0.065,0.477-0.389,0.833-0.748,1.013c-0.693,0.346-0.939,0.17-1.599,0.086c0.577,1.352-2.292,2.357-3.104,1.45l-0.064,0.091
		c-0.193,0.343-0.23,0.784-1.329,0.971c-0.913,0.156-1.402-0.129-1.862-0.523L26.008,34.984z"/>
	<path fill="#FFCC2F" d="M20.708,23.983c-2.359,0-2.348-3.557-0.001-3.549C23.04,20.442,23.055,23.983,20.708,23.983z
		 M20.118,19.317c-3.887,0.843-2.619,6.575,1.182,5.794c1.402-0.289,2.677-1.682,2.306-3.488
		C23.315,20.211,21.907,18.929,20.118,19.317z"/>
	<path fill="#00ACEE" d="M30.362,20.884l1.05,0.575c0.6-0.931,0.296-0.744,1.278-2.003c0.389-0.499,1.118-1.197,1.824-1.448
		c-0.699,0.753-0.765,0.711-1.455,1.751c-0.334,0.504-0.943,1.473-1.152,2.061c0.644,0.362,1.416,1.237,1.74,1.428
		c0.676-0.571,0.93-2.178,1.143-3.242c0.361-1.812,0.389-1.826,1.276-3.101C33.74,16.999,31.058,18.988,30.362,20.884z"/>
	<path fill="#CECECE" d="M26.225,24.948c0.47-0.15,1.302-0.729,2.139-0.99c0.747-0.233,0.583-0.117,0.567-0.531
		c-0.825,0.15-2.185,0.757-2.974-0.049c2.649,0.355,2.009-0.427,3.712-0.497c0.485-0.02,0.981,0.055,1.432,0.145
		c0.396,0.078,0.915,0.279,1.233,0.318l-1.046-0.842C30.09,21.67,28.47,20.9,26.908,20.9c-0.405,0-0.831,1.253-0.925,1.752
		C25.779,23.723,26.023,24.056,26.225,24.948z"/>
	<path fill="#543629" d="M20.224,20.854c0.439-0.151,1.077-0.073,1.363,0.228c0.401,0.42-0.049,0.815-0.429,0.929
		C19.968,22.366,19.012,21.272,20.224,20.854z M20.708,23.983c2.346,0,2.332-3.541-0.001-3.549
		C18.36,20.426,18.349,23.983,20.708,23.983z"/>
	<path fill="#2BAF2B" d="M30.559,29.648c0.433,0.15,3.56,0.334,4.297,0.404c1.445,0.137,2.88,0.353,4.316,0.485
		c-0.165-1.006-1.049-1.217-2.083-1.414C36.364,29.375,31.63,29.626,30.559,29.648z"/>
	<path fill="#00ACEE" d="M30.278,24.724c0.909-0.03,2.049-0.289,2.599-0.758c-0.356-0.209-1.32-0.423-1.783-0.505
		c-0.025,0.051-0.066,0.151-0.105,0.221l-0.201,0.263l0.027-0.551l-0.974-0.136C29.847,23.675,29.967,24.564,30.278,24.724z"/>
	<path fill="#FFFFFF" d="M20.224,20.854c-1.212,0.418-0.256,1.512,0.935,1.157c0.38-0.113,0.83-0.509,0.429-0.929
		C21.301,20.781,20.663,20.703,20.224,20.854z"/>
</g>
<g id="_877952920640">
	<path fill="#4D9906" d="M62.968,21.494c3.803,0,2.81-1.583,2.81,12.995c0,3.674-5.708,4.22-5.971,1.054
		c1.693-0.7,3.161,0.83,3.161-2.81c0-2.084-5.268-3.383-5.268,1.756c0,5.505,11.476,6.845,12.259-0.736
		c0.339-3.287,0.034-8.423,0.034-11.908c0.857-0.482,0.649-0.351,2.107-0.351v-1.405h-9.132V21.494z"/>
	<path fill="#CC0000" d="M70.696,23.25c1.544,0.034,1.094,0.237,2.458,0.351c0,6.72-2.374,15.454,6.322,15.454
		c7.972,0,6.698-7.049,6.659-11.957c-0.024-2.991,0.025-3.278,2.473-3.848v-1.054c-2.075,0-5.191-0.36-6.672,0.352
		c0.622,2.33,2.458-0.282,2.458,3.161c0,8.669,1.042,11.239-4.566,11.239c-4.284,0-3.161-7.275-3.161-12.293
		c0-1.38,1.041-1.405,2.459-1.405v-1.054h-8.429L70.696,23.25L70.696,23.25z"/>
	<path fill="#CC0000" d="M88.257,37.65c-1.631,0.136-0.615-0.377-1.405,0.702c1.17,0.562,2.866,0.352,4.566,0.352
		c-0.338-1.266-0.032-0.94-1.405-1.054c0-2.645-0.552-5.97,2.107-5.97c2.122,0,1.406,3.91,1.406,5.97
		c-1.631,0.136-0.615-0.377-1.406,0.702c1.005,0.565,1.775,0.352,3.513,0.352c1.343,0,0.127,0.107,1.054-0.352
		c-0.791-1.079,0.225-0.567-1.406-0.702c0-4.413,0.395-7.024-2.809-7.024c-1.302,0-1.586,0.342-2.108,1.054
		c-0.767-0.563-0.044-0.171-0.527-0.528c-1.023-0.757-1.321-0.526-2.985-0.526c0.372,0.922,0.438,0.181,1.052,1.055
		c0.269,0.385,0.169,0.018,0.331,0.724L88.257,37.65z"/>
	<path fill="#CC0000" d="M102.306,30.976c0.376,0.93-0.722,0.655,1.405,0.704c0,4.407-0.676,7.024,2.459,7.024
		c1.721,0,2.108-1.737,2.108-3.161h-0.702c-0.038,1.677-0.15,1.974-1.756,2.107c-0.69-1.229-0.352-4.434-0.352-5.97h2.459v-1.054
		h-2.459c0-2.898,0.191-2.068-0.351-3.161c-1.482,1.086-0.17,0.6-0.963,2.198C103.697,30.58,103.182,30.514,102.306,30.976z"/>
	<path fill="#CC0000" d="M98.794,32.03v5.619H97.39v1.054h4.565c-0.337-1.266-0.032-0.94-1.405-1.054
		c0-8.278,0.689-7.024-3.513-7.024C97.475,32.262,97.289,31.308,98.794,32.03z"/>
	<path fill="#CC0000" d="M98.443,26.411c0.039,1.777,0.012,1.756,1.404,1.756c0.447-0.933,0.321-0.377,0.352-1.756
		C99.285,26.217,99.365,26.079,98.443,26.411z"/>
</g>
<path fill="#4E8EF7" d="M162.102,16.547c0.428-0.516,0.687-1.178,0.687-1.901c0-1.644-1.334-2.978-2.978-2.978
	c-0.723,0-1.386,0.258-1.902,0.687c-3.592-2.716-8.065-4.327-12.915-4.327c-11.838,0-21.435,9.597-21.435,21.435
	s9.597,21.435,21.435,21.435s21.435-9.597,21.435-21.435C166.43,24.612,164.818,20.139,162.102,16.547z M144.995,49.916
	c-11.297,0-20.453-9.157-20.453-20.453s9.157-20.454,20.453-20.454c4.604,0,8.853,1.522,12.271,4.09
	c-0.274,0.451-0.433,0.981-0.433,1.547c0,1.644,1.334,2.978,2.978,2.978c0.566,0,1.096-0.159,1.547-0.433
	c2.568,3.418,4.091,7.667,4.091,12.273C165.449,40.76,156.291,49.916,144.995,49.916z"/>
<circle fill="#4E8EF7" cx="144.995" cy="29.463" r="8.652"/>
<path fill="#201E1E" d="M198.994,45.663c-2.958,0.436-5.269,0.257-6.835-1.612c-0.75-0.893-1.16-2.927-2.702-4
	c-0.544-0.379-1.062-0.504-1.124-1.187c0.784-0.744,2.298-0.034,2.933,0.415c1.716,1.213,1.758,3.185,4.267,3.8
	c1.118,0.275,2.537,0.007,3.455-0.434c0.119-0.204,1.203-2.543,1.403-2.981c-8.472-0.771-13.622-9.702-7.688-16.635
	c-0.432-1.853-0.774-4.099,0.273-5.835c1.825-0.208,4.096,1.053,5.314,1.81c0.505,0.314,0.49,0.506,1.188,0.325
	c2.655-0.688,5.618-0.791,8.313-0.348c2.361,0.386,1.8,0.712,2.794,0.066c1.171-0.76,3.554-2.061,5.375-1.853
	c0.415,0.705,0.629,1.881,0.686,2.781c0.086,1.371-0.143,1.903-0.411,3.053c1.277,1.499,2.001,2.802,2.205,4.968
	c0.667,7.062-3.036,10.783-9.901,11.662c0.852,1.72,1.367,1.592,1.402,4.028c0.097,6.598-0.984,8.349,3.408,6.359
	c12.749-5.777,17.354-21.893,8.692-33.198c-2.813-3.669-7.455-7.416-14.031-8.445c-13.336-2.087-24.029,7.559-25.369,19.073
	c-0.412,3.544,0.057,6.732,1.106,9.818c1.781,5.24,5.682,9.5,10.498,12.11c0.712,0.385,3.255,1.671,4.136,1.332
	C199.423,50.332,199.011,46.721,198.994,45.663z"/>
<g id="_877952924480">
	<path fill="#6CB33F" d="M160.137,84.879c-0.462,0.456-1.427,2.732-2.527,4.302c-0.934,1.329-1.993,2.473-3.094,3.507
		c-5.554,5.212-10.77,6.441-18.219,8.17c-2.55,0.593-3.322,0.621-4.572-1.101c-2.995-4.124-1.48-10.526,2.87-13.791
		c3.212-2.41,5.972-2.37,10.526-2.695c6.411-0.457,12.768-3.066,16.22-8.539l0.844-0.924c0.297,1.603,0.969,3.304,1.387,4.99
		c1.347,5.445,2.265,11.554,0.378,16.903c-3.206,9.085-13.434,8.74-22.378,8.262c-1.551-0.083-2.652,0.116-4.038,0.131
		c5.655-2.324,9.006-2.083,14.378-6.517C155.005,95.026,159.883,89.35,160.137,84.879z M131.347,105.958
		c0.207,0.376,0.31,0.514,0.682,0.809c3.884,3.085,9.814,4.799,14.921,4.232c6.207-0.688,10.955-3.797,13.726-7.158
		c0.456-0.552,0.834-0.814,1.271-1.401c5.096-6.844,4.754-15.389,2.787-23.39c-0.341-1.388-0.699-2.671-1.132-4.036
		c-0.217-0.683-0.929-3.298-1.387-3.816l-2.094,3.542c-2.004-0.696-5.689-6.318-15.705-6.043
		c-17.436,0.479-24.871,18.954-18.389,31.056c0.897,1.676,3.559,5.27,4.754,5.795c-1.672-4.289,4.315-3.293,2.869-0.38
		C133.225,106.024,132.588,106.066,131.347,105.958z"/>
	<path fill="#FEFEFE" d="M160.137,84.879c-0.254,4.471-5.132,10.147-8.224,12.699c-5.373,4.433-8.724,4.192-14.378,6.517
		c1.386-0.015,2.487-0.214,4.038-0.131c8.944,0.478,19.173,0.823,22.378-8.262c1.887-5.349,0.969-11.458-0.378-16.903
		c-0.418-1.687-1.089-3.387-1.387-4.99l-0.844,0.924c-3.452,5.473-9.809,8.082-16.22,8.539c-4.554,0.325-7.314,0.285-10.526,2.695
		c-4.351,3.265-5.865,9.667-2.87,13.791c1.251,1.722,2.023,1.694,4.572,1.101c7.449-1.729,12.664-2.958,18.219-8.17
		c1.101-1.034,2.16-2.178,3.094-3.507C158.71,87.611,159.675,85.334,160.137,84.879z"/>
</g>
<path d="M249.349,89.703c3.445,1.296,5.681,0.009,8.052-1.729l0.036,1.707l2.162,0.009l-0.002-18.122h-2.181
	c-0.06,2.311,0.143,10.659-0.076,11.992c-0.913,5.562-8.45,5.904-10.242,1.224c-1.212-3.167,0.477-6.807,3.929-7.406
	c2.545-0.443,3.483,0.706,4.746,1.364l0.723-2.14c-0.247-0.205-0.037-0.043-0.352-0.253c-3.723-2.492-9.053-1.198-11.108,3.43
	C243.364,83.545,245.442,88.235,249.349,89.703z M284.087,72.377c0.06,0.83,0.062,0.727,0.935,0.727h4.728
	c0.738,0,0.829,0.04,0.905-0.652C289.979,72.085,285.224,72.238,284.087,72.377z M264.916,72.809
	c0.633,0.499,4.544,0.237,5.54,0.237c1.222,0,0.9-0.144,1.04-0.412c-0.21-0.445-0.138-0.412-0.811-0.412h-5.262
	C264.929,72.223,264.971,72.295,264.916,72.809z M276.751,74.542l0.646-0.006l0.915,0.001l0.63,0.003v-2.735l-2.19,0.001v2.736
	H276.751z M276.369,94.75h0.037l1.258-1.565c0.454-0.647,0.681-1.051,0.929-1.815c0.608-1.872,0.493-14.038,0.307-15.791
	l-2.106-0.006c-0.298,2.62-0.043,6.92-0.043,9.721c0,3.093,0.526,5.028-1.275,7.231c-0.325,0.397-0.32,0.241-0.591,0.7
	c0.198,0.387,0.053,0.163,0.348,0.485L276.369,94.75z M285.99,77.489c3.457-0.943,5.99,1.38,6.594,3.903
	c0.759,3.164-1.271,5.821-3.796,6.447C281.765,89.576,279.122,79.36,285.99,77.489z M294.565,80.328
	c-2.631-7.979-14.679-6.338-14.769,2.219c-0.062,5.847,6.74,10.348,12.554,5.8C294.552,86.623,295.427,82.944,294.565,80.328z
	 M266.781,77.493c3.352-0.916,6.019,1.317,6.599,3.887c1.604,7.122-8.719,9.203-10.438,2.661
	C262.189,81.182,263.711,78.331,266.781,77.493z M275.646,83.616c0.711-4.385-2.743-7.908-6.446-8.431
	c-4.52-0.637-7.954,2.627-8.531,6.328c-0.696,4.474,2.647,8.072,6.405,8.612C271.714,90.792,275.015,87.506,275.646,83.616z"/>
<g id="_877952925280">
	<path fill="#FE6600" d="M275.389,24.309h2.754v6.759h4.339v2.17h-7.092L275.389,24.309L275.389,24.309z M265.878,33.238h-2.247
		l-0.006-8.929h3.672c0.061,0.742,1.32,4.748,1.335,5.424l0.383-1.284c0.129-0.513,0.245-0.922,0.368-1.384l0.667-2.755h3.672v8.929
		h-2.256l-0.133-6.311l-1.616,6.311h-2.087l-1.752-6.676L265.878,33.238L265.878,33.238z M253.195,24.309h3.004l1.585,2.67
		c0.306-0.082,0.578-0.774,0.882-1.287c0.279-0.471,0.546-0.929,0.786-1.383h3.005l-2.754,4.339l3.004,4.59h-3.109
		c-0.263-0.421-1.572-2.659-1.814-2.837c-0.245,0.464-0.557,0.948-0.85,1.402c-0.315,0.486-0.59,0.97-0.902,1.435h-3.088
		l2.303-3.456c0.279-0.419,0.558-0.792,0.784-1.217C255.081,27.15,254.14,25.728,253.195,24.309z M244.035,21.932l-0.003,15.079
		l-0.027,0.451l0.529,0.026l45.105,0.001l0.6,0.004l-0.005-0.541l-0.003-15.062l0.02-0.489l-0.602-0.014l-45.09,0.019l-0.539-0.015
		L244.035,21.932z"/>
	<path fill="#FEFEFE" d="M265.878,26.562l1.752,6.676h2.087l1.616-6.311l0.133,6.311h2.256v-8.929h-3.672l-0.667,2.755
		c-0.123,0.463-0.24,0.871-0.368,1.384l-0.383,1.284c-0.015-0.675-1.274-4.681-1.335-5.424h-3.672l0.006,8.929h2.247L265.878,26.562
		L265.878,26.562z"/>
	<polygon fill="#FF8D41" points="244.557,21.407 289.648,21.388 289.665,20.304 244.531,20.304 	"/>
	<path fill="#FEFEFE" d="M253.195,24.309c0.944,1.419,1.886,2.841,2.836,4.256c-0.226,0.425-0.504,0.798-0.784,1.217l-2.303,3.456
		h3.088c0.312-0.465,0.586-0.949,0.902-1.435c0.293-0.454,0.604-0.938,0.85-1.402c0.242,0.178,1.551,2.416,1.814,2.837h3.109
		l-3.004-4.59l2.754-4.339h-3.005c-0.24,0.454-0.508,0.912-0.786,1.383c-0.303,0.512-0.576,1.205-0.882,1.287l-1.585-2.67
		C256.199,24.309,253.195,24.309,253.195,24.309z"/>
	<polygon fill="#A54200" points="244.518,38.576 289.668,38.576 289.638,37.489 244.533,37.488 	"/>
	<polygon fill="#FEFEFE" points="275.389,33.238 282.481,33.238 282.481,31.067 278.142,31.067 278.142,24.309 275.389,24.309 	"/>
	<polygon fill="#FF8D41" points="242.933,37.014 244.032,37.011 244.035,21.932 242.933,21.908 	"/>
	<polygon fill="#A54200" points="290.233,36.952 291.325,36.991 291.325,21.876 290.23,21.891 	"/>
	<polygon fill="#813400" points="289.638,37.489 289.668,38.576 291.325,38.576 291.325,36.991 290.233,36.952 290.238,37.493 	"/>
	<polygon fill="#FFB07C" points="242.933,21.908 244.035,21.932 244.018,21.391 244.557,21.407 244.531,20.304 242.933,20.304 	"/>
	<path fill="#DD5D07" d="M290.249,21.402l-0.02,0.489l1.095-0.014v-1.572h-0.565v0.418l-0.26,0.103
		c-0.036,0.007-0.158,0.003-0.196,0.003L290.249,21.402z"/>
	<polygon fill="#F3721D" points="242.933,38.576 243.405,38.576 243.405,37.958 243.95,37.958 244.004,37.462 244.032,37.011 
		242.933,37.014 	"/>
	<polygon fill="#DD5D07" points="243.405,38.576 244.518,38.576 244.533,37.488 244.004,37.462 243.95,37.958 243.405,37.958 	"/>
	<path fill="#F3721D" d="M289.648,21.388l0.602,0.014l0.055-0.574c0.038,0,0.16,0.004,0.196-0.003l0.26-0.103v-0.418h-1.094
		L289.648,21.388z"/>
</g>
<path fill="#201E1E" d="M339.105,65.686h-22.107l-9.267,14.939l3.786,23.743h6.298l-0.279-5.476h3.391l0.361,5.476h13.597
	l0.341-5.466l3.317-0.003l-0.316,5.47h6.506l3.588-23.783L339.105,65.686z M339.281,95.216h-22.365l-1.802-14.593l3.824-7.538
	l5.904,0.008l-0.355,2.725l7.197,0.015l-0.308-2.75l6.001,0.005l3.751,7.556L339.281,95.216z"/>
<ellipse fill="#201E1E" cx="322.444" cy="86.809" rx="0.939" ry="3.392"/>
<ellipse fill="#201E1E" cx="334.194" cy="86.809" rx="0.938" ry="3.392"/>
<g id="_877952861600">
	<path fill="#003665" d="M65.963,77.382c-0.29,0.7-0.413,0.994-0.703,1.694c-1.071-0.573-4-1.694-4.875,0.248
		c-0.908,1.867,2.605,2.288,4.218,3.635c1.043,0.871,1.616,1.895,1.578,3.032c0.001,4.232-5.292,4.837-8.327,2.718
		c0.208-0.567,0.49-1.021,0.698-1.588c1.833,0.975,4.976,1.542,5.357-0.858c0.547-2.99-6.429-2.01-5.996-6.782
		c0.611-1.887,1.85-3.103,4.232-3.096C63.776,76.376,64.919,76.987,65.963,77.382z M106.956,80.808l-0.569,1.383
		c-0.867-0.423-3.519-0.915-3.966,0.524c-0.31,1.335,1.828,0.824,3.507,2.176c0.827,0.666,1.256,1.329,1.225,2.172
		c-0.093,3.379-4.64,3.461-6.967,1.56c0.167-0.42,0.396-0.758,0.564-1.177c1.484,0.722,4.048,1.389,4.336-0.241
		c0.356-2.089-5.067-0.823-4.646-4.596c0.072-1.32,1.498-2.605,3.425-2.6C105.186,80.003,106.226,80.447,106.956,80.808z
		 M93.898,77.708l2.489-0.306v2.773h2.697l-0.498,1.598h-2.178c0,2.006,0,4.013,0,6.019c0.395,0.395,1.641,0.054,2.261-0.394
		c0.187,0.631,0.293,1.201,0.479,1.833c-0.886,0.433-2.071,0.688-2.957,0.634c-0.786,0-2.161-0.708-2.212-2.073v-6.038h-1.783
		v-1.559h1.68L93.898,77.708z M85.229,79.873l-2.482,0.854l0.006,7.658c0.549,1.975,4.467,1.331,5.663,0.315l0.426,1.09
		c0.715-0.067,1.387-0.267,1.991-0.676l-0.365-0.7l-0.06-8.472l-2.283,0.588v6.946c-0.498,0.541-2.472,0.694-2.946,0.188
		L85.229,79.873z M75.397,80.795c0.315,0.465,0.326,0.996,0.333,1.595v7.302h2.407c0-2.29,0-4.303,0-6.592
		c0.051-0.535,1.476-1.334,2.448-0.869c0.48-0.974,0.556-1.242,0.81-1.885c-1.155-0.865-2.369-0.263-3.756,1.292
		c-0.022-0.649-0.149-1.22-0.55-1.697C76.576,80.205,75.909,80.532,75.397,80.795z M68.733,77.687l2.489-0.306v2.772h2.697
		l-0.498,1.599h-2.179c0,2.006,0,4.013,0,6.019c0.397,0.395,1.642,0.053,2.261-0.395c0.188,0.631,0.294,1.202,0.48,1.833
		c-0.888,0.433-2.073,0.688-2.957,0.634c-0.786,0-2.161-0.708-2.212-2.071v-6.039h-1.785v-1.559h1.681L68.733,77.687z"/>
	<path fill="#ED3237" d="M107.256,78.311v0.7h-2.651c0.028-0.267,0.115-0.518,0.259-0.757c0.143-0.237,0.427-0.554,0.85-0.948
		c0.34-0.318,0.549-0.533,0.625-0.646c0.104-0.157,0.156-0.31,0.156-0.464c0-0.169-0.045-0.299-0.136-0.39
		c-0.09-0.091-0.215-0.135-0.373-0.135c-0.158,0-0.283,0.047-0.377,0.143c-0.093,0.095-0.146,0.253-0.162,0.473l-0.754-0.074
		c0.045-0.418,0.186-0.716,0.423-0.898c0.237-0.181,0.532-0.273,0.888-0.273c0.39,0,0.695,0.106,0.918,0.316
		s0.334,0.472,0.334,0.785c0,0.178-0.033,0.347-0.096,0.509c-0.064,0.162-0.164,0.329-0.303,0.505
		c-0.091,0.118-0.257,0.285-0.496,0.505c-0.239,0.22-0.392,0.365-0.454,0.438c-0.065,0.071-0.116,0.141-0.156,0.21h1.505
		L107.256,78.311L107.256,78.311z"/>
</g>
<path fill="#009933" d="M37.163,181.851h0.97c0.935,0.212,0.693,1.564,0,1.73h-0.97V181.851z"/>
<path fill="#009933" d="M38.133,184.54c0.916,0.224,0.932,1.835,0,2.048h-0.97v-2.048H38.133z"/>
</svg>
