<?xml version="1.0" encoding="utf-8"?>
<!-- Generator: Adobe Illustrator 17.0.0, SVG Export Plug-In . SVG Version: 6.00 Build 0)  -->
<!DOCTYPE svg PUBLIC "-//W3C//DTD SVG 1.1//EN" "http://www.w3.org/Graphics/SVG/1.1/DTD/svg11.dtd">
<svg version="1.1" id="Capa_1" xmlns="http://www.w3.org/2000/svg" xmlns:xlink="http://www.w3.org/1999/xlink" x="0px" y="0px"
	 width="400px" height="290px" viewBox="0 0 400 290" enable-background="new 0 0 400 290" xml:space="preserve">
<polygon fill="#0097A7" points="0,0.001 0,0.001 0,0.001 399.993,0.001 399.993,0.001 400,0.001 399.993,0.009 399.993,289.999 
	0,289.999 0,289.991 0,289.999 "/>
<path fill="#FFFFFF" d="M271.893,86.239l-35.959-36.505l-90.892,0.05c-4.309,0.359-8.273,2.269-11.498,5.501
	c-2.04,2.463-4.955,5.817-5.415,12.116c-0.022,0.208-0.014,0.409-0.014,0.618c0.007,0.208,0.014,0.417,0.014,0.625v145.76
	c0,5.911,3.21,10.65,5.882,13.035c3.541,3.052,7.268,4.654,11.958,4.654c35.205,0,70.41,0.05,105.607,0.05
	c6.851,0,9.975-1.049,14.349-4.603c2.19-1.961,5.903-6.284,5.911-11.936L271.893,86.239z M182.897,194.367l-25.588-25.976
	l25.567-25.962l8.532,8.661l-17.078,17.337l17.057,17.322L182.897,194.367z M217.513,142.407l25.581,25.976l-25.588,25.983
	l-8.532-8.654l17.064-17.329l-17.057-17.322L217.513,142.407z M253.931,104.495l0.043,109.536l-107.891-0.007l-0.079-146.112
	l71.774,0.093l0.122,36.497L253.931,104.495z"/>
</svg>
