<?xml version="1.0" encoding="utf-8"?>
<!-- Generator: Adobe Illustrator 17.0.0, SVG Export Plug-In . SVG Version: 6.00 Build 0)  -->
<!DOCTYPE svg PUBLIC "-//W3C//DTD SVG 1.1//EN" "http://www.w3.org/Graphics/SVG/1.1/DTD/svg11.dtd">
<svg version="1.1" id="Capa_1" xmlns="http://www.w3.org/2000/svg" xmlns:xlink="http://www.w3.org/1999/xlink" x="0px" y="0px"
	 width="400px" height="290px" viewBox="0 0 400 290" enable-background="new 0 0 400 290" xml:space="preserve">
<polygon fill="#0097A7" points="0,0.001 0,0.001 0,0.001 399.993,0.001 399.993,0.001 400,0.001 399.993,0.009 399.993,289.999 
	0,289.999 0,289.991 0,289.999 "/>
<path fill="#FEFEFE" d="M225.329,58.326L281.9,91.497c2.91,1.739,4.225,4.462,4.275,7.968v20.225
	c10.382,4.584,17.638,15.023,17.638,27.179s-7.256,22.603-17.638,27.179v20.763c-0.036,3.427-1.703,5.949-4.67,7.738l-56.169,32.934
	c0.007,0.237,0.014,0.474,0.014,0.711c0,16.374-13.176,29.651-29.421,29.651c-16.251,0-29.421-13.277-29.421-29.651
	c0-0.237,0-0.474,0.007-0.711l-56.564-33.164c-2.91-1.746-4.225-4.462-4.275-7.975v-20.26
	c-10.382-4.577-17.631-15.023-17.631-27.179s7.249-22.595,17.631-27.179V98.997c0.036-3.427,1.703-5.942,4.67-7.738l56.162-32.927
	c-0.007-0.223-0.007-0.453-0.007-0.683c0-16.381,13.169-29.658,29.421-29.658c16.244,0,29.414,13.277,29.414,29.658
	C225.336,57.88,225.336,58.103,225.329,58.326z M117.46,117.246c16.251,0,29.421,13.284,29.421,29.658
	c0,16.381-13.169,29.658-29.421,29.658c-1.473,0-2.924-0.108-4.339-0.323v14.197c0.043,3.219,1.25,5.719,3.916,7.314l50.752,29.758
	c3.686-12.142,14.886-20.972,28.142-20.972c13.248,0,24.449,8.83,28.135,20.972l50.385-29.543c2.73-1.645,4.253-3.959,4.282-7.106
	v-14.656c-1.415,0.216-2.867,0.323-4.339,0.323c-16.251,0-29.421-13.277-29.421-29.658c0-16.374,13.169-29.651,29.421-29.651
	c1.473,0,2.924,0.108,4.339,0.316V103.38c-0.043-3.219-1.243-5.719-3.916-7.321l-50.752-29.751c-3.671,12.156-14.886,21-28.142,21
	c-13.263,0-24.471-8.844-28.149-20.993L117.403,95.85c-2.723,1.645-4.253,3.951-4.282,7.098v14.628
	C114.536,117.361,115.987,117.246,117.46,117.246z"/>
</svg>
