<?xml version="1.0" encoding="utf-8"?>
<!-- Generator: Adobe Illustrator 17.0.0, SVG Export Plug-In . SVG Version: 6.00 Build 0)  -->
<!DOCTYPE svg PUBLIC "-//W3C//DTD SVG 1.1//EN" "http://www.w3.org/Graphics/SVG/1.1/DTD/svg11.dtd">
<svg version="1.1" id="Capa_1" xmlns="http://www.w3.org/2000/svg" xmlns:xlink="http://www.w3.org/1999/xlink" x="0px" y="0px"
	 width="400px" height="290px" viewBox="0 0 400 290" enable-background="new 0 0 400 290" xml:space="preserve">
<polygon fill="#0097A7" points="0,0.001 0,0.001 0,0.001 399.993,0.001 399.993,0.001 400,0.001 399.993,0.009 399.993,289.999 
	0,289.999 0,289.991 0,289.999 "/>
<path fill="#FEFEFE" d="M206.726,47.853h6.55h50.854v195.795c-51.163,0-101.851,0-153.021,0V47.853h50.854l0,0H206.726z
	 M168.512,67.236v40.613h38.214V67.236H168.512z M235.661,127.197c5.207,0,9.422,4.381,9.422,9.781c0,5.408-4.216,9.781-9.422,9.781
	c-5.2,0-9.415-4.374-9.415-9.781C226.246,131.577,230.461,127.197,235.661,127.197z M235.661,205.054
	c5.207,0,9.422,4.381,9.422,9.781s-4.216,9.781-9.422,9.781c-5.2,0-9.415-4.381-9.415-9.781S230.461,205.054,235.661,205.054z
	 M235.661,166.035c5.207,0,9.422,4.381,9.422,9.781s-4.216,9.781-9.422,9.781c-5.2,0-9.415-4.381-9.415-9.781
	S230.461,166.035,235.661,166.035z M168.512,127.232v19.527h38.214v-19.527H168.512z M168.512,166.15v19.211h38.214V166.15H168.512z
	 M168.512,204.752v19.685h38.214v-19.685H168.512z"/>
</svg>
