<?xml version="1.0" encoding="utf-8"?>
<!-- Generator: Adobe Illustrator 17.0.0, SVG Export Plug-In . SVG Version: 6.00 Build 0)  -->
<!DOCTYPE svg PUBLIC "-//W3C//DTD SVG 1.1//EN" "http://www.w3.org/Graphics/SVG/1.1/DTD/svg11.dtd">
<svg version="1.1" id="Capa_1" xmlns="http://www.w3.org/2000/svg" xmlns:xlink="http://www.w3.org/1999/xlink" x="0px" y="0px"
	 width="400px" height="290px" viewBox="0 0 400 290" enable-background="new 0 0 400 290" xml:space="preserve">
<polygon fill="#0097A7" points="0,0.001 0,0.001 0,0.001 399.993,0.001 399.993,0.001 400,0.001 399.993,0.009 399.993,289.999 
	0,289.999 0,289.991 0,289.999 "/>
<path fill="#FFFFFF" d="M281.796,224.983v0.467l-0.014-0.481L281.796,224.983z M282.098,201.865
	c0.122,6.88,0.079,15.082-0.84,18.888l-0.517,0.596l-0.531,0.589l-0.567,0.582l-0.596,0.589l-0.61,0.575l-0.646,0.56l-0.668,0.567
	l-0.689,0.56l-0.718,0.539l-0.733,0.553l-0.754,0.531h-0.014l-0.783,0.524l-0.804,0.531l-0.826,0.517h-0.007l-0.847,0.503
	l-0.876,0.51l-0.891,0.488l-0.919,0.488l-0.941,0.481l-0.948,0.467h-0.007l-0.977,0.46l-0.998,0.46l-1.013,0.452l-1.041,0.438
	l-1.056,0.431l-1.077,0.417l-1.092,0.417l-1.113,0.409h-0.007l-1.12,0.395l-1.156,0.388l-1.163,0.381l-1.178,0.366h-0.014
	l-1.185,0.359h-0.014l-1.207,0.352l-1.235,0.338l-1.242,0.33l-1.271,0.323l-1.278,0.309l-1.286,0.302l-1.314,0.287l-1.321,0.28
	l-1.336,0.266l-1.35,0.266h-0.007l-1.357,0.244l-1.386,0.237l-1.386,0.23l-1.408,0.208l-1.415,0.208l-1.422,0.194l-1.436,0.187
	h-0.014l-1.451,0.158l-1.458,0.165l-1.472,0.144h-0.007l-1.472,0.144h-0.014l-1.479,0.115h-0.014l-1.487,0.108h-0.014l-1.508,0.093
	H219.1l-1.515,0.079l-1.53,0.086h-0.014l-1.537,0.057l-1.551,0.043l-1.551,0.036h-0.007l-1.558,0.014l-1.58,0.007h-1.436
	l-1.422-0.022l-1.415-0.022l-1.415-0.05l-1.415-0.043l-1.393-0.057l-1.393-0.072h-0.007l-1.379-0.079l-1.372-0.093h-0.014
	l-1.35-0.101h-0.014l-1.35-0.115h-0.007l-1.35-0.115l-1.343-0.136l-1.321-0.144h-0.014l-1.314-0.144h-0.007l-1.314-0.165l-1.3-0.172
	h-0.014l-1.286-0.18l-1.286-0.187h-0.007l-1.271-0.194l-1.264-0.208l-1.257-0.215l-1.235-0.23h-0.007l-1.221-0.23h-0.014
	l-1.207-0.251l-1.214-0.259l-1.199-0.251l-1.178-0.273h-0.014l-1.163-0.28l-1.156-0.287h-0.007l-1.142-0.287l-1.135-0.309
	l-1.12-0.309l-1.106-0.323l-1.099-0.323l-1.077-0.33l-1.063-0.345l-1.049-0.345l-1.041-0.359l-1.02-0.366l-1.005-0.366l-0.998-0.381
	l-0.97-0.388l-0.962-0.395l-0.941-0.402l-0.926-0.402l-0.919-0.409l-0.891-0.424l-0.883-0.431l-0.862-0.431l-0.833-0.438h-0.014
	l-0.826-0.452l-0.804-0.445l-0.79-0.46l-0.768-0.474l-0.761-0.452l-0.733-0.488l-0.725-0.481l-0.689-0.481l-0.682-0.496
	l-0.668-0.496l-0.632-0.503l-0.625-0.51l-0.596-0.51c-0.043,0.46-0.079,0.905-0.093,1.365V190.95l0.014-0.381l0.007-0.381
	l0.036-0.381l0.036-0.366l0.316,0.28l0.28,0.237l0.036,0.022l0.33,0.266l0.259,0.223l0.072,0.057l0.338,0.259l0.223,0.187
	l0.115,0.079l0.338,0.251l0.215,0.165l0.136,0.101l0.366,0.266l0.18,0.129l0.18,0.122l0.373,0.259l0.136,0.101l0.237,0.158
	l0.373,0.251l0.115,0.072l0.273,0.172l0.395,0.251l0.065,0.05l0.316,0.208l0.409,0.237l0.036,0.022l0.373,0.23l0.395,0.244h0.007
	l0.409,0.244l0.373,0.201l0.057,0.036l0.417,0.244l0.33,0.18l0.101,0.05l0.445,0.237l0.28,0.151l0.151,0.079l0.452,0.23l0.244,0.136
	l0.194,0.093l0.452,0.23l0.215,0.108l0.251,0.122l0.46,0.223l0.172,0.086l0.294,0.144l0.474,0.215l0.122,0.057l0.352,0.158
	l0.488,0.223l0.079,0.036l0.409,0.18l0.481,0.208l0.036,0.022l0.467,0.194l0.474,0.201l0.022,0.007l0.51,0.208l0.431,0.187
	l0.079,0.022l0.51,0.208l0.381,0.144l0.136,0.05l0.524,0.208l0.338,0.122l0.194,0.072l0.517,0.194l0.294,0.115l0.251,0.079
	l0.531,0.194l0.237,0.086l0.302,0.101l0.56,0.194l0.18,0.057l0.359,0.129l0.553,0.18l0.136,0.05l0.431,0.136l0.553,0.172
	l0.079,0.036l0.503,0.151l0.56,0.172l0.014,0.007l0.567,0.165l0.531,0.158l0.043,0.014l0.582,0.172l0.481,0.136l0.101,0.022
	l0.589,0.172l0.431,0.115l0.172,0.043l0.589,0.165l0.373,0.093l0.237,0.057l0.596,0.158c11.591,2.966,25.143,4.654,39.657,4.654
	c16.511,0,31.808-2.205,44.39-5.961l0.61-0.187l0.101-0.036l0.503-0.151l0.61-0.194l0.079-0.022l0.51-0.158l0.596-0.201l0.057-0.022
	l0.531-0.172l0.575-0.194l0.05-0.014l0.531-0.194l0.575-0.194l0.014-0.014l0.553-0.194l0.567-0.208l0.56-0.215l0.531-0.194
	l0.029-0.014l0.539-0.215l0.51-0.194l0.036-0.029l0.546-0.215l0.474-0.194l0.065-0.022l0.524-0.223l0.452-0.194l0.079-0.036
	l0.517-0.23l0.417-0.18l0.093-0.05l0.51-0.23l0.395-0.172l0.115-0.057l0.496-0.237l0.366-0.172l0.136-0.057l0.481-0.244l0.338-0.172
	l0.151-0.072l0.474-0.237l0.316-0.172l0.158-0.079l0.467-0.244l0.294-0.158l0.172-0.093l0.452-0.251l0.266-0.151l0.187-0.108
	l0.452-0.251l0.237-0.144l0.201-0.122l0.431-0.251l0.215-0.136l0.215-0.122l0.417-0.266l0.201-0.129l0.215-0.136l0.409-0.266
	l0.18-0.115l0.23-0.151l0.395-0.273l0.158-0.115l0.237-0.151l0.388-0.273l0.144-0.108l0.237-0.172l0.373-0.273l0.122-0.108
	l0.618-0.46l0.101-0.079l0.251-0.194l0.345-0.287l0.093-0.079l0.259-0.208l0.338-0.287l0.072-0.065l0.259-0.223l0.33-0.287
	l0.057-0.057l0.259-0.23l0.302-0.294l0.05-0.05l0.259-0.237l0.309-0.302l0.029-0.043l0.546-0.553l0.022-0.036l0.79-0.876
	l0.259-0.294v-0.014v0.014l0.036,0.136v0.014l0.036,0.122v0.014l0.036,0.136v0.014l0.022,0.136v0.007l0.029,0.144l0.029,0.144
	l0.029,0.136v0.014l0.029,0.136v0.014l0.029,0.136v0.014l0.022,0.136v0.007l0.029,0.144v0.007l0.022,0.144v0.007l0.022,0.151
	l0.022,0.151l0.014,0.151l0.022,0.144l0.022,0.151l0.007,0.165l0.014,0.144l0.022,0.151l0.014,0.165l0.007,0.144l0.014,0.151
	l0.014,0.165v0.144l0.007,0.165l0.014,0.158v0.151l0.007,0.158v0.165v0.144v0.165v0.158v0.172v0.014l0.014,0.194v0.014v0.194v0.036
	v0.201l0.007,0.05v0.208v0.065l0.014,0.208v0.093v0.194l0.014,0.115v0.187l0.007,0.144v0.172v0.172l0.014,0.172v0.208l0.007,0.144
	v0.237l0.014,0.129l0.014,0.273v0.101l0.007,0.323v0.072l0.014,0.352v0.057l0.007,0.395v0.022l0.014,0.438v0.014l0.007,0.431v0.036
	l0.014,0.417l0.014,0.065v0.402l0.007,0.108l0.014,0.366v0.136l0.007,0.345v0.172l0.014,0.323v0.208v0.294l0.007,0.244v0.266
	l0.014,0.273v0.244l0.014,0.316v0.208l0.007,0.345v0.19H282.098z M281.825,137.639c0,3.16,1.034,23.197-0.567,29.804l-0.029,0.029
	v0.036c-4.74,5.666-13.028,10.615-23.692,14.378v-0.05c-13.401,4.711-30.565,7.541-49.281,7.541
	c-16.855,0-32.447-2.298-45.166-6.198v0.086c-10.406-3.196-18.881-7.447-24.554-12.388l-0.079,1.278v-0.625l-0.029,0.689v-34.515
	c0-0.517,0.029-1.013,0.086-1.515l0.022,0.022l0.014-0.079c12.582,10.995,39.061,18.586,69.706,18.586
	c33.654,0,62.301-9.157,73.002-21.94C281.624,134.328,281.825,135.944,281.825,137.639z M281.796,81.04
	c0,3.16,1.027,23.197-0.567,29.804c-10.708,12.783-39.356,21.933-73.002,21.933c-30.652,0-57.131-7.584-69.713-18.593
	c-0.043,0.46-0.079,0.912-0.086,1.372V81.04c0-0.51,0.029-1.013,0.086-1.508c12.582,10.995,39.061,18.593,69.713,18.593
	c33.646,0,62.294-9.164,73.002-21.947C281.588,77.729,281.796,79.345,281.796,81.04z M210.101,45.821
	c30.924,0,55.989,9.667,55.989,21.588c0,11.929-25.064,21.603-55.989,21.603c-30.91,0-55.974-9.674-55.974-21.603
	C154.127,55.487,179.191,45.821,210.101,45.821z"/>
</svg>
