<?xml version="1.0" encoding="utf-8"?>
<!-- Generator: Adobe Illustrator 17.0.0, SVG Export Plug-In . SVG Version: 6.00 Build 0)  -->
<!DOCTYPE svg PUBLIC "-//W3C//DTD SVG 1.1//EN" "http://www.w3.org/Graphics/SVG/1.1/DTD/svg11.dtd">
<svg version="1.1" id="Capa_1" xmlns="http://www.w3.org/2000/svg" xmlns:xlink="http://www.w3.org/1999/xlink" x="0px" y="0px"
	 width="400px" height="290px" viewBox="0 0 400 290" enable-background="new 0 0 400 290" xml:space="preserve">
<polygon fill="#0097A7" points="0,0.001 0,0.001 0,0.001 399.993,0.001 399.993,0.001 400,0.001 399.993,0.009 399.993,289.999 
	0,289.999 0,289.991 0,289.999 "/>
<path fill="#FEFEFE" d="M284.595,58.951H115.42c-11.739,0-21.345,9.735-21.345,21.647V187.82c0,11.854,9.519,21.575,21.18,21.661
	h63.562v21.575h42.367v-21.575h63.569c11.661-0.086,21.173-9.806,21.173-21.661V80.598
	C305.926,68.686,296.327,58.951,284.595,58.951z M284.739,187.992H115.255c0-35.851,0.05-71.701,0-107.524h169.484V187.992z"/>
<path fill="#FEFEFE" d="M172.106,139.661c2.342,0.151,4.835,0.05,7.292,0.022c0.503,1.918,1.336,3.829,2.328,5.582
	c-1.494,1.509-2.838,2.91-4.325,4.426c-4.289,4.375,2.551,12.903,7.551,7.529c1.006-1.099,1.954-2.005,4.296-4.404
	c1.76,1.063,3.556,1.89,5.503,2.4c0,2.213,0,4.591,0,6.833c0,5.934,10.468,6.337,10.497-0.129c0-2.184,0.022-4.512,0.022-6.703
	c1.882-0.51,3.93-1.401,5.604-2.421c1.487,1.487,2.953,2.996,4.447,4.476c4.663,4.541,12.056-2.917,7.594-7.422
	c-1.538-1.538-3.075-3.097-4.62-4.634c1.042-1.789,1.803-3.678,2.285-5.64c2.313,0,3.485,0,6.078-0.029
	c4.548-0.05,6.653-5.453,3.722-9.203c-0.69-0.647-1.638-1.566-3.211-1.566c-2.227,0-4.433,0.029-6.639,0.029
	c-0.481-1.861-1.279-3.851-2.27-5.582c1.552-1.545,3.147-3.082,4.656-4.699c1.94-2.026,1.408-5.59-0.295-7.062
	c-1.696-2.004-5.281-2.493-7.206-0.539c-1.537,1.588-3.053,3.197-4.663,4.785c-1.789-1.099-3.413-1.825-5.374-2.313
	c-0.043-2.421,0.079-4.85-0.022-7.264c-0.194-5.439-10.64-5.812-10.554,0.977c0.022,2.098-0.05,4.16-0.022,6.265
	c-1.89,0.51-3.837,1.264-5.561,2.285l-4.749-4.799c-4.863-3.293-10.97,2.11-7.601,7.527l4.857,4.914
	c-1.013,1.775-1.839,3.779-2.328,5.719c-3.097,0.022-4.821-0.129-6.861,0.057C166.775,129.667,167.163,139.359,172.106,139.661z
	 M192.51,126.593c4.225-4.217,10.633-4.289,15.016-0.05c4.361,4.26,4.232,11.064,0.007,15.267
	c-4.217,4.181-10.87,4.375-15.009,0.029C188.264,137.313,188.322,130.696,192.51,126.593z"/>
</svg>
