<?xml version="1.0" encoding="utf-8"?>
<!-- Generator: Adobe Illustrator 17.0.0, SVG Export Plug-In . SVG Version: 6.00 Build 0)  -->
<!DOCTYPE svg PUBLIC "-//W3C//DTD SVG 1.1//EN" "http://www.w3.org/Graphics/SVG/1.1/DTD/svg11.dtd">
<svg version="1.1" id="Capa_1" xmlns="http://www.w3.org/2000/svg" xmlns:xlink="http://www.w3.org/1999/xlink" x="0px" y="0px"
	 width="400px" height="290px" viewBox="0 0 400 290" enable-background="new 0 0 400 290" xml:space="preserve">
<polygon fill="#0097A7" points="0,0.001 0,0.001 0,0.001 399.993,0.001 399.993,0.001 400,0.001 399.993,0.009 399.993,289.999 
	0,289.999 0,289.991 0,289.999 "/>
<path fill="#FEFEFE" d="M116.454,45.537h48.46v49.207h-16.302v26.317H253.22v-16.553h48.467v49.207H253.22v-16.553H148.612v63.813
	H253.22v-16.553h48.467v49.214H253.22v-16.56H132.756c0-40.772,0-81.552,0-122.331h-16.302
	C116.454,94.745,116.454,45.537,116.454,45.537z"/>
</svg>
