<?xml version="1.0" encoding="utf-8"?>
<!-- Generator: Adobe Illustrator 17.0.0, SVG Export Plug-In . SVG Version: 6.00 Build 0)  -->
<!DOCTYPE svg PUBLIC "-//W3C//DTD SVG 1.1//EN" "http://www.w3.org/Graphics/SVG/1.1/DTD/svg11.dtd">
<svg version="1.1" xmlns="http://www.w3.org/2000/svg" xmlns:xlink="http://www.w3.org/1999/xlink" x="0px" y="0px" width="800px"
	 height="622.079px" viewBox="0 0 800 622.079" enable-background="new 0 0 800 622.079" xml:space="preserve">
<g id="Background">
	<rect fill="#63BFCE" width="800" height="622.079"/>
	<rect fill="#BEDBE2" width="800" height="521.037"/>
</g>
<g id="Objects">
	<g id="Design">
		<g id="business">
			<g>
				<g>
					<g>
						<rect x="214.441" y="505.238" fill="#E6E7E8" width="6.94" height="49.114"/>
						<polygon fill="#E6E7E8" points="193.355,564.495 190.285,564.495 214.441,554.352 218.713,559.425 						"/>
						<polygon fill="#E6E7E8" points="241.284,564.495 245.555,564.495 221.398,554.352 217.127,559.425 						"/>
						<rect x="214.441" y="554.352" fill="#E6E7E8" width="6.94" height="4.354"/>
						<polygon fill="#E6E7E8" points="219.447,567.633 216.408,567.633 215.099,552.935 220.725,552.935 						"/>
						<rect x="190.285" y="564.495" fill="#E6E7E8" width="3.07" height="3.138"/>
						<rect x="242.485" y="564.495" fill="#E6E7E8" width="3.07" height="3.138"/>
						<g>
							<polyline fill="#273244" points="192.166,508.709 243.658,508.709 243.658,500.602 192.166,500.602 							"/>
							<polyline fill="#041728" points="192.166,508.709 243.658,508.709 243.658,505.238 192.166,505.238 							"/>
							<polyline fill="#041728" points="192.166,500.602 243.658,500.602 243.658,426.536 192.166,426.536 							"/>
						</g>
						<rect x="208.77" y="508.644" fill="#041728" width="18.284" height="3.736"/>
						<ellipse fill="#231F20" cx="191.495" cy="567.679" rx="1.929" ry="1.947"/>
						<ellipse fill="#231F20" cx="217.715" cy="567.679" rx="1.929" ry="1.947"/>
						<ellipse fill="#231F20" cx="243.949" cy="567.679" rx="1.929" ry="1.947"/>
					</g>
					<g>
						<path fill="#22313D" d="M200.678,471.578c0,0-12.819,12.913-0.048,29.023c16.744,0,36.167,0,36.167,0
							s5.145-5.566,5.009-14.512c-0.113-7.451-6.016-14.512-6.016-14.512H200.678z"/>
					</g>
				</g>
			</g>
			<g>
				<g>
					<g>
						<rect x="348.441" y="505.238" fill="#E6E7E8" width="6.94" height="49.114"/>
						<polygon fill="#E6E7E8" points="327.355,564.495 324.285,564.495 348.441,554.352 352.713,559.425 						"/>
						<polygon fill="#E6E7E8" points="375.284,564.495 379.555,564.495 355.398,554.352 351.127,559.425 						"/>
						<rect x="348.441" y="554.352" fill="#E6E7E8" width="6.94" height="4.354"/>
						<polygon fill="#E6E7E8" points="353.447,567.633 350.408,567.633 349.099,552.935 354.725,552.935 						"/>
						<rect x="324.285" y="564.495" fill="#E6E7E8" width="3.07" height="3.138"/>
						<rect x="376.485" y="564.495" fill="#E6E7E8" width="3.07" height="3.138"/>
						<g>
							<polyline fill="#273244" points="326.167,508.709 377.658,508.709 377.658,500.602 326.167,500.602 							"/>
							<polyline fill="#041728" points="326.167,508.709 377.658,508.709 377.658,505.238 326.167,505.238 							"/>
							<polyline fill="#041728" points="326.167,500.602 377.658,500.602 377.658,426.536 326.167,426.536 							"/>
						</g>
						<rect x="342.77" y="508.644" fill="#041728" width="18.284" height="3.736"/>
						<ellipse fill="#231F20" cx="325.495" cy="567.679" rx="1.929" ry="1.947"/>
						<ellipse fill="#231F20" cx="351.715" cy="567.679" rx="1.929" ry="1.947"/>
						<ellipse fill="#231F20" cx="377.949" cy="567.679" rx="1.929" ry="1.947"/>
					</g>
				</g>
			</g>
			<g>
				<g>
					<g>
						<rect x="485.905" y="505.238" fill="#E6E7E8" width="6.94" height="49.114"/>
						<polygon fill="#E6E7E8" points="464.818,564.495 461.749,564.495 485.905,554.352 490.177,559.425 						"/>
						<polygon fill="#E6E7E8" points="512.747,564.495 517.019,564.495 492.862,554.352 488.591,559.425 						"/>
						<rect x="485.905" y="554.352" fill="#E6E7E8" width="6.94" height="4.354"/>
						<polygon fill="#E6E7E8" points="490.911,567.633 487.872,567.633 486.562,552.935 492.188,552.935 						"/>
						<rect x="461.749" y="564.495" fill="#E6E7E8" width="3.069" height="3.138"/>
						<rect x="513.948" y="564.495" fill="#E6E7E8" width="3.07" height="3.138"/>
						<g>
							<polyline fill="#273244" points="463.63,508.709 515.121,508.709 515.121,500.602 463.63,500.602 							"/>
							<polyline fill="#041728" points="463.63,508.709 515.121,508.709 515.121,505.238 463.63,505.238 							"/>
							<polyline fill="#041728" points="463.63,500.602 515.121,500.602 515.121,426.536 463.63,426.536 							"/>
						</g>
						<rect x="480.233" y="508.644" fill="#041728" width="18.284" height="3.736"/>
						<ellipse fill="#231F20" cx="462.958" cy="567.679" rx="1.929" ry="1.947"/>
						<ellipse fill="#231F20" cx="489.178" cy="567.679" rx="1.929" ry="1.947"/>
						<ellipse fill="#231F20" cx="515.413" cy="567.679" rx="1.93" ry="1.947"/>
					</g>
				</g>
			</g>
			<g>
				<g>
					<rect x="112.887" y="505.136" fill="#F9FDFF" width="7.718" height="54.616"/>
					<polygon fill="#F9FDFF" points="89.438,571.031 86.023,571.031 112.887,559.752 117.636,565.394 					"/>
					<polygon fill="#F9FDFF" points="142.736,571.031 147.485,571.031 120.623,559.752 115.873,565.394 					"/>
					<rect x="112.887" y="559.752" fill="#F9FDFF" width="7.718" height="4.843"/>
					<polygon fill="#F9FDFF" points="118.453,574.521 115.074,574.521 113.617,558.176 119.873,558.176 					"/>
					<rect x="86.023" y="571.031" fill="#F9FDFF" width="3.415" height="3.489"/>
					<rect x="144.071" y="571.031" fill="#F9FDFF" width="3.414" height="3.489"/>
					<g>
						<polygon fill="#1D2A3D" points="59.025,426.536 86.138,508.995 144.071,508.995 144.071,499.978 93.818,499.978 
							68.626,427.454 						"/>
						<polygon fill="#041728" points="88.81,505.136 62.799,426.897 59.025,426.536 86.138,508.995 144.071,508.995 
							144.071,505.136 						"/>
					</g>
					<rect x="106.579" y="508.923" fill="#041728" width="20.332" height="4.154"/>
					<circle fill="#231F20" cx="87.73" cy="574.86" r="2.135"/>
					<circle fill="#231F20" cx="116.746" cy="574.86" r="2.135"/>
					<circle fill="#231F20" cx="145.778" cy="574.86" r="2.135"/>
				</g>
				<polygon fill="#1D2A3D" points="133.85,503.815 120.29,469 79,469 79,464 123.709,464 138.509,502.001 				"/>
			</g>
			<g>
				<g>
					<rect x="657.01" y="505.136" fill="#F9FDFF" width="7.717" height="54.616"/>
					<polygon fill="#F9FDFF" points="688.176,571.031 691.59,571.031 664.727,559.752 659.977,565.394 					"/>
					<polygon fill="#F9FDFF" points="634.877,571.031 630.127,571.031 656.99,559.752 661.74,565.394 					"/>
					<rect x="657.01" y="559.752" fill="#F9FDFF" width="7.717" height="4.843"/>
					<polygon fill="#F9FDFF" points="659.16,574.521 662.539,574.521 663.994,558.176 657.738,558.176 					"/>
					<rect x="688.176" y="571.031" fill="#F9FDFF" width="3.414" height="3.489"/>
					<rect x="630.127" y="571.031" fill="#F9FDFF" width="3.414" height="3.489"/>
					<g>
						<polygon fill="#273244" points="718.586,426.536 691.475,508.995 633.541,508.995 633.541,499.978 683.793,499.978 
							708.986,427.454 						"/>
						<polygon fill="#041728" points="688.803,505.136 714.814,426.897 718.586,426.536 691.475,508.995 633.541,508.995 
							633.541,505.136 						"/>
					</g>
					<rect x="650.701" y="508.923" fill="#041728" width="20.334" height="4.154"/>
					<circle fill="#231F20" cx="689.883" cy="574.86" r="2.135"/>
					<circle fill="#231F20" cx="660.867" cy="574.86" r="2.135"/>
					<circle fill="#231F20" cx="631.834" cy="574.86" r="2.135"/>
				</g>
				<polygon fill="#1D2A3D" points="643.659,503.815 657.219,469 699,469 699,464 653.799,464 639,502.001 				"/>
			</g>
			<g>
				<rect x="141.064" y="446.692" fill="#F9FDFF" width="10.734" height="131.899"/>
				<rect x="635.151" y="446.692" fill="#F9FDFF" width="10.734" height="131.899"/>
				<rect x="141.064" y="446.692" fill="#C4996C" width="504.822" height="9.811"/>
			</g>
			<g>
				<g>
					<g>
						<g>
							<rect x="277.827" y="519.667" fill="#E6E7E8" width="8.252" height="59.478"/>
							<polygon fill="#E6E7E8" points="252.755,591.427 249.105,591.427 277.827,579.144 282.906,585.287 							"/>
							<polygon fill="#E6E7E8" points="309.742,591.427 314.821,591.427 286.098,579.144 281.02,585.287 							"/>
							<rect x="277.827" y="579.144" fill="#E6E7E8" width="8.252" height="5.273"/>
							<polygon fill="#E6E7E8" points="283.779,595.227 280.165,595.227 278.608,577.428 285.298,577.428 							"/>
							<rect x="249.105" y="591.427" fill="#E6E7E8" width="3.649" height="3.801"/>
							<rect x="311.17" y="591.427" fill="#E6E7E8" width="3.65" height="3.801"/>
							<g>
								<polyline fill="#041728" points="251.341,519.667 312.565,519.667 312.565,428.71 251.341,428.71 								"/>
							</g>
							<rect x="271.083" y="523.79" fill="#041728" width="21.74" height="4.525"/>
							<ellipse fill="#231F20" cx="250.543" cy="595.282" rx="2.294" ry="2.357"/>
							<ellipse fill="#231F20" cx="281.718" cy="595.282" rx="2.294" ry="2.357"/>
							<ellipse fill="#231F20" cx="312.912" cy="595.282" rx="2.294" ry="2.357"/>
						</g>
					</g>
				</g>
			</g>
			<g>
				<g>
					<g>
						<g>
							<rect x="549.629" y="519.667" fill="#E6E7E8" width="8.253" height="59.478"/>
							<polygon fill="#E6E7E8" points="524.558,591.427 520.908,591.427 549.629,579.144 554.709,585.287 							"/>
							<polygon fill="#E6E7E8" points="581.545,591.427 586.623,591.427 557.9,579.144 552.822,585.287 							"/>
							<rect x="549.629" y="579.144" fill="#E6E7E8" width="8.253" height="5.273"/>
							<polygon fill="#E6E7E8" points="555.582,595.227 551.969,595.227 550.411,577.428 557.102,577.428 							"/>
							<rect x="520.908" y="591.427" fill="#E6E7E8" width="3.649" height="3.801"/>
							<rect x="582.973" y="591.427" fill="#E6E7E8" width="3.65" height="3.801"/>
							<g>
								<polyline fill="#041728" points="523.144,523.87 584.368,523.87 584.368,519.667 523.144,519.667 								"/>
								<polyline fill="#041728" points="523.144,519.667 584.368,519.667 584.368,428.71 523.144,428.71 								"/>
							</g>
							<rect x="542.886" y="523.79" fill="#041728" width="21.739" height="4.525"/>
							<ellipse fill="#231F20" cx="522.345" cy="595.282" rx="2.294" ry="2.357"/>
							<ellipse fill="#231F20" cx="553.521" cy="595.282" rx="2.294" ry="2.357"/>
							<ellipse fill="#231F20" cx="584.714" cy="595.282" rx="2.294" ry="2.357"/>
						</g>
					</g>
				</g>
			</g>
			<g>
				<g>
					<g>
						<g>
							<rect x="418.498" y="519.667" fill="#E6E7E8" width="8.252" height="59.478"/>
							<polygon fill="#E6E7E8" points="393.427,591.427 389.777,591.427 418.498,579.144 423.578,585.287 							"/>
							<polygon fill="#E6E7E8" points="450.414,591.427 455.492,591.427 426.77,579.144 421.691,585.287 							"/>
							<rect x="418.498" y="579.144" fill="#E6E7E8" width="8.252" height="5.273"/>
							<polygon fill="#E6E7E8" points="424.451,595.227 420.838,595.227 419.279,577.428 425.971,577.428 							"/>
							<rect x="389.777" y="591.427" fill="#E6E7E8" width="3.65" height="3.801"/>
							<rect x="451.842" y="591.427" fill="#E6E7E8" width="3.65" height="3.801"/>
							<g>
								<polyline fill="#041728" points="392.014,523.87 453.236,523.87 453.236,519.667 392.014,519.667 								"/>
								<polyline fill="#041728" points="392.014,519.667 453.236,519.667 453.236,428.71 392.014,428.71 								"/>
							</g>
							<rect x="411.754" y="523.79" fill="#041728" width="21.74" height="4.525"/>
							<ellipse fill="#231F20" cx="391.215" cy="595.282" rx="2.295" ry="2.357"/>
							<ellipse fill="#231F20" cx="422.39" cy="595.282" rx="2.294" ry="2.357"/>
							<ellipse fill="#231F20" cx="453.584" cy="595.282" rx="2.295" ry="2.357"/>
						</g>
					</g>
				</g>
			</g>
		</g>
		<g>
			<g>
				<circle fill="#FFFFFF" cx="241.413" cy="112.514" r="26.242"/>
				<g>
					<g>
						<g>
							<g>
								<polygon fill="#BEDBE2" points="245.561,98.725 237.153,98.725 237.153,111.133 231.456,111.133 241.484,121.159 
									251.369,111.133 245.561,111.133 								"/>
							</g>
						</g>
						<g>
							<rect x="230.241" y="124.036" fill="#BEDBE2" width="22.342" height="2.268"/>
							<rect x="230.241" y="122.335" fill="#BEDBE2" width="1.769" height="3.969"/>
							<rect x="250.814" y="122.335" fill="#BEDBE2" width="1.769" height="3.969"/>
						</g>
					</g>
				</g>
			</g>
			<g>
				<circle fill="#FFFFFF" cx="272.041" cy="300.254" r="27.563"/>
				<g>
					<g>
						<path fill="#BEDBE2" d="M283.086,314.378l-0.064-0.025l-1.189-3.363l2.337-2.717l3.51,0.667l0.025,0.065
							c0.685-1.223,1.212-2.521,1.599-3.844l-0.05,0.044l-2.94-2.044l0.288-3.556l3.24-1.531l0.043,0.04
							c-0.147-1.312-0.451-2.628-0.918-3.915l-0.021,0.061l-3.579,0.068l-1.835-3.047l1.728-3.112h0.075
							c-0.964-1.047-2.01-1.953-3.145-2.721v0.058l-2.853,2.14l-3.284-1.387l-0.438-3.527l0.047-0.04
							c-1.348-0.273-2.735-0.402-4.134-0.355l0.043,0.04l-1.043,3.405l-3.474,0.795l-2.452-2.588l0.022-0.069
							c-0.646,0.295-1.29,0.621-1.929,1.023c-0.566,0.343-1.112,0.709-1.628,1.103l0.058,0.018l1.175,3.366l-2.345,2.671
							l-3.513-0.648l-0.021-0.079c-0.681,1.215-1.226,2.494-1.621,3.817l0.064-0.017l2.933,2.022l-0.305,3.564l-3.23,1.505
							l-0.064-0.029c0.157,1.363,0.458,2.725,0.947,4.044l0.036-0.053l3.567-0.086l1.847,3.065l-1.707,3.137h-0.079
							c0.946,1.029,2.018,1.958,3.147,2.728l-0.01-0.057l2.85-2.187l3.305,1.395l0.441,3.574l-0.05,0.029
							c1.358,0.272,2.742,0.388,4.133,0.351l-0.04-0.057l1.037-3.427l3.466-0.825l2.456,2.621l-0.007,0.054
							c0.621-0.295,1.248-0.613,1.864-1.004C281.989,315.185,282.549,314.784,283.086,314.378z M262.981,305.714
							c-3.055-4.999-1.463-11.515,3.535-14.563c5.012-3.033,11.555-1.435,14.61,3.545c3.043,4.98,1.462,11.512-3.532,14.574
							C272.571,312.317,266.043,310.736,262.981,305.714z"/>
						<path fill="#BEDBE2" d="M278.103,300.214c0,3.348-2.71,6.065-6.055,6.065c-3.348,0-6.069-2.717-6.069-6.065
							c0-3.334,2.721-6.034,6.069-6.034C275.393,294.181,278.103,296.88,278.103,300.214z"/>
					</g>
				</g>
			</g>
			<g>
				<circle fill="#FFFFFF" cx="562.459" cy="296.955" r="26.242"/>
				<path fill="#BEDBE2" d="M577.325,286.313h-29.725c-0.758,0-1.383,0.68-1.383,1.522v18.247c0,0.836,0.625,1.515,1.383,1.515
					h29.725c0.756,0,1.377-0.68,1.377-1.515v-18.247C578.702,286.993,578.081,286.313,577.325,286.313z M562.494,298.592
					c0,0-14.356-10.714-15.465-11.63c1.214,0.729,15.465,9.08,15.465,9.08s13.962-8.27,15.17-9.005
					C576.569,287.96,562.494,298.592,562.494,298.592z"/>
			</g>
			<g>
				<path fill="#FFFFFF" d="M631.555,88.882c2.485-2.485,6.283-2.839,9.155-1.084c-0.973,0.963-2.097,2.087-2.097,2.087
					c-0.783,0.944,0.098,1.486,0.545,1.472l5.25-0.001c0.275,0,0.502,0.001,0.502,0.001h0.506h1.018
					c0.278,0,0.504-0.226,0.505-0.504v-7.215c0.032-0.66-0.692-1.301-1.44-0.563c0,0-1.24,1.206-2.094,2.054
					c-4.373-3.196-10.536-2.833-14.485,1.118c-2.306,2.304-3.38,5.362-3.253,8.381h3.733
					C629.269,92.564,629.977,90.46,631.555,88.882"/>
				<path fill="#FFFFFF" d="M643.97,93.373c0.134,2.063-0.575,4.168-2.153,5.748c-2.485,2.484-6.285,2.839-9.156,1.083
					c0.973-0.963,2.096-2.087,2.096-2.087c0.785-0.942-0.096-1.487-0.545-1.472l-5.246,0.002c-0.277,0-0.506-0.002-0.506-0.002
					h-0.506h-1.018c-0.277,0-0.505,0.227-0.506,0.504v7.216c-0.029,0.658,0.694,1.298,1.442,0.561c0,0,1.237-1.207,2.094-2.052
					c4.374,3.195,10.537,2.834,14.486-1.116c2.304-2.306,3.38-5.362,3.253-8.383h-3.735V93.373z"/>
			</g>
			<g>
				<path fill="#FFFFFF" d="M613.887,249.561c1.602-0.553,3.349,0.295,3.903,1.895c0.553,1.602-0.296,3.346-1.896,3.901
					c-1.601,0.553-3.345-0.294-3.9-1.894C611.44,251.861,612.287,250.116,613.887,249.561"/>
				<path fill="#FFFFFF" d="M619.399,243.081c-0.059-0.029-0.118-0.054-0.177-0.081l-0.172-0.077
					c-0.03-0.014-0.061-0.022-0.095-0.034c-4.926-2.107-10.612,0.013-12.949,4.827l-0.275,0.565l-0.379,0.782
					c-0.461,0.953-0.059,2.103,0.895,2.564c0.956,0.466,2.108,0.069,2.569-0.882l0.656-1.349c1.485-3.06,5.184-4.34,8.242-2.854
					l0.966,0.449c0.941,0.457,2.084,0.061,2.543-0.888c0.223-0.457,0.253-0.973,0.088-1.455c-0.164-0.479-0.506-0.868-0.964-1.087
					L619.399,243.081z"/>
				<path fill="#FFFFFF" d="M623.094,237.79l-0.811-0.393c-0.003-0.001-0.006-0.003-0.01-0.005l-0.641-0.312
					c-0.112-0.052-0.228-0.094-0.346-0.123c-7.962-3.247-17.193,0.134-21.135,7.868c-0.019,0.036-0.047,0.066-0.064,0.104
					l-0.71,1.465c-0.424,0.867-0.055,1.912,0.817,2.335c0.871,0.424,1.918,0.066,2.341-0.804l0.713-1.461
					c0.002-0.012,0.003-0.022,0.01-0.032c3.182-6.273,10.756-8.927,17.15-6.043l1.152,0.559c0.865,0.422,1.916,0.056,2.338-0.816
					C624.319,239.261,623.96,238.21,623.094,237.79"/>
			</g>
			<g>
				<path fill="#FFFFFF" d="M418.14,71.609l-1.224,1.261l2.66,2.583l1.225-1.26c1.16,0.773,2.489,1.313,3.92,1.556l0.025,1.757
					l3.707-0.055l-0.026-1.757c1.421-0.284,2.733-0.862,3.872-1.669l1.262,1.223l2.582-2.66l-1.26-1.224
					c0.773-1.162,1.312-2.491,1.555-3.919l1.758-0.027l-0.055-3.707l-1.758,0.026c-0.283-1.422-0.861-2.735-1.669-3.872l1.226-1.262
					l-2.66-2.582l-1.227,1.26c-1.162-0.773-2.49-1.314-3.919-1.555l-0.026-1.757l-3.706,0.053l0.025,1.759
					c-1.421,0.284-2.733,0.861-3.872,1.669l-1.261-1.225l-2.583,2.662l1.261,1.224c-0.773,1.161-1.312,2.49-1.556,3.919
					l-1.758,0.026l0.054,3.708l1.759-0.026C416.756,69.159,417.332,70.47,418.14,71.609 M426.317,58.239
					c4.14-0.061,7.546,3.246,7.606,7.387c0.062,4.141-3.247,7.547-7.387,7.608c-4.142,0.061-7.548-3.245-7.608-7.388
					C418.868,61.705,422.175,58.3,426.317,58.239"/>
				<path fill="#FFFFFF" d="M447.25,49.717l1.102-0.487l-1.209-2.72l-1.097,0.489c-0.486-0.663-1.078-1.226-1.763-1.677l0.431-1.122
					l-2.776-1.069l-0.43,1.121c-0.808-0.123-1.635-0.103-2.432,0.062l-0.488-1.1l-2.719,1.208l0.486,1.098
					c-0.661,0.485-1.225,1.077-1.676,1.764l-1.121-0.432l-1.068,2.775l1.119,0.432c-0.123,0.812-0.102,1.628,0.062,2.432
					l-1.097,0.488l1.205,2.719l1.099-0.488c0.487,0.662,1.077,1.225,1.763,1.677l-0.432,1.121l2.777,1.068l0.432-1.12
					c0.805,0.121,1.632,0.102,2.43-0.062l0.488,1.099l2.719-1.207l-0.486-1.098c0.661-0.485,1.224-1.077,1.676-1.763l1.123,0.432
					l1.067-2.776l-1.122-0.432C447.438,51.336,447.417,50.521,447.25,49.717 M442.348,55.35c-0.578,0.255-1.189,0.392-1.816,0.4
					c-1.865,0.026-3.559-1.058-4.314-2.762c-1.039-2.341,0.018-5.091,2.361-6.13c0.576-0.256,1.186-0.391,1.812-0.4
					c1.867-0.027,3.56,1.057,4.316,2.761C445.746,51.56,444.688,54.31,442.348,55.35"/>
			</g>
			<path fill="#FFFFFF" d="M91.182,59.962H70.966c-1.717,0-3.11,1.393-3.11,3.111v10.884c0,1.718,1.393,3.11,3.11,3.11h1.556v5.441
				c0,0.2,0.075,0.399,0.227,0.551c0.304,0.304,0.796,0.305,1.1,0l6.447-5.992h10.885c1.716,0,3.11-1.392,3.11-3.11V63.073
				C94.291,61.355,92.897,59.962,91.182,59.962 M73.298,64.627h12.44c0.43,0,0.778,0.348,0.778,0.778
				c0,0.43-0.348,0.777-0.778,0.777h-12.44c-0.429,0-0.776-0.348-0.776-0.777C72.522,64.975,72.87,64.627,73.298,64.627
				 M79.519,72.401h-6.221c-0.429,0-0.776-0.348-0.776-0.777c0-0.431,0.348-0.777,0.776-0.777h6.221
				c0.429,0,0.777,0.346,0.777,0.777C80.296,72.054,79.948,72.401,79.519,72.401 M88.848,69.292h-15.55
				c-0.429,0-0.776-0.348-0.776-0.778c0-0.429,0.348-0.776,0.776-0.776h15.55c0.431,0,0.778,0.348,0.778,0.776
				C89.626,68.944,89.279,69.292,88.848,69.292"/>
			<g>
				<circle fill="#FFFFFF" cx="658.387" cy="191.208" r="27.702"/>
				<g>
					<g>
						<polygon fill="#BEDBE2" points="658.088,202.169 658.388,198.516 650.115,198.516 650.414,202.169 						"/>
						<polygon fill="#BEDBE2" points="659.649,197.374 667.179,197.374 668.758,191.208 660.146,191.208 						"/>
						<polygon fill="#BEDBE2" points="641.629,198.516 642.578,202.169 649.246,202.169 648.949,198.516 						"/>
						<polygon fill="#BEDBE2" points="666.873,198.516 659.555,198.516 659.256,202.169 665.924,202.169 						"/>
						<path fill="#BEDBE2" d="M672.842,180.246c-0.382,0-0.699,0.135-0.951,0.302c-0.147,0.08-0.293,0.202-0.431,0.34
							c-1.575,1.578-3.15,3.165-4.726,4.742c-0.172,0.172-0.293,0.325-0.377,0.554h-5.789l-0.325,3.883h8.819l0.665-2.465
							c1.258-1.258,2.516-2.56,3.773-3.701h3.024c2.285,0,2.285-3.654,0-3.654H672.842z"/>
						<polygon fill="#BEDBE2" points="649.426,190.066 659.077,190.066 659.4,186.183 649.102,186.183 						"/>
						<polygon fill="#BEDBE2" points="648.853,197.374 648.355,191.208 639.746,191.208 641.324,197.374 						"/>
						<polygon fill="#BEDBE2" points="638.408,186.184 639.44,190.066 648.261,190.066 647.935,186.184 						"/>
						<polygon fill="#BEDBE2" points="658.98,191.208 649.522,191.208 650.019,197.374 658.483,197.374 						"/>
						<path fill="#BEDBE2" d="M646.101,203.202c1.698,0,3.074,1.376,3.074,3.074c0,1.698-1.376,3.074-3.074,3.074
							c-1.697,0-3.073-1.376-3.073-3.074C643.027,204.579,644.403,203.202,646.101,203.202"/>
						<path fill="#BEDBE2" d="M662.402,203.202c1.697,0,3.074,1.376,3.074,3.074c0,1.698-1.377,3.074-3.074,3.074
							c-1.697,0-3.074-1.376-3.074-3.074C659.328,204.579,660.705,203.202,662.402,203.202"/>
					</g>
				</g>
			</g>
			<g>
				<circle fill="#FFFFFF" cx="117.636" cy="214.439" r="26.241"/>
				<path fill="#BEDBE2" d="M123.774,214.881l1.276-6.293l0.21-1.035l-1.056-0.03c-0.568-0.018-1.118-0.026-1.636-0.026
					c-5.949,0-8.226,1.103-9.818,2.759c-1.771,1.853-3.007,4.834-3.007,7.249c0,2.69,2.329,4.643,5.541,4.643
					c2.103,0,3.305-0.574,4.654-1.482c1.182,0.953,2.166,1.482,4.289,1.482c2.837,0,5.175-1.29,6.76-3.738
					c1.191-1.835,1.899-4.325,1.899-6.661c0-5.045-2.654-8.014-4.88-9.617c-2.497-1.796-5.897-2.869-9.094-2.869
					c-6.427,0-10.323,3.145-12.462,5.783c-2.586,3.193-4.069,7.462-4.069,11.711c0,4.115,1.598,7.517,4.622,9.836
					c2.545,1.95,5.958,3.023,9.609,3.023c4.457,0,8.952-1.146,12.996-3.317l0.74-0.397l-0.356-0.763l-1.228-2.628l-0.393-0.847
					l-0.827,0.436c-3.059,1.615-6.468,3.111-10.677,3.111c-2.776,0-5.09-0.774-6.69-2.239c-1.596-1.46-2.439-3.581-2.439-6.134
					c0-8.645,5.467-13.169,10.867-13.169c2.657,0,4.906,0.789,6.505,2.284c1.584,1.48,2.422,3.557,2.422,6.004
					c0,0.929-0.203,2.467-0.768,3.744c-0.601,1.355-1.436,2.044-2.484,2.044c-0.61,0-0.848-0.22-0.848-0.781
					c0-0.355,0.171-1.212,0.272-1.725C123.73,215.104,123.754,214.981,123.774,214.881 M119.075,212.116
					c-1.126,4.644-2.54,5.628-3.535,5.628c-0.143,0-0.441,0-0.441-0.447c0-1.327,0.914-3.307,2.035-4.415
					C117.579,212.439,118.302,212.248,119.075,212.116"/>
			</g>
			<g>
				<polygon fill="#FFFFFF" points="464.504,241.556 467.883,241.556 467.883,243.037 477.261,246.909 477.261,237.722 
					477.261,228.534 467.883,232.407 467.883,233.887 464.504,233.887 				"/>
				<path fill="#FFFFFF" d="M479.317,232.541c0.79,1.443,1.224,3.283,1.224,5.181c0,1.897-0.434,3.737-1.224,5.18l1.499,0.82
					c0.925-1.69,1.434-3.821,1.434-6.001c0-2.178-0.509-4.31-1.434-5.999L479.317,232.541z"/>
				<path fill="#FFFFFF" d="M483.787,237.722c0,2.637-0.605,5.197-1.706,7.21l1.499,0.819c1.235-2.259,1.916-5.11,1.916-8.029
					c0-2.919-0.681-5.771-1.916-8.029l-1.499,0.819C483.182,232.524,483.787,235.085,483.787,237.722"/>
			</g>
			<path fill="#FFFFFF" d="M177.134,249.583c1.348,0.844,2.292,2.274,2.464,3.933c0.549,0.257,1.16,0.405,1.807,0.405
				c2.36,0,4.272-1.914,4.272-4.274c0-2.36-1.912-4.274-4.272-4.274C179.066,245.375,177.17,247.253,177.134,249.583
				 M174.333,258.333c2.361,0,4.275-1.914,4.275-4.273c0-2.359-1.915-4.275-4.275-4.275c-2.359,0-4.274,1.915-4.274,4.275
				C170.06,256.42,171.975,258.333,174.333,258.333 M176.147,258.625h-3.627c-3.017,0-5.471,2.454-5.471,5.472v4.435l0.01,0.07
				l0.306,0.095c2.879,0.899,5.381,1.2,7.441,1.2c4.021,0,6.353-1.147,6.496-1.22l0.286-0.145h0.03v-4.435
				C181.619,261.079,179.165,258.625,176.147,258.625 M183.217,254.213h-3.597c-0.04,1.44-0.654,2.736-1.626,3.668
				c2.682,0.797,4.644,3.285,4.644,6.223v1.367c3.553-0.131,5.601-1.138,5.735-1.207l0.286-0.145h0.03v-4.434
				C188.69,256.667,186.236,254.213,183.217,254.213 M166.835,253.922c0.835,0,1.613-0.244,2.273-0.66
				c0.209-1.365,0.941-2.561,1.988-3.373c0.005-0.081,0.013-0.159,0.013-0.24c0-2.36-1.914-4.274-4.274-4.274
				c-2.361,0-4.275,1.914-4.275,4.274C162.561,252.008,164.475,253.922,166.835,253.922 M170.674,257.881
				c-0.967-0.927-1.581-2.217-1.625-3.647c-0.133-0.009-0.265-0.021-0.401-0.021h-3.627c-3.017,0-5.472,2.454-5.472,5.473v4.434
				l0.011,0.07l0.306,0.096c2.311,0.722,4.373,1.054,6.164,1.158v-1.339C166.029,261.167,167.991,258.68,170.674,257.881"/>
			<path fill="#FFFFFF" d="M727.585,119.252c1.349,0.844,2.292,2.274,2.464,3.933c0.55,0.257,1.16,0.405,1.808,0.405
				c2.36,0,4.273-1.913,4.273-4.274c0-2.36-1.912-4.274-4.273-4.274C729.518,115.044,727.621,116.922,727.585,119.252
				 M724.784,128.002c2.36,0,4.275-1.914,4.275-4.273s-1.915-4.274-4.275-4.274c-2.358,0-4.274,1.915-4.274,4.274
				C720.51,126.089,722.426,128.002,724.784,128.002 M726.598,128.294h-3.627c-3.017,0-5.471,2.454-5.471,5.472v4.436l0.01,0.07
				l0.307,0.095c2.879,0.899,5.381,1.2,7.441,1.2c4.02,0,6.352-1.146,6.496-1.22l0.285-0.145h0.031v-4.436
				C732.07,130.748,729.615,128.294,726.598,128.294 M733.668,123.881h-3.597c-0.04,1.44-0.654,2.736-1.626,3.668
				c2.682,0.797,4.645,3.285,4.645,6.223v1.367c3.553-0.131,5.6-1.138,5.734-1.206l0.287-0.146h0.029v-4.434
				C739.141,126.335,736.688,123.881,733.668,123.881 M717.286,123.59c0.835,0,1.613-0.244,2.273-0.66
				c0.209-1.365,0.941-2.561,1.988-3.373c0.005-0.081,0.014-0.159,0.014-0.24c0-2.36-1.914-4.274-4.274-4.274
				c-2.36,0-4.274,1.913-4.274,4.274C713.012,121.677,714.926,123.59,717.286,123.59 M721.125,127.55
				c-0.967-0.927-1.581-2.217-1.625-3.647c-0.133-0.009-0.266-0.021-0.402-0.021h-3.627c-3.017,0-5.471,2.454-5.471,5.473v4.434
				l0.01,0.07l0.307,0.096c2.311,0.722,4.373,1.054,6.163,1.158v-1.339C716.479,130.835,718.441,128.349,721.125,127.55"/>
			<path fill="#FFFFFF" d="M349.435,57.2h-13.823c-1.318,0-2.39,1.073-2.39,2.394v28.066c0,1.32,1.071,2.39,2.39,2.39h13.823
				c1.32,0,2.391-1.069,2.391-2.39V59.593C351.827,58.273,350.756,57.2,349.435,57.2 M347.859,58.699
				c0.338,0,0.614,0.275,0.614,0.612c0,0.338-0.275,0.611-0.614,0.611c-0.339,0-0.613-0.273-0.613-0.611
				C347.247,58.974,347.52,58.699,347.859,58.699 M339.321,58.933h6.408v0.701h-6.408V58.933z M342.524,88.607
				c-0.885,0-1.602-0.716-1.602-1.603c0-0.884,0.717-1.6,1.602-1.6c0.884,0,1.602,0.716,1.602,1.6
				C344.126,87.891,343.409,88.607,342.524,88.607 M350.036,83.817h-15.021V61.242h15.021V83.817z"/>
			<path fill="none" stroke="#9FBBBF" stroke-width="3" stroke-miterlimit="10" d="M530.5,96V69.5c0-5.5-4.5-10-10-10H450"/>
			<path fill="none" stroke="#9FBBBF" stroke-width="3" stroke-miterlimit="10" d="M449,194.5h71.5c5.5,0,10-4.5,10-10V163"/>
			<path fill="none" stroke="#9FBBBF" stroke-width="3" stroke-miterlimit="10" d="M594,297.5h54.5c5.5,0,10-4.5,10-10V222"/>
			<path fill="none" stroke="#9FBBBF" stroke-width="3" stroke-miterlimit="10" d="M405.5,242v45.5c0,5.5,4.5,10,10,10H530"/>
			<path fill="none" stroke="#9FBBBF" stroke-width="3" stroke-miterlimit="10" d="M304,300.5h17c5.5,0,9.5-5,9.5-10.5v-77.5
				c0-5.5,4.5-10,10-10H357"/>
			<path fill="none" stroke="#9FBBBF" stroke-width="3" stroke-miterlimit="10" d="M241.5,143v33.5c0,5.5,4.5,10,10,10H357"/>
			<g>
				<g>
					<path fill="none" stroke="#FFFFFF" stroke-miterlimit="10" d="M119.5,179v-58c0-5.5,4.5-9.5,10-9.5H212"/>
					<g>
						<polygon fill="#FFFFFF" points="122.971,178 119.481,184.045 115.99,178 						"/>
					</g>
				</g>
			</g>
			<path fill="none" stroke="#FFFFFF" stroke-miterlimit="10" d="M342.5,92v10.5c0,5.5-4,10-9.5,10h-62"/>
			<path fill="none" stroke="#FFFFFF" stroke-miterlimit="10" d="M637.5,111v10.5c0,5.5-4,10-9.5,10h-62"/>
			<g>
				<g>
					<path fill="none" stroke="#FFFFFF" stroke-miterlimit="10" d="M724.5,150v33.5c0,5.5-4,10-9.5,10h-26"/>
					<g>
						<polygon fill="#FFFFFF" points="721.029,151 724.519,144.955 728.01,151 						"/>
					</g>
				</g>
			</g>
			<g>
				<g>
					<path fill="none" stroke="#FFFFFF" stroke-miterlimit="10" d="M297,38.5h36c5.5,0,9.5,4.5,9.5,10V55"/>
					<g>
						<circle fill="#FFFFFF" cx="297.256" cy="38.5" r="2.256"/>
					</g>
				</g>
			</g>
			<g>
				<g>
					<path fill="none" stroke="#FFFFFF" stroke-miterlimit="10" d="M99,69.5h70c5.5,0,9.5,4.5,9.5,10V111"/>
					<g>
						<circle fill="#FFFFFF" cx="98.922" cy="69.5" r="2.256"/>
					</g>
				</g>
			</g>
			<g>
				<g>
					<path fill="none" stroke="#FFFFFF" stroke-miterlimit="10" d="M490,237.5h66c5.5,0,9.5,4.5,9.5,10V267"/>
					<g>
						<circle fill="#FFFFFF" cx="489.922" cy="237.5" r="2.256"/>
					</g>
				</g>
			</g>
			<path fill="none" stroke="#FFFFFF" stroke-miterlimit="10" d="M173.5,274v15.5c0,5.5,5.5,11,11,11H240"/>
			<g>
				<circle fill="#FFFFFF" cx="404.87" cy="195.413" r="40.165"/>
				<g>
					<g>
						<g>
							<g>
								<path fill="#BEDBE2" d="M396.761,198.488c0,0,0,0-0.001,0.002c-1.349-0.564-4.536-1.672-6.507-2.252
									c-0.169-0.054-0.195-0.063-0.195-0.763c0-0.577,0.237-1.159,0.469-1.652c0.252-0.536,0.55-1.436,0.656-2.243
									c0.301-0.348,0.708-1.033,0.969-2.338c0.231-1.15,0.123-1.57-0.029-1.963c-0.017-0.042-0.033-0.083-0.044-0.123
									c-0.058-0.269,0.021-1.672,0.217-2.76c0.137-0.747-0.034-2.333-1.061-3.645c-0.647-0.831-1.891-1.849-4.159-1.989h-1.244
									c-2.229,0.14-3.47,1.159-4.119,1.989c-1.028,1.313-1.199,2.899-1.063,3.645c0.197,1.088,0.276,2.491,0.22,2.753
									c-0.013,0.047-0.029,0.087-0.044,0.129c-0.153,0.393-0.261,0.812-0.031,1.963c0.262,1.305,0.67,1.99,0.968,2.338
									c0.107,0.807,0.406,1.707,0.657,2.243c0.185,0.391,0.271,0.923,0.271,1.678c0,0.7-0.025,0.709-0.184,0.759
									c-2.04,0.602-5.286,1.774-6.496,2.306c-0.009-0.013-0.017-0.023-0.026-0.034v5.122h20.778V198.488z"/>
							</g>
						</g>
						<g>
							<g>
								<path fill="#BEDBE2" d="M436.292,198.488c0,0,0,0-0.001,0.002c-1.348-0.564-4.538-1.672-6.507-2.252
									c-0.171-0.054-0.195-0.063-0.195-0.763c0-0.577,0.235-1.159,0.467-1.652c0.255-0.536,0.553-1.436,0.657-2.243
									c0.3-0.348,0.707-1.033,0.968-2.338c0.231-1.15,0.124-1.57-0.026-1.963c-0.018-0.042-0.035-0.083-0.046-0.123
									c-0.057-0.269,0.02-1.672,0.217-2.76c0.139-0.747-0.033-2.333-1.061-3.645c-0.647-0.831-1.892-1.849-4.159-1.989h-1.243
									c-2.229,0.14-3.472,1.159-4.12,1.989c-1.028,1.313-1.198,2.899-1.061,3.645c0.196,1.088,0.276,2.491,0.22,2.753
									c-0.014,0.047-0.03,0.087-0.046,0.129c-0.153,0.393-0.261,0.812-0.03,1.963c0.262,1.305,0.669,1.99,0.969,2.338
									c0.105,0.807,0.405,1.707,0.656,2.243c0.186,0.391,0.271,0.923,0.271,1.678c0,0.7-0.025,0.709-0.185,0.759
									c-2.038,0.602-5.286,1.774-6.495,2.306c-0.009-0.013-0.017-0.023-0.026-0.034v5.122h20.778V198.488z"/>
							</g>
						</g>
						<g>
							<g>
								<path fill="#BEDBE2" d="M420.563,205.65L420.563,205.65c-1.897-0.791-6.378-2.347-9.147-3.164
									c-0.239-0.076-0.275-0.088-0.275-1.072c0-0.812,0.333-1.632,0.659-2.323c0.356-0.754,0.773-2.019,0.923-3.154
									c0.422-0.489,0.994-1.45,1.359-3.287c0.327-1.618,0.174-2.206-0.039-2.758c-0.023-0.058-0.046-0.116-0.062-0.174
									c-0.08-0.378,0.029-2.35,0.307-3.878c0.192-1.05-0.048-3.28-1.492-5.126c-0.912-1.166-2.659-2.598-5.847-2.796H405.2
									c-3.134,0.199-4.879,1.63-5.791,2.796c-1.445,1.845-1.686,4.076-1.494,5.126c0.277,1.529,0.388,3.5,0.309,3.872
									c-0.018,0.064-0.042,0.123-0.064,0.181c-0.214,0.552-0.365,1.14-0.042,2.758c0.368,1.836,0.939,2.798,1.361,3.287
									c0.15,1.136,0.571,2.4,0.922,3.154c0.261,0.55,0.38,1.299,0.38,2.359c0,0.983-0.035,0.995-0.258,1.065
									c-2.866,0.847-7.43,2.495-9.131,3.242c-0.014-0.016-0.023-0.032-0.037-0.046v7.199h29.208V205.65z"/>
							</g>
						</g>
					</g>
				</g>
			</g>
			<g>
				<circle fill="#FFFFFF" cx="530.774" cy="129.54" r="30.958"/>
				<g>
					<g>
						<polygon fill="#BEDBE2" points="514.616,146.25 519.453,141.081 539.161,141.081 539.161,135.56 521.302,135.56 
							520.344,135.56 520.344,134.587 520.344,122.672 511.752,122.672 511.752,141.081 514.616,141.081 						"/>
						<path fill="#BEDBE2" d="M541.793,134.537l4.936,5.458v-5.458h3.068v-19.022h-28.432v7.158v11.864h17.795H541.793z
							 M545.107,123.04c1.194,0,2.162,0.969,2.162,2.164c0,1.196-0.968,2.166-2.162,2.166c-1.197,0-2.166-0.97-2.166-2.166
							C542.941,124.01,543.91,123.04,545.107,123.04 M526.918,127.37c-1.195,0-2.166-0.97-2.166-2.166
							c0-1.195,0.971-2.164,2.166-2.164c1.195,0,2.163,0.969,2.163,2.164C529.081,126.4,528.113,127.37,526.918,127.37
							 M532.98,127.37c-1.195,0-2.163-0.97-2.163-2.166c0-1.195,0.968-2.164,2.163-2.164c1.196,0,2.164,0.969,2.164,2.164
							C535.144,126.4,534.177,127.37,532.98,127.37 M539.044,127.37c-1.196,0-2.166-0.97-2.166-2.166
							c0-1.195,0.97-2.164,2.166-2.164c0.039,0,0.078,0.005,0.117,0.007c1.141,0.061,2.046,1.002,2.046,2.157
							c0,1.156-0.905,2.096-2.046,2.157C539.122,127.366,539.083,127.37,539.044,127.37"/>
					</g>
				</g>
			</g>
		</g>
	</g>
	<g>
		<g>
			<path fill="#F9B49B" d="M502.623,516.208c0.713,0,2.06-1.083,0.755-1.083C502.664,515.125,501.317,516.208,502.623,516.208
				L502.623,516.208z"/>
		</g>
	</g>
	<g>
		<g>
			<path fill="#F9B49B" d="M502.621,516.203c0.707,0,2.063-1.072,0.758-1.072C502.672,515.13,501.316,516.203,502.621,516.203
				L502.621,516.203z"/>
		</g>
	</g>
</g>
</svg>
