<?xml version="1.0" encoding="utf-8"?>
<!-- Generator: Adobe Illustrator 17.0.0, SVG Export Plug-In . SVG Version: 6.00 Build 0)  -->
<!DOCTYPE svg PUBLIC "-//W3C//DTD SVG 1.1//EN" "http://www.w3.org/Graphics/SVG/1.1/DTD/svg11.dtd">
<svg version="1.1" id="Capa_1" xmlns="http://www.w3.org/2000/svg" xmlns:xlink="http://www.w3.org/1999/xlink" x="0px" y="0px"
	 width="800px" height="150px" viewBox="0 0 800 150" enable-background="new 0 0 800 150" xml:space="preserve">
<rect x="0" fill="#F4F4F4" width="800" height="150"/>
<g id="Background">
</g>
<rect x="0" y="126.402" fill="#00BFCF" width="800" height="23.598"/>
<g>
	<g>
		<g>
			<circle fill="#B1DBE2" stroke="#FFFFFF" stroke-width="2" stroke-miterlimit="10" cx="209.365" cy="108.67" r="22.036"/>
			<rect x="195.041" y="98.463" fill="#FFFFFF" width="28.647" height="20.413"/>
			<polygon fill="#2C5871" points="195.911,117.89 195.911,113.83 198.695,115.859 202.753,112.09 205.653,114.062 211.221,107.335 
				214.932,109.77 222.819,100.841 222.819,117.89 			"/>
		</g>
		<g>
			<g>
				<circle fill="#B1DBE2" cx="227.179" cy="29.563" r="4.51"/>
				<circle fill="#B1DBE2" cx="192.728" cy="28.387" r="5.687"/>
				<circle fill="#B1DBE2" cx="218.457" cy="24.082" r="7.246"/>
				<circle fill="#B1DBE2" cx="199.136" cy="22.287" r="7.246"/>
				<circle fill="#B1DBE2" cx="208.549" cy="20.119" r="9.413"/>
				<rect x="191.891" y="26.89" fill="#B1DBE2" width="35.288" height="7.183"/>
			</g>
		</g>
		<g>
			<circle fill="#B1DBE2" cx="271.923" cy="41.249" r="16.105"/>
			<g>
				<g>
					<g>
						<polygon fill="#FFFFFF" points="267.364,41.049 260.536,34.222 260.536,47.876 						"/>
						<path fill="#FFFFFF" d="M272.676,43.57l9.707-9.706h-20.917l9.707,9.706C271.575,43.97,272.275,43.97,272.676,43.57z"/>
						<path fill="#FFFFFF" d="M275.841,41.693l-2.521,2.521c-0.372,0.373-0.869,0.578-1.396,0.578s-1.023-0.205-1.395-0.578
							l-2.521-2.521l-6.746,6.745h21.324L275.841,41.693z"/>
						<polygon fill="#FFFFFF" points="276.485,41.049 283.309,47.873 283.309,34.225 						"/>
					</g>
				</g>
				<path fill="#FFFFFF" d="M271.925,44.792c0,0-0.001,0-0.002,0v3.646h10.664l-6.746-6.746l-2.521,2.521
					C272.948,44.587,272.452,44.792,271.925,44.792z"/>
				<path fill="#FFFFFF" d="M271.923,43.87c0.276,0,0.552-0.099,0.753-0.301l9.707-9.706h-10.46V43.87z"/>
			</g>
		</g>
		<g>
			<circle fill="#B1DBE2" stroke="#FFFFFF" stroke-width="2" stroke-miterlimit="10" cx="410.1" cy="125.835" r="22.036"/>
			<g>
				<circle fill="#0E303F" cx="410.1" cy="125.836" r="15.862"/>
				<circle fill="#2C5871" cx="410.101" cy="125.836" r="14.988"/>
				<circle fill="#FFFFFF" cx="410.101" cy="125.836" r="12.198"/>
				<circle fill="#0E303F" cx="410.1" cy="125.836" r="2.082"/>
				<g>
					<g>
						<g>
							<g>
								<path fill="#0E303F" d="M415.056,117.416c-0.029,0-0.057-0.007-0.085-0.022c-0.08-0.046-0.107-0.149-0.062-0.23l0.321-0.554
									c0.046-0.081,0.15-0.108,0.23-0.061c0.081,0.046,0.108,0.149,0.062,0.229l-0.321,0.554
									C415.171,117.386,415.114,117.416,415.056,117.416L415.056,117.416z"/>
							</g>
							<g>
								<path fill="#0E303F" d="M404.822,135.148c-0.03,0-0.057-0.007-0.085-0.022c-0.08-0.046-0.108-0.148-0.062-0.229l0.318-0.557
									c0.046-0.081,0.148-0.109,0.23-0.062c0.081,0.046,0.108,0.149,0.062,0.229l-0.318,0.556
									C404.937,135.118,404.88,135.148,404.822,135.148L404.822,135.148z"/>
							</g>
							<g>
								<path fill="#0E303F" d="M419.241,131.281c-0.029,0-0.057-0.008-0.084-0.022l-0.553-0.319
									c-0.08-0.046-0.108-0.148-0.062-0.229c0.046-0.081,0.15-0.107,0.23-0.062l0.552,0.319c0.081,0.047,0.108,0.148,0.062,0.229
									C419.356,131.25,419.299,131.281,419.241,131.281L419.241,131.281z"/>
							</g>
							<g>
								<path fill="#0E303F" d="M401.516,121.045c-0.029,0-0.057-0.007-0.084-0.022l-0.557-0.32
									c-0.081-0.046-0.108-0.148-0.062-0.229c0.046-0.081,0.148-0.108,0.23-0.062l0.557,0.319
									c0.081,0.046,0.108,0.148,0.062,0.229C401.632,121.015,401.574,121.045,401.516,121.045L401.516,121.045z"/>
							</g>
						</g>
						<g>
							<g>
								<path fill="#0E303F" d="M405.144,117.416c-0.059,0-0.115-0.03-0.146-0.084l-0.318-0.554c-0.046-0.08-0.018-0.183,0.062-0.23
									c0.08-0.045,0.183-0.018,0.229,0.062l0.318,0.554c0.046,0.081,0.019,0.184-0.062,0.23
									C405.201,117.409,405.172,117.416,405.144,117.416L405.144,117.416z"/>
							</g>
							<g>
								<path fill="#0E303F" d="M415.384,135.148c-0.057,0-0.113-0.03-0.145-0.084l-0.324-0.556
									c-0.046-0.081-0.021-0.184,0.06-0.231c0.078-0.046,0.183-0.02,0.23,0.062l0.324,0.556c0.046,0.081,0.02,0.183-0.061,0.23
									C415.442,135.141,415.413,135.148,415.384,135.148L415.384,135.148z"/>
							</g>
							<g>
								<path fill="#0E303F" d="M400.959,131.281c-0.059,0-0.115-0.03-0.146-0.085c-0.046-0.081-0.018-0.184,0.063-0.23l0.558-0.318
									c0.081-0.046,0.184-0.017,0.228,0.062c0.046,0.081,0.018,0.184-0.062,0.23l-0.558,0.318
									C401.016,131.274,400.987,131.281,400.959,131.281L400.959,131.281z"/>
							</g>
							<g>
								<path fill="#0E303F" d="M418.689,121.045c-0.059,0-0.114-0.03-0.146-0.084c-0.046-0.081-0.018-0.183,0.062-0.23l0.553-0.318
									c0.079-0.046,0.183-0.019,0.229,0.061c0.046,0.08,0.019,0.183-0.062,0.229l-0.552,0.32
									C418.746,121.038,418.718,121.045,418.689,121.045L418.689,121.045z"/>
							</g>
						</g>
						<g>
							<g>
								<path fill="#0E303F" d="M400.185,126.002L400.185,126.002h-0.641c-0.093,0-0.168-0.075-0.168-0.169
									c0-0.093,0.075-0.168,0.168-0.168l0,0h0.641c0.093,0,0.168,0.076,0.168,0.169
									C400.354,125.927,400.278,126.002,400.185,126.002L400.185,126.002z"/>
							</g>
							<g>
								<path fill="#0E303F" d="M420.017,126.002c-0.093,0-0.168-0.074-0.168-0.168c0-0.092,0.075-0.168,0.168-0.169l0.645-0.001
									l0,0c0.093,0,0.168,0.075,0.168,0.168s-0.075,0.168-0.168,0.169L420.017,126.002L420.017,126.002L420.017,126.002z"/>
							</g>
							<g>
								<path fill="#0E303F" d="M410.099,136.56h-0.001c-0.093-0.001-0.168-0.076-0.167-0.17l0.004-0.642
									c0.001-0.093,0.076-0.168,0.168-0.168h0.001c0.093,0,0.168,0.076,0.168,0.169l-0.004,0.643
									C410.267,136.485,410.191,136.56,410.099,136.56L410.099,136.56z"/>
							</g>
							<g>
								<path fill="#0E303F" d="M410.101,116.086c-0.094,0-0.169-0.076-0.169-0.168v-0.638c0-0.185,0.337-0.185,0.337,0v0.638
									C410.268,116.011,410.193,116.086,410.101,116.086L410.101,116.086z"/>
							</g>
						</g>
					</g>
					<g>
						<g>
							<path fill="#0E303F" d="M410.103,126.391c-0.306,0-0.555-0.249-0.555-0.555v-8.263c0-0.307,0.249-0.555,0.555-0.555
								s0.555,0.249,0.555,0.555v8.263C410.658,126.142,410.409,126.391,410.103,126.391L410.103,126.391z"/>
						</g>
						<g>
							<path fill="#0E303F" d="M406.485,130.007c-0.142,0-0.283-0.054-0.392-0.162c-0.217-0.217-0.217-0.569,0-0.785l3.474-3.475
								c0.218-0.216,0.568-0.216,0.785,0c0.217,0.217,0.217,0.569,0,0.786l-3.474,3.475
								C406.769,129.953,406.628,130.007,406.485,130.007L406.485,130.007z"/>
						</g>
					</g>
				</g>
				<circle fill="#FFFFFF" cx="410.101" cy="125.836" r="1.284"/>
			</g>
		</g>
		<g>
			<circle fill="#B1DBE2" cx="328.077" cy="86.634" r="17.657"/>
			<g>
				<g>
					<g>
						<path fill="#FFFFFF" d="M324.512,87.985L324.512,87.985c-0.594-0.247-1.995-0.734-2.861-0.989
							c-0.075-0.024-0.086-0.027-0.086-0.335c0-0.254,0.104-0.51,0.206-0.727c0.112-0.236,0.242-0.631,0.289-0.986
							c0.132-0.153,0.311-0.454,0.426-1.028c0.102-0.506,0.054-0.69-0.013-0.863c-0.008-0.018-0.015-0.036-0.019-0.054
							c-0.025-0.118,0.009-0.735,0.096-1.213c0.06-0.328-0.015-1.026-0.467-1.603c-0.285-0.365-0.831-0.813-1.828-0.875h-0.546
							c-0.98,0.062-1.526,0.509-1.812,0.875c-0.452,0.577-0.527,1.274-0.467,1.603c0.087,0.478,0.122,1.094,0.097,1.211
							c-0.006,0.021-0.013,0.038-0.02,0.056c-0.067,0.173-0.114,0.357-0.013,0.863c0.115,0.574,0.294,0.875,0.426,1.028
							c0.047,0.355,0.178,0.751,0.289,0.986c0.081,0.172,0.119,0.406,0.119,0.738c0,0.307-0.011,0.311-0.081,0.333
							c-0.896,0.265-2.324,0.78-2.856,1.013c-0.004-0.005-0.007-0.01-0.011-0.015v2.251h9.134v-2.269
							C324.514,87.985,324.512,87.985,324.512,87.985z"/>
						<path fill="#FFFFFF" d="M321.651,86.996c-0.075-0.024-0.086-0.027-0.086-0.335c0-0.254,0.104-0.51,0.206-0.727
							c0.112-0.236,0.242-0.631,0.289-0.986c0.132-0.153,0.311-0.454,0.426-1.028c0.102-0.506,0.054-0.69-0.013-0.863
							c-0.008-0.018-0.015-0.036-0.019-0.054c-0.025-0.118,0.009-0.735,0.096-1.213c0.06-0.328-0.015-1.026-0.467-1.603
							c-0.285-0.365-0.831-0.813-1.828-0.875h-0.318v10.943h4.576v-2.271c0,0,0,0,0,0.001
							C323.919,87.738,322.518,87.251,321.651,86.996z"/>
					</g>
				</g>
				<g>
					<g>
						<path fill="#FFFFFF" d="M341.89,87.985L341.89,87.985c-0.593-0.247-1.995-0.734-2.861-0.989
							c-0.074-0.024-0.086-0.027-0.086-0.335c0-0.254,0.104-0.51,0.206-0.727c0.111-0.236,0.242-0.631,0.289-0.986
							c0.132-0.153,0.311-0.454,0.425-1.028c0.102-0.506,0.054-0.69-0.012-0.863c-0.008-0.018-0.015-0.036-0.02-0.054
							c-0.025-0.118,0.009-0.735,0.096-1.213c0.061-0.328-0.015-1.026-0.467-1.603c-0.285-0.365-0.831-0.813-1.828-0.875h-0.547
							c-0.98,0.062-1.526,0.509-1.811,0.875c-0.452,0.577-0.527,1.274-0.467,1.603c0.086,0.478,0.121,1.094,0.097,1.211
							c-0.006,0.021-0.013,0.038-0.02,0.056c-0.067,0.173-0.115,0.357-0.013,0.863c0.115,0.574,0.294,0.875,0.426,1.028
							c0.047,0.355,0.178,0.751,0.289,0.986c0.081,0.172,0.119,0.406,0.119,0.738c0,0.307-0.011,0.311-0.081,0.333
							c-0.896,0.265-2.324,0.78-2.855,1.013c-0.004-0.005-0.008-0.01-0.011-0.015v2.251h9.134v-2.269
							C341.892,87.985,341.89,87.985,341.89,87.985z"/>
						<path fill="#FFFFFF" d="M339.029,86.996c-0.074-0.024-0.086-0.027-0.086-0.335c0-0.254,0.104-0.51,0.206-0.727
							c0.111-0.236,0.242-0.631,0.289-0.986c0.132-0.153,0.311-0.454,0.425-1.028c0.102-0.506,0.054-0.69-0.012-0.863
							c-0.008-0.018-0.015-0.036-0.02-0.054c-0.025-0.118,0.009-0.735,0.096-1.213c0.061-0.328-0.015-1.026-0.467-1.603
							c-0.285-0.365-0.831-0.813-1.828-0.875h-0.318v10.943h4.576v-2.271c0,0,0,0,0,0.001
							C341.297,87.738,339.895,87.251,339.029,86.996z"/>
					</g>
				</g>
				<g>
					<g>
						<path fill="#FFFFFF" d="M334.976,91.133L334.976,91.133c-0.834-0.348-2.804-1.031-4.022-1.391
							c-0.105-0.033-0.121-0.038-0.121-0.471c0-0.357,0.147-0.717,0.29-1.021c0.156-0.331,0.34-0.888,0.406-1.387
							c0.185-0.214,0.437-0.638,0.598-1.445c0.143-0.711,0.076-0.97-0.018-1.213c-0.011-0.025-0.021-0.051-0.027-0.076
							c-0.036-0.167,0.013-1.033,0.134-1.705c0.084-0.462-0.021-1.442-0.656-2.253c-0.401-0.513-1.169-1.142-2.57-1.23h-0.768
							c-1.378,0.087-2.145,0.717-2.546,1.23c-0.636,0.811-0.741,1.792-0.657,2.253c0.122,0.672,0.171,1.538,0.136,1.702
							c-0.008,0.029-0.019,0.054-0.028,0.079c-0.094,0.243-0.161,0.502-0.019,1.213c0.162,0.807,0.414,1.23,0.599,1.445
							c0.066,0.499,0.25,1.055,0.406,1.387c0.114,0.242,0.167,0.571,0.167,1.037c0,0.432-0.016,0.438-0.114,0.468
							c-1.26,0.372-3.266,1.097-4.014,1.425c-0.006-0.007-0.011-0.014-0.016-0.021v3.165h12.84L334.976,91.133L334.976,91.133z"/>
						<path fill="#FFFFFF" d="M330.954,89.742c-0.105-0.033-0.121-0.038-0.121-0.471c0-0.357,0.147-0.717,0.29-1.021
							c0.156-0.331,0.34-0.888,0.406-1.387c0.185-0.214,0.437-0.638,0.598-1.445c0.143-0.711,0.076-0.97-0.018-1.213
							c-0.011-0.025-0.021-0.051-0.027-0.076c-0.036-0.167,0.013-1.033,0.134-1.705c0.084-0.462-0.021-1.442-0.656-2.253
							c-0.401-0.513-1.169-1.142-2.57-1.23h-0.447v15.383h6.433v-3.192c0,0,0,0-0.001,0.001
							C334.142,90.785,332.172,90.102,330.954,89.742z"/>
					</g>
				</g>
			</g>
		</g>
		<g>
			<circle fill="#B1DBE2" cx="390.44" cy="42.523" r="15.844"/>
			<g>
				<circle fill="#2F4F6B" cx="390.706" cy="42.296" r="10.739"/>
				<circle fill="#FFFFFF" cx="390.706" cy="42.296" r="8.457"/>
				<g>
					<path fill="#2F4F6B" d="M390.11,47.264c-0.558-0.052-1.073-0.189-1.533-0.416c-0.463-0.225-0.859-0.513-1.197-0.861
						l0.369-0.572c0.033-0.051,0.083-0.091,0.141-0.123c0.061-0.034,0.124-0.051,0.188-0.051c0.088,0,0.187,0.045,0.298,0.133
						c0.113,0.09,0.25,0.189,0.412,0.304c0.163,0.113,0.356,0.224,0.583,0.332c0.224,0.104,0.494,0.177,0.81,0.215l0.258-3.701
						c-0.322-0.097-0.644-0.206-0.957-0.331c-0.316-0.123-0.596-0.284-0.845-0.48c-0.248-0.201-0.447-0.447-0.599-0.75
						c-0.15-0.298-0.226-0.676-0.226-1.128c0-0.34,0.067-0.672,0.198-0.996c0.134-0.322,0.326-0.612,0.579-0.863
						c0.251-0.251,0.565-0.457,0.937-0.618c0.369-0.159,0.8-0.242,1.281-0.242l0.07-1.015c0.009-0.088,0.044-0.168,0.104-0.237
						c0.061-0.069,0.142-0.104,0.243-0.104h0.461l-0.096,1.38c0.486,0.061,0.906,0.184,1.26,0.374
						c0.353,0.192,0.669,0.423,0.947,0.691l-0.3,0.459c-0.092,0.141-0.2,0.21-0.321,0.21c-0.065,0-0.144-0.03-0.239-0.089
						c-0.094-0.057-0.21-0.124-0.347-0.203c-0.133-0.074-0.289-0.15-0.464-0.227c-0.178-0.078-0.38-0.131-0.606-0.165l-0.232,3.373
						c0.335,0.102,0.663,0.215,0.99,0.336c0.325,0.12,0.618,0.277,0.877,0.469c0.26,0.189,0.473,0.428,0.63,0.717
						c0.163,0.286,0.242,0.643,0.242,1.072c0,0.42-0.069,0.813-0.209,1.182c-0.14,0.367-0.344,0.693-0.608,0.972
						c-0.268,0.28-0.597,0.507-0.983,0.68c-0.389,0.177-0.831,0.263-1.329,0.263l-0.082,1.248c-0.008,0.088-0.044,0.166-0.109,0.233
						c-0.064,0.068-0.142,0.101-0.24,0.101h-0.46L390.11,47.264z M388.985,39.717c0,0.224,0.039,0.418,0.117,0.58
						c0.079,0.167,0.187,0.311,0.328,0.435c0.141,0.129,0.302,0.236,0.487,0.332c0.186,0.089,0.391,0.174,0.605,0.251l0.212-3.144
						c-0.302,0.027-0.563,0.088-0.786,0.18c-0.217,0.094-0.401,0.21-0.545,0.348c-0.139,0.138-0.245,0.298-0.315,0.471
						C389.019,39.343,388.985,39.524,388.985,39.717z M392.852,44.342c0-0.229-0.043-0.43-0.13-0.596
						c-0.086-0.168-0.203-0.314-0.352-0.433c-0.149-0.121-0.322-0.225-0.523-0.313c-0.199-0.089-0.412-0.172-0.64-0.246
						l-0.237,3.471c0.302-0.027,0.569-0.095,0.803-0.199c0.236-0.104,0.433-0.239,0.591-0.399c0.161-0.162,0.283-0.354,0.363-0.569
						C392.811,44.84,392.852,44.603,392.852,44.342z"/>
				</g>
			</g>
		</g>
		
			<line fill="none" stroke="#5E9499" stroke-miterlimit="10" stroke-dasharray="6" x1="437.588" y1="88.561" x2="346.908" y2="88.561"/>
		<polyline fill="none" stroke="#5E9499" stroke-miterlimit="10" stroke-dasharray="6" points="212.398,131.302 230.401,142.763 
			363.165,142.763 388.064,127.97 		"/>
		<polyline fill="none" stroke="#5E9499" stroke-miterlimit="10" stroke-dasharray="3.6604" points="315.546,69.418 305.91,61.448 
			226.31,61.448 209.365,80.556 		"/>
		<polyline fill="none" stroke="#5E9499" stroke-miterlimit="10" stroke-dasharray="3.6604" points="270.5,21.977 279.897,4.334 
			371.323,4.334 392.248,25.144 		"/>
		<path fill="#00BFCF" d="M326.534,38.109l-9.949-4.44l8.045-18.766l-11.991,17.006l-8.657-3.863l23.128-17.085L326.534,38.109z
			 M313.691,41.032l-1.461-6.421l5.546,2.114L313.691,41.032z"/>
		<g>
			<path fill="#00BFCF" d="M352.645,117.917l-0.953,0.982l2.071,2.011l0.955-0.982c0.903,0.602,1.938,1.023,3.052,1.211l0.02,1.369
				l2.887-0.042l-0.02-1.368c1.107-0.221,2.129-0.672,3.015-1.301l0.982,0.953l2.012-2.071l-0.982-0.953
				c0.602-0.905,1.022-1.939,1.211-3.052l1.37-0.02l-0.043-2.887l-1.37,0.02c-0.22-1.107-0.671-2.129-1.299-3.015l0.953-0.983
				l-2.071-2.011l-0.955,0.981c-0.904-0.602-1.94-1.023-3.052-1.21l-0.021-1.369l-2.886,0.042l0.02,1.369
				c-1.107,0.221-2.128,0.671-3.016,1.3l-0.982-0.953l-2.011,2.072l0.982,0.954c-0.603,0.904-1.023,1.939-1.211,3.051l-1.369,0.02
				l0.042,2.887l1.37-0.02C351.567,116.009,352.016,117.03,352.645,117.917 M359.014,107.506c3.224-0.047,5.876,2.528,5.923,5.753
				c0.048,3.225-2.529,5.877-5.753,5.925c-3.225,0.047-5.878-2.527-5.925-5.753S355.788,107.553,359.014,107.506"/>
			<path fill="#00BFCF" d="M375.315,100.869l0.857-0.38l-0.941-2.118l-0.854,0.38c-0.379-0.516-0.84-0.955-1.373-1.306l0.336-0.873
				l-2.162-0.832l-0.335,0.873c-0.629-0.096-1.272-0.08-1.894,0.048l-0.381-0.856l-2.116,0.94l0.379,0.855
				c-0.515,0.378-0.954,0.838-1.305,1.373l-0.873-0.337l-0.832,2.162l0.872,0.336c-0.097,0.633-0.08,1.268,0.048,1.894l-0.854,0.38
				l0.939,2.117l0.855-0.381c0.379,0.516,0.839,0.954,1.373,1.306l-0.337,0.873l2.163,0.832l0.337-0.872
				c0.626,0.095,1.27,0.079,1.892-0.048l0.381,0.855l2.117-0.94l-0.379-0.855c0.515-0.378,0.953-0.838,1.306-1.373l0.874,0.336
				l0.831-2.161l-0.874-0.337C375.461,102.13,375.444,101.495,375.315,100.869 M371.496,105.255
				c-0.45,0.199-0.927,0.305-1.414,0.312c-1.453,0.021-2.772-0.824-3.36-2.151c-0.81-1.823,0.014-3.965,1.838-4.774
				c0.449-0.199,0.925-0.304,1.412-0.311c1.454-0.021,2.772,0.822,3.362,2.15C374.142,102.305,373.318,104.446,371.496,105.255"/>
		</g>
		<path fill="#00BFCF" d="M251.984,75.167h-18.431c-1.565,0-2.835,1.27-2.835,2.837v9.923c0,1.566,1.27,2.836,2.835,2.836h1.418
			v4.961c0,0.182,0.069,0.363,0.208,0.502c0.277,0.277,0.725,0.278,1.003,0l5.878-5.463h9.924c1.565,0,2.835-1.27,2.835-2.836
			v-9.923C254.819,76.437,253.549,75.167,251.984,75.167 M235.679,79.42h11.343c0.392,0,0.709,0.317,0.709,0.709
			c0,0.391-0.317,0.709-0.709,0.709h-11.343c-0.391,0-0.708-0.317-0.708-0.709S235.288,79.42,235.679,79.42 M241.351,86.508h-5.672
			c-0.391,0-0.708-0.317-0.708-0.708c0-0.393,0.317-0.709,0.708-0.709h5.672c0.391,0,0.708,0.315,0.708,0.709
			C242.059,86.192,241.742,86.508,241.351,86.508 M249.857,83.674h-14.178c-0.391,0-0.708-0.317-0.708-0.709
			s0.317-0.708,0.708-0.708h14.178c0.393,0,0.709,0.316,0.709,0.708S250.25,83.674,249.857,83.674"/>
	</g>
	<g>
		<g>
			<g>
				<circle fill="#B1DBE2" cx="548.862" cy="82.047" r="4.448"/>
				<circle fill="#B1DBE2" cx="514.881" cy="80.886" r="5.609"/>
				<circle fill="#B1DBE2" cx="540.26" cy="76.641" r="7.147"/>
				<circle fill="#B1DBE2" cx="521.202" cy="74.87" r="7.147"/>
				<circle fill="#B1DBE2" cx="530.487" cy="72.732" r="9.284"/>
				<rect x="514.055" y="79.41" fill="#B1DBE2" width="34.807" height="7.086"/>
			</g>
		</g>
		<g>
			<g>
				<circle fill="#B1DBE2" cx="649.621" cy="25.898" r="19.001"/>
			</g>
			<g id="calculator">
				<path fill="#617B93" d="M658.97,20.712h-18.696v17.829c0,0.222,0.083,0.443,0.254,0.613c0.168,0.168,0.39,0.253,0.612,0.253
					h16.964c0.22,0,0.442-0.084,0.611-0.253c0.168-0.169,0.254-0.391,0.254-0.613L658.97,20.712z"/>
				<polygon opacity="0.1" fill="#FFFFFF" enable-background="new    " points="642.638,20.712 658.97,20.712 658.969,36.398 				
					"/>
				<g>
					<g>
						<g>
							<g>
								<path fill="#B1DBE2" d="M648.725,24.723c-0.001,0.083-0.068,0.152-0.15,0.152h-6.23c-0.082,0-0.15-0.069-0.15-0.152v-2.004
									c0-0.083,0.068-0.151,0.15-0.151h6.23c0.082,0,0.15,0.069,0.15,0.151V24.723z"/>
							</g>
						</g>
						<g>
							<g>
								<path fill="#B1DBE2" d="M652.951,24.723c0,0.083-0.069,0.152-0.153,0.152h-2.001c-0.082,0-0.15-0.069-0.15-0.152V22.72
									c0-0.083,0.068-0.152,0.15-0.152h2.001c0.085,0,0.153,0.069,0.153,0.152V24.723z"/>
							</g>
						</g>
						<g>
							<g>
								<path fill="#F2F9FF" d="M657.175,24.723c0,0.083-0.066,0.152-0.15,0.152h-2.004c-0.082,0-0.149-0.069-0.149-0.152V22.72
									c0-0.083,0.068-0.152,0.149-0.152h2.004c0.084,0,0.15,0.068,0.15,0.151V24.723z"/>
							</g>
						</g>
						<g>
							<g>
								<path fill="#F2F9FF" d="M644.499,28.949c0.001,0.083-0.068,0.15-0.149,0.15h-2.004c-0.082,0-0.15-0.067-0.15-0.15v-2.003
									c0-0.084,0.068-0.152,0.15-0.152h2.004c0.082,0,0.15,0.068,0.15,0.152L644.499,28.949z"/>
							</g>
						</g>
						<g>
							<g>
								<path fill="#F2F9FF" d="M648.725,28.949c-0.001,0.083-0.068,0.15-0.15,0.15h-2.004c-0.083,0-0.152-0.067-0.151-0.15v-2.003
									c-0.001-0.084,0.068-0.152,0.151-0.152h2.004c0.082,0,0.15,0.068,0.15,0.152V28.949z"/>
							</g>
						</g>
						<g>
							<g>
								<path fill="#F2F9FF" d="M652.951,28.949c0.001,0.083-0.068,0.151-0.152,0.151l-2.001-0.001c-0.082,0-0.151-0.068-0.151-0.15
									l0.001-2.003c0-0.084,0.068-0.152,0.15-0.152h2.001c0.085,0,0.153,0.068,0.153,0.152L652.951,28.949z"/>
							</g>
						</g>
						<g>
							<g>
								<path fill="#F2F9FF" d="M657.175,28.949c0,0.083-0.066,0.15-0.15,0.15h-2.004c-0.082,0-0.149-0.067-0.149-0.15v-2.003
									c0-0.084,0.068-0.152,0.149-0.152h2.004c0.084,0,0.15,0.067,0.15,0.152V28.949z"/>
							</g>
						</g>
						<g>
							<g>
								<path fill="#F2F9FF" d="M644.499,33.174c0,0.083-0.068,0.151-0.149,0.151h-2.004c-0.082,0-0.15-0.068-0.15-0.151V31.17
									c0-0.083,0.068-0.151,0.15-0.151h2.004c0.082,0,0.149,0.068,0.15,0.151L644.499,33.174z"/>
							</g>
						</g>
						<g>
							<g>
								<path fill="#F2F9FF" d="M648.725,33.174c0,0.083-0.068,0.151-0.15,0.151h-2.004c-0.083,0-0.152-0.068-0.152-0.151v-2.003
									c0-0.084,0.069-0.151,0.152-0.151h2.004c0.082,0,0.15,0.068,0.15,0.151V33.174z"/>
							</g>
						</g>
						<g>
							<path fill="#20364D" d="M652.951,33.175c-0.001,0.083-0.069,0.151-0.153,0.151h-2.001c-0.082,0-0.151-0.068-0.151-0.151
								v-2.003c0-0.083,0.069-0.151,0.151-0.151h2.001c0.084,0,0.152,0.068,0.153,0.151V33.175z"/>
						</g>
						<g>
							<g>
								<path fill="#F2F9FF" d="M644.499,37.399c0,0.084-0.068,0.151-0.15,0.151h-2.004c-0.082,0-0.15-0.067-0.15-0.151v-2.002
									c0-0.083,0.068-0.152,0.15-0.152h2.004c0.082,0,0.15,0.069,0.15,0.151V37.399z"/>
							</g>
						</g>
						<g>
							<g>
								<path fill="#F2F9FF" d="M648.725,37.4c0,0.084-0.068,0.15-0.15,0.15h-2.004c-0.083,0-0.152-0.067-0.151-0.15l-0.001-2.002
									c0-0.083,0.069-0.152,0.152-0.152h2.004c0.083,0,0.15,0.069,0.15,0.152V37.4z"/>
							</g>
						</g>
						<g>
							<g>
								<path fill="#20364D" d="M652.951,37.399c0,0.084-0.068,0.151-0.153,0.151h-2.001c-0.082,0-0.15-0.067-0.15-0.151
									l-0.001-2.002c0.001-0.083,0.069-0.152,0.151-0.152h2.001c0.085,0,0.153,0.069,0.153,0.151V37.399z"/>
							</g>
						</g>
						<g>
							<path fill="#20364D" d="M657.175,37.399c0,0.084-0.066,0.151-0.15,0.151h-2.004c-0.082,0-0.149-0.067-0.149-0.151v-2.002
								c0-0.083,0.068-0.151,0.149-0.151h2.004c0.084,0,0.15,0.069,0.15,0.152V37.399z"/>
						</g>
						<g>
							<path fill="#20364D" d="M657.175,33.175c0,0.082-0.066,0.151-0.15,0.151h-2.004c-0.082,0-0.149-0.068-0.149-0.151v-2.004
								c0-0.083,0.068-0.151,0.149-0.151h2.004c0.084,0,0.15,0.068,0.15,0.151V33.175z"/>
						</g>
					</g>
				</g>
				<path fill="#365772" d="M658.969,13.256c0-0.222-0.086-0.443-0.254-0.612c-0.169-0.17-0.391-0.254-0.611-0.254H641.14
					c-0.222,0-0.444,0.084-0.612,0.255c-0.171,0.169-0.254,0.39-0.255,0.612l0.001,7.456h18.696L658.969,13.256z"/>
				<path fill="#2F4F6B" d="M642.345,19.215c-0.136,0-0.264-0.053-0.361-0.149c-0.096-0.096-0.15-0.224-0.15-0.361v-4.308
					c0-0.136,0.054-0.264,0.15-0.361c0.097-0.096,0.225-0.15,0.361-0.15h14.68c0.137,0,0.267,0.054,0.364,0.151
					c0.095,0.095,0.148,0.223,0.148,0.359v4.308c0,0.137-0.053,0.265-0.15,0.361c-0.094,0.096-0.225,0.149-0.361,0.149
					L642.345,19.215L642.345,19.215z"/>
				<path fill="#B1DBE2" d="M642.345,14.247c-0.038-0.001-0.077,0.014-0.106,0.044c-0.03,0.03-0.044,0.069-0.044,0.106v4.308
					c0,0.037,0.014,0.077,0.044,0.107s0.068,0.044,0.106,0.044h14.68c0.04,0,0.077-0.015,0.107-0.044
					c0.03-0.03,0.044-0.07,0.044-0.107v-4.308c0-0.038-0.013-0.077-0.044-0.106c-0.029-0.029-0.067-0.044-0.107-0.044H642.345z"/>
				<rect x="640.273" y="20.352" fill="#2F4F6B" width="18.696" height="0.36"/>
			</g>
		</g>
		<g>
			<g>
				<circle fill="#B1DBE2" cx="460.992" cy="88.338" r="17.398"/>
			</g>
			<g>
				<g>
					<g>
						<path fill="#0E303F" d="M471.078,100.697c0,0.501-0.407,0.907-0.906,0.907h-18.359c-0.5,0-0.906-0.406-0.906-0.907V77.023
							c0-0.5,0.406-0.907,0.906-0.907h18.359c0.499,0,0.906,0.407,0.906,0.907V100.697z"/>
						<path fill="#2C5871" d="M471.078,100.015c0,0.501-0.407,0.906-0.906,0.906h-18.359c-0.5,0-0.906-0.405-0.906-0.906V76.342
							c0-0.5,0.406-0.907,0.906-0.907h18.359c0.499,0,0.906,0.407,0.906,0.907V100.015z"/>
						<rect x="452.538" y="77.067" fill="#FFFFFF" width="16.909" height="22.224"/>
						<rect x="452.538" y="98.565" fill="#CFEAF9" width="16.909" height="0.725"/>
						<path fill="#8DC2D5" d="M464.918,78.246v-0.907c0-0.3-0.243-0.544-0.545-0.544h-6.763c-0.3,0-0.542,0.244-0.542,0.544v0.907
							H464.918z"/>
						<path fill="#A4D8E7" d="M464.918,77.851v-0.906c0-0.301-0.243-0.543-0.545-0.543h-6.763c-0.3,0-0.542,0.243-0.542,0.543v0.906
							H464.918z"/>
						<circle fill="#A4D8E7" cx="460.992" cy="76.342" r="1.268"/>
						<circle fill="#2C5871" cx="460.992" cy="76.342" r="0.543"/>
						<g>
							<rect x="456.63" y="83.008" fill="#A4D8E7" width="10.54" height="0.556"/>
							<rect x="456.63" y="85.284" fill="#A4D8E7" width="10.54" height="0.553"/>
							<rect x="456.63" y="87.559" fill="#A4D8E7" width="10.54" height="0.553"/>
							<rect x="456.63" y="89.833" fill="#A4D8E7" width="10.54" height="0.553"/>
						</g>
						<g>
							<path fill="#F9AA0D" d="M454.677,83.937c-0.07,0-0.135-0.028-0.184-0.078l-0.414-0.435c-0.098-0.101-0.093-0.261,0.008-0.357
								c0.101-0.097,0.261-0.092,0.358,0.009l0.217,0.227l0.735-0.896c0.089-0.108,0.249-0.123,0.357-0.034
								c0.107,0.088,0.123,0.248,0.035,0.356l-0.916,1.117c-0.046,0.056-0.113,0.09-0.186,0.092
								C454.683,83.937,454.678,83.937,454.677,83.937z"/>
						</g>
						<g>
							<path fill="#F9AA0D" d="M454.677,86.123c-0.07,0-0.137-0.029-0.184-0.078l-0.414-0.436c-0.098-0.102-0.093-0.262,0.008-0.359
								c0.101-0.096,0.261-0.092,0.358,0.01l0.217,0.228l0.735-0.897c0.089-0.109,0.249-0.124,0.357-0.036
								c0.107,0.089,0.123,0.249,0.035,0.357l-0.916,1.119c-0.046,0.056-0.113,0.089-0.186,0.092
								C454.683,86.123,454.678,86.123,454.677,86.123z"/>
						</g>
						<g>
							<path fill="#F9AA0D" d="M454.677,88.308c-0.07,0-0.137-0.029-0.184-0.078l-0.414-0.436c-0.098-0.101-0.093-0.262,0.008-0.358
								c0.101-0.097,0.261-0.093,0.358,0.008l0.217,0.229l0.735-0.896c0.089-0.109,0.249-0.124,0.357-0.035
								c0.107,0.088,0.123,0.248,0.035,0.356l-0.916,1.117c-0.046,0.056-0.113,0.09-0.186,0.092
								C454.683,88.308,454.678,88.308,454.677,88.308z"/>
						</g>
						<g>
							<path fill="#15AEBD" d="M461.468,96.317c-0.012,0-0.023-0.001-0.031-0.002c-0.143-0.025-0.21-0.196-0.252-0.342
								c-0.125-0.439-0.055-0.913,0.186-1.296c-0.041-0.13-0.095-0.258-0.163-0.378c-0.038-0.068-0.015-0.154,0.053-0.192
								c0.067-0.038,0.154-0.014,0.192,0.054c0.047,0.083,0.088,0.168,0.123,0.257c0.258-0.26,0.597-0.406,0.957-0.406
								c0.464,0,0.896,0.42,1.148,0.813c0.009,0.015,0.019,0.03,0.028,0.047c0.435-0.291,1.01-0.51,1.327-0.474
								c0.413,0.049,0.46,0.444,0.464,0.701c0.112-0.153,0.15-0.262,0.179-0.344c0.105-0.308,0.21-0.287,0.906-0.153l0.144,0.027
								c0.076,0.015,0.127,0.089,0.112,0.165c-0.015,0.076-0.086,0.127-0.165,0.112l-0.143-0.028
								c-0.306-0.059-0.527-0.101-0.577-0.086h0.001c0.008,0-0.003,0.03-0.011,0.056c-0.035,0.102-0.088,0.256-0.253,0.468
								c-0.113,0.145-0.218,0.26-0.347,0.215c-0.127-0.045-0.127-0.18-0.126-0.338c0.001-0.323-0.031-0.491-0.216-0.514
								c-0.273-0.032-0.796,0.196-1.161,0.445c0.113,0.257,0.161,0.521,0.04,0.681c-0.05,0.068-0.171,0.169-0.423,0.096
								c-0.342-0.098-0.322-0.337-0.307-0.409c0.028-0.142,0.154-0.3,0.332-0.449c-0.012-0.022-0.025-0.043-0.039-0.065
								c-0.201-0.314-0.56-0.682-0.91-0.682c-0.336,0-0.639,0.154-0.855,0.434c0.168,0.632,0.107,1.289-0.032,1.49
								C461.584,96.301,461.513,96.317,461.468,96.317z M461.47,95.127c-0.08,0.247-0.086,0.515-0.014,0.768
								c0.001,0.007,0.004,0.014,0.005,0.021C461.497,95.747,461.513,95.451,461.47,95.127z M463.608,95.301
								c-0.101,0.091-0.169,0.178-0.183,0.246c-0.003,0.013-0.009,0.047,0.108,0.08c0.077,0.023,0.113,0.014,0.119,0.007
								C463.678,95.601,463.676,95.481,463.608,95.301z"/>
						</g>
					</g>
				</g>
			</g>
		</g>
		<g>
			<g>
				<circle fill="#B1DBE2" cx="437.603" cy="31.973" r="17.398"/>
			</g>
			<g>
				<g>
					<g>
						<path fill="#2F4F6B" d="M438.768,23.274c-1.312-1.317-3.059-2.046-4.915-2.049c-1.862-0.003-3.612,0.722-4.931,2.04
							c-1.312,1.313-2.038,3.056-2.04,4.908c-0.007,3.836,3.109,6.964,6.947,6.971c1.861,0.003,3.614-0.722,4.934-2.042l0,0
							c1.311-1.311,2.036-3.054,2.039-4.904C440.805,26.342,440.083,24.593,438.768,23.274z M437.504,31.843
							c-0.985,0.984-2.287,1.522-3.674,1.52c-2.855-0.006-5.174-2.332-5.169-5.187c0.004-1.378,0.543-2.675,1.52-3.652
							c0.982-0.982,2.286-1.521,3.668-1.519c1.382,0.003,2.683,0.544,3.658,1.526c0.979,0.981,1.516,2.281,1.514,3.663
							C439.018,29.571,438.48,30.866,437.504,31.843z"/>
						<path fill="#2F4F6B" d="M448.109,42.505c-0.001,0.001-0.002,0.002-0.004,0.003c-0.729,0.726-1.911,0.724-2.638-0.006
							l-5.688-5.715c-0.726-0.73-0.723-1.909,0.004-2.635c0.001-0.001,0.002-0.002,0.004-0.003c0.73-0.727,1.91-0.724,2.638,0.006
							l5.687,5.715C448.837,40.6,448.835,41.778,448.109,42.505L448.109,42.505z"/>
						<g>
							<path fill="none" d="M438.38,32.72"/>
						</g>
						<path fill="#2F4F6B" d="M439.003,23.041c-1.376-1.38-3.205-2.143-5.15-2.147c-1.95-0.003-3.785,0.756-5.165,2.137
							c-1.375,1.375-2.134,3.201-2.137,5.141c-0.008,4.019,3.257,7.295,7.276,7.302c1.95,0.003,3.786-0.756,5.168-2.138
							c0,0,0,0,0-0.001c1.374-1.374,2.132-3.199,2.136-5.138C441.135,26.253,440.379,24.422,439.003,23.041z M438.262,32.6
							c-1.188,1.187-2.762,1.838-4.433,1.835c-3.448-0.006-6.246-2.814-6.24-6.261c0.004-1.663,0.655-3.228,1.834-4.407
							c1.186-1.185,2.76-1.836,4.429-1.835c1.668,0.004,3.235,0.657,4.416,1.842c1.18,1.184,1.829,2.754,1.826,4.421
							C440.089,29.858,439.44,31.422,438.262,32.6z"/>
						<g opacity="0.5">
							<path fill="#F99B1C" d="M432.72,22.878c0.044-0.009,0.088-0.018,0.133-0.026C432.808,22.86,432.764,22.868,432.72,22.878z"/>
							<path fill="#F99B1C" d="M437.292,32.366c-0.053,0.044-0.109,0.082-0.163,0.124C437.183,32.448,437.239,32.41,437.292,32.366z
								"/>
							<path fill="#F99B1C" d="M433.278,22.789c0.03-0.003,0.06-0.005,0.09-0.007C433.338,22.784,433.308,22.786,433.278,22.789z"/>
							<path fill="#F99B1C" d="M436.457,32.934c-0.082,0.044-0.165,0.085-0.248,0.125C436.293,33.019,436.375,32.979,436.457,32.934
								z"/>
							<path fill="#F99B1C" d="M436.885,32.671c-0.072,0.05-0.149,0.094-0.224,0.14C436.737,32.764,436.813,32.72,436.885,32.671z"
								/>
						</g>
						<g>
							<path fill="#365772" d="M440.518,34.918c-0.364,0.363-0.956,0.361-1.32-0.003l-1.161-1.199
								c-0.364-0.365-0.363-0.954,0.001-1.318l0.001-0.001c0.365-0.364,0.956-0.362,1.319,0.003l1.161,1.199
								C440.883,33.963,440.882,34.553,440.518,34.918C440.519,34.916,440.518,34.917,440.518,34.918z"/>
						</g>
					</g>
				</g>
			</g>
		</g>
		<g>
			<g>
				<circle fill="#B1DBE2" cx="582.862" cy="84.435" r="17.398"/>
			</g>
			<g>
				<path fill="#2F4F6B" d="M589.058,86.225h-1.18c-0.086-0.416-0.199-0.818-0.342-1.208l0.986-0.569
					c0.236-0.137,0.317-0.439,0.182-0.677l-0.989-1.712c-0.139-0.237-0.442-0.317-0.676-0.181l-1.025,0.592
					c-0.276-0.314-0.576-0.607-0.898-0.875l0.57-0.988c0.137-0.238,0.056-0.539-0.181-0.676l-1.711-0.989
					c-0.237-0.135-0.538-0.055-0.675,0.182l-0.59,1.024c-0.394-0.134-0.801-0.237-1.217-0.308v-1.142
					c0-0.272-0.22-0.495-0.494-0.495h-1.976c-0.276,0-0.497,0.223-0.497,0.495v1.181c-0.413,0.083-0.817,0.198-1.207,0.341
					l-0.567-0.986c-0.138-0.237-0.44-0.317-0.679-0.181l-1.713,0.99c-0.235,0.135-0.316,0.438-0.18,0.674l0.592,1.026
					c-0.314,0.276-0.608,0.575-0.874,0.896l-0.986-0.57c-0.24-0.136-0.54-0.054-0.678,0.182l-0.991,1.712
					c-0.135,0.236-0.055,0.539,0.183,0.675l1.023,0.591c-0.132,0.393-0.236,0.799-0.306,1.215h-1.142
					c-0.274,0-0.495,0.223-0.495,0.495v1.977c0,0.273,0.221,0.495,0.495,0.495h1.182c0.081,0.415,0.196,0.82,0.34,1.208
					l-0.987,0.569c-0.237,0.136-0.316,0.439-0.181,0.675l0.989,1.712c0.136,0.236,0.439,0.318,0.677,0.182l1.025-0.592
					c0.276,0.314,0.576,0.609,0.897,0.876l-0.57,0.989c-0.137,0.236-0.056,0.54,0.18,0.675l1.714,0.989
					c0.237,0.137,0.538,0.056,0.674-0.18l0.592-1.024c0.393,0.132,0.798,0.235,1.215,0.305v1.143c0,0.273,0.221,0.494,0.494,0.494
					l1.979,0.002c0.273,0,0.494-0.222,0.494-0.495v-1.181c0.412-0.083,0.816-0.198,1.207-0.34l0.571,0.984
					c0.137,0.238,0.436,0.318,0.673,0.181l1.715-0.989c0.234-0.136,0.316-0.438,0.179-0.676l-0.593-1.025
					c0.315-0.275,0.609-0.575,0.877-0.897l0.989,0.571c0.237,0.136,0.538,0.055,0.675-0.181l0.989-1.714
					c0.137-0.236,0.054-0.539-0.18-0.674l-1.025-0.592c0.134-0.391,0.235-0.799,0.309-1.214h1.141c0.272,0,0.494-0.222,0.494-0.496
					v-1.977C589.552,86.445,589.329,86.225,589.058,86.225z M579.939,92.947c-2.834,0-5.13-2.298-5.13-5.13
					c0-2.834,2.296-5.13,5.13-5.13c2.833,0,5.129,2.297,5.129,5.13C585.067,90.65,582.772,92.947,579.939,92.947z"/>
				<path fill="#2F4F6B" d="M579.937,81.571c-3.45,0-6.246,2.796-6.246,6.248c0,3.448,2.796,6.246,6.246,6.246
					c3.451,0,6.248-2.798,6.248-6.246C586.185,84.367,583.388,81.571,579.937,81.571z M579.939,92.947
					c-2.834,0-5.13-2.298-5.13-5.13c0-2.834,2.296-5.13,5.13-5.13c2.833,0,5.129,2.297,5.129,5.13
					C585.067,90.65,582.772,92.947,579.939,92.947z"/>
				<path fill="#2F4F6B" d="M594.575,76.761h-0.718c-0.167,0-0.347-0.128-0.399-0.287l-0.134-0.325
					c-0.074-0.148-0.039-0.366,0.079-0.484l0.508-0.507c0.117-0.118,0.117-0.31,0-0.427l-0.784-0.786
					c-0.117-0.117-0.311-0.117-0.428,0l-0.509,0.507c-0.118,0.118-0.334,0.153-0.484,0.078l-0.324-0.134
					c-0.158-0.052-0.287-0.231-0.287-0.398v-0.717c0-0.166-0.136-0.303-0.302-0.303h-1.11c-0.167,0-0.303,0.137-0.303,0.303v0.717
					c0,0.167-0.129,0.346-0.288,0.398l-0.323,0.134c-0.15,0.075-0.368,0.039-0.485-0.078l-0.507-0.507
					c-0.117-0.117-0.31-0.117-0.427,0l-0.785,0.786c-0.118,0.116-0.118,0.309,0,0.427l0.507,0.507
					c0.118,0.118,0.153,0.336,0.079,0.484l-0.133,0.325c-0.053,0.158-0.233,0.287-0.399,0.287h-0.718
					c-0.165,0-0.302,0.136-0.302,0.303v1.109c0,0.166,0.137,0.303,0.302,0.303h0.718c0.166,0,0.346,0.128,0.399,0.286l0.133,0.324
					c0.074,0.149,0.039,0.367-0.079,0.485l-0.507,0.508c-0.118,0.117-0.118,0.31,0,0.427l0.785,0.785
					c0.117,0.118,0.31,0.118,0.427,0l0.507-0.508c0.117-0.118,0.335-0.153,0.485-0.079l0.323,0.134
					c0.159,0.053,0.288,0.232,0.288,0.398v0.718c0,0.166,0.136,0.303,0.303,0.303h1.11c0.166,0,0.302-0.136,0.302-0.303v-0.718
					c0-0.166,0.129-0.345,0.287-0.398l0.324-0.134c0.149-0.074,0.366-0.039,0.484,0.079l0.509,0.508
					c0.117,0.118,0.311,0.118,0.428,0l0.784-0.785c0.117-0.117,0.117-0.311,0-0.427l-0.508-0.508
					c-0.118-0.118-0.153-0.336-0.079-0.485l0.134-0.324c0.052-0.158,0.232-0.286,0.399-0.286h0.718c0.166,0,0.302-0.137,0.302-0.303
					v-1.109C594.877,76.897,594.741,76.761,594.575,76.761z M590.237,79.08c-0.808,0-1.462-0.655-1.462-1.462
					c0-0.808,0.654-1.463,1.462-1.463c0.807,0,1.462,0.654,1.462,1.463C591.699,78.425,591.044,79.08,590.237,79.08z"/>
				<path fill="#2F4F6B" d="M590.252,79.08c-0.006,0-0.01,0.001-0.015,0.001c-0.808,0-1.462-0.655-1.462-1.462
					c0-0.808,0.654-1.463,1.462-1.463c0.005,0,0.009,0,0.015,0v-3.178h-0.57c-0.167,0-0.303,0.137-0.303,0.303v0.717
					c0,0.167-0.129,0.346-0.288,0.398l-0.323,0.134c-0.15,0.075-0.368,0.039-0.485-0.078l-0.507-0.507
					c-0.117-0.117-0.31-0.117-0.427,0l-0.785,0.786c-0.118,0.116-0.118,0.309,0,0.427l0.507,0.507
					c0.118,0.118,0.153,0.336,0.079,0.484l-0.133,0.325c-0.053,0.158-0.233,0.287-0.399,0.287H585.9
					c-0.165,0-0.302,0.136-0.302,0.303v1.109c0,0.166,0.137,0.303,0.302,0.303h0.718c0.166,0,0.346,0.128,0.399,0.286l0.133,0.324
					c0.074,0.149,0.039,0.367-0.079,0.485l-0.507,0.508c-0.118,0.117-0.118,0.31,0,0.427l0.785,0.785
					c0.117,0.118,0.31,0.118,0.427,0l0.507-0.508c0.117-0.118,0.335-0.153,0.485-0.079l0.323,0.134
					c0.159,0.053,0.288,0.232,0.288,0.398v0.718c0,0.166,0.136,0.303,0.303,0.303h0.57V79.08z"/>
			</g>
		</g>
		<g>
			<circle fill="#B1DBE2" cx="533.726" cy="37.819" r="17.416"/>
			<g>
				<g>
					<polygon fill="#2F4F6B" points="524.635,47.219 527.356,44.311 538.444,44.311 538.444,41.205 528.397,41.205 527.857,41.205 
						527.857,40.657 527.857,33.955 523.024,33.955 523.024,44.311 524.635,44.311 					"/>
					<path fill="#FFFFFF" d="M539.924,40.629l2.777,3.071v-3.071h1.726V29.928h-15.995v4.027v6.675h10.011L539.924,40.629
						L539.924,40.629z M541.788,34.162c0.673,0,1.217,0.545,1.217,1.217c0,0.673-0.544,1.218-1.217,1.218
						c-0.672,0-1.217-0.545-1.217-1.218C540.571,34.707,541.116,34.162,541.788,34.162 M531.556,36.597
						c-0.673,0-1.218-0.545-1.218-1.218c0-0.672,0.545-1.217,1.218-1.217c0.672,0,1.217,0.545,1.217,1.217
						C532.773,36.052,532.229,36.597,531.556,36.597 M534.966,36.597c-0.672,0-1.217-0.545-1.217-1.218
						c0-0.672,0.545-1.217,1.217-1.217c0.674,0,1.218,0.545,1.218,1.217C536.184,36.052,535.64,36.597,534.966,36.597
						 M538.377,36.597c-0.672,0-1.219-0.545-1.219-1.218c0-0.672,0.547-1.217,1.219-1.217c0.023,0,0.044,0.003,0.067,0.004
						c0.641,0.035,1.15,0.564,1.15,1.214s-0.509,1.179-1.15,1.214C538.422,36.595,538.4,36.597,538.377,36.597"/>
				</g>
			</g>
		</g>
		<polyline fill="none" stroke="#5E9499" stroke-miterlimit="10" stroke-dasharray="4.7339" points="546.751,52.007 557.18,63.546 
			634.317,63.546 649.685,47.219 		"/>
		<polyline fill="none" stroke="#5E9499" stroke-miterlimit="10" stroke-dasharray="4.7339" points="473.413,101.834 
			483.368,114.941 561.772,114.941 572.285,100.069 		"/>
		<polyline fill="none" stroke="#5E9499" stroke-miterlimit="10" stroke-dasharray="4.7339" points="450.075,15.655 462.069,2.671 
			515.812,2.671 530.237,18.856 		"/>
		<g>
			<path fill="#00BFCF" d="M482.078,25.921c2.235-2.235,5.651-2.554,8.234-0.975c-0.875,0.866-1.885,1.877-1.885,1.877
				c-0.705,0.849,0.087,1.337,0.49,1.323h4.721c0.248,0,0.452,0,0.452,0h0.455h0.915c0.25,0,0.452-0.203,0.454-0.453v-6.489
				c0.029-0.593-0.624-1.17-1.297-0.506c0,0-1.115,1.085-1.883,1.847c-3.932-2.874-9.474-2.547-13.026,1.005
				c-2.073,2.073-3.039,4.823-2.925,7.537h3.358C480.022,29.233,480.659,27.339,482.078,25.921"/>
			<path fill="#00BFCF" d="M493.243,29.959c0.119,1.856-0.517,3.749-1.937,5.169c-2.236,2.234-5.652,2.554-8.234,0.974
				c0.875-0.866,1.884-1.877,1.884-1.877c0.707-0.847-0.086-1.337-0.49-1.323l-4.718,0.001c-0.249,0-0.454-0.001-0.454-0.001h-0.455
				h-0.916c-0.249,0-0.453,0.204-0.454,0.453v6.489c-0.027,0.592,0.624,1.167,1.297,0.505c0,0,1.113-1.085,1.883-1.846
				c3.933,2.874,9.476,2.549,13.027-1.004c2.071-2.073,3.039-4.822,2.924-7.538h-3.358L493.243,29.959L493.243,29.959z"/>
		</g>
		<polygon fill="#00BFCF" points="501.511,90.709 492.299,99.922 488.817,96.441 485.205,100.054 488.686,103.535 492.299,107.147 
			495.911,103.535 505.124,94.322 		"/>
		<g>
			<path fill="#00BFCF" d="M612.347,57.915h-25.116v2.316h25.116V57.915z M611.235,59.351h-2.039v-0.557h2.039V59.351z"/>
			<path fill="#00BFCF" d="M611.165,43.052h-22.753v14.155h22.754L611.165,43.052L611.165,43.052z M608.64,55.192h-17.701V45.065
				h17.701V55.192z"/>
		</g>
	</g>
</g>
</svg>
