<?xml version="1.0" encoding="utf-8"?>
<!-- Generator: Adobe Illustrator 17.0.0, SVG Export Plug-In . SVG Version: 6.00 Build 0)  -->
<!DOCTYPE svg PUBLIC "-//W3C//DTD SVG 1.1//EN" "http://www.w3.org/Graphics/SVG/1.1/DTD/svg11.dtd">
<svg version="1.1" id="Capa_1" xmlns="http://www.w3.org/2000/svg" xmlns:xlink="http://www.w3.org/1999/xlink" x="0px" y="0px"
	 width="800px" height="212.454px" viewBox="0 409.625 800 212.454" enable-background="new 0 409.625 800 212.454"
	 xml:space="preserve">
<g id="Background">
	<rect y="409.625" fill="#63BFCE" width="800" height="212.454"/>
	<rect y="409.625" fill="#BEDBE2" width="800" height="121.954"/>
</g>
<g id="Objects">
	<g id="Design">
		<g id="business">
			<g>
				<g>
					<g>
						<rect x="297.736" y="523.51" fill="#E6E7E8" width="3.625" height="25.652"/>
						<polygon fill="#E6E7E8" points="286.723,554.46 285.12,554.46 297.736,549.162 299.967,551.812 						"/>
						<polygon fill="#E6E7E8" points="311.756,554.46 313.987,554.46 301.37,549.162 299.139,551.812 						"/>
						<rect x="297.736" y="549.162" fill="#E6E7E8" width="3.625" height="2.274"/>
						<polygon fill="#E6E7E8" points="300.351,556.099 298.763,556.099 298.08,548.422 301.018,548.422 						"/>
						<rect x="285.12" y="554.46" fill="#E6E7E8" width="1.603" height="1.639"/>
						<rect x="312.383" y="554.46" fill="#E6E7E8" width="1.603" height="1.639"/>
						<g>
							<polyline fill="#273244" points="286.102,525.323 312.996,525.323 312.996,521.089 286.102,521.089 							"/>
							<polyline fill="#041728" points="286.102,525.323 312.996,525.323 312.996,523.51 286.102,523.51 							"/>
							<polyline fill="#041728" points="286.102,521.089 312.996,521.089 312.996,482.405 286.102,482.405 							"/>
						</g>
						<rect x="294.774" y="525.289" fill="#041728" width="9.55" height="1.951"/>
						<ellipse fill="#231F20" cx="285.751" cy="556.123" rx="1.008" ry="1.017"/>
						<ellipse fill="#231F20" cx="299.446" cy="556.123" rx="1.008" ry="1.017"/>
						<ellipse fill="#231F20" cx="313.148" cy="556.123" rx="1.008" ry="1.017"/>
					</g>
					<g>
						<path fill="#22313D" d="M290.548,505.93c0,0-6.695,6.744-0.025,15.159c8.745,0,18.89,0,18.89,0s2.687-2.907,2.616-7.58
							c-0.059-3.892-3.142-7.579-3.142-7.579L290.548,505.93L290.548,505.93z"/>
					</g>
				</g>
			</g>
			<g>
				<g>
					<g>
						<rect x="367.723" y="523.51" fill="#E6E7E8" width="3.625" height="25.652"/>
						<polygon fill="#E6E7E8" points="356.71,554.46 355.107,554.46 367.723,549.162 369.955,551.812 						"/>
						<polygon fill="#E6E7E8" points="381.743,554.46 383.974,554.46 371.357,549.162 369.126,551.812 						"/>
						<rect x="367.723" y="549.162" fill="#E6E7E8" width="3.625" height="2.274"/>
						<polygon fill="#E6E7E8" points="370.338,556.099 368.751,556.099 368.067,548.422 371.005,548.422 						"/>
						<rect x="355.107" y="554.46" fill="#E6E7E8" width="1.603" height="1.639"/>
						<rect x="382.371" y="554.46" fill="#E6E7E8" width="1.603" height="1.639"/>
						<g>
							<polyline fill="#273244" points="356.09,525.323 382.983,525.323 382.983,521.089 356.09,521.089 							"/>
							<polyline fill="#041728" points="356.09,525.323 382.983,525.323 382.983,523.51 356.09,523.51 							"/>
							<polyline fill="#041728" points="356.09,521.089 382.983,521.089 382.983,482.405 356.09,482.405 							"/>
						</g>
						<rect x="364.761" y="525.289" fill="#041728" width="9.55" height="1.951"/>
						<ellipse fill="#231F20" cx="355.739" cy="556.123" rx="1.007" ry="1.017"/>
						<ellipse fill="#231F20" cx="369.433" cy="556.123" rx="1.007" ry="1.017"/>
						<ellipse fill="#231F20" cx="383.135" cy="556.123" rx="1.007" ry="1.017"/>
					</g>
				</g>
			</g>
			<g>
				<g>
					<g>
						<rect x="439.52" y="523.51" fill="#E6E7E8" width="3.625" height="25.652"/>
						<polygon fill="#E6E7E8" points="428.506,554.46 426.903,554.46 439.52,549.162 441.751,551.812 						"/>
						<polygon fill="#E6E7E8" points="453.539,554.46 455.771,554.46 443.154,549.162 440.923,551.812 						"/>
						<rect x="439.52" y="549.162" fill="#E6E7E8" width="3.625" height="2.274"/>
						<polygon fill="#E6E7E8" points="442.135,556.099 440.547,556.099 439.863,548.422 442.802,548.422 						"/>
						<rect x="426.903" y="554.46" fill="#E6E7E8" width="1.603" height="1.639"/>
						<rect x="454.167" y="554.46" fill="#E6E7E8" width="1.603" height="1.639"/>
						<g>
							<polyline fill="#273244" points="427.886,525.323 454.779,525.323 454.779,521.089 427.886,521.089 							"/>
							<polyline fill="#041728" points="427.886,525.323 454.779,525.323 454.779,523.51 427.886,523.51 							"/>
							<polyline fill="#041728" points="427.886,521.089 454.779,521.089 454.779,482.405 427.886,482.405 							"/>
						</g>
						<rect x="436.557" y="525.289" fill="#041728" width="9.55" height="1.951"/>
						<ellipse fill="#231F20" cx="427.535" cy="556.123" rx="1.007" ry="1.017"/>
						<ellipse fill="#231F20" cx="441.229" cy="556.123" rx="1.007" ry="1.017"/>
						<ellipse fill="#231F20" cx="454.932" cy="556.123" rx="1.008" ry="1.017"/>
					</g>
				</g>
			</g>
			<g>
				<g>
					<rect x="244.695" y="523.457" fill="#F9FDFF" width="4.031" height="28.526"/>
					<polygon fill="#F9FDFF" points="232.448,557.873 230.664,557.873 244.695,551.982 247.175,554.929 					"/>
					<polygon fill="#F9FDFF" points="260.285,557.873 262.765,557.873 248.736,551.982 246.255,554.929 					"/>
					<rect x="244.695" y="551.982" fill="#F9FDFF" width="4.031" height="2.529"/>
					<polygon fill="#F9FDFF" points="247.602,559.696 245.837,559.696 245.076,551.159 248.344,551.159 					"/>
					<rect x="230.664" y="557.873" fill="#F9FDFF" width="1.784" height="1.822"/>
					<rect x="260.982" y="557.873" fill="#F9FDFF" width="1.783" height="1.822"/>
					<g>
						<polygon fill="#1D2A3D" points="216.563,482.405 230.724,525.472 260.982,525.472 260.982,520.763 234.735,520.763 
							221.578,482.884 						"/>
						<polygon fill="#041728" points="232.12,523.457 218.534,482.593 216.563,482.405 230.724,525.472 260.982,525.472 
							260.982,523.457 						"/>
					</g>
					<rect x="241.4" y="525.435" fill="#041728" width="10.619" height="2.17"/>
					<circle fill="#231F20" cx="231.556" cy="559.873" r="1.115"/>
					<circle fill="#231F20" cx="246.711" cy="559.873" r="1.115"/>
					<circle fill="#231F20" cx="261.874" cy="559.873" r="1.115"/>
				</g>
				<polygon fill="#1D2A3D" points="255.644,522.767 248.562,504.583 226.996,504.583 226.996,501.972 250.347,501.972 
					258.077,521.819 				"/>
			</g>
			<g>
				<g>
					<rect x="528.887" y="523.457" fill="#F9FDFF" width="4.031" height="28.526"/>
					<polygon fill="#F9FDFF" points="545.165,557.873 546.948,557.873 532.917,551.982 530.437,554.929 					"/>
					<polygon fill="#F9FDFF" points="517.327,557.873 514.846,557.873 528.877,551.982 531.357,554.929 					"/>
					<rect x="528.887" y="551.982" fill="#F9FDFF" width="4.031" height="2.529"/>
					<polygon fill="#F9FDFF" points="530.01,559.696 531.775,559.696 532.535,551.159 529.267,551.159 					"/>
					<rect x="545.165" y="557.873" fill="#F9FDFF" width="1.783" height="1.822"/>
					<rect x="514.846" y="557.873" fill="#F9FDFF" width="1.783" height="1.822"/>
					<g>
						<polygon fill="#273244" points="561.048,482.405 546.888,525.472 516.629,525.472 516.629,520.763 542.876,520.763 
							556.034,482.884 						"/>
						<polygon fill="#041728" points="545.492,523.457 559.078,482.593 561.048,482.405 546.888,525.472 516.629,525.472 
							516.629,523.457 						"/>
					</g>
					<rect x="525.592" y="525.435" fill="#041728" width="10.62" height="2.17"/>
					<circle fill="#231F20" cx="546.056" cy="559.873" r="1.115"/>
					<circle fill="#231F20" cx="530.901" cy="559.873" r="1.115"/>
					<circle fill="#231F20" cx="515.738" cy="559.873" r="1.115"/>
				</g>
				<polygon fill="#1D2A3D" points="521.914,522.767 528.996,504.583 550.818,504.583 550.818,501.972 527.21,501.972 
					519.48,521.819 				"/>
			</g>
			<g>
				<rect x="259.412" y="492.932" fill="#F9FDFF" width="5.606" height="68.89"/>
				<rect x="517.47" y="492.932" fill="#F9FDFF" width="5.606" height="68.89"/>
				<rect x="259.412" y="492.932" fill="#C4996C" width="263.665" height="5.124"/>
			</g>
			<g>
				<g>
					<g>
						<g>
							<rect x="330.842" y="531.046" fill="#E6E7E8" width="4.31" height="31.065"/>
							<polygon fill="#E6E7E8" points="317.747,568.526 315.841,568.526 330.842,562.111 333.495,565.319 							"/>
							<polygon fill="#E6E7E8" points="347.511,568.526 350.164,568.526 335.162,562.111 332.51,565.319 							"/>
							<rect x="330.842" y="562.111" fill="#E6E7E8" width="4.31" height="2.754"/>
							<polygon fill="#E6E7E8" points="333.951,570.511 332.063,570.511 331.25,561.214 334.744,561.214 							"/>
							<rect x="315.841" y="568.526" fill="#E6E7E8" width="1.906" height="1.985"/>
							<rect x="348.257" y="568.526" fill="#E6E7E8" width="1.906" height="1.985"/>
							<g>
								<polyline fill="#041728" points="317.009,531.046 348.986,531.046 348.986,483.54 317.009,483.54 								"/>
							</g>
							<rect x="327.32" y="533.2" fill="#041728" width="11.355" height="2.363"/>
							<ellipse fill="#231F20" cx="316.592" cy="570.539" rx="1.198" ry="1.231"/>
							<ellipse fill="#231F20" cx="332.874" cy="570.539" rx="1.198" ry="1.231"/>
							<ellipse fill="#231F20" cx="349.167" cy="570.539" rx="1.198" ry="1.231"/>
						</g>
					</g>
				</g>
			</g>
			<g>
				<g>
					<g>
						<g>
							<rect x="472.803" y="531.046" fill="#E6E7E8" width="4.31" height="31.065"/>
							<polygon fill="#E6E7E8" points="459.708,568.526 457.802,568.526 472.803,562.111 475.456,565.319 							"/>
							<polygon fill="#E6E7E8" points="489.472,568.526 492.124,568.526 477.122,562.111 474.47,565.319 							"/>
							<rect x="472.803" y="562.111" fill="#E6E7E8" width="4.31" height="2.754"/>
							<polygon fill="#E6E7E8" points="475.912,570.511 474.025,570.511 473.211,561.214 476.706,561.214 							"/>
							<rect x="457.802" y="568.526" fill="#E6E7E8" width="1.906" height="1.985"/>
							<rect x="490.218" y="568.526" fill="#E6E7E8" width="1.906" height="1.985"/>
							<g>
								<polyline fill="#041728" points="458.97,533.241 490.947,533.241 490.947,531.046 458.97,531.046 								"/>
								<polyline fill="#041728" points="458.97,531.046 490.947,531.046 490.947,483.54 458.97,483.54 								"/>
							</g>
							<rect x="469.281" y="533.2" fill="#041728" width="11.354" height="2.363"/>
							<ellipse fill="#231F20" cx="458.552" cy="570.539" rx="1.198" ry="1.231"/>
							<ellipse fill="#231F20" cx="474.835" cy="570.539" rx="1.198" ry="1.231"/>
							<ellipse fill="#231F20" cx="491.127" cy="570.539" rx="1.198" ry="1.231"/>
						</g>
					</g>
				</g>
			</g>
			<g>
				<g>
					<g>
						<g>
							<rect x="404.314" y="531.046" fill="#E6E7E8" width="4.31" height="31.065"/>
							<polygon fill="#E6E7E8" points="391.219,568.526 389.313,568.526 404.314,562.111 406.967,565.319 							"/>
							<polygon fill="#E6E7E8" points="420.983,568.526 423.635,568.526 408.634,562.111 405.981,565.319 							"/>
							<rect x="404.314" y="562.111" fill="#E6E7E8" width="4.31" height="2.754"/>
							<polygon fill="#E6E7E8" points="407.423,570.511 405.536,570.511 404.722,561.214 408.217,561.214 							"/>
							<rect x="389.313" y="568.526" fill="#E6E7E8" width="1.906" height="1.985"/>
							<rect x="421.729" y="568.526" fill="#E6E7E8" width="1.906" height="1.985"/>
							<g>
								<polyline fill="#041728" points="390.481,533.241 422.457,533.241 422.457,531.046 390.481,531.046 								"/>
								<polyline fill="#041728" points="390.481,531.046 422.457,531.046 422.457,483.54 390.481,483.54 								"/>
							</g>
							<rect x="400.791" y="533.2" fill="#041728" width="11.355" height="2.363"/>
							<ellipse fill="#231F20" cx="390.064" cy="570.539" rx="1.199" ry="1.231"/>
							<ellipse fill="#231F20" cx="406.346" cy="570.539" rx="1.198" ry="1.231"/>
							<ellipse fill="#231F20" cx="422.639" cy="570.539" rx="1.199" ry="1.231"/>
						</g>
					</g>
				</g>
			</g>
		</g>
	</g>
	<g>
		<g>
			<path fill="#F9B49B" d="M448.252,529.24c0.372,0,1.076-0.566,0.394-0.566C448.273,528.674,447.57,529.24,448.252,529.24
				L448.252,529.24z"/>
		</g>
	</g>
	<g>
		<g>
			<path fill="#F9B49B" d="M448.251,529.237c0.369,0,1.077-0.56,0.396-0.56C448.277,528.677,447.569,529.237,448.251,529.237
				L448.251,529.237z"/>
		</g>
	</g>
</g>
</svg>
